<svg xmlns="http://www.w3.org/2000/svg" width="760" height="420" viewBox="0 0 760 420">
<defs>
<clipPath id="c1" clipPathUnits="userSpaceOnUse"><path d="M43 59 L736 59 L736 389 L43 389 L43 59 Z"/></clipPath>
</defs>
<path d="M0 0 L760 0 L760 420 L0 420 L0 0 Z" fill="#FAF6EF" fill-opacity="1"/>
<path d="M24.734 20.625 Q23.37 21.235 21.478 21.235 Q19.167 21.235 17.879 19.934 Q16.59 18.632 16.59 16.303 Q16.59 13.929 17.888 12.65 Q19.187 11.371 21.592 11.371 Q23.128 11.371 24.646 11.732 L24.646 13.262 Q22.925 12.659 21.764 12.659 Q20.278 12.659 19.472 13.602 Q18.666 14.544 18.666 16.277 Q18.666 17.979 19.532 18.931 Q20.399 19.883 21.941 19.883 Q23.325 19.883 24.734 19.185 Z M30.746 21 L30.746 19.686 Q29.832 21.159 28.372 21.159 Q27.438 21.159 26.899 20.568 Q26.359 19.978 26.359 18.956 L26.359 14.03 L28.238 14.03 L28.238 18.493 Q28.238 19.68 29.032 19.68 Q29.92 19.68 30.746 18.417 L30.746 14.03 L32.625 14.03 L32.625 21 Z M34.973 23.507 L34.973 14.03 L36.852 14.03 L36.852 15.344 Q37.576 13.872 39.131 13.872 Q40.388 13.872 41.108 14.792 Q41.829 15.712 41.829 17.325 Q41.829 19.077 41.016 20.118 Q40.204 21.159 38.839 21.159 Q37.741 21.159 36.852 20.295 L36.852 23.507 Z M36.852 19.178 Q37.538 19.94 38.312 19.94 Q39.004 19.94 39.417 19.27 Q39.829 18.601 39.829 17.483 Q39.829 15.344 38.452 15.344 Q37.62 15.344 36.852 16.417 Z M43.403 20.778 L43.403 19.4 Q44.799 19.984 45.79 19.984 Q46.945 19.984 46.945 19.197 Q46.945 18.689 45.993 18.309 L45.358 18.055 Q44.323 17.636 43.879 17.153 Q43.435 16.671 43.435 15.96 Q43.435 14.97 44.19 14.421 Q44.945 13.872 46.304 13.872 Q47.154 13.872 48.329 14.119 L48.329 15.439 Q47.199 15.046 46.456 15.046 Q45.288 15.046 45.288 15.77 Q45.288 16.246 46.151 16.576 L46.697 16.785 Q47.922 17.249 48.402 17.725 Q48.881 18.201 48.881 18.95 Q48.881 19.934 48.065 20.546 Q47.25 21.159 45.942 21.159 Q44.685 21.159 43.403 20.778 Z M55.038 20.778 L55.038 19.4 Q56.435 19.984 57.425 19.984 Q58.58 19.984 58.58 19.197 Q58.58 18.689 57.628 18.309 L56.993 18.055 Q55.958 17.636 55.514 17.153 Q55.07 16.671 55.07 15.96 Q55.07 14.97 55.825 14.421 Q56.581 13.872 57.939 13.872 Q58.79 13.872 59.964 14.119 L59.964 15.439 Q58.834 15.046 58.091 15.046 Q56.923 15.046 56.923 15.77 Q56.923 16.246 57.787 16.576 L58.333 16.785 Q59.558 17.249 60.037 17.725 Q60.516 18.201 60.516 18.95 Q60.516 19.934 59.7 20.546 Q58.885 21.159 57.577 21.159 Q56.32 21.159 55.038 20.778 Z M65.499 21.159 Q63.868 21.159 62.906 20.172 Q61.944 19.185 61.944 17.515 Q61.944 15.827 62.912 14.849 Q63.88 13.872 65.543 13.872 Q67.213 13.872 68.181 14.849 Q69.149 15.827 69.149 17.502 Q69.149 19.216 68.178 20.188 Q67.207 21.159 65.499 21.159 Z M65.531 19.984 Q67.149 19.984 67.149 17.502 Q67.149 16.366 66.721 15.706 Q66.292 15.046 65.543 15.046 Q64.801 15.046 64.372 15.706 Q63.944 16.366 63.944 17.515 Q63.944 18.651 64.369 19.318 Q64.794 19.984 65.531 19.984 Z M70.875 21 L70.875 10.977 L72.754 10.977 L72.754 21 Z M79.489 21 L79.489 19.686 Q78.766 21.159 77.21 21.159 Q75.954 21.159 75.236 20.238 Q74.519 19.318 74.519 17.706 Q74.519 15.954 75.328 14.913 Q76.138 13.872 77.502 13.872 Q78.594 13.872 79.489 14.735 L79.489 10.977 L81.375 10.977 L81.375 21 Z M79.489 15.852 Q78.81 15.09 78.036 15.09 Q77.344 15.09 76.931 15.757 Q76.519 16.423 76.519 17.547 Q76.519 19.686 77.89 19.686 Q78.728 19.686 79.489 18.613 Z" fill="#2B2620" fill-opacity="1"/>
<path d="M93.493 21.14 Q92.184 21.14 91.404 20.273 Q90.623 19.405 90.623 17.951 Q90.623 16.48 91.407 15.623 Q92.19 14.767 93.532 14.767 Q94.874 14.767 95.657 15.623 Q96.441 16.48 96.441 17.94 Q96.441 19.433 95.655 20.287 Q94.868 21.14 93.493 21.14 Z M93.51 20.309 Q95.267 20.309 95.267 17.94 Q95.267 15.598 93.532 15.598 Q91.802 15.598 91.802 17.951 Q91.802 20.309 93.51 20.309 Z M98.17 21 L98.17 14.902 L99.276 14.902 L99.276 16.047 Q100.152 14.767 101.421 14.767 Q102.213 14.767 102.685 15.27 Q103.156 15.772 103.156 16.62 L103.156 21 L102.05 21 L102.05 16.979 Q102.05 16.3 101.851 16.011 Q101.652 15.722 101.191 15.722 Q100.175 15.722 99.276 17.052 L99.276 21 Z M109.777 20.803 Q108.665 21.14 107.873 21.14 Q106.526 21.14 105.675 20.245 Q104.824 19.349 104.824 17.923 Q104.824 16.536 105.574 15.649 Q106.323 14.761 107.491 14.761 Q108.598 14.761 109.201 15.548 Q109.805 16.334 109.805 17.782 L109.799 18.125 L105.953 18.125 Q106.194 20.298 108.081 20.298 Q108.772 20.298 109.777 19.927 Z M106.003 17.294 L108.693 17.294 Q108.693 15.593 107.424 15.593 Q106.149 15.593 106.003 17.294 Z M117.734 21.14 Q116.498 21.14 115.684 20.225 Q114.87 19.31 114.87 17.917 Q114.87 16.429 115.676 15.598 Q116.481 14.767 117.925 14.767 Q118.638 14.767 119.519 14.964 L119.519 15.89 Q118.582 15.615 117.992 15.615 Q117.144 15.615 116.63 16.252 Q116.116 16.89 116.116 17.951 Q116.116 18.979 116.644 19.613 Q117.172 20.248 118.026 20.248 Q118.784 20.248 119.587 19.86 L119.587 20.815 Q118.514 21.14 117.734 21.14 Z M124.388 20.225 Q123.394 21.14 122.473 21.14 Q121.715 21.14 121.215 20.666 Q120.715 20.191 120.715 19.467 Q120.715 18.468 121.555 17.931 Q122.394 17.395 123.961 17.395 L124.225 17.395 L124.225 16.659 Q124.225 15.598 123.135 15.598 Q122.26 15.598 121.243 16.137 L121.243 15.222 Q122.361 14.767 123.338 14.767 Q124.36 14.767 124.845 15.228 Q125.331 15.688 125.331 16.659 L125.331 19.422 Q125.331 20.371 125.915 20.371 Q125.988 20.371 126.128 20.349 L126.207 20.961 Q125.831 21.14 125.376 21.14 Q124.601 21.14 124.388 20.225 Z M124.225 19.624 L124.225 18.046 L123.854 18.035 Q122.945 18.035 122.383 18.38 Q121.822 18.726 121.822 19.287 Q121.822 19.686 122.102 19.961 Q122.383 20.236 122.787 20.236 Q123.478 20.236 124.225 19.624 Z M128.914 15.733 L128.914 21 L127.802 21 L127.802 15.733 L126.937 15.733 L126.937 14.902 L127.802 14.902 L127.802 14.172 Q127.802 11.993 129.79 11.993 Q130.345 11.993 131.053 12.178 L131.053 13.054 Q130.306 12.824 129.857 12.824 Q129.312 12.824 129.113 13.085 Q128.914 13.346 128.914 14.054 L128.914 14.902 L130.435 14.902 L130.435 15.733 Z M136.292 20.803 Q135.18 21.14 134.388 21.14 Q133.041 21.14 132.19 20.245 Q131.339 19.349 131.339 17.923 Q131.339 16.536 132.089 15.649 Q132.839 14.761 134.007 14.761 Q135.113 14.761 135.716 15.548 Q136.32 16.334 136.32 17.782 L136.314 18.125 L132.468 18.125 Q132.709 20.298 134.596 20.298 Q135.287 20.298 136.292 19.927 Z M132.519 17.294 L135.208 17.294 Q135.208 15.593 133.939 15.593 Q132.665 15.593 132.519 17.294 Z M133.08 13.796 L134.433 11.993 L135.714 11.993 L133.911 13.796 Z M138.246 22.802 L138.246 22.387 Q138.785 22.235 138.785 21.112 L138.785 21 L138.246 21 L138.246 19.613 L139.633 19.613 L139.633 20.815 Q139.633 22.662 138.246 22.802 Z M147.893 21.14 Q146.585 21.14 145.804 20.273 Q145.024 19.405 145.024 17.951 Q145.024 16.48 145.807 15.623 Q146.59 14.767 147.932 14.767 Q149.274 14.767 150.058 15.623 Q150.841 16.48 150.841 17.94 Q150.841 19.433 150.055 20.287 Q149.269 21.14 147.893 21.14 Z M147.91 20.309 Q149.667 20.309 149.667 17.94 Q149.667 15.598 147.932 15.598 Q146.203 15.598 146.203 17.951 Q146.203 20.309 147.91 20.309 Z M152.571 21 L152.571 14.902 L153.677 14.902 L153.677 16.047 Q154.553 14.767 155.822 14.767 Q156.614 14.767 157.085 15.27 Q157.557 15.772 157.557 16.62 L157.557 21 L156.451 21 L156.451 16.979 Q156.451 16.3 156.251 16.011 Q156.052 15.722 155.592 15.722 Q154.575 15.722 153.677 17.052 L153.677 21 Z M164.177 20.803 Q163.065 21.14 162.274 21.14 Q160.926 21.14 160.075 20.245 Q159.225 19.349 159.225 17.923 Q159.225 16.536 159.974 15.649 Q160.724 14.761 161.892 14.761 Q162.998 14.761 163.602 15.548 Q164.205 16.334 164.205 17.782 L164.2 18.125 L160.353 18.125 Q160.595 20.298 162.481 20.298 Q163.172 20.298 164.177 19.927 Z M160.404 17.294 L163.094 17.294 Q163.094 15.593 161.824 15.593 Q160.55 15.593 160.404 17.294 Z M170.461 21 L168.714 14.902 L169.798 14.902 L171.135 19.624 L172.578 14.902 L173.684 14.902 L174.947 19.624 L176.48 14.902 L177.429 14.902 L175.441 21 L174.33 21 L173.038 16.278 L171.578 21 Z M183.084 20.803 Q181.972 21.14 181.18 21.14 Q179.833 21.14 178.982 20.245 Q178.131 19.349 178.131 17.923 Q178.131 16.536 178.881 15.649 Q179.63 14.761 180.798 14.761 Q181.905 14.761 182.508 15.548 Q183.112 16.334 183.112 17.782 L183.106 18.125 L179.26 18.125 Q179.501 20.298 181.388 20.298 Q182.079 20.298 183.084 19.927 Z M179.31 17.294 L182 17.294 Q182 15.593 180.731 15.593 Q179.456 15.593 179.31 17.294 Z M189.491 20.803 Q188.379 21.14 187.587 21.14 Q186.24 21.14 185.389 20.245 Q184.538 19.349 184.538 17.923 Q184.538 16.536 185.288 15.649 Q186.037 14.761 187.205 14.761 Q188.312 14.761 188.915 15.548 Q189.519 16.334 189.519 17.782 L189.513 18.125 L185.667 18.125 Q185.908 20.298 187.795 20.298 Q188.486 20.298 189.491 19.927 Z M185.717 17.294 L188.407 17.294 Q188.407 15.593 187.138 15.593 Q185.863 15.593 185.717 17.294 Z M191.428 21 L191.428 12.134 L192.534 12.134 L192.534 17.861 L195.117 14.902 L196.308 14.902 L193.843 17.749 L196.819 21 L195.404 21 L192.534 17.872 L192.534 21 Z" fill="#8C8478" fill-opacity="1"/>
<path d="M43 389 L736 389" fill="none" stroke="#B9B2A5" stroke-opacity="1" stroke-width="1" stroke-linecap="square" stroke-linejoin="miter"/>
<path d="M33.605 394.208 Q32.319 394.208 31.525 392.998 Q30.73 391.788 30.73 389.839 Q30.73 387.874 31.53 386.678 Q32.33 385.482 33.639 385.482 Q34.947 385.482 35.747 386.678 Q36.547 387.874 36.547 389.822 Q36.547 391.821 35.747 393.015 Q34.947 394.208 33.605 394.208 Z M33.616 393.377 Q35.374 393.377 35.374 389.805 Q35.374 386.313 33.639 386.313 Q31.909 386.313 31.909 389.839 Q31.909 393.377 33.616 393.377 Z" fill="#8C8478" fill-opacity="1"/>
<path d="M43 323 L736 323" fill="none" stroke="#E6DFD2" stroke-opacity="1" stroke-width="1" stroke-linecap="square" stroke-linejoin="miter"/>
<path d="M24.398 328.034 L24.398 327.045 Q25.224 327.377 25.97 327.377 Q26.79 327.377 27.259 326.894 Q27.728 326.411 27.728 325.563 Q27.728 323.693 25.151 323.693 Q24.859 323.693 24.539 323.732 L24.539 319.689 L28.744 319.689 L28.744 320.655 L25.51 320.655 L25.51 322.845 Q27.11 322.845 28.009 323.581 Q28.907 324.316 28.907 325.619 Q28.907 326.832 28.09 327.52 Q27.273 328.208 25.824 328.208 Q25.196 328.208 24.398 328.034 Z M33.877 328.208 Q32.591 328.208 31.796 326.998 Q31.002 325.788 31.002 323.839 Q31.002 321.874 31.802 320.678 Q32.602 319.482 33.91 319.482 Q35.219 319.482 36.019 320.678 Q36.819 321.874 36.819 323.822 Q36.819 325.821 36.019 327.015 Q35.219 328.208 33.877 328.208 Z M33.888 327.377 Q35.646 327.377 35.646 323.805 Q35.646 320.313 33.91 320.313 Q32.181 320.313 32.181 323.839 Q32.181 327.377 33.888 327.377 Z" fill="#8C8478" fill-opacity="1"/>
<path d="M43 257 L736 257" fill="none" stroke="#E6DFD2" stroke-opacity="1" stroke-width="1" stroke-linecap="square" stroke-linejoin="miter"/>
<path d="M17.729 262 L17.729 261.169 L19.392 261.169 L19.392 254.61 L17.729 255.026 L17.729 254.172 L20.503 253.482 L20.503 261.169 L22.166 261.169 L22.166 262 Z M26.877 262.208 Q25.591 262.208 24.796 260.998 Q24.002 259.788 24.002 257.839 Q24.002 255.874 24.802 254.678 Q25.602 253.482 26.91 253.482 Q28.219 253.482 29.019 254.678 Q29.819 255.874 29.819 257.822 Q29.819 259.821 29.019 261.015 Q28.219 262.208 26.877 262.208 Z M26.888 261.377 Q28.646 261.377 28.646 257.805 Q28.646 254.313 26.91 254.313 Q25.181 254.313 25.181 257.839 Q25.181 261.377 26.888 261.377 Z M34.148 262.208 Q32.863 262.208 32.068 260.998 Q31.273 259.788 31.273 257.839 Q31.273 255.874 32.074 254.678 Q32.874 253.482 34.182 253.482 Q35.49 253.482 36.291 254.678 Q37.091 255.874 37.091 257.822 Q37.091 259.821 36.291 261.015 Q35.49 262.208 34.148 262.208 Z M34.16 261.377 Q35.917 261.377 35.917 257.805 Q35.917 254.313 34.182 254.313 Q32.453 254.313 32.453 257.839 Q32.453 261.377 34.16 261.377 Z" fill="#8C8478" fill-opacity="1"/>
<path d="M43 191 L736 191" fill="none" stroke="#E6DFD2" stroke-opacity="1" stroke-width="1" stroke-linecap="square" stroke-linejoin="miter"/>
<path d="M17.729 196 L17.729 195.169 L19.392 195.169 L19.392 188.61 L17.729 189.026 L17.729 188.172 L20.503 187.482 L20.503 195.169 L22.166 195.169 L22.166 196 Z M24.67 196.034 L24.67 195.045 Q25.495 195.377 26.242 195.377 Q27.062 195.377 27.531 194.894 Q28 194.411 28 193.563 Q28 191.693 25.422 191.693 Q25.13 191.693 24.81 191.732 L24.81 187.689 L29.016 187.689 L29.016 188.655 L25.782 188.655 L25.782 190.845 Q27.382 190.845 28.281 191.581 Q29.179 192.316 29.179 193.619 Q29.179 194.832 28.362 195.52 Q27.545 196.208 26.096 196.208 Q25.467 196.208 24.67 196.034 Z M34.148 196.208 Q32.863 196.208 32.068 194.998 Q31.273 193.788 31.273 191.839 Q31.273 189.874 32.074 188.678 Q32.874 187.482 34.182 187.482 Q35.49 187.482 36.291 188.678 Q37.091 189.874 37.091 191.822 Q37.091 193.821 36.291 195.015 Q35.49 196.208 34.148 196.208 Z M34.16 195.377 Q35.917 195.377 35.917 191.805 Q35.917 188.313 34.182 188.313 Q32.453 188.313 32.453 191.839 Q32.453 195.377 34.16 195.377 Z" fill="#8C8478" fill-opacity="1"/>
<path d="M43 125 L736 125" fill="none" stroke="#E6DFD2" stroke-opacity="1" stroke-width="1" stroke-linecap="square" stroke-linejoin="miter"/>
<path d="M16.955 130 L16.955 129.029 Q17.438 127.9 18.909 126.569 L19.543 126.002 Q20.767 124.896 20.767 123.806 Q20.767 123.11 20.349 122.711 Q19.931 122.313 19.201 122.313 Q18.336 122.313 17.162 122.981 L17.162 122.004 Q18.269 121.482 19.358 121.482 Q20.526 121.482 21.233 122.111 Q21.941 122.74 21.941 123.778 Q21.941 124.525 21.584 125.104 Q21.228 125.682 20.256 126.507 L19.83 126.872 Q18.499 128.001 18.291 129.029 L21.902 129.029 L21.902 130 Z M26.877 130.208 Q25.591 130.208 24.796 128.998 Q24.002 127.788 24.002 125.839 Q24.002 123.874 24.802 122.678 Q25.602 121.482 26.91 121.482 Q28.219 121.482 29.019 122.678 Q29.819 123.874 29.819 125.822 Q29.819 127.821 29.019 129.015 Q28.219 130.208 26.877 130.208 Z M26.888 129.377 Q28.646 129.377 28.646 125.805 Q28.646 122.313 26.91 122.313 Q25.181 122.313 25.181 125.839 Q25.181 129.377 26.888 129.377 Z M34.148 130.208 Q32.863 130.208 32.068 128.998 Q31.273 127.788 31.273 125.839 Q31.273 123.874 32.074 122.678 Q32.874 121.482 34.182 121.482 Q35.49 121.482 36.291 122.678 Q37.091 123.874 37.091 125.822 Q37.091 127.821 36.291 129.015 Q35.49 130.208 34.148 130.208 Z M34.16 129.377 Q35.917 129.377 35.917 125.805 Q35.917 122.313 34.182 122.313 Q32.453 122.313 32.453 125.839 Q32.453 129.377 34.16 129.377 Z" fill="#8C8478" fill-opacity="1"/>
<path d="M43 59 L736 59" fill="none" stroke="#E6DFD2" stroke-opacity="1" stroke-width="1" stroke-linecap="square" stroke-linejoin="miter"/>
<path d="M16.955 64 L16.955 63.029 Q17.438 61.9 18.909 60.569 L19.543 60.002 Q20.767 58.896 20.767 57.806 Q20.767 57.11 20.349 56.711 Q19.931 56.313 19.201 56.313 Q18.336 56.313 17.162 56.981 L17.162 56.004 Q18.269 55.482 19.358 55.482 Q20.526 55.482 21.233 56.111 Q21.941 56.74 21.941 57.778 Q21.941 58.525 21.584 59.104 Q21.228 59.682 20.256 60.507 L19.83 60.872 Q18.499 62.001 18.291 63.029 L21.902 63.029 L21.902 64 Z M24.67 64.034 L24.67 63.045 Q25.495 63.377 26.242 63.377 Q27.062 63.377 27.531 62.894 Q28 62.411 28 61.563 Q28 59.693 25.422 59.693 Q25.13 59.693 24.81 59.732 L24.81 55.689 L29.016 55.689 L29.016 56.655 L25.782 56.655 L25.782 58.845 Q27.382 58.845 28.281 59.581 Q29.179 60.316 29.179 61.619 Q29.179 62.832 28.362 63.52 Q27.545 64.208 26.096 64.208 Q25.467 64.208 24.67 64.034 Z M34.148 64.208 Q32.863 64.208 32.068 62.998 Q31.273 61.788 31.273 59.839 Q31.273 57.874 32.074 56.678 Q32.874 55.482 34.182 55.482 Q35.49 55.482 36.291 56.678 Q37.091 57.874 37.091 59.822 Q37.091 61.821 36.291 63.015 Q35.49 64.208 34.148 64.208 Z M34.16 63.377 Q35.917 63.377 35.917 59.805 Q35.917 56.313 34.182 56.313 Q32.453 56.313 32.453 59.839 Q32.453 63.377 34.16 63.377 Z" fill="#8C8478" fill-opacity="1"/>
<path d="M77.431 389 L77.431 218.76 Q77.431 214.76 81.431 214.76 L97.431 214.76 Q101.431 214.76 101.431 218.76 L101.431 389 Z" fill="#B1512D" fill-opacity="1" clip-path="url(#c1)"/>
<path d="M123.169 389 L123.169 263.64 Q123.169 259.64 127.169 259.64 L143.169 259.64 Q147.169 259.64 147.169 263.64 L147.169 389 Z" fill="#007C5D" fill-opacity="1" clip-path="url(#c1)"/>
<path d="M216.031 389 L216.031 197.64 Q216.031 193.64 220.031 193.64 L236.031 193.64 Q240.031 193.64 240.031 197.64 L240.031 389 Z" fill="#B1512D" fill-opacity="1" clip-path="url(#c1)"/>
<path d="M261.769 389 L261.769 272.88 Q261.769 268.88 265.769 268.88 L281.769 268.88 Q285.769 268.88 285.769 272.88 L285.769 389 Z" fill="#007C5D" fill-opacity="1" clip-path="url(#c1)"/>
<path d="M354.631 389 L354.631 187.08 Q354.631 183.08 358.631 183.08 L374.631 183.08 Q378.631 183.08 378.631 187.08 L378.631 389 Z" fill="#B1512D" fill-opacity="1" clip-path="url(#c1)"/>
<path d="M400.369 389 L400.369 255.72 Q400.369 251.72 404.369 251.72 L420.369 251.72 Q424.369 251.72 424.369 255.72 L424.369 389 Z" fill="#007C5D" fill-opacity="1" clip-path="url(#c1)"/>
<path d="M493.231 389 L493.231 180.48 Q493.231 176.48 497.231 176.48 L513.231 176.48 Q517.231 176.48 517.231 180.48 L517.231 389 Z" fill="#B1512D" fill-opacity="1" clip-path="url(#c1)"/>
<path d="M538.969 389 L538.969 245.16 Q538.969 241.16 542.969 241.16 L558.969 241.16 Q562.969 241.16 562.969 245.16 L562.969 389 Z" fill="#007C5D" fill-opacity="1" clip-path="url(#c1)"/>
<path d="M631.831 389 L631.831 126.36 Q631.831 122.36 635.831 122.36 L651.831 122.36 Q655.831 122.36 655.831 126.36 L655.831 389 Z" fill="#B1512D" fill-opacity="1" clip-path="url(#c1)"/>
<path d="M677.569 389 L677.569 193.68 Q677.569 189.68 681.569 189.68 L697.569 189.68 Q701.569 189.68 701.569 193.68 L701.569 389 Z" fill="#007C5D" fill-opacity="1" clip-path="url(#c1)"/>
<path d="M101.073 407 L101.073 398.689 L102.707 398.689 L105.009 405.119 L107.378 398.689 L108.838 398.689 L108.838 407 L107.738 407 L107.738 400.239 L105.447 406.444 L104.307 406.444 L102.083 400.222 L102.083 407 Z M113.398 407.14 Q112.09 407.14 111.309 406.273 Q110.529 405.405 110.529 403.951 Q110.529 402.48 111.312 401.623 Q112.095 400.767 113.437 400.767 Q114.779 400.767 115.563 401.623 Q116.346 402.48 116.346 403.94 Q116.346 405.433 115.56 406.287 Q114.774 407.14 113.398 407.14 Z M113.415 406.309 Q115.172 406.309 115.172 403.94 Q115.172 401.598 113.437 401.598 Q111.708 401.598 111.708 403.951 Q111.708 406.309 113.415 406.309 Z M118.075 407 L118.075 400.902 L119.182 400.902 L119.182 402.047 Q120.058 400.767 121.327 400.767 Q122.118 400.767 122.59 401.27 Q123.062 401.772 123.062 402.62 L123.062 407 L121.956 407 L121.956 402.979 Q121.956 402.3 121.756 402.011 Q121.557 401.722 121.096 401.722 Q120.08 401.722 119.182 403.052 L119.182 407 Z" fill="#8C8478" fill-opacity="1"/>
<path d="M244.049 407 L244.049 399.571 L241.101 399.571 L241.101 398.689 L248.176 398.689 L248.176 399.571 L245.228 399.571 L245.228 407 Z M253.191 407 L253.191 405.854 Q252.309 407.14 251.051 407.14 Q250.254 407.14 249.782 406.638 Q249.311 406.135 249.311 405.282 L249.311 400.902 L250.417 400.902 L250.417 404.922 Q250.417 405.607 250.616 405.897 Q250.815 406.186 251.281 406.186 Q252.292 406.186 253.191 404.855 L253.191 400.902 L254.297 400.902 L254.297 407 Z M260.985 406.803 Q259.873 407.14 259.081 407.14 Q257.733 407.14 256.883 406.245 Q256.032 405.349 256.032 403.923 Q256.032 402.536 256.782 401.649 Q257.531 400.761 258.699 400.761 Q259.805 400.761 260.409 401.548 Q261.013 402.334 261.013 403.782 L261.007 404.125 L257.161 404.125 Q257.402 406.298 259.289 406.298 Q259.979 406.298 260.985 405.927 Z M257.211 403.294 L259.901 403.294 Q259.901 401.593 258.632 401.593 Q257.357 401.593 257.211 403.294 Z" fill="#8C8478" fill-opacity="1"/>
<path d="M381.151 407 L379.011 398.689 L380.146 398.689 L381.847 405.254 L383.414 398.689 L384.548 398.689 L386.03 405.164 L387.861 398.689 L388.821 398.689 L386.491 407 L385.317 407 L383.852 400.593 L382.319 407 Z M394.414 406.803 Q393.302 407.14 392.51 407.14 Q391.163 407.14 390.312 406.245 Q389.461 405.349 389.461 403.923 Q389.461 402.536 390.211 401.649 Q390.96 400.761 392.128 400.761 Q393.235 400.761 393.838 401.548 Q394.442 402.334 394.442 403.782 L394.436 404.125 L390.59 404.125 Q390.831 406.298 392.718 406.298 Q393.409 406.298 394.414 405.927 Z M390.64 403.294 L393.33 403.294 Q393.33 401.593 392.061 401.593 Q390.786 401.593 390.64 403.294 Z M400.265 407 L400.265 405.854 Q399.591 407.14 398.232 407.14 Q397.132 407.14 396.5 406.337 Q395.868 405.534 395.868 404.142 Q395.868 402.62 396.584 401.694 Q397.3 400.767 398.468 400.767 Q399.552 400.767 400.265 401.598 L400.265 398.134 L401.377 398.134 L401.377 407 Z M400.265 402.356 Q399.406 401.598 398.636 401.598 Q397.047 401.598 397.047 404.03 Q397.047 406.169 398.462 406.169 Q399.383 406.169 400.265 405.164 Z" fill="#8C8478" fill-opacity="1"/>
<path d="M521.049 407 L521.049 399.571 L518.101 399.571 L518.101 398.689 L525.176 398.689 L525.176 399.571 L522.228 399.571 L522.228 407 Z M526.378 407 L526.378 398.134 L527.484 398.134 L527.484 402.047 Q528.36 400.767 529.629 400.767 Q530.421 400.767 530.893 401.27 Q531.364 401.772 531.364 402.62 L531.364 407 L530.258 407 L530.258 402.979 Q530.258 402.3 530.059 402.011 Q529.859 401.722 529.399 401.722 Q528.383 401.722 527.484 403.052 L527.484 407 Z M537.328 407 L537.328 405.854 Q536.446 407.14 535.188 407.14 Q534.391 407.14 533.919 406.638 Q533.448 406.135 533.448 405.282 L533.448 400.902 L534.554 400.902 L534.554 404.922 Q534.554 405.607 534.753 405.897 Q534.952 406.186 535.418 406.186 Q536.429 406.186 537.328 404.855 L537.328 400.902 L538.434 400.902 L538.434 407 Z" fill="#8C8478" fill-opacity="1"/>
<path d="M661.073 407 L661.073 398.689 L665.716 398.689 L665.716 399.571 L662.252 399.571 L662.252 402.356 L665.16 402.356 L665.16 403.227 L662.252 403.227 L662.252 407 Z M667.272 407 L667.272 400.902 L668.378 400.902 L668.378 402.047 Q669.035 400.767 670.287 400.767 Q670.456 400.767 670.641 400.795 L670.641 401.828 Q670.354 401.733 670.135 401.733 Q669.085 401.733 668.378 402.979 L668.378 407 Z M671.977 407 L671.977 400.902 L673.083 400.902 L673.083 407 Z M671.977 399.796 L671.977 398.689 L673.083 398.689 L673.083 399.796 Z" fill="#8C8478" fill-opacity="1"/>
<path d="M16 30 L26 30 L26 40 L16 40 L16 30 Z" fill="#B1512D" fill-opacity="1"/>
<path d="M31.073 40 L31.073 31.689 L35.716 31.689 L35.716 32.571 L32.252 32.571 L32.252 35.238 L35.155 35.238 L35.155 36.109 L32.252 36.109 L32.252 39.118 L35.958 39.118 L35.958 40 Z M38.956 40.14 Q38.198 40.14 37.115 39.787 L37.115 38.77 Q38.198 39.309 39.001 39.309 Q39.479 39.309 39.793 39.051 Q40.107 38.793 40.107 38.405 Q40.107 37.838 39.226 37.468 L38.58 37.192 Q37.148 36.597 37.148 35.48 Q37.148 34.682 37.713 34.225 Q38.277 33.767 39.26 33.767 Q39.771 33.767 40.523 33.907 L40.753 33.952 L40.753 34.873 Q39.827 34.598 39.282 34.598 Q38.215 34.598 38.215 35.373 Q38.215 35.873 39.024 36.215 L39.557 36.44 Q40.461 36.822 40.837 37.246 Q41.214 37.67 41.214 38.304 Q41.214 39.107 40.579 39.624 Q39.945 40.14 38.956 40.14 Z M43.201 42.218 L43.201 33.902 L44.308 33.902 L44.308 35.047 Q44.987 33.767 46.346 33.767 Q47.447 33.767 48.078 34.57 Q48.71 35.373 48.71 36.766 Q48.71 38.282 47.994 39.211 Q47.278 40.14 46.11 40.14 Q45.026 40.14 44.308 39.309 L44.308 42.218 Z M44.308 38.546 Q45.161 39.309 45.936 39.309 Q47.531 39.309 47.531 36.878 Q47.531 34.733 46.116 34.733 Q45.189 34.733 44.308 35.738 Z M50.439 40 L50.439 33.902 L51.546 33.902 L51.546 35.047 Q52.203 33.767 53.455 33.767 Q53.623 33.767 53.809 33.795 L53.809 34.828 Q53.522 34.733 53.303 34.733 Q52.253 34.733 51.546 35.979 L51.546 40 Z M59.615 39.803 Q58.503 40.14 57.711 40.14 Q56.364 40.14 55.513 39.245 Q54.662 38.349 54.662 36.923 Q54.662 35.536 55.412 34.649 Q56.161 33.761 57.329 33.761 Q58.436 33.761 59.039 34.548 Q59.643 35.334 59.643 36.782 L59.637 37.125 L55.791 37.125 Q56.032 39.298 57.919 39.298 Q58.61 39.298 59.615 38.927 Z M55.841 36.294 L58.531 36.294 Q58.531 34.593 57.262 34.593 Q55.987 34.593 55.841 36.294 Z M63.169 40.14 Q62.411 40.14 61.327 39.787 L61.327 38.77 Q62.411 39.309 63.214 39.309 Q63.691 39.309 64.006 39.051 Q64.32 38.793 64.32 38.405 Q64.32 37.838 63.439 37.468 L62.793 37.192 Q61.361 36.597 61.361 35.48 Q61.361 34.682 61.925 34.225 Q62.49 33.767 63.472 33.767 Q63.983 33.767 64.736 33.907 L64.966 33.952 L64.966 34.873 Q64.04 34.598 63.495 34.598 Q62.428 34.598 62.428 35.373 Q62.428 35.873 63.237 36.215 L63.77 36.44 Q64.674 36.822 65.05 37.246 Q65.427 37.67 65.427 38.304 Q65.427 39.107 64.792 39.624 Q64.157 40.14 63.169 40.14 Z M69.031 40.14 Q68.273 40.14 67.19 39.787 L67.19 38.77 Q68.273 39.309 69.076 39.309 Q69.554 39.309 69.868 39.051 Q70.183 38.793 70.183 38.405 Q70.183 37.838 69.301 37.468 L68.655 37.192 Q67.223 36.597 67.223 35.48 Q67.223 34.682 67.788 34.225 Q68.352 33.767 69.335 33.767 Q69.846 33.767 70.598 33.907 L70.828 33.952 L70.828 34.873 Q69.902 34.598 69.357 34.598 Q68.29 34.598 68.29 35.373 Q68.29 35.873 69.099 36.215 L69.632 36.44 Q70.536 36.822 70.913 37.246 Q71.289 37.67 71.289 38.304 Q71.289 39.107 70.654 39.624 Q70.02 40.14 69.031 40.14 Z M75.663 40.14 Q74.355 40.14 73.574 39.273 Q72.794 38.405 72.794 36.951 Q72.794 35.48 73.577 34.623 Q74.36 33.767 75.702 33.767 Q77.044 33.767 77.828 34.623 Q78.611 35.48 78.611 36.94 Q78.611 38.433 77.825 39.287 Q77.039 40.14 75.663 40.14 Z M75.68 39.309 Q77.438 39.309 77.438 36.94 Q77.438 34.598 75.702 34.598 Q73.973 34.598 73.973 36.951 Q73.973 39.309 75.68 39.309 Z" fill="#2B2620" fill-opacity="1"/>
<path d="M91 30 L101 30 L101 40 L91 40 L91 30 Z" fill="#007C5D" fill-opacity="1"/>
<path d="M106.073 40 L106.073 31.689 L110.716 31.689 L110.716 32.571 L107.252 32.571 L107.252 35.356 L110.16 35.356 L110.16 36.227 L107.252 36.227 L107.252 40 Z M112.272 40 L112.272 33.902 L113.378 33.902 L113.378 40 Z M112.272 32.796 L112.272 31.689 L113.378 31.689 L113.378 32.796 Z M115.596 40 L115.596 31.134 L116.702 31.134 L116.702 40 Z M120.751 40.14 Q119.908 40.14 119.437 39.657 Q118.965 39.175 118.965 38.315 L118.965 34.733 L118.201 34.733 L118.201 33.902 L118.965 33.902 L118.965 32.796 L120.071 32.689 L120.071 33.902 L121.666 33.902 L121.666 34.733 L120.071 34.733 L120.071 38.113 Q120.071 39.309 121.104 39.309 Q121.323 39.309 121.638 39.236 L121.638 40 Q121.127 40.14 120.751 40.14 Z M127.691 39.803 Q126.579 40.14 125.788 40.14 Q124.44 40.14 123.589 39.245 Q122.739 38.349 122.739 36.923 Q122.739 35.536 123.488 34.649 Q124.238 33.761 125.406 33.761 Q126.512 33.761 127.116 34.548 Q127.719 35.334 127.719 36.782 L127.714 37.125 L123.867 37.125 Q124.109 39.298 125.995 39.298 Q126.686 39.298 127.691 38.927 Z M123.918 36.294 L126.607 36.294 Q126.607 34.593 125.338 34.593 Q124.064 34.593 123.918 36.294 Z M129.628 40 L129.628 33.902 L130.735 33.902 L130.735 35.047 Q131.392 33.767 132.644 33.767 Q132.812 33.767 132.998 33.795 L132.998 34.828 Q132.711 34.733 132.492 34.733 Q131.442 34.733 130.735 35.979 L130.735 40 Z" fill="#2B2620" fill-opacity="1"/>
</svg>
