<svg xmlns="http://www.w3.org/2000/svg" width="640" height="400" viewBox="0 0 640 400">
<defs>
<clipPath id="c1" clipPathUnits="userSpaceOnUse"><path d="M43 36 L616 36 L616 346 L43 346 L43 36 Z"/></clipPath>
</defs>
<path d="M0 0 L640 0 L640 400 L0 400 L0 0 Z" fill="#FAF6EF" fill-opacity="1"/>
<path d="M24.677 20.778 Q22.913 21.235 21.63 21.235 Q19.199 21.235 17.895 19.956 Q16.59 18.677 16.59 16.29 Q16.59 13.922 17.895 12.646 Q19.199 11.371 21.611 11.371 Q23.154 11.371 24.671 11.732 L24.671 13.262 Q22.913 12.659 21.783 12.659 Q20.291 12.659 19.479 13.611 Q18.666 14.563 18.666 16.309 Q18.666 17.998 19.536 18.959 Q20.405 19.921 21.935 19.921 Q22.271 19.921 22.722 19.826 L22.722 16.734 L24.677 16.734 Z M32.542 20.765 Q31.203 21.159 30.003 21.159 Q28.257 21.159 27.248 20.168 Q26.239 19.178 26.239 17.464 Q26.239 15.846 27.162 14.859 Q28.086 13.872 29.603 13.872 Q31.133 13.872 31.837 14.836 Q32.542 15.801 32.542 17.89 L28.219 17.89 Q28.41 19.883 30.409 19.883 Q31.355 19.883 32.542 19.445 Z M28.194 16.83 L30.695 16.83 Q30.695 15.046 29.546 15.046 Q28.378 15.046 28.194 16.83 Z M34.484 21 L34.484 14.03 L36.363 14.03 L36.363 15.344 Q37.284 13.872 38.737 13.872 Q39.67 13.872 40.21 14.462 Q40.75 15.052 40.75 16.074 L40.75 21 L38.871 21 L38.871 16.538 Q38.871 15.351 38.083 15.351 Q37.188 15.351 36.363 16.614 L36.363 21 Z M48.697 20.765 Q47.357 21.159 46.158 21.159 Q44.412 21.159 43.403 20.168 Q42.394 19.178 42.394 17.464 Q42.394 15.846 43.317 14.859 Q44.241 13.872 45.758 13.872 Q47.288 13.872 47.992 14.836 Q48.697 15.801 48.697 17.89 L44.374 17.89 Q44.564 19.883 46.564 19.883 Q47.51 19.883 48.697 19.445 Z M44.349 16.83 L46.85 16.83 Q46.85 15.046 45.701 15.046 Q44.533 15.046 44.349 16.83 Z M50.639 21 L50.639 14.03 L52.518 14.03 L52.518 15.344 Q53.248 13.872 54.74 13.872 Q54.917 13.872 55.089 13.91 L55.089 15.585 Q54.689 15.439 54.346 15.439 Q53.223 15.439 52.518 16.576 L52.518 21 Z M59.964 20.251 Q59.024 21.159 57.952 21.159 Q57.038 21.159 56.466 20.6 Q55.895 20.042 55.895 19.153 Q55.895 17.998 56.819 17.372 Q57.742 16.747 59.462 16.747 L59.964 16.747 L59.964 16.112 Q59.964 15.027 58.726 15.027 Q57.628 15.027 56.504 15.649 L56.504 14.354 Q57.78 13.872 59.031 13.872 Q61.767 13.872 61.767 16.049 L61.767 19.134 Q61.767 19.953 62.293 19.953 Q62.389 19.953 62.541 19.927 L62.585 20.981 Q61.989 21.159 61.532 21.159 Q60.376 21.159 60.046 20.251 Z M59.964 19.242 L59.964 17.826 L59.52 17.826 Q57.698 17.826 57.698 18.969 Q57.698 19.356 57.961 19.619 Q58.225 19.883 58.612 19.883 Q59.272 19.883 59.964 19.242 Z M67.784 20.962 Q67.111 21.159 66.724 21.159 Q64.28 21.159 64.28 18.874 L64.28 15.205 L63.5 15.205 L63.5 14.03 L64.28 14.03 L64.28 12.856 L66.159 12.64 L66.159 14.03 L67.651 14.03 L67.651 15.205 L66.159 15.205 L66.159 18.626 Q66.159 19.908 67.207 19.908 Q67.448 19.908 67.784 19.819 Z M69.46 21 L69.46 14.03 L71.339 14.03 L71.339 21 Z M69.46 12.856 L69.46 11.288 L71.339 11.288 L71.339 12.856 Z M76.614 21.159 Q74.982 21.159 74.021 20.172 Q73.059 19.185 73.059 17.515 Q73.059 15.827 74.027 14.849 Q74.995 13.872 76.658 13.872 Q78.328 13.872 79.296 14.849 Q80.264 15.827 80.264 17.502 Q80.264 19.216 79.292 20.188 Q78.321 21.159 76.614 21.159 Z M76.646 19.984 Q78.264 19.984 78.264 17.502 Q78.264 16.366 77.836 15.706 Q77.407 15.046 76.658 15.046 Q75.916 15.046 75.487 15.706 Q75.059 16.366 75.059 17.515 Q75.059 18.651 75.484 19.318 Q75.909 19.984 76.646 19.984 Z M81.99 21 L81.99 14.03 L83.869 14.03 L83.869 15.344 Q84.79 13.872 86.243 13.872 Q87.176 13.872 87.716 14.462 Q88.255 15.052 88.255 16.074 L88.255 21 L86.376 21 L86.376 16.538 Q86.376 15.351 85.589 15.351 Q84.694 15.351 83.869 16.614 L83.869 21 Z M94.813 21 L94.813 14.03 L96.615 14.03 L96.615 15.344 Q97.44 13.872 98.964 13.872 Q99.751 13.872 100.259 14.259 Q100.767 14.646 100.881 15.344 Q101.858 13.872 103.242 13.872 Q105.153 13.872 105.153 15.979 L105.153 21 L103.35 21 L103.35 16.595 Q103.35 15.357 102.525 15.357 Q101.681 15.357 100.881 16.576 L100.881 21 L99.078 21 L99.078 16.595 Q99.078 15.351 98.247 15.351 Q97.415 15.351 96.615 16.576 L96.615 21 Z M107.419 21 L107.419 14.03 L109.298 14.03 L109.298 21 Z M107.419 12.856 L107.419 11.288 L109.298 11.288 L109.298 12.856 Z M110.904 21 L113.297 17.502 L111.005 14.03 L113.145 14.03 L114.643 16.239 L116.077 14.03 L117.601 14.03 L115.417 17.452 L117.759 21 L115.62 21 L114.059 18.696 L112.459 21 Z" fill="#2B2620" fill-opacity="1"/>
<path d="M135.317 20.775 Q133.806 21.208 132.683 21.208 Q130.701 21.208 129.642 20.079 Q128.584 18.95 128.584 16.845 Q128.584 14.778 129.656 13.63 Q130.729 12.482 132.666 12.482 Q133.935 12.482 135.305 12.858 L135.305 13.947 Q133.587 13.363 132.672 13.363 Q131.324 13.363 130.58 14.279 Q129.836 15.194 129.836 16.856 Q129.836 18.501 130.634 19.414 Q131.431 20.326 132.868 20.326 Q133.458 20.326 134.143 20.118 L134.143 17.412 L135.317 17.412 Z M138.461 21 L136.322 12.689 L137.456 12.689 L139.157 19.254 L140.724 12.689 L141.858 12.689 L143.341 19.164 L145.171 12.689 L146.132 12.689 L143.801 21 L142.628 21 L141.162 14.593 L139.629 21 Z M147.255 21 L147.255 12.134 L148.361 12.134 L148.361 16.047 Q149.237 14.767 150.506 14.767 Q151.298 14.767 151.769 15.27 Q152.241 15.772 152.241 16.62 L152.241 21 L151.135 21 L151.135 16.979 Q151.135 16.3 150.935 16.011 Q150.736 15.722 150.276 15.722 Q149.259 15.722 148.361 17.052 L148.361 21 Z" fill="#8C8478" fill-opacity="1"/>
<path d="M43 346 L616 346" fill="none" stroke="#B9B2A5" stroke-opacity="1" stroke-width="1" stroke-linecap="square" stroke-linejoin="miter"/>
<path d="M33.605 351.208 Q32.319 351.208 31.525 349.998 Q30.73 348.788 30.73 346.839 Q30.73 344.874 31.53 343.678 Q32.33 342.482 33.639 342.482 Q34.947 342.482 35.747 343.678 Q36.547 344.874 36.547 346.822 Q36.547 348.821 35.747 350.015 Q34.947 351.208 33.605 351.208 Z M33.616 350.377 Q35.374 350.377 35.374 346.805 Q35.374 343.313 33.639 343.313 Q31.909 343.313 31.909 346.839 Q31.909 350.377 33.616 350.377 Z" fill="#8C8478" fill-opacity="1"/>
<path d="M43 312 L616 312" fill="none" stroke="#E6DFD2" stroke-opacity="1" stroke-width="1" stroke-linecap="square" stroke-linejoin="miter"/>
<path d="M23.955 317 L23.955 316.029 Q24.438 314.9 25.909 313.569 L26.543 313.002 Q27.767 311.896 27.767 310.806 Q27.767 310.11 27.349 309.711 Q26.931 309.313 26.201 309.313 Q25.336 309.313 24.162 309.981 L24.162 309.004 Q25.269 308.482 26.358 308.482 Q27.526 308.482 28.233 309.111 Q28.941 309.74 28.941 310.778 Q28.941 311.525 28.584 312.104 Q28.228 312.682 27.256 313.507 L26.83 313.872 Q25.499 315.001 25.291 316.029 L28.902 316.029 L28.902 317 Z M33.877 317.208 Q32.591 317.208 31.796 315.998 Q31.002 314.788 31.002 312.839 Q31.002 310.874 31.802 309.678 Q32.602 308.482 33.91 308.482 Q35.219 308.482 36.019 309.678 Q36.819 310.874 36.819 312.822 Q36.819 314.821 36.019 316.015 Q35.219 317.208 33.877 317.208 Z M33.888 316.377 Q35.646 316.377 35.646 312.805 Q35.646 309.313 33.91 309.313 Q32.181 309.313 32.181 312.839 Q32.181 316.377 33.888 316.377 Z" fill="#8C8478" fill-opacity="1"/>
<path d="M43 277 L616 277" fill="none" stroke="#E6DFD2" stroke-opacity="1" stroke-width="1" stroke-linecap="square" stroke-linejoin="miter"/>
<path d="M27.329 282 L27.329 279.647 L23.59 279.647 L23.59 278.811 L27.329 273.689 L28.368 273.689 L28.368 278.743 L29.48 278.743 L29.48 279.647 L28.368 279.647 L28.368 282 Z M24.673 278.743 L27.402 278.743 L27.402 275.048 Z M33.877 282.208 Q32.591 282.208 31.796 280.998 Q31.002 279.788 31.002 277.839 Q31.002 275.874 31.802 274.678 Q32.602 273.482 33.91 273.482 Q35.219 273.482 36.019 274.678 Q36.819 275.874 36.819 277.822 Q36.819 279.821 36.019 281.015 Q35.219 282.208 33.877 282.208 Z M33.888 281.377 Q35.646 281.377 35.646 277.805 Q35.646 274.313 33.91 274.313 Q32.181 274.313 32.181 277.839 Q32.181 281.377 33.888 281.377 Z" fill="#8C8478" fill-opacity="1"/>
<path d="M43 243 L616 243" fill="none" stroke="#E6DFD2" stroke-opacity="1" stroke-width="1" stroke-linecap="square" stroke-linejoin="miter"/>
<path d="M24.977 243.693 Q25.768 242.666 26.97 242.666 Q28.059 242.666 28.753 243.387 Q29.446 244.109 29.446 245.237 Q29.446 246.534 28.669 247.371 Q27.891 248.208 26.695 248.208 Q25.319 248.208 24.544 247.102 Q23.769 245.995 23.769 244.03 Q23.769 241.868 24.659 240.672 Q25.549 239.476 27.167 239.476 Q27.908 239.476 29.02 239.791 L29.02 240.756 Q27.846 240.307 27.099 240.307 Q24.977 240.307 24.977 243.693 Z M28.334 245.484 Q28.334 244.541 27.911 244.002 Q27.487 243.463 26.734 243.463 Q26.032 243.463 25.527 243.935 Q25.021 244.406 25.021 245.069 Q25.021 246.113 25.502 246.745 Q25.982 247.377 26.773 247.377 Q27.487 247.377 27.911 246.863 Q28.334 246.349 28.334 245.484 Z M33.877 248.208 Q32.591 248.208 31.796 246.998 Q31.002 245.788 31.002 243.839 Q31.002 241.874 31.802 240.678 Q32.602 239.482 33.91 239.482 Q35.219 239.482 36.019 240.678 Q36.819 241.874 36.819 243.822 Q36.819 245.821 36.019 247.015 Q35.219 248.208 33.877 248.208 Z M33.888 247.377 Q35.646 247.377 35.646 243.805 Q35.646 240.313 33.91 240.313 Q32.181 240.313 32.181 243.839 Q32.181 247.377 33.888 247.377 Z" fill="#8C8478" fill-opacity="1"/>
<path d="M43 208 L616 208" fill="none" stroke="#E6DFD2" stroke-opacity="1" stroke-width="1" stroke-linecap="square" stroke-linejoin="miter"/>
<path d="M25.645 208.474 Q24.426 207.626 24.426 206.599 Q24.426 205.655 25.117 205.066 Q25.808 204.476 26.919 204.476 Q27.947 204.476 28.584 204.976 Q29.222 205.476 29.222 206.273 Q29.222 207.48 27.672 208.474 Q29.553 209.395 29.553 210.849 Q29.553 211.894 28.764 212.551 Q27.975 213.208 26.729 213.208 Q25.504 213.208 24.749 212.587 Q23.994 211.967 23.994 210.956 Q23.994 209.462 25.645 208.474 Z M27.054 208.126 Q28.217 207.362 28.217 206.425 Q28.217 205.925 27.829 205.619 Q27.442 205.313 26.807 205.313 Q26.195 205.313 25.813 205.613 Q25.431 205.914 25.431 206.391 Q25.431 206.857 25.777 207.225 Q26.122 207.593 27.054 208.126 Z M26.246 208.923 Q25.577 209.44 25.339 209.825 Q25.1 210.209 25.1 210.782 Q25.1 211.495 25.561 211.936 Q26.021 212.377 26.773 212.377 Q27.498 212.377 27.955 212 Q28.413 211.624 28.413 211.023 Q28.413 210.541 28.13 210.206 Q27.846 209.872 27.032 209.389 Z M33.877 213.208 Q32.591 213.208 31.796 211.998 Q31.002 210.788 31.002 208.839 Q31.002 206.874 31.802 205.678 Q32.602 204.482 33.91 204.482 Q35.219 204.482 36.019 205.678 Q36.819 206.874 36.819 208.822 Q36.819 210.821 36.019 212.015 Q35.219 213.208 33.877 213.208 Z M33.888 212.377 Q35.646 212.377 35.646 208.805 Q35.646 205.313 33.91 205.313 Q32.181 205.313 32.181 208.839 Q32.181 212.377 33.888 212.377 Z" fill="#8C8478" fill-opacity="1"/>
<path d="M43 174 L616 174" fill="none" stroke="#E6DFD2" stroke-opacity="1" stroke-width="1" stroke-linecap="square" stroke-linejoin="miter"/>
<path d="M17.729 179 L17.729 178.169 L19.392 178.169 L19.392 171.61 L17.729 172.026 L17.729 171.172 L20.503 170.482 L20.503 178.169 L22.166 178.169 L22.166 179 Z M26.877 179.208 Q25.591 179.208 24.796 177.998 Q24.002 176.788 24.002 174.839 Q24.002 172.874 24.802 171.678 Q25.602 170.482 26.91 170.482 Q28.219 170.482 29.019 171.678 Q29.819 172.874 29.819 174.822 Q29.819 176.821 29.019 178.015 Q28.219 179.208 26.877 179.208 Z M26.888 178.377 Q28.646 178.377 28.646 174.805 Q28.646 171.313 26.91 171.313 Q25.181 171.313 25.181 174.839 Q25.181 178.377 26.888 178.377 Z M34.148 179.208 Q32.863 179.208 32.068 177.998 Q31.273 176.788 31.273 174.839 Q31.273 172.874 32.074 171.678 Q32.874 170.482 34.182 170.482 Q35.49 170.482 36.291 171.678 Q37.091 172.874 37.091 174.822 Q37.091 176.821 36.291 178.015 Q35.49 179.208 34.148 179.208 Z M34.16 178.377 Q35.917 178.377 35.917 174.805 Q35.917 171.313 34.182 171.313 Q32.453 171.313 32.453 174.839 Q32.453 178.377 34.16 178.377 Z" fill="#8C8478" fill-opacity="1"/>
<path d="M43 139 L616 139" fill="none" stroke="#E6DFD2" stroke-opacity="1" stroke-width="1" stroke-linecap="square" stroke-linejoin="miter"/>
<path d="M17.729 144 L17.729 143.169 L19.392 143.169 L19.392 136.61 L17.729 137.026 L17.729 136.172 L20.503 135.482 L20.503 143.169 L22.166 143.169 L22.166 144 Z M24.226 144 L24.226 143.029 Q24.709 141.9 26.18 140.569 L26.815 140.002 Q28.039 138.896 28.039 137.806 Q28.039 137.11 27.621 136.711 Q27.202 136.313 26.472 136.313 Q25.608 136.313 24.434 136.981 L24.434 136.004 Q25.54 135.482 26.63 135.482 Q27.798 135.482 28.505 136.111 Q29.213 136.74 29.213 137.778 Q29.213 138.525 28.856 139.104 Q28.5 139.682 27.528 140.507 L27.101 140.872 Q25.771 142.001 25.563 143.029 L29.173 143.029 L29.173 144 Z M34.148 144.208 Q32.863 144.208 32.068 142.998 Q31.273 141.788 31.273 139.839 Q31.273 137.874 32.074 136.678 Q32.874 135.482 34.182 135.482 Q35.49 135.482 36.291 136.678 Q37.091 137.874 37.091 139.822 Q37.091 141.821 36.291 143.015 Q35.49 144.208 34.148 144.208 Z M34.16 143.377 Q35.917 143.377 35.917 139.805 Q35.917 136.313 34.182 136.313 Q32.453 136.313 32.453 139.839 Q32.453 143.377 34.16 143.377 Z" fill="#8C8478" fill-opacity="1"/>
<path d="M43 105 L616 105" fill="none" stroke="#E6DFD2" stroke-opacity="1" stroke-width="1" stroke-linecap="square" stroke-linejoin="miter"/>
<path d="M17.729 110 L17.729 109.169 L19.392 109.169 L19.392 102.61 L17.729 103.026 L17.729 102.172 L20.503 101.482 L20.503 109.169 L22.166 109.169 L22.166 110 Z M27.601 110 L27.601 107.647 L23.861 107.647 L23.861 106.811 L27.601 101.689 L28.64 101.689 L28.64 106.743 L29.752 106.743 L29.752 107.647 L28.64 107.647 L28.64 110 Z M24.945 106.743 L27.674 106.743 L27.674 103.048 Z M34.148 110.208 Q32.863 110.208 32.068 108.998 Q31.273 107.788 31.273 105.839 Q31.273 103.874 32.074 102.678 Q32.874 101.482 34.182 101.482 Q35.49 101.482 36.291 102.678 Q37.091 103.874 37.091 105.822 Q37.091 107.821 36.291 109.015 Q35.49 110.208 34.148 110.208 Z M34.16 109.377 Q35.917 109.377 35.917 105.805 Q35.917 102.313 34.182 102.313 Q32.453 102.313 32.453 105.839 Q32.453 109.377 34.16 109.377 Z" fill="#8C8478" fill-opacity="1"/>
<path d="M43 70 L616 70" fill="none" stroke="#E6DFD2" stroke-opacity="1" stroke-width="1" stroke-linecap="square" stroke-linejoin="miter"/>
<path d="M17.729 75 L17.729 74.169 L19.392 74.169 L19.392 67.61 L17.729 68.026 L17.729 67.172 L20.503 66.482 L20.503 74.169 L22.166 74.169 L22.166 75 Z M25.248 70.693 Q26.04 69.666 27.242 69.666 Q28.331 69.666 29.025 70.387 Q29.718 71.109 29.718 72.237 Q29.718 73.534 28.94 74.371 Q28.163 75.208 26.967 75.208 Q25.591 75.208 24.816 74.102 Q24.041 72.995 24.041 71.03 Q24.041 68.868 24.931 67.672 Q25.821 66.476 27.438 66.476 Q28.179 66.476 29.291 66.791 L29.291 67.756 Q28.118 67.307 27.371 67.307 Q25.248 67.307 25.248 70.693 Z M28.606 72.484 Q28.606 71.541 28.182 71.002 Q27.758 70.463 27.006 70.463 Q26.304 70.463 25.799 70.935 Q25.293 71.406 25.293 72.069 Q25.293 73.113 25.773 73.745 Q26.253 74.377 27.045 74.377 Q27.758 74.377 28.182 73.863 Q28.606 73.349 28.606 72.484 Z M34.148 75.208 Q32.863 75.208 32.068 73.998 Q31.273 72.788 31.273 70.839 Q31.273 68.874 32.074 67.678 Q32.874 66.482 34.182 66.482 Q35.49 66.482 36.291 67.678 Q37.091 68.874 37.091 70.822 Q37.091 72.821 36.291 74.015 Q35.49 75.208 34.148 75.208 Z M34.16 74.377 Q35.917 74.377 35.917 70.805 Q35.917 67.313 34.182 67.313 Q32.453 67.313 32.453 70.839 Q32.453 74.377 34.16 74.377 Z" fill="#8C8478" fill-opacity="1"/>
<path d="M43 36 L616 36" fill="none" stroke="#E6DFD2" stroke-opacity="1" stroke-width="1" stroke-linecap="square" stroke-linejoin="miter"/>
<path d="M17.729 41 L17.729 40.169 L19.392 40.169 L19.392 33.61 L17.729 34.026 L17.729 33.172 L20.503 32.482 L20.503 40.169 L22.166 40.169 L22.166 41 Z M25.917 36.474 Q24.698 35.626 24.698 34.599 Q24.698 33.655 25.389 33.066 Q26.079 32.476 27.191 32.476 Q28.219 32.476 28.856 32.976 Q29.493 33.476 29.493 34.273 Q29.493 35.48 27.944 36.474 Q29.825 37.395 29.825 38.849 Q29.825 39.894 29.036 40.551 Q28.247 41.208 27 41.208 Q25.776 41.208 25.021 40.587 Q24.266 39.967 24.266 38.956 Q24.266 37.462 25.917 36.474 Z M27.326 36.126 Q28.488 35.362 28.488 34.425 Q28.488 33.925 28.101 33.619 Q27.713 33.313 27.079 33.313 Q26.467 33.313 26.085 33.613 Q25.703 33.914 25.703 34.391 Q25.703 34.857 26.048 35.225 Q26.394 35.593 27.326 36.126 Z M26.517 36.923 Q25.849 37.44 25.61 37.825 Q25.372 38.209 25.372 38.782 Q25.372 39.495 25.832 39.936 Q26.293 40.377 27.045 40.377 Q27.77 40.377 28.227 40 Q28.685 39.624 28.685 39.023 Q28.685 38.541 28.401 38.206 Q28.118 37.872 27.303 37.389 Z M34.148 41.208 Q32.863 41.208 32.068 39.998 Q31.273 38.788 31.273 36.839 Q31.273 34.874 32.074 33.678 Q32.874 32.482 34.182 32.482 Q35.49 32.482 36.291 33.678 Q37.091 34.874 37.091 36.822 Q37.091 38.821 36.291 40.015 Q35.49 41.208 34.148 41.208 Z M34.16 40.377 Q35.917 40.377 35.917 36.805 Q35.917 33.313 34.182 33.313 Q32.453 33.313 32.453 36.839 Q32.453 40.377 34.16 40.377 Z" fill="#8C8478" fill-opacity="1"/>
<path d="M102.625 275.389 L126.625 275.389 L126.625 346 L102.625 346 L102.625 275.389 Z" fill="#B1512D" fill-opacity="1" clip-path="url(#c1)"/>
<path d="M102.625 125.833 L126.625 125.833 L126.625 275.389 L102.625 275.389 L102.625 125.833 Z" fill="#007C5D" fill-opacity="1" clip-path="url(#c1)"/>
<path d="M102.625 123.833 L102.625 73 Q102.625 69 106.625 69 L122.625 69 Q126.625 69 126.625 73 L126.625 123.833 Z" fill="#B68B16" fill-opacity="1" clip-path="url(#c1)"/>
<path d="M245.875 253 L269.875 253 L269.875 346 L245.875 346 L245.875 253 Z" fill="#B1512D" fill-opacity="1" clip-path="url(#c1)"/>
<path d="M245.875 131 L269.875 131 L269.875 253 L245.875 253 L245.875 131 Z" fill="#007C5D" fill-opacity="1" clip-path="url(#c1)"/>
<path d="M245.875 129 L245.875 73 Q245.875 69 249.875 69 L265.875 69 Q269.875 69 269.875 73 L269.875 129 Z" fill="#B68B16" fill-opacity="1" clip-path="url(#c1)"/>
<path d="M389.125 232.333 L413.125 232.333 L413.125 346 L389.125 346 L389.125 232.333 Z" fill="#B1512D" fill-opacity="1" clip-path="url(#c1)"/>
<path d="M389.125 129.278 L413.125 129.278 L413.125 232.333 L389.125 232.333 L389.125 129.278 Z" fill="#007C5D" fill-opacity="1" clip-path="url(#c1)"/>
<path d="M389.125 127.278 L389.125 79.889 Q389.125 75.889 393.125 75.889 L409.125 75.889 Q413.125 75.889 413.125 79.889 L413.125 127.278 Z" fill="#B68B16" fill-opacity="1" clip-path="url(#c1)"/>
<path d="M532.375 263.333 L556.375 263.333 L556.375 346 L532.375 346 L532.375 263.333 Z" fill="#B1512D" fill-opacity="1" clip-path="url(#c1)"/>
<path d="M532.375 103.444 L556.375 103.444 L556.375 263.333 L532.375 263.333 L532.375 103.444 Z" fill="#007C5D" fill-opacity="1" clip-path="url(#c1)"/>
<path d="M532.375 101.444 L532.375 47.167 Q532.375 43.167 536.375 43.167 L552.375 43.167 Q556.375 43.167 556.375 47.167 L556.375 101.444 Z" fill="#B68B16" fill-opacity="1" clip-path="url(#c1)"/>
<path d="M115.451 365.662 Q113.491 365.028 112.166 364.152 Q111.638 364.208 111.352 364.208 Q109.678 364.208 108.631 362.995 Q107.584 361.782 107.584 359.845 Q107.584 357.857 108.642 356.669 Q109.701 355.482 111.47 355.482 Q113.244 355.482 114.3 356.672 Q115.355 357.863 115.355 359.862 Q115.355 362.725 113.227 363.826 Q114.659 364.455 116.198 364.724 Z M111.436 363.326 Q112.711 363.326 113.407 362.411 Q114.103 361.496 114.103 359.822 Q114.103 358.199 113.407 357.281 Q112.711 356.363 111.47 356.363 Q110.229 356.363 109.532 357.281 Q108.836 358.199 108.836 359.833 Q108.836 361.462 109.527 362.394 Q110.218 363.326 111.436 363.326 Z M117.663 364 L117.663 363.169 L119.325 363.169 L119.325 356.61 L117.663 357.026 L117.663 356.172 L120.437 355.482 L120.437 363.169 L122.099 363.169 L122.099 364 Z" fill="#8C8478" fill-opacity="1"/>
<path d="M258.451 365.662 Q256.491 365.028 255.166 364.152 Q254.638 364.208 254.352 364.208 Q252.678 364.208 251.631 362.995 Q250.584 361.782 250.584 359.845 Q250.584 357.857 251.642 356.669 Q252.701 355.482 254.47 355.482 Q256.244 355.482 257.3 356.672 Q258.355 357.863 258.355 359.862 Q258.355 362.725 256.227 363.826 Q257.659 364.455 259.198 364.724 Z M254.436 363.326 Q255.711 363.326 256.407 362.411 Q257.103 361.496 257.103 359.822 Q257.103 358.199 256.407 357.281 Q255.711 356.363 254.47 356.363 Q253.229 356.363 252.532 357.281 Q251.836 358.199 251.836 359.833 Q251.836 361.462 252.527 362.394 Q253.218 363.326 254.436 363.326 Z M259.888 364 L259.888 363.029 Q260.371 361.9 261.843 360.569 L262.477 360.002 Q263.701 358.896 263.701 357.806 Q263.701 357.11 263.283 356.711 Q262.865 356.313 262.135 356.313 Q261.27 356.313 260.096 356.981 L260.096 356.004 Q261.202 355.482 262.292 355.482 Q263.46 355.482 264.167 356.111 Q264.875 356.74 264.875 357.778 Q264.875 358.525 264.518 359.104 Q264.162 359.682 263.19 360.507 L262.763 360.872 Q261.433 362.001 261.225 363.029 L264.835 363.029 L264.835 364 Z" fill="#8C8478" fill-opacity="1"/>
<path d="M401.451 365.662 Q399.491 365.028 398.166 364.152 Q397.638 364.208 397.352 364.208 Q395.678 364.208 394.631 362.995 Q393.584 361.782 393.584 359.845 Q393.584 357.857 394.642 356.669 Q395.701 355.482 397.47 355.482 Q399.244 355.482 400.3 356.672 Q401.355 357.863 401.355 359.862 Q401.355 362.725 399.227 363.826 Q400.659 364.455 402.198 364.724 Z M397.436 363.326 Q398.711 363.326 399.407 362.411 Q400.103 361.496 400.103 359.822 Q400.103 358.199 399.407 357.281 Q398.711 356.363 397.47 356.363 Q396.229 356.363 395.532 357.281 Q394.836 358.199 394.836 359.833 Q394.836 361.462 395.527 362.394 Q396.218 363.326 397.436 363.326 Z M403.102 363.938 L403.102 362.905 Q404.292 363.377 404.977 363.377 Q405.769 363.377 406.266 362.913 Q406.763 362.45 406.763 361.715 Q406.763 359.963 404.309 359.963 L403.871 359.963 L403.871 359.216 L404.259 359.21 Q406.561 359.21 406.561 357.587 Q406.561 356.313 405.045 356.313 Q404.214 356.313 403.214 356.779 L403.214 355.813 Q404.197 355.482 405.123 355.482 Q407.673 355.482 407.673 357.408 Q407.673 358.873 405.938 359.497 Q407.948 359.963 407.948 361.698 Q407.948 362.871 407.173 363.54 Q406.398 364.208 405.045 364.208 Q404.275 364.208 403.102 363.938 Z" fill="#8C8478" fill-opacity="1"/>
<path d="M544.451 365.662 Q542.491 365.028 541.166 364.152 Q540.638 364.208 540.352 364.208 Q538.678 364.208 537.631 362.995 Q536.584 361.782 536.584 359.845 Q536.584 357.857 537.642 356.669 Q538.701 355.482 540.47 355.482 Q542.244 355.482 543.3 356.672 Q544.355 357.863 544.355 359.862 Q544.355 362.725 542.227 363.826 Q543.659 364.455 545.198 364.724 Z M540.436 363.326 Q541.711 363.326 542.407 362.411 Q543.103 361.496 543.103 359.822 Q543.103 358.199 542.407 357.281 Q541.711 356.363 540.47 356.363 Q539.229 356.363 538.532 357.281 Q537.836 358.199 537.836 359.833 Q537.836 361.462 538.527 362.394 Q539.218 363.326 540.436 363.326 Z M549.263 364 L549.263 361.647 L545.523 361.647 L545.523 360.811 L549.263 355.689 L550.302 355.689 L550.302 360.743 L551.414 360.743 L551.414 361.647 L550.302 361.647 L550.302 364 Z M546.607 360.743 L549.336 360.743 L549.336 357.048 Z" fill="#8C8478" fill-opacity="1"/>
<path d="M243 379 L253 379 L253 389 L243 389 L243 379 Z" fill="#B1512D" fill-opacity="1"/>
<path d="M259.701 389.208 Q258.864 389.208 257.562 388.843 L257.562 387.675 Q258.965 388.326 259.869 388.326 Q260.566 388.326 260.99 387.961 Q261.414 387.596 261.414 387.001 Q261.414 386.512 261.136 386.17 Q260.858 385.827 260.111 385.406 L259.538 385.075 Q258.477 384.469 258.042 383.932 Q257.606 383.396 257.606 382.683 Q257.606 381.723 258.303 381.102 Q258.999 380.482 260.077 380.482 Q261.037 380.482 262.104 380.802 L262.104 381.88 Q260.79 381.363 260.145 381.363 Q259.532 381.363 259.134 381.689 Q258.735 382.015 258.735 382.509 Q258.735 382.924 259.027 383.244 Q259.319 383.564 260.094 384.008 L260.689 384.345 Q261.767 384.957 262.194 385.502 Q262.621 386.046 262.621 386.81 Q262.621 387.894 261.821 388.551 Q261.021 389.208 259.701 389.208 Z M266.686 389.14 Q265.378 389.14 264.597 388.273 Q263.817 387.405 263.817 385.951 Q263.817 384.48 264.6 383.623 Q265.384 382.767 266.726 382.767 Q268.068 382.767 268.851 383.623 Q269.634 384.48 269.634 385.94 Q269.634 387.433 268.848 388.287 Q268.062 389.14 266.686 389.14 Z M266.703 388.309 Q268.461 388.309 268.461 385.94 Q268.461 383.598 266.726 383.598 Q264.996 383.598 264.996 385.951 Q264.996 388.309 266.703 388.309 Z M271.364 389 L271.364 380.134 L272.47 380.134 L272.47 389 Z M277.833 388.225 Q276.839 389.14 275.918 389.14 Q275.16 389.14 274.66 388.666 Q274.16 388.191 274.16 387.467 Q274.16 386.468 275 385.931 Q275.839 385.395 277.406 385.395 L277.67 385.395 L277.67 384.659 Q277.67 383.598 276.58 383.598 Q275.704 383.598 274.688 384.137 L274.688 383.222 Q275.805 382.767 276.782 382.767 Q277.804 382.767 278.29 383.228 Q278.776 383.688 278.776 384.659 L278.776 387.422 Q278.776 388.371 279.36 388.371 Q279.433 388.371 279.573 388.349 L279.652 388.961 Q279.276 389.14 278.821 389.14 Q278.046 389.14 277.833 388.225 Z M277.67 387.624 L277.67 386.046 L277.299 386.035 Q276.389 386.035 275.828 386.38 Q275.266 386.726 275.266 387.287 Q275.266 387.686 275.547 387.961 Q275.828 388.236 276.232 388.236 Q276.923 388.236 277.67 387.624 Z M281.039 389 L281.039 382.902 L282.145 382.902 L282.145 384.047 Q282.802 382.767 284.054 382.767 Q284.223 382.767 284.408 382.795 L284.408 383.828 Q284.122 383.733 283.903 383.733 Q282.853 383.733 282.145 384.979 L282.145 389 Z" fill="#2B2620" fill-opacity="1"/>
<path d="M296 379 L306 379 L306 389 L296 389 L296 379 Z" fill="#007C5D" fill-opacity="1"/>
<path d="M312.151 389 L310.011 380.689 L311.146 380.689 L312.847 387.254 L314.414 380.689 L315.548 380.689 L317.03 387.164 L318.861 380.689 L319.821 380.689 L317.491 389 L316.317 389 L314.852 382.593 L313.319 389 Z M320.944 389 L320.944 382.902 L322.05 382.902 L322.05 389 Z M320.944 381.796 L320.944 380.689 L322.05 380.689 L322.05 381.796 Z M324.268 389 L324.268 382.902 L325.375 382.902 L325.375 384.047 Q326.25 382.767 327.52 382.767 Q328.311 382.767 328.783 383.27 Q329.255 383.772 329.255 384.62 L329.255 389 L328.148 389 L328.148 384.979 Q328.148 384.3 327.949 384.011 Q327.75 383.722 327.289 383.722 Q326.273 383.722 325.375 385.052 L325.375 389 Z M335.319 389 L335.319 387.854 Q334.645 389.14 333.286 389.14 Q332.186 389.14 331.554 388.337 Q330.922 387.534 330.922 386.142 Q330.922 384.62 331.638 383.694 Q332.354 382.767 333.522 382.767 Q334.606 382.767 335.319 383.598 L335.319 380.134 L336.431 380.134 L336.431 389 Z M335.319 384.356 Q334.46 383.598 333.691 383.598 Q332.102 383.598 332.102 386.03 Q332.102 388.169 333.517 388.169 Q334.438 388.169 335.319 387.164 Z" fill="#2B2620" fill-opacity="1"/>
<path d="M349 379 L359 379 L359 389 L349 389 L349 379 Z" fill="#B68B16" fill-opacity="1"/>
<path d="M364.073 389 L364.073 380.689 L365.252 380.689 L365.252 384.193 L369.205 384.193 L369.205 380.689 L370.384 380.689 L370.384 389 L369.205 389 L369.205 385.075 L365.252 385.075 L365.252 389 Z M372.911 391.218 L373.899 389 L371.541 382.902 L372.737 382.902 L374.483 387.495 L376.347 382.902 L377.392 382.902 L374.062 391.218 Z M382.479 389 L382.479 387.854 Q381.805 389.14 380.447 389.14 Q379.346 389.14 378.714 388.337 Q378.083 387.534 378.083 386.142 Q378.083 384.62 378.798 383.694 Q379.514 382.767 380.682 382.767 Q381.766 382.767 382.479 383.598 L382.479 380.134 L383.591 380.134 L383.591 389 Z M382.479 384.356 Q381.62 383.598 380.851 383.598 Q379.262 383.598 379.262 386.03 Q379.262 388.169 380.677 388.169 Q381.598 388.169 382.479 387.164 Z M385.803 389 L385.803 382.902 L386.91 382.902 L386.91 384.047 Q387.567 382.767 388.819 382.767 Q388.987 382.767 389.173 382.795 L389.173 383.828 Q388.886 383.733 388.667 383.733 Q387.617 383.733 386.91 384.979 L386.91 389 Z M392.896 389.14 Q391.587 389.14 390.807 388.273 Q390.026 387.405 390.026 385.951 Q390.026 384.48 390.809 383.623 Q391.593 382.767 392.935 382.767 Q394.277 382.767 395.06 383.623 Q395.844 384.48 395.844 385.94 Q395.844 387.433 395.057 388.287 Q394.271 389.14 392.896 389.14 Z M392.912 388.309 Q394.67 388.309 394.67 385.94 Q394.67 383.598 392.935 383.598 Q391.205 383.598 391.205 385.951 Q391.205 388.309 392.912 388.309 Z" fill="#2B2620" fill-opacity="1"/>
</svg>
