<svg xmlns="http://www.w3.org/2000/svg" width="760" height="400" viewBox="0 0 760 400">
<defs>
<clipPath id="c1" clipPathUnits="userSpaceOnUse"><path d="M54 36 L736 36 L736 363 L54 363 L54 36 Z"/></clipPath>
</defs>
<path d="M0 0 L760 0 L760 400 L0 400 L0 0 Z" fill="#FAF6EF" fill-opacity="1"/>
<path d="M16.647 20.917 L16.647 19.305 Q18.165 19.94 19.244 19.94 Q19.999 19.94 20.434 19.604 Q20.869 19.267 20.869 18.689 Q20.869 18.232 20.596 17.918 Q20.323 17.604 19.561 17.172 L18.933 16.823 Q17.669 16.112 17.149 15.462 Q16.628 14.811 16.628 13.941 Q16.628 12.78 17.482 12.075 Q18.336 11.371 19.739 11.371 Q20.862 11.371 22.271 11.694 L22.271 13.199 Q20.831 12.659 19.993 12.659 Q19.345 12.659 18.955 12.948 Q18.564 13.237 18.564 13.707 Q18.564 14.094 18.837 14.386 Q19.11 14.678 19.866 15.103 L20.539 15.478 Q21.897 16.239 22.411 16.88 Q22.925 17.521 22.925 18.442 Q22.925 19.75 21.954 20.492 Q20.983 21.235 19.275 21.235 Q18.146 21.235 16.647 20.917 Z M28.194 20.962 Q27.521 21.159 27.134 21.159 Q24.69 21.159 24.69 18.874 L24.69 15.205 L23.909 15.205 L23.909 14.03 L24.69 14.03 L24.69 12.856 L26.569 12.64 L26.569 14.03 L28.061 14.03 L28.061 15.205 L26.569 15.205 L26.569 18.626 Q26.569 19.908 27.616 19.908 Q27.857 19.908 28.194 19.819 Z M35.544 20.765 Q34.205 21.159 33.005 21.159 Q31.26 21.159 30.25 20.168 Q29.241 19.178 29.241 17.464 Q29.241 15.846 30.165 14.859 Q31.088 13.872 32.605 13.872 Q34.135 13.872 34.84 14.836 Q35.544 15.801 35.544 17.89 L31.222 17.89 Q31.412 19.883 33.412 19.883 Q34.357 19.883 35.544 19.445 Z M31.196 16.83 L33.697 16.83 Q33.697 15.046 32.548 15.046 Q31.38 15.046 31.196 16.83 Z M40.902 20.251 Q39.962 21.159 38.89 21.159 Q37.976 21.159 37.404 20.6 Q36.833 20.042 36.833 19.153 Q36.833 17.998 37.757 17.372 Q38.68 16.747 40.4 16.747 L40.902 16.747 L40.902 16.112 Q40.902 15.027 39.664 15.027 Q38.566 15.027 37.442 15.649 L37.442 14.354 Q38.718 13.872 39.969 13.872 Q42.705 13.872 42.705 16.049 L42.705 19.134 Q42.705 19.953 43.231 19.953 Q43.327 19.953 43.479 19.927 L43.523 20.981 Q42.927 21.159 42.47 21.159 Q41.314 21.159 40.984 20.251 Z M40.902 19.242 L40.902 17.826 L40.458 17.826 Q38.636 17.826 38.636 18.969 Q38.636 19.356 38.899 19.619 Q39.163 19.883 39.55 19.883 Q40.21 19.883 40.902 19.242 Z M49.516 21 L49.516 19.686 Q48.792 21.159 47.237 21.159 Q45.98 21.159 45.263 20.238 Q44.545 19.318 44.545 17.706 Q44.545 15.954 45.355 14.913 Q46.164 13.872 47.529 13.872 Q48.621 13.872 49.516 14.735 L49.516 10.977 L51.401 10.977 L51.401 21 Z M49.516 15.852 Q48.836 15.09 48.062 15.09 Q47.37 15.09 46.958 15.757 Q46.545 16.423 46.545 17.547 Q46.545 19.686 47.916 19.686 Q48.754 19.686 49.516 18.613 Z M53.769 23.507 L55.349 21 L52.766 14.03 L54.784 14.03 L56.511 18.689 L58.561 14.03 L59.989 14.03 L55.686 23.507 Z M65.658 23.165 L65.81 21.8 Q66.972 22.333 68.025 22.333 Q69.066 22.333 69.53 21.889 Q69.993 21.444 69.993 20.448 L69.993 19.496 Q69.308 21 67.727 21 Q66.483 21 65.753 20.07 Q65.023 19.14 65.023 17.553 Q65.023 15.884 65.842 14.878 Q66.661 13.872 68.019 13.872 Q69.085 13.872 69.993 14.735 L70.19 14.03 L71.878 14.03 L71.878 19.35 Q71.878 20.943 71.685 21.647 Q71.491 22.352 70.933 22.847 Q69.993 23.66 68.286 23.66 Q67.073 23.66 65.658 23.165 Z M69.993 18.404 L69.993 15.833 Q69.314 15.065 68.571 15.065 Q67.86 15.065 67.441 15.712 Q67.022 16.36 67.022 17.452 Q67.022 19.496 68.336 19.496 Q69.244 19.496 69.993 18.404 Z M74.183 21 L74.183 14.03 L76.062 14.03 L76.062 15.344 Q76.792 13.872 78.283 13.872 Q78.461 13.872 78.632 13.91 L78.632 15.585 Q78.232 15.439 77.89 15.439 Q76.766 15.439 76.062 16.576 L76.062 21 Z M83.019 21.159 Q81.387 21.159 80.426 20.172 Q79.464 19.185 79.464 17.515 Q79.464 15.827 80.432 14.849 Q81.4 13.872 83.063 13.872 Q84.732 13.872 85.7 14.849 Q86.668 15.827 86.668 17.502 Q86.668 19.216 85.697 20.188 Q84.726 21.159 83.019 21.159 Z M83.05 19.984 Q84.669 19.984 84.669 17.502 Q84.669 16.366 84.24 15.706 Q83.812 15.046 83.063 15.046 Q82.32 15.046 81.892 15.706 Q81.463 16.366 81.463 17.515 Q81.463 18.651 81.889 19.318 Q82.314 19.984 83.05 19.984 Z M89.626 21 L87.69 14.03 L89.436 14.03 L90.807 18.912 L92.267 14.03 L93.892 14.03 L95.206 18.937 L96.685 14.03 L97.993 14.03 L95.923 21 L94.121 21 L92.851 16.22 L91.429 21 Z M103.204 20.962 Q102.531 21.159 102.144 21.159 Q99.7 21.159 99.7 18.874 L99.7 15.205 L98.919 15.205 L98.919 14.03 L99.7 14.03 L99.7 12.856 L101.579 12.64 L101.579 14.03 L103.071 14.03 L103.071 15.205 L101.579 15.205 L101.579 18.626 Q101.579 19.908 102.626 19.908 Q102.868 19.908 103.204 19.819 Z M104.88 21 L104.88 10.977 L106.759 10.977 L106.759 15.344 Q107.679 13.872 109.133 13.872 Q110.066 13.872 110.605 14.462 Q111.145 15.052 111.145 16.074 L111.145 21 L109.266 21 L109.266 16.538 Q109.266 15.351 108.479 15.351 Q107.584 15.351 106.759 16.614 L106.759 21 Z M113.614 21 L112.833 21 L112.833 18.962 L114.871 18.962 L114.871 20.543 Q114.871 23.038 112.833 23.038 L112.833 22.333 Q113.614 22.333 113.614 21.203 Z M125.3 23.507 L125.3 19.686 Q124.577 21.159 123.021 21.159 Q121.765 21.159 121.047 20.238 Q120.33 19.318 120.33 17.706 Q120.33 15.954 121.139 14.913 Q121.949 13.872 123.313 13.872 Q124.405 13.872 125.3 14.735 L125.535 14.03 L127.186 14.03 L127.186 23.507 Z M125.3 15.852 Q124.621 15.09 123.847 15.09 Q123.155 15.09 122.742 15.757 Q122.33 16.423 122.33 17.547 Q122.33 19.686 123.701 19.686 Q124.539 19.686 125.3 18.613 Z M133.838 21 L133.838 19.686 Q132.924 21.159 131.464 21.159 Q130.531 21.159 129.991 20.568 Q129.452 19.978 129.452 18.956 L129.452 14.03 L131.331 14.03 L131.331 18.493 Q131.331 19.68 132.124 19.68 Q133.013 19.68 133.838 18.417 L133.838 14.03 L135.717 14.03 L135.717 21 Z M138.065 21 L138.065 14.03 L139.944 14.03 L139.944 21 Z M138.065 12.856 L138.065 11.288 L139.944 11.288 L139.944 12.856 Z M147.968 20.765 Q146.628 21.159 145.429 21.159 Q143.683 21.159 142.674 20.168 Q141.665 19.178 141.665 17.464 Q141.665 15.846 142.588 14.859 Q143.512 13.872 145.029 13.872 Q146.559 13.872 147.263 14.836 Q147.968 15.801 147.968 17.89 L143.645 17.89 Q143.835 19.883 145.835 19.883 Q146.781 19.883 147.968 19.445 Z M143.62 16.83 L146.121 16.83 Q146.121 15.046 144.972 15.046 Q143.804 15.046 143.62 16.83 Z M153.503 20.962 Q152.83 21.159 152.443 21.159 Q149.999 21.159 149.999 18.874 L149.999 15.205 L149.218 15.205 L149.218 14.03 L149.999 14.03 L149.999 12.856 L151.878 12.64 L151.878 14.03 L153.37 14.03 L153.37 15.205 L151.878 15.205 L151.878 18.626 Q151.878 19.908 152.925 19.908 Q153.167 19.908 153.503 19.819 Z M160.695 21 L158.759 14.03 L160.504 14.03 L161.875 18.912 L163.335 14.03 L164.96 14.03 L166.274 18.937 L167.753 14.03 L169.061 14.03 L166.992 21 L165.189 21 L163.919 16.22 L162.498 21 Z M176.354 20.765 Q175.015 21.159 173.815 21.159 Q172.07 21.159 171.061 20.168 Q170.051 19.178 170.051 17.464 Q170.051 15.846 170.975 14.859 Q171.898 13.872 173.416 13.872 Q174.945 13.872 175.65 14.836 Q176.354 15.801 176.354 17.89 L172.032 17.89 Q172.222 19.883 174.222 19.883 Q175.167 19.883 176.354 19.445 Z M172.006 16.83 L174.507 16.83 Q174.507 15.046 173.358 15.046 Q172.19 15.046 172.006 16.83 Z M183.972 20.765 Q182.632 21.159 181.433 21.159 Q179.687 21.159 178.678 20.168 Q177.668 19.178 177.668 17.464 Q177.668 15.846 178.592 14.859 Q179.516 13.872 181.033 13.872 Q182.563 13.872 183.267 14.836 Q183.972 15.801 183.972 17.89 L179.649 17.89 Q179.839 19.883 181.839 19.883 Q182.785 19.883 183.972 19.445 Z M179.624 16.83 L182.125 16.83 Q182.125 15.046 180.976 15.046 Q179.808 15.046 179.624 16.83 Z M185.914 21 L185.914 10.977 L187.793 10.977 L187.793 17.28 L187.914 17.28 L190.396 14.03 L191.957 14.03 L189.666 17.014 L192.674 21 L190.389 21 L187.914 17.515 L187.793 17.515 L187.793 21 Z M199.815 20.765 Q198.476 21.159 197.276 21.159 Q195.531 21.159 194.521 20.168 Q193.512 19.178 193.512 17.464 Q193.512 15.846 194.436 14.859 Q195.359 13.872 196.876 13.872 Q198.406 13.872 199.111 14.836 Q199.815 15.801 199.815 17.89 L195.493 17.89 Q195.683 19.883 197.683 19.883 Q198.628 19.883 199.815 19.445 Z M195.467 16.83 L197.968 16.83 Q197.968 15.046 196.819 15.046 Q195.651 15.046 195.467 16.83 Z M201.758 21 L201.758 14.03 L203.637 14.03 L203.637 15.344 Q204.557 13.872 206.011 13.872 Q206.944 13.872 207.483 14.462 Q208.023 15.052 208.023 16.074 L208.023 21 L206.144 21 L206.144 16.538 Q206.144 15.351 205.357 15.351 Q204.462 15.351 203.637 16.614 L203.637 21 Z M214.682 21 L214.682 19.686 Q213.958 21.159 212.403 21.159 Q211.146 21.159 210.429 20.238 Q209.711 19.318 209.711 17.706 Q209.711 15.954 210.521 14.913 Q211.33 13.872 212.695 13.872 Q213.787 13.872 214.682 14.735 L214.682 10.977 L216.567 10.977 L216.567 21 Z M214.682 15.852 Q214.002 15.09 213.228 15.09 Q212.536 15.09 212.124 15.757 Q211.711 16.423 211.711 17.547 Q211.711 19.686 213.082 19.686 Q213.92 19.686 214.682 18.613 Z M218.725 20.778 L218.725 19.4 Q220.122 19.984 221.112 19.984 Q222.267 19.984 222.267 19.197 Q222.267 18.689 221.315 18.309 L220.68 18.055 Q219.646 17.636 219.201 17.153 Q218.757 16.671 218.757 15.96 Q218.757 14.97 219.512 14.421 Q220.268 13.872 221.626 13.872 Q222.477 13.872 223.651 14.119 L223.651 15.439 Q222.521 15.046 221.778 15.046 Q220.61 15.046 220.61 15.77 Q220.61 16.246 221.474 16.576 L222.02 16.785 Q223.245 17.249 223.724 17.725 Q224.203 18.201 224.203 18.95 Q224.203 19.934 223.387 20.546 Q222.572 21.159 221.264 21.159 Q220.007 21.159 218.725 20.778 Z" fill="#2B2620" fill-opacity="1"/>
<path d="M54 363 L736 363" fill="none" stroke="#E6DFD2" stroke-opacity="1" stroke-width="1" stroke-linecap="square" stroke-linejoin="miter"/>
<path d="M17.729 368 L17.729 367.169 L19.392 367.169 L19.392 360.61 L17.729 361.026 L17.729 360.172 L20.503 359.482 L20.503 367.169 L22.166 367.169 L22.166 368 Z M24.395 369.802 L24.395 369.387 Q24.934 369.235 24.934 368.112 L24.934 368 L24.395 368 L24.395 366.613 L25.782 366.613 L25.782 367.815 Q25.782 369.662 24.395 369.802 Z M30.515 368.208 Q29.229 368.208 28.435 366.998 Q27.64 365.788 27.64 363.839 Q27.64 361.874 28.441 360.678 Q29.241 359.482 30.549 359.482 Q31.857 359.482 32.658 360.678 Q33.458 361.874 33.458 363.822 Q33.458 365.821 32.658 367.015 Q31.857 368.208 30.515 368.208 Z M30.527 367.377 Q32.284 367.377 32.284 363.805 Q32.284 360.313 30.549 360.313 Q28.82 360.313 28.82 363.839 Q28.82 367.377 30.527 367.377 Z M37.787 368.208 Q36.501 368.208 35.707 366.998 Q34.912 365.788 34.912 363.839 Q34.912 361.874 35.712 360.678 Q36.512 359.482 37.821 359.482 Q39.129 359.482 39.929 360.678 Q40.729 361.874 40.729 363.822 Q40.729 365.821 39.929 367.015 Q39.129 368.208 37.787 368.208 Z M37.798 367.377 Q39.556 367.377 39.556 363.805 Q39.556 360.313 37.821 360.313 Q36.091 360.313 36.091 363.839 Q36.091 367.377 37.798 367.377 Z M45.059 368.208 Q43.773 368.208 42.978 366.998 Q42.184 365.788 42.184 363.839 Q42.184 361.874 42.984 360.678 Q43.784 359.482 45.093 359.482 Q46.401 359.482 47.201 360.678 Q48.001 361.874 48.001 363.822 Q48.001 365.821 47.201 367.015 Q46.401 368.208 45.059 368.208 Z M45.07 367.377 Q46.828 367.377 46.828 363.805 Q46.828 360.313 45.093 360.313 Q43.363 360.313 43.363 363.839 Q43.363 367.377 45.07 367.377 Z" fill="#8C8478" fill-opacity="1"/>
<path d="M54 330 L736 330" fill="none" stroke="#E6DFD2" stroke-opacity="1" stroke-width="1" stroke-linecap="square" stroke-linejoin="miter"/>
<path d="M17.729 335 L17.729 334.169 L19.392 334.169 L19.392 327.61 L17.729 328.026 L17.729 327.172 L20.503 326.482 L20.503 334.169 L22.166 334.169 L22.166 335 Z M24.395 336.802 L24.395 336.387 Q24.934 336.235 24.934 335.112 L24.934 335 L24.395 335 L24.395 333.613 L25.782 333.613 L25.782 334.815 Q25.782 336.662 24.395 336.802 Z M28.64 335 L28.64 334.169 L30.302 334.169 L30.302 327.61 L28.64 328.026 L28.64 327.172 L31.414 326.482 L31.414 334.169 L33.076 334.169 L33.076 335 Z M37.787 335.208 Q36.501 335.208 35.707 333.998 Q34.912 332.788 34.912 330.839 Q34.912 328.874 35.712 327.678 Q36.512 326.482 37.821 326.482 Q39.129 326.482 39.929 327.678 Q40.729 328.874 40.729 330.822 Q40.729 332.821 39.929 334.015 Q39.129 335.208 37.787 335.208 Z M37.798 334.377 Q39.556 334.377 39.556 330.805 Q39.556 327.313 37.821 327.313 Q36.091 327.313 36.091 330.839 Q36.091 334.377 37.798 334.377 Z M45.059 335.208 Q43.773 335.208 42.978 333.998 Q42.184 332.788 42.184 330.839 Q42.184 328.874 42.984 327.678 Q43.784 326.482 45.093 326.482 Q46.401 326.482 47.201 327.678 Q48.001 328.874 48.001 330.822 Q48.001 332.821 47.201 334.015 Q46.401 335.208 45.059 335.208 Z M45.07 334.377 Q46.828 334.377 46.828 330.805 Q46.828 327.313 45.093 327.313 Q43.363 327.313 43.363 330.839 Q43.363 334.377 45.07 334.377 Z" fill="#8C8478" fill-opacity="1"/>
<path d="M54 298 L736 298" fill="none" stroke="#E6DFD2" stroke-opacity="1" stroke-width="1" stroke-linecap="square" stroke-linejoin="miter"/>
<path d="M17.729 303 L17.729 302.169 L19.392 302.169 L19.392 295.61 L17.729 296.026 L17.729 295.172 L20.503 294.482 L20.503 302.169 L22.166 302.169 L22.166 303 Z M24.395 304.802 L24.395 304.387 Q24.934 304.235 24.934 303.112 L24.934 303 L24.395 303 L24.395 301.613 L25.782 301.613 L25.782 302.815 Q25.782 304.662 24.395 304.802 Z M27.865 303 L27.865 302.029 Q28.348 300.9 29.819 299.569 L30.454 299.002 Q31.678 297.896 31.678 296.806 Q31.678 296.11 31.259 295.711 Q30.841 295.313 30.111 295.313 Q29.246 295.313 28.073 295.981 L28.073 295.004 Q29.179 294.482 30.268 294.482 Q31.436 294.482 32.144 295.111 Q32.851 295.74 32.851 296.778 Q32.851 297.525 32.495 298.104 Q32.138 298.682 31.167 299.507 L30.74 299.872 Q29.409 301.001 29.201 302.029 L32.812 302.029 L32.812 303 Z M37.787 303.208 Q36.501 303.208 35.707 301.998 Q34.912 300.788 34.912 298.839 Q34.912 296.874 35.712 295.678 Q36.512 294.482 37.821 294.482 Q39.129 294.482 39.929 295.678 Q40.729 296.874 40.729 298.822 Q40.729 300.821 39.929 302.015 Q39.129 303.208 37.787 303.208 Z M37.798 302.377 Q39.556 302.377 39.556 298.805 Q39.556 295.313 37.821 295.313 Q36.091 295.313 36.091 298.839 Q36.091 302.377 37.798 302.377 Z M45.059 303.208 Q43.773 303.208 42.978 301.998 Q42.184 300.788 42.184 298.839 Q42.184 296.874 42.984 295.678 Q43.784 294.482 45.093 294.482 Q46.401 294.482 47.201 295.678 Q48.001 296.874 48.001 298.822 Q48.001 300.821 47.201 302.015 Q46.401 303.208 45.059 303.208 Z M45.07 302.377 Q46.828 302.377 46.828 298.805 Q46.828 295.313 45.093 295.313 Q43.363 295.313 43.363 298.839 Q43.363 302.377 45.07 302.377 Z" fill="#8C8478" fill-opacity="1"/>
<path d="M54 265 L736 265" fill="none" stroke="#E6DFD2" stroke-opacity="1" stroke-width="1" stroke-linecap="square" stroke-linejoin="miter"/>
<path d="M17.729 270 L17.729 269.169 L19.392 269.169 L19.392 262.61 L17.729 263.026 L17.729 262.172 L20.503 261.482 L20.503 269.169 L22.166 269.169 L22.166 270 Z M24.395 271.802 L24.395 271.387 Q24.934 271.235 24.934 270.112 L24.934 270 L24.395 270 L24.395 268.613 L25.782 268.613 L25.782 269.815 Q25.782 271.662 24.395 271.802 Z M28.078 269.938 L28.078 268.905 Q29.269 269.377 29.954 269.377 Q30.746 269.377 31.243 268.913 Q31.74 268.45 31.74 267.715 Q31.74 265.963 29.286 265.963 L28.848 265.963 L28.848 265.216 L29.235 265.21 Q31.537 265.21 31.537 263.587 Q31.537 262.313 30.021 262.313 Q29.19 262.313 28.191 262.779 L28.191 261.813 Q29.173 261.482 30.1 261.482 Q32.649 261.482 32.649 263.408 Q32.649 264.873 30.914 265.497 Q32.924 265.963 32.924 267.698 Q32.924 268.871 32.149 269.54 Q31.375 270.208 30.021 270.208 Q29.252 270.208 28.078 269.938 Z M37.787 270.208 Q36.501 270.208 35.707 268.998 Q34.912 267.788 34.912 265.839 Q34.912 263.874 35.712 262.678 Q36.512 261.482 37.821 261.482 Q39.129 261.482 39.929 262.678 Q40.729 263.874 40.729 265.822 Q40.729 267.821 39.929 269.015 Q39.129 270.208 37.787 270.208 Z M37.798 269.377 Q39.556 269.377 39.556 265.805 Q39.556 262.313 37.821 262.313 Q36.091 262.313 36.091 265.839 Q36.091 269.377 37.798 269.377 Z M45.059 270.208 Q43.773 270.208 42.978 268.998 Q42.184 267.788 42.184 265.839 Q42.184 263.874 42.984 262.678 Q43.784 261.482 45.093 261.482 Q46.401 261.482 47.201 262.678 Q48.001 263.874 48.001 265.822 Q48.001 267.821 47.201 269.015 Q46.401 270.208 45.059 270.208 Z M45.07 269.377 Q46.828 269.377 46.828 265.805 Q46.828 262.313 45.093 262.313 Q43.363 262.313 43.363 265.839 Q43.363 269.377 45.07 269.377 Z" fill="#8C8478" fill-opacity="1"/>
<path d="M54 232 L736 232" fill="none" stroke="#E6DFD2" stroke-opacity="1" stroke-width="1" stroke-linecap="square" stroke-linejoin="miter"/>
<path d="M17.729 237 L17.729 236.169 L19.392 236.169 L19.392 229.61 L17.729 230.026 L17.729 229.172 L20.503 228.482 L20.503 236.169 L22.166 236.169 L22.166 237 Z M24.395 238.802 L24.395 238.387 Q24.934 238.235 24.934 237.112 L24.934 237 L24.395 237 L24.395 235.613 L25.782 235.613 L25.782 236.815 Q25.782 238.662 24.395 238.802 Z M31.24 237 L31.24 234.647 L27.5 234.647 L27.5 233.811 L31.24 228.689 L32.279 228.689 L32.279 233.743 L33.39 233.743 L33.39 234.647 L32.279 234.647 L32.279 237 Z M28.584 233.743 L31.313 233.743 L31.313 230.048 Z M37.787 237.208 Q36.501 237.208 35.707 235.998 Q34.912 234.788 34.912 232.839 Q34.912 230.874 35.712 229.678 Q36.512 228.482 37.821 228.482 Q39.129 228.482 39.929 229.678 Q40.729 230.874 40.729 232.822 Q40.729 234.821 39.929 236.015 Q39.129 237.208 37.787 237.208 Z M37.798 236.377 Q39.556 236.377 39.556 232.805 Q39.556 229.313 37.821 229.313 Q36.091 229.313 36.091 232.839 Q36.091 236.377 37.798 236.377 Z M45.059 237.208 Q43.773 237.208 42.978 235.998 Q42.184 234.788 42.184 232.839 Q42.184 230.874 42.984 229.678 Q43.784 228.482 45.093 228.482 Q46.401 228.482 47.201 229.678 Q48.001 230.874 48.001 232.822 Q48.001 234.821 47.201 236.015 Q46.401 237.208 45.059 237.208 Z M45.07 236.377 Q46.828 236.377 46.828 232.805 Q46.828 229.313 45.093 229.313 Q43.363 229.313 43.363 232.839 Q43.363 236.377 45.07 236.377 Z" fill="#8C8478" fill-opacity="1"/>
<path d="M54 200 L736 200" fill="none" stroke="#E6DFD2" stroke-opacity="1" stroke-width="1" stroke-linecap="square" stroke-linejoin="miter"/>
<path d="M17.729 205 L17.729 204.169 L19.392 204.169 L19.392 197.61 L17.729 198.026 L17.729 197.172 L20.503 196.482 L20.503 204.169 L22.166 204.169 L22.166 205 Z M24.395 206.802 L24.395 206.387 Q24.934 206.235 24.934 205.112 L24.934 205 L24.395 205 L24.395 203.613 L25.782 203.613 L25.782 204.815 Q25.782 206.662 24.395 206.802 Z M28.309 205.034 L28.309 204.045 Q29.134 204.377 29.881 204.377 Q30.701 204.377 31.17 203.894 Q31.638 203.411 31.638 202.563 Q31.638 200.693 29.061 200.693 Q28.769 200.693 28.449 200.732 L28.449 196.689 L32.655 196.689 L32.655 197.655 L29.42 197.655 L29.42 199.845 Q31.021 199.845 31.919 200.581 Q32.818 201.316 32.818 202.619 Q32.818 203.832 32.001 204.52 Q31.184 205.208 29.735 205.208 Q29.106 205.208 28.309 205.034 Z M37.787 205.208 Q36.501 205.208 35.707 203.998 Q34.912 202.788 34.912 200.839 Q34.912 198.874 35.712 197.678 Q36.512 196.482 37.821 196.482 Q39.129 196.482 39.929 197.678 Q40.729 198.874 40.729 200.822 Q40.729 202.821 39.929 204.015 Q39.129 205.208 37.787 205.208 Z M37.798 204.377 Q39.556 204.377 39.556 200.805 Q39.556 197.313 37.821 197.313 Q36.091 197.313 36.091 200.839 Q36.091 204.377 37.798 204.377 Z M45.059 205.208 Q43.773 205.208 42.978 203.998 Q42.184 202.788 42.184 200.839 Q42.184 198.874 42.984 197.678 Q43.784 196.482 45.093 196.482 Q46.401 196.482 47.201 197.678 Q48.001 198.874 48.001 200.822 Q48.001 202.821 47.201 204.015 Q46.401 205.208 45.059 205.208 Z M45.07 204.377 Q46.828 204.377 46.828 200.805 Q46.828 197.313 45.093 197.313 Q43.363 197.313 43.363 200.839 Q43.363 204.377 45.07 204.377 Z" fill="#8C8478" fill-opacity="1"/>
<path d="M54 167 L736 167" fill="none" stroke="#E6DFD2" stroke-opacity="1" stroke-width="1" stroke-linecap="square" stroke-linejoin="miter"/>
<path d="M17.729 172 L17.729 171.169 L19.392 171.169 L19.392 164.61 L17.729 165.026 L17.729 164.172 L20.503 163.482 L20.503 171.169 L22.166 171.169 L22.166 172 Z M24.395 173.802 L24.395 173.387 Q24.934 173.235 24.934 172.112 L24.934 172 L24.395 172 L24.395 170.613 L25.782 170.613 L25.782 171.815 Q25.782 173.662 24.395 173.802 Z M28.887 167.693 Q29.679 166.666 30.88 166.666 Q31.97 166.666 32.663 167.387 Q33.357 168.109 33.357 169.237 Q33.357 170.534 32.579 171.371 Q31.801 172.208 30.605 172.208 Q29.229 172.208 28.455 171.102 Q27.68 169.995 27.68 168.03 Q27.68 165.868 28.57 164.672 Q29.46 163.476 31.077 163.476 Q31.818 163.476 32.93 163.791 L32.93 164.756 Q31.756 164.307 31.01 164.307 Q28.887 164.307 28.887 167.693 Z M32.245 169.484 Q32.245 168.541 31.821 168.002 Q31.397 167.463 30.645 167.463 Q29.943 167.463 29.437 167.935 Q28.932 168.406 28.932 169.069 Q28.932 170.113 29.412 170.745 Q29.892 171.377 30.684 171.377 Q31.397 171.377 31.821 170.863 Q32.245 170.349 32.245 169.484 Z M37.787 172.208 Q36.501 172.208 35.707 170.998 Q34.912 169.788 34.912 167.839 Q34.912 165.874 35.712 164.678 Q36.512 163.482 37.821 163.482 Q39.129 163.482 39.929 164.678 Q40.729 165.874 40.729 167.822 Q40.729 169.821 39.929 171.015 Q39.129 172.208 37.787 172.208 Z M37.798 171.377 Q39.556 171.377 39.556 167.805 Q39.556 164.313 37.821 164.313 Q36.091 164.313 36.091 167.839 Q36.091 171.377 37.798 171.377 Z M45.059 172.208 Q43.773 172.208 42.978 170.998 Q42.184 169.788 42.184 167.839 Q42.184 165.874 42.984 164.678 Q43.784 163.482 45.093 163.482 Q46.401 163.482 47.201 164.678 Q48.001 165.874 48.001 167.822 Q48.001 169.821 47.201 171.015 Q46.401 172.208 45.059 172.208 Z M45.07 171.377 Q46.828 171.377 46.828 167.805 Q46.828 164.313 45.093 164.313 Q43.363 164.313 43.363 167.839 Q43.363 171.377 45.07 171.377 Z" fill="#8C8478" fill-opacity="1"/>
<path d="M54 134 L736 134" fill="none" stroke="#E6DFD2" stroke-opacity="1" stroke-width="1" stroke-linecap="square" stroke-linejoin="miter"/>
<path d="M17.729 139 L17.729 138.169 L19.392 138.169 L19.392 131.61 L17.729 132.026 L17.729 131.172 L20.503 130.482 L20.503 138.169 L22.166 138.169 L22.166 139 Z M24.395 140.802 L24.395 140.387 Q24.934 140.235 24.934 139.112 L24.934 139 L24.395 139 L24.395 137.613 L25.782 137.613 L25.782 138.815 Q25.782 140.662 24.395 140.802 Z M28.64 139 Q28.803 138.029 29.103 137.321 Q29.404 136.614 30.167 135.378 L32.436 131.728 L28.157 131.728 L28.157 130.689 L33.491 130.689 L33.491 131.728 Q30.296 136.439 29.915 139 Z M37.787 139.208 Q36.501 139.208 35.707 137.998 Q34.912 136.788 34.912 134.839 Q34.912 132.874 35.712 131.678 Q36.512 130.482 37.821 130.482 Q39.129 130.482 39.929 131.678 Q40.729 132.874 40.729 134.822 Q40.729 136.821 39.929 138.015 Q39.129 139.208 37.787 139.208 Z M37.798 138.377 Q39.556 138.377 39.556 134.805 Q39.556 131.313 37.821 131.313 Q36.091 131.313 36.091 134.839 Q36.091 138.377 37.798 138.377 Z M45.059 139.208 Q43.773 139.208 42.978 137.998 Q42.184 136.788 42.184 134.839 Q42.184 132.874 42.984 131.678 Q43.784 130.482 45.093 130.482 Q46.401 130.482 47.201 131.678 Q48.001 132.874 48.001 134.822 Q48.001 136.821 47.201 138.015 Q46.401 139.208 45.059 139.208 Z M45.07 138.377 Q46.828 138.377 46.828 134.805 Q46.828 131.313 45.093 131.313 Q43.363 131.313 43.363 134.839 Q43.363 138.377 45.07 138.377 Z" fill="#8C8478" fill-opacity="1"/>
<path d="M54 101 L736 101" fill="none" stroke="#E6DFD2" stroke-opacity="1" stroke-width="1" stroke-linecap="square" stroke-linejoin="miter"/>
<path d="M17.729 106 L17.729 105.169 L19.392 105.169 L19.392 98.61 L17.729 99.026 L17.729 98.172 L20.503 97.482 L20.503 105.169 L22.166 105.169 L22.166 106 Z M24.395 107.802 L24.395 107.387 Q24.934 107.235 24.934 106.112 L24.934 106 L24.395 106 L24.395 104.613 L25.782 104.613 L25.782 105.815 Q25.782 107.662 24.395 107.802 Z M29.555 101.474 Q28.337 100.626 28.337 99.599 Q28.337 98.655 29.027 98.066 Q29.718 97.476 30.83 97.476 Q31.857 97.476 32.495 97.976 Q33.132 98.476 33.132 99.273 Q33.132 100.48 31.582 101.474 Q33.463 102.395 33.463 103.849 Q33.463 104.894 32.674 105.551 Q31.885 106.208 30.639 106.208 Q29.415 106.208 28.66 105.587 Q27.904 104.967 27.904 103.956 Q27.904 102.462 29.555 101.474 Z M30.965 101.126 Q32.127 100.362 32.127 99.425 Q32.127 98.925 31.74 98.619 Q31.352 98.313 30.718 98.313 Q30.105 98.313 29.724 98.613 Q29.342 98.914 29.342 99.391 Q29.342 99.857 29.687 100.225 Q30.032 100.593 30.965 101.126 Z M30.156 101.923 Q29.488 102.44 29.249 102.825 Q29.01 103.209 29.01 103.782 Q29.01 104.495 29.471 104.936 Q29.931 105.377 30.684 105.377 Q31.408 105.377 31.866 105 Q32.323 104.624 32.323 104.023 Q32.323 103.541 32.04 103.206 Q31.756 102.872 30.942 102.389 Z M37.787 106.208 Q36.501 106.208 35.707 104.998 Q34.912 103.788 34.912 101.839 Q34.912 99.874 35.712 98.678 Q36.512 97.482 37.821 97.482 Q39.129 97.482 39.929 98.678 Q40.729 99.874 40.729 101.822 Q40.729 103.821 39.929 105.015 Q39.129 106.208 37.787 106.208 Z M37.798 105.377 Q39.556 105.377 39.556 101.805 Q39.556 98.313 37.821 98.313 Q36.091 98.313 36.091 101.839 Q36.091 105.377 37.798 105.377 Z M45.059 106.208 Q43.773 106.208 42.978 104.998 Q42.184 103.788 42.184 101.839 Q42.184 99.874 42.984 98.678 Q43.784 97.482 45.093 97.482 Q46.401 97.482 47.201 98.678 Q48.001 99.874 48.001 101.822 Q48.001 103.821 47.201 105.015 Q46.401 106.208 45.059 106.208 Z M45.07 105.377 Q46.828 105.377 46.828 101.805 Q46.828 98.313 45.093 98.313 Q43.363 98.313 43.363 101.839 Q43.363 105.377 45.07 105.377 Z" fill="#8C8478" fill-opacity="1"/>
<path d="M54 69 L736 69" fill="none" stroke="#E6DFD2" stroke-opacity="1" stroke-width="1" stroke-linecap="square" stroke-linejoin="miter"/>
<path d="M17.729 74 L17.729 73.169 L19.392 73.169 L19.392 66.61 L17.729 67.026 L17.729 66.172 L20.503 65.482 L20.503 73.169 L22.166 73.169 L22.166 74 Z M24.395 75.802 L24.395 75.387 Q24.934 75.235 24.934 74.112 L24.934 74 L24.395 74 L24.395 72.613 L25.782 72.613 L25.782 73.815 Q25.782 75.662 24.395 75.802 Z M28.219 73.949 L28.219 73.012 Q29.274 73.377 30.016 73.377 Q31.049 73.377 31.63 72.498 Q32.211 71.619 32.211 70.052 Q31.369 71.091 30.296 71.091 Q29.246 71.091 28.516 70.319 Q27.786 69.547 27.786 68.435 Q27.786 67.161 28.564 66.321 Q29.342 65.482 30.521 65.482 Q31.874 65.482 32.655 66.568 Q33.435 67.655 33.435 69.542 Q33.435 71.687 32.484 72.947 Q31.532 74.208 29.909 74.208 Q29.258 74.208 28.219 73.949 Z M28.893 68.216 Q28.893 69.182 29.322 69.738 Q29.752 70.294 30.499 70.294 Q31.2 70.294 31.697 69.817 Q32.194 69.339 32.194 68.666 Q32.194 67.604 31.714 66.956 Q31.234 66.307 30.454 66.307 Q29.729 66.307 29.311 66.821 Q28.893 67.335 28.893 68.216 Z M37.787 74.208 Q36.501 74.208 35.707 72.998 Q34.912 71.788 34.912 69.839 Q34.912 67.874 35.712 66.678 Q36.512 65.482 37.821 65.482 Q39.129 65.482 39.929 66.678 Q40.729 67.874 40.729 69.822 Q40.729 71.821 39.929 73.015 Q39.129 74.208 37.787 74.208 Z M37.798 73.377 Q39.556 73.377 39.556 69.805 Q39.556 66.313 37.821 66.313 Q36.091 66.313 36.091 69.839 Q36.091 73.377 37.798 73.377 Z M45.059 74.208 Q43.773 74.208 42.978 72.998 Q42.184 71.788 42.184 69.839 Q42.184 67.874 42.984 66.678 Q43.784 65.482 45.093 65.482 Q46.401 65.482 47.201 66.678 Q48.001 67.874 48.001 69.822 Q48.001 71.821 47.201 73.015 Q46.401 74.208 45.059 74.208 Z M45.07 73.377 Q46.828 73.377 46.828 69.805 Q46.828 66.313 45.093 66.313 Q43.363 66.313 43.363 69.839 Q43.363 73.377 45.07 73.377 Z" fill="#8C8478" fill-opacity="1"/>
<path d="M54 36 L736 36" fill="none" stroke="#E6DFD2" stroke-opacity="1" stroke-width="1" stroke-linecap="square" stroke-linejoin="miter"/>
<path d="M16.955 41 L16.955 40.029 Q17.438 38.9 18.909 37.569 L19.543 37.002 Q20.767 35.896 20.767 34.806 Q20.767 34.11 20.349 33.711 Q19.931 33.313 19.201 33.313 Q18.336 33.313 17.162 33.981 L17.162 33.004 Q18.269 32.482 19.358 32.482 Q20.526 32.482 21.233 33.111 Q21.941 33.74 21.941 34.778 Q21.941 35.525 21.584 36.104 Q21.228 36.682 20.256 37.507 L19.83 37.872 Q18.499 39.001 18.291 40.029 L21.902 40.029 L21.902 41 Z M24.395 42.802 L24.395 42.387 Q24.934 42.235 24.934 41.112 L24.934 41 L24.395 41 L24.395 39.613 L25.782 39.613 L25.782 40.815 Q25.782 42.662 24.395 42.802 Z M30.515 41.208 Q29.229 41.208 28.435 39.998 Q27.64 38.788 27.64 36.839 Q27.64 34.874 28.441 33.678 Q29.241 32.482 30.549 32.482 Q31.857 32.482 32.658 33.678 Q33.458 34.874 33.458 36.822 Q33.458 38.821 32.658 40.015 Q31.857 41.208 30.515 41.208 Z M30.527 40.377 Q32.284 40.377 32.284 36.805 Q32.284 33.313 30.549 33.313 Q28.82 33.313 28.82 36.839 Q28.82 40.377 30.527 40.377 Z M37.787 41.208 Q36.501 41.208 35.707 39.998 Q34.912 38.788 34.912 36.839 Q34.912 34.874 35.712 33.678 Q36.512 32.482 37.821 32.482 Q39.129 32.482 39.929 33.678 Q40.729 34.874 40.729 36.822 Q40.729 38.821 39.929 40.015 Q39.129 41.208 37.787 41.208 Z M37.798 40.377 Q39.556 40.377 39.556 36.805 Q39.556 33.313 37.821 33.313 Q36.091 33.313 36.091 36.839 Q36.091 40.377 37.798 40.377 Z M45.059 41.208 Q43.773 41.208 42.978 39.998 Q42.184 38.788 42.184 36.839 Q42.184 34.874 42.984 33.678 Q43.784 32.482 45.093 32.482 Q46.401 32.482 47.201 33.678 Q48.001 34.874 48.001 36.822 Q48.001 38.821 47.201 40.015 Q46.401 41.208 45.059 41.208 Z M45.07 40.377 Q46.828 40.377 46.828 36.805 Q46.828 33.313 45.093 33.313 Q43.363 33.313 43.363 36.839 Q43.363 40.377 45.07 40.377 Z" fill="#8C8478" fill-opacity="1"/>
<path d="M54 304.14 L61.663 296.649 L69.326 289.34 L76.989 282.386 L84.652 275.948 L92.315 355.184 L99.978 350.168 L107.64 260.982 L115.303 257.716 L122.966 255.362 L130.629 253.896 L138.292 253.261 L145.955 338.383 L153.618 339.101 L161.281 255.27 L168.944 256.765 L176.607 258.388 L184.27 259.958 L191.933 261.295 L199.596 347.248 L207.258 347.623 L214.921 262.287 L222.584 261.176 L230.247 259.197 L237.91 256.31 L245.573 252.515 L253.236 332.864 L260.899 327.388 L268.562 236.186 L276.225 229.428 L283.888 222.246 L291.551 214.809 L299.213 207.296 L306.876 284.91 L314.539 277.788 L322.202 186.097 L329.865 180.025 L337.528 174.678 L345.191 170.15 L352.854 166.506 L360.517 248.794 L368.18 246.964 L375.843 160.972 L383.506 160.781 L391.169 161.259 L398.831 162.272 L406.494 163.66 L414.157 250.272 L421.82 251.886 L429.483 168.322 L437.146 169.443 L444.809 170.067 L452.472 170.053 L460.135 169.283 L467.798 252.692 L475.461 250.185 L483.124 161.745 L490.787 157.432 L498.449 152.281 L506.112 146.378 L513.775 139.842 L521.438 217.837 L529.101 210.485 L536.764 117.961 L544.427 110.489 L552.09 103.227 L559.753 96.349 L567.416 90.012 L575.079 169.37 L582.742 164.492 L590.404 75.455 L598.067 72.342 L605.73 70.14 L613.393 68.819 L621.056 68.315 L628.719 153.55 L636.382 154.358 L644.045 70.591 L651.708 72.12 L659.371 73.747 L667.034 75.29 L674.697 76.571 L682.36 162.44 L690.022 162.707 L697.685 77.244 L705.348 75.991 L713.011 73.861 L720.674 70.821 L728.337 66.875 L736 147.083 L736 363 L54 363 Z" fill="#B1512D" fill-opacity="0.102" clip-path="url(#c1)"/>
<path d="M54 304.14 L61.663 296.649 L69.326 289.34 L76.989 282.386 L84.652 275.948 L92.315 355.184 L99.978 350.168 L107.64 260.982 L115.303 257.716 L122.966 255.362 L130.629 253.896 L138.292 253.261 L145.955 338.383 L153.618 339.101 L161.281 255.27 L168.944 256.765 L176.607 258.388 L184.27 259.958 L191.933 261.295 L199.596 347.248 L207.258 347.623 L214.921 262.287 L222.584 261.176 L230.247 259.197 L237.91 256.31 L245.573 252.515 L253.236 332.864 L260.899 327.388 L268.562 236.186 L276.225 229.428 L283.888 222.246 L291.551 214.809 L299.213 207.296 L306.876 284.91 L314.539 277.788 L322.202 186.097 L329.865 180.025 L337.528 174.678 L345.191 170.15 L352.854 166.506 L360.517 248.794 L368.18 246.964 L375.843 160.972 L383.506 160.781 L391.169 161.259 L398.831 162.272 L406.494 163.66 L414.157 250.272 L421.82 251.886 L429.483 168.322 L437.146 169.443 L444.809 170.067 L452.472 170.053 L460.135 169.283 L467.798 252.692 L475.461 250.185 L483.124 161.745 L490.787 157.432 L498.449 152.281 L506.112 146.378 L513.775 139.842 L521.438 217.837 L529.101 210.485 L536.764 117.961 L544.427 110.489 L552.09 103.227 L559.753 96.349 L567.416 90.012 L575.079 169.37 L582.742 164.492 L590.404 75.455 L598.067 72.342 L605.73 70.14 L613.393 68.819 L621.056 68.315 L628.719 153.55 L636.382 154.358 L644.045 70.591 L651.708 72.12 L659.371 73.747 L667.034 75.29 L674.697 76.571 L682.36 162.44 L690.022 162.707 L697.685 77.244 L705.348 75.991 L713.011 73.861 L720.674 70.821 L728.337 66.875 L736 147.083" fill="none" stroke="#B1512D" stroke-opacity="1" stroke-width="2" stroke-linecap="round" stroke-linejoin="round" clip-path="url(#c1)"/>
<path d="M742 147.083 C742 150.397 739.314 153.083 736 153.083 C732.686 153.083 730 150.397 730 147.083 C730 143.77 732.686 141.083 736 141.083 C739.314 141.083 742 143.77 742 147.083 Z" fill="#FAF6EF" fill-opacity="1" clip-path="url(#c1)"/>
<path d="M740 147.083 C740 149.292 738.209 151.083 736 151.083 C733.791 151.083 732 149.292 732 147.083 C732 144.874 733.791 143.083 736 143.083 C738.209 143.083 740 144.874 740 147.083 Z" fill="#B1512D" fill-opacity="1" clip-path="url(#c1)"/>
<path d="M54 36 L54 363" fill="none" stroke="#E6DFD2" stroke-opacity="1" stroke-width="1" stroke-linecap="square" stroke-linejoin="miter"/>
<path d="M33.284 377.822 L31.869 374.239 L30.448 377.822 Z M34.531 381 L33.626 378.698 L30.106 378.698 L29.19 381 L28.095 381 L31.392 372.689 L32.56 372.689 L35.805 381 Z M37.041 383.218 L37.041 374.902 L38.147 374.902 L38.147 376.047 Q38.826 374.767 40.185 374.767 Q41.286 374.767 41.917 375.57 Q42.549 376.373 42.549 377.766 Q42.549 379.282 41.833 380.211 Q41.117 381.14 39.949 381.14 Q38.865 381.14 38.147 380.309 L38.147 383.218 Z M38.147 379.546 Q39 380.309 39.775 380.309 Q41.37 380.309 41.37 377.878 Q41.37 375.733 39.955 375.733 Q39.028 375.733 38.147 376.738 Z M44.279 381 L44.279 374.902 L45.385 374.902 L45.385 376.047 Q46.042 374.767 47.294 374.767 Q47.462 374.767 47.648 374.795 L47.648 375.828 Q47.361 375.733 47.142 375.733 Q46.092 375.733 45.385 376.979 L45.385 381 Z M52.471 381 L52.471 380.029 Q52.954 378.9 54.425 377.569 L55.06 377.002 Q56.284 375.896 56.284 374.806 Q56.284 374.11 55.866 373.711 Q55.447 373.313 54.717 373.313 Q53.853 373.313 52.679 373.981 L52.679 373.004 Q53.785 372.482 54.875 372.482 Q56.042 372.482 56.75 373.111 Q57.458 373.74 57.458 374.778 Q57.458 375.525 57.101 376.104 Q56.744 376.682 55.773 377.507 L55.346 377.872 Q54.015 379.001 53.808 380.029 L57.418 380.029 L57.418 381 Z M62.393 381.208 Q61.107 381.208 60.313 379.998 Q59.518 378.788 59.518 376.839 Q59.518 374.874 60.318 373.678 Q61.119 372.482 62.427 372.482 Q63.735 372.482 64.536 373.678 Q65.336 374.874 65.336 376.822 Q65.336 378.821 64.536 380.015 Q63.735 381.208 62.393 381.208 Z M62.405 380.377 Q64.162 380.377 64.162 376.805 Q64.162 373.313 62.427 373.313 Q60.698 373.313 60.698 376.839 Q60.698 380.377 62.405 380.377 Z M67.015 381 L67.015 380.029 Q67.498 378.9 68.969 377.569 L69.603 377.002 Q70.827 375.896 70.827 374.806 Q70.827 374.11 70.409 373.711 Q69.991 373.313 69.261 373.313 Q68.396 373.313 67.222 373.981 L67.222 373.004 Q68.329 372.482 69.418 372.482 Q70.586 372.482 71.293 373.111 Q72.001 373.74 72.001 374.778 Q72.001 375.525 71.644 376.104 Q71.288 376.682 70.316 377.507 L69.89 377.872 Q68.559 379.001 68.351 380.029 L71.962 380.029 L71.962 381 Z M75.308 376.693 Q76.1 375.666 77.302 375.666 Q78.391 375.666 79.085 376.387 Q79.778 377.109 79.778 378.237 Q79.778 379.534 79 380.371 Q78.223 381.208 77.027 381.208 Q75.651 381.208 74.876 380.102 Q74.101 378.995 74.101 377.03 Q74.101 374.868 74.991 373.672 Q75.881 372.476 77.498 372.476 Q78.24 372.476 79.351 372.791 L79.351 373.756 Q78.178 373.307 77.431 373.307 Q75.308 373.307 75.308 376.693 Z M78.666 378.484 Q78.666 377.541 78.242 377.002 Q77.818 376.463 77.066 376.463 Q76.364 376.463 75.859 376.935 Q75.353 377.406 75.353 378.069 Q75.353 379.113 75.833 379.745 Q76.313 380.377 77.105 380.377 Q77.818 380.377 78.242 379.863 Q78.666 379.349 78.666 378.484 Z" fill="#8C8478" fill-opacity="1"/>
<path d="M284 36 L284 363" fill="none" stroke="#E6DFD2" stroke-opacity="1" stroke-width="1" stroke-linecap="square" stroke-linejoin="miter"/>
<path d="M258.073 381 L258.073 372.689 L259.707 372.689 L262.009 379.119 L264.378 372.689 L265.838 372.689 L265.838 381 L264.738 381 L264.738 374.239 L262.447 380.444 L261.307 380.444 L259.083 374.222 L259.083 381 Z M271.156 380.225 Q270.162 381.14 269.241 381.14 Q268.483 381.14 267.983 380.666 Q267.484 380.191 267.484 379.467 Q267.484 378.468 268.323 377.931 Q269.163 377.395 270.729 377.395 L270.993 377.395 L270.993 376.659 Q270.993 375.598 269.904 375.598 Q269.028 375.598 268.011 376.137 L268.011 375.222 Q269.129 374.767 270.106 374.767 Q271.128 374.767 271.614 375.228 Q272.099 375.688 272.099 376.659 L272.099 379.422 Q272.099 380.371 272.683 380.371 Q272.756 380.371 272.897 380.349 L272.975 380.961 Q272.599 381.14 272.144 381.14 Q271.369 381.14 271.156 380.225 Z M270.993 379.624 L270.993 378.046 L270.623 378.035 Q269.713 378.035 269.151 378.38 Q268.59 378.726 268.59 379.287 Q268.59 379.686 268.871 379.961 Q269.151 380.236 269.556 380.236 Q270.246 380.236 270.993 379.624 Z M274.716 383.218 L275.704 381 L273.346 374.902 L274.542 374.902 L276.288 379.495 L278.153 374.902 L279.197 374.902 L275.867 383.218 Z M283.858 381 L283.858 380.029 Q284.341 378.9 285.812 377.569 L286.446 377.002 Q287.67 375.896 287.67 374.806 Q287.67 374.11 287.252 373.711 Q286.834 373.313 286.104 373.313 Q285.239 373.313 284.065 373.981 L284.065 373.004 Q285.172 372.482 286.261 372.482 Q287.429 372.482 288.136 373.111 Q288.844 373.74 288.844 374.778 Q288.844 375.525 288.487 376.104 Q288.131 376.682 287.159 377.507 L286.733 377.872 Q285.402 379.001 285.194 380.029 L288.805 380.029 L288.805 381 Z M293.78 381.208 Q292.494 381.208 291.699 379.998 Q290.905 378.788 290.905 376.839 Q290.905 374.874 291.705 373.678 Q292.505 372.482 293.813 372.482 Q295.122 372.482 295.922 373.678 Q296.722 374.874 296.722 376.822 Q296.722 378.821 295.922 380.015 Q295.122 381.208 293.78 381.208 Z M293.791 380.377 Q295.549 380.377 295.549 376.805 Q295.549 373.313 293.813 373.313 Q292.084 373.313 292.084 376.839 Q292.084 380.377 293.791 380.377 Z M298.401 381 L298.401 380.029 Q298.884 378.9 300.355 377.569 L300.99 377.002 Q302.214 375.896 302.214 374.806 Q302.214 374.11 301.796 373.711 Q301.377 373.313 300.647 373.313 Q299.782 373.313 298.609 373.981 L298.609 373.004 Q299.715 372.482 300.804 372.482 Q301.972 372.482 302.68 373.111 Q303.387 373.74 303.387 374.778 Q303.387 375.525 303.031 376.104 Q302.674 376.682 301.703 377.507 L301.276 377.872 Q299.945 379.001 299.738 380.029 L303.348 380.029 L303.348 381 Z M306.695 376.693 Q307.487 375.666 308.688 375.666 Q309.778 375.666 310.471 376.387 Q311.165 377.109 311.165 378.237 Q311.165 379.534 310.387 380.371 Q309.609 381.208 308.413 381.208 Q307.037 381.208 306.262 380.102 Q305.488 378.995 305.488 377.03 Q305.488 374.868 306.378 373.672 Q307.268 372.476 308.885 372.476 Q309.626 372.476 310.738 372.791 L310.738 373.756 Q309.564 373.307 308.817 373.307 Q306.695 373.307 306.695 376.693 Z M310.053 378.484 Q310.053 377.541 309.629 377.002 Q309.205 376.463 308.452 376.463 Q307.75 376.463 307.245 376.935 Q306.74 377.406 306.74 378.069 Q306.74 379.113 307.22 379.745 Q307.7 380.377 308.492 380.377 Q309.205 380.377 309.629 379.863 Q310.053 379.349 310.053 378.484 Z" fill="#8C8478" fill-opacity="1"/>
<path d="M521 36 L521 363" fill="none" stroke="#E6DFD2" stroke-opacity="1" stroke-width="1" stroke-linecap="square" stroke-linejoin="miter"/>
<path d="M494.967 382.544 L494.967 381.5 Q495.641 381.719 496.157 381.719 Q496.831 381.719 497.098 381.334 Q497.365 380.949 497.365 379.989 L497.365 372.689 L498.544 372.689 L498.544 379.95 Q498.544 382.662 495.978 382.662 Q495.584 382.662 494.967 382.544 Z M504.496 381 L504.496 379.854 Q503.614 381.14 502.356 381.14 Q501.559 381.14 501.087 380.638 Q500.616 380.135 500.616 379.282 L500.616 374.902 L501.722 374.902 L501.722 378.922 Q501.722 379.607 501.921 379.897 Q502.121 380.186 502.587 380.186 Q503.597 380.186 504.496 378.855 L504.496 374.902 L505.602 374.902 L505.602 381 Z M507.82 381 L507.82 374.902 L508.926 374.902 L508.926 376.047 Q509.802 374.767 511.071 374.767 Q511.863 374.767 512.335 375.27 Q512.806 375.772 512.806 376.62 L512.806 381 L511.7 381 L511.7 376.979 Q511.7 376.3 511.501 376.011 Q511.302 375.722 510.841 375.722 Q509.825 375.722 508.926 377.052 L508.926 381 Z M518.444 381 L518.444 380.029 Q518.927 378.9 520.398 377.569 L521.033 377.002 Q522.257 375.896 522.257 374.806 Q522.257 374.11 521.839 373.711 Q521.42 373.313 520.69 373.313 Q519.825 373.313 518.652 373.981 L518.652 373.004 Q519.758 372.482 520.847 372.482 Q522.015 372.482 522.723 373.111 Q523.43 373.74 523.43 374.778 Q523.43 375.525 523.074 376.104 Q522.717 376.682 521.746 377.507 L521.319 377.872 Q519.988 379.001 519.781 380.029 L523.391 380.029 L523.391 381 Z M528.366 381.208 Q527.08 381.208 526.286 379.998 Q525.491 378.788 525.491 376.839 Q525.491 374.874 526.291 373.678 Q527.092 372.482 528.4 372.482 Q529.708 372.482 530.508 373.678 Q531.309 374.874 531.309 376.822 Q531.309 378.821 530.508 380.015 Q529.708 381.208 528.366 381.208 Z M528.377 380.377 Q530.135 380.377 530.135 376.805 Q530.135 373.313 528.4 373.313 Q526.67 373.313 526.67 376.839 Q526.67 380.377 528.377 380.377 Z M532.988 381 L532.988 380.029 Q533.47 378.9 534.942 377.569 L535.576 377.002 Q536.8 375.896 536.8 374.806 Q536.8 374.11 536.382 373.711 Q535.964 373.313 535.234 373.313 Q534.369 373.313 533.195 373.981 L533.195 373.004 Q534.302 372.482 535.391 372.482 Q536.559 372.482 537.266 373.111 Q537.974 373.74 537.974 374.778 Q537.974 375.525 537.617 376.104 Q537.261 376.682 536.289 377.507 L535.863 377.872 Q534.532 379.001 534.324 380.029 L537.935 380.029 L537.935 381 Z M541.281 376.693 Q542.073 375.666 543.275 375.666 Q544.364 375.666 545.057 376.387 Q545.751 377.109 545.751 378.237 Q545.751 379.534 544.973 380.371 Q544.196 381.208 543 381.208 Q541.624 381.208 540.849 380.102 Q540.074 378.995 540.074 377.03 Q540.074 374.868 540.964 373.672 Q541.854 372.476 543.471 372.476 Q544.212 372.476 545.324 372.791 L545.324 373.756 Q544.151 373.307 543.404 373.307 Q541.281 373.307 541.281 376.693 Z M544.639 378.484 Q544.639 377.541 544.215 377.002 Q543.791 376.463 543.039 376.463 Q542.337 376.463 541.832 376.935 Q541.326 377.406 541.326 378.069 Q541.326 379.113 541.806 379.745 Q542.286 380.377 543.078 380.377 Q543.791 380.377 544.215 379.863 Q544.639 379.349 544.639 378.484 Z" fill="#8C8478" fill-opacity="1"/>
</svg>
