<svg xmlns="http://www.w3.org/2000/svg" width="640" height="400" viewBox="0 0 640 400">
<defs>
<clipPath id="c1" clipPathUnits="userSpaceOnUse"><path d="M61 36 L616 36 L616 369 L61 369 L61 36 Z"/></clipPath>
</defs>
<path d="M0 0 L640 0 L640 400 L0 400 L0 0 Z" fill="#FAF6EF" fill-opacity="1"/>
<path d="M17.174 21 L17.174 11.605 L20.691 11.605 Q23.554 11.605 23.554 13.935 Q23.554 14.805 23.068 15.519 Q22.583 16.233 21.732 16.614 L24.804 21 L22.424 21 L20.094 17.16 L19.015 17.16 L19.015 21 Z M19.015 15.871 L19.466 15.871 Q21.592 15.871 21.592 14.151 Q21.592 12.894 19.694 12.894 L19.015 12.894 Z M31.818 20.765 Q30.479 21.159 29.279 21.159 Q27.534 21.159 26.524 20.168 Q25.515 19.178 25.515 17.464 Q25.515 15.846 26.439 14.859 Q27.362 13.872 28.879 13.872 Q30.409 13.872 31.114 14.836 Q31.818 15.801 31.818 17.89 L27.496 17.89 Q27.686 19.883 29.686 19.883 Q30.631 19.883 31.818 19.445 Z M27.47 16.83 L29.971 16.83 Q29.971 15.046 28.822 15.046 Q27.654 15.046 27.47 16.83 Z M35.481 21 L32.821 14.03 L34.802 14.03 L36.75 19.058 L38.687 14.03 L40.045 14.03 L37.36 21 Z M47.148 20.765 Q45.809 21.159 44.609 21.159 Q42.863 21.159 41.854 20.168 Q40.845 19.178 40.845 17.464 Q40.845 15.846 41.768 14.859 Q42.692 13.872 44.209 13.872 Q45.739 13.872 46.443 14.836 Q47.148 15.801 47.148 17.89 L42.825 17.89 Q43.016 19.883 45.015 19.883 Q45.961 19.883 47.148 19.445 Z M42.8 16.83 L45.301 16.83 Q45.301 15.046 44.152 15.046 Q42.984 15.046 42.8 16.83 Z M49.09 21 L49.09 14.03 L50.969 14.03 L50.969 15.344 Q51.89 13.872 53.343 13.872 Q54.276 13.872 54.816 14.462 Q55.355 15.052 55.355 16.074 L55.355 21 L53.477 21 L53.477 16.538 Q53.477 15.351 52.689 15.351 Q51.794 15.351 50.969 16.614 L50.969 21 Z M61.938 21 L61.938 19.686 Q61.024 21.159 59.564 21.159 Q58.631 21.159 58.091 20.568 Q57.552 19.978 57.552 18.956 L57.552 14.03 L59.431 14.03 L59.431 18.493 Q59.431 19.68 60.224 19.68 Q61.113 19.68 61.938 18.417 L61.938 14.03 L63.817 14.03 L63.817 21 Z M71.84 20.765 Q70.501 21.159 69.301 21.159 Q67.556 21.159 66.546 20.168 Q65.537 19.178 65.537 17.464 Q65.537 15.846 66.461 14.859 Q67.384 13.872 68.901 13.872 Q70.431 13.872 71.136 14.836 Q71.84 15.801 71.84 17.89 L67.518 17.89 Q67.708 19.883 69.708 19.883 Q70.653 19.883 71.84 19.445 Z M67.492 16.83 L69.993 16.83 Q69.993 15.046 68.844 15.046 Q67.676 15.046 67.492 16.83 Z M78.067 21 L78.067 10.977 L79.946 10.977 L79.946 15.344 Q80.67 13.872 82.225 13.872 Q83.482 13.872 84.202 14.792 Q84.923 15.712 84.923 17.325 Q84.923 19.07 84.11 20.115 Q83.298 21.159 81.939 21.159 Q80.771 21.159 79.946 20.295 L79.597 21 Z M79.946 19.178 Q80.632 19.94 81.406 19.94 Q82.098 19.94 82.511 19.27 Q82.923 18.601 82.923 17.483 Q82.923 15.344 81.546 15.344 Q80.714 15.344 79.946 16.417 Z M86.707 23.507 L88.287 21 L85.704 14.03 L87.722 14.03 L89.449 18.689 L91.499 14.03 L92.927 14.03 L88.624 23.507 Z M98.545 21 L98.545 14.03 L100.424 14.03 L100.424 15.344 Q101.154 13.872 102.646 13.872 Q102.823 13.872 102.995 13.91 L102.995 15.585 Q102.595 15.439 102.252 15.439 Q101.128 15.439 100.424 16.576 L100.424 21 Z M110.129 20.765 Q108.79 21.159 107.59 21.159 Q105.845 21.159 104.835 20.168 Q103.826 19.178 103.826 17.464 Q103.826 15.846 104.75 14.859 Q105.673 13.872 107.19 13.872 Q108.72 13.872 109.425 14.836 Q110.129 15.801 110.129 17.89 L105.807 17.89 Q105.997 19.883 107.997 19.883 Q108.942 19.883 110.129 19.445 Z M105.781 16.83 L108.282 16.83 Q108.282 15.046 107.133 15.046 Q105.965 15.046 105.781 16.83 Z M112.123 23.165 L112.275 21.8 Q113.437 22.333 114.49 22.333 Q115.531 22.333 115.995 21.889 Q116.458 21.444 116.458 20.448 L116.458 19.496 Q115.772 21 114.192 21 Q112.948 21 112.218 20.07 Q111.488 19.14 111.488 17.553 Q111.488 15.884 112.307 14.878 Q113.125 13.872 114.484 13.872 Q115.55 13.872 116.458 14.735 L116.655 14.03 L118.343 14.03 L118.343 19.35 Q118.343 20.943 118.15 21.647 Q117.956 22.352 117.397 22.847 Q116.458 23.66 114.75 23.66 Q113.538 23.66 112.123 23.165 Z M116.458 18.404 L116.458 15.833 Q115.779 15.065 115.036 15.065 Q114.325 15.065 113.906 15.712 Q113.487 16.36 113.487 17.452 Q113.487 19.496 114.801 19.496 Q115.709 19.496 116.458 18.404 Z M120.647 21 L120.647 14.03 L122.526 14.03 L122.526 21 Z M120.647 12.856 L120.647 11.288 L122.526 11.288 L122.526 12.856 Z M127.801 21.159 Q126.17 21.159 125.208 20.172 Q124.247 19.185 124.247 17.515 Q124.247 15.827 125.215 14.849 Q126.183 13.872 127.846 13.872 Q129.515 13.872 130.483 14.849 Q131.451 15.827 131.451 17.502 Q131.451 19.216 130.48 20.188 Q129.509 21.159 127.801 21.159 Z M127.833 19.984 Q129.452 19.984 129.452 17.502 Q129.452 16.366 129.023 15.706 Q128.595 15.046 127.846 15.046 Q127.103 15.046 126.675 15.706 Q126.246 16.366 126.246 17.515 Q126.246 18.651 126.671 19.318 Q127.097 19.984 127.833 19.984 Z M133.178 21 L133.178 14.03 L135.057 14.03 L135.057 15.344 Q135.977 13.872 137.431 13.872 Q138.364 13.872 138.903 14.462 Q139.443 15.052 139.443 16.074 L139.443 21 L137.564 21 L137.564 16.538 Q137.564 15.351 136.777 15.351 Q135.882 15.351 135.057 16.614 L135.057 21 Z" fill="#2B2620" fill-opacity="1"/>
<path d="M156.329 21 L156.329 18.647 L152.59 18.647 L152.59 17.811 L156.329 12.689 L157.368 12.689 L157.368 17.743 L158.48 17.743 L158.48 18.647 L157.368 18.647 L157.368 21 Z M153.673 17.743 L156.402 17.743 L156.402 14.048 Z M160.395 22.802 L160.395 22.387 Q160.934 22.235 160.934 21.112 L160.934 21 L160.395 21 L160.395 19.613 L161.782 19.613 L161.782 20.815 Q161.782 22.662 160.395 22.802 Z M166.515 21.208 Q165.229 21.208 164.435 19.998 Q163.64 18.788 163.64 16.839 Q163.64 14.874 164.441 13.678 Q165.241 12.482 166.549 12.482 Q167.857 12.482 168.658 13.678 Q169.458 14.874 169.458 16.822 Q169.458 18.821 168.658 20.015 Q167.857 21.208 166.515 21.208 Z M166.527 20.377 Q168.284 20.377 168.284 16.805 Q168.284 13.313 166.549 13.313 Q164.82 13.313 164.82 16.839 Q164.82 20.377 166.527 20.377 Z M173.787 21.208 Q172.501 21.208 171.707 19.998 Q170.912 18.788 170.912 16.839 Q170.912 14.874 171.712 13.678 Q172.512 12.482 173.821 12.482 Q175.129 12.482 175.929 13.678 Q176.729 14.874 176.729 16.822 Q176.729 18.821 175.929 20.015 Q175.129 21.208 173.787 21.208 Z M173.798 20.377 Q175.556 20.377 175.556 16.805 Q175.556 13.313 173.821 13.313 Q172.091 13.313 172.091 16.839 Q172.091 20.377 173.798 20.377 Z M181.059 21.208 Q179.773 21.208 178.978 19.998 Q178.184 18.788 178.184 16.839 Q178.184 14.874 178.984 13.678 Q179.784 12.482 181.093 12.482 Q182.401 12.482 183.201 13.678 Q184.001 14.874 184.001 16.822 Q184.001 18.821 183.201 20.015 Q182.401 21.208 181.059 21.208 Z M181.07 20.377 Q182.828 20.377 182.828 16.805 Q182.828 13.313 181.093 13.313 Q179.363 13.313 179.363 16.839 Q179.363 20.377 181.07 20.377 Z M189.47 21 L189.47 14.902 L190.577 14.902 L190.577 16.047 Q191.234 14.767 192.486 14.767 Q192.654 14.767 192.84 14.795 L192.84 15.828 Q192.553 15.733 192.334 15.733 Q191.284 15.733 190.577 16.979 L190.577 21 Z M196.563 21.14 Q195.254 21.14 194.474 20.273 Q193.693 19.405 193.693 17.951 Q193.693 16.48 194.476 15.623 Q195.26 14.767 196.602 14.767 Q197.944 14.767 198.727 15.623 Q199.51 16.48 199.51 17.94 Q199.51 19.433 198.724 20.287 Q197.938 21.14 196.563 21.14 Z M196.579 20.309 Q198.337 20.309 198.337 17.94 Q198.337 15.598 196.602 15.598 Q194.872 15.598 194.872 17.951 Q194.872 20.309 196.579 20.309 Z M201.948 21 L200.201 14.902 L201.285 14.902 L202.621 19.624 L204.064 14.902 L205.171 14.902 L206.434 19.624 L207.967 14.902 L208.916 14.902 L206.928 21 L205.816 21 L204.525 16.278 L203.065 21 Z M211.718 21.14 Q210.96 21.14 209.876 20.787 L209.876 19.77 Q210.96 20.309 211.763 20.309 Q212.24 20.309 212.555 20.051 Q212.869 19.793 212.869 19.405 Q212.869 18.838 211.988 18.468 L211.342 18.192 Q209.91 17.597 209.91 16.48 Q209.91 15.682 210.474 15.225 Q211.039 14.767 212.021 14.767 Q212.532 14.767 213.285 14.907 L213.515 14.952 L213.515 15.873 Q212.588 15.598 212.044 15.598 Q210.977 15.598 210.977 16.373 Q210.977 16.873 211.785 17.215 L212.319 17.44 Q213.223 17.822 213.599 18.246 Q213.975 18.67 213.975 19.304 Q213.975 20.107 213.341 20.624 Q212.706 21.14 211.718 21.14 Z" fill="#8C8478" fill-opacity="1"/>
<path d="M61 369 L616 369" fill="none" stroke="#B9B2A5" stroke-opacity="1" stroke-width="1" stroke-linecap="square" stroke-linejoin="miter"/>
<path d="M51.605 374.208 Q50.319 374.208 49.525 372.998 Q48.73 371.788 48.73 369.839 Q48.73 367.874 49.53 366.678 Q50.33 365.482 51.639 365.482 Q52.947 365.482 53.747 366.678 Q54.547 367.874 54.547 369.822 Q54.547 371.821 53.747 373.015 Q52.947 374.208 51.605 374.208 Z M51.616 373.377 Q53.374 373.377 53.374 369.805 Q53.374 366.313 51.639 366.313 Q49.909 366.313 49.909 369.839 Q49.909 373.377 51.616 373.377 Z" fill="#8C8478" fill-opacity="1"/>
<path d="M61 321 L616 321" fill="none" stroke="#E6DFD2" stroke-opacity="1" stroke-width="1" stroke-linecap="square" stroke-linejoin="miter"/>
<path d="M17.729 326 L17.729 325.169 L19.392 325.169 L19.392 318.61 L17.729 319.026 L17.729 318.172 L20.503 317.482 L20.503 325.169 L22.166 325.169 L22.166 326 Z M26.877 326.208 Q25.591 326.208 24.796 324.998 Q24.002 323.788 24.002 321.839 Q24.002 319.874 24.802 318.678 Q25.602 317.482 26.91 317.482 Q28.219 317.482 29.019 318.678 Q29.819 319.874 29.819 321.822 Q29.819 323.821 29.019 325.015 Q28.219 326.208 26.877 326.208 Z M26.888 325.377 Q28.646 325.377 28.646 321.805 Q28.646 318.313 26.91 318.313 Q25.181 318.313 25.181 321.839 Q25.181 325.377 26.888 325.377 Z M31.667 327.802 L31.667 327.387 Q32.206 327.235 32.206 326.112 L32.206 326 L31.667 326 L31.667 324.613 L33.053 324.613 L33.053 325.815 Q33.053 327.662 31.667 327.802 Z M37.787 326.208 Q36.501 326.208 35.707 324.998 Q34.912 323.788 34.912 321.839 Q34.912 319.874 35.712 318.678 Q36.512 317.482 37.821 317.482 Q39.129 317.482 39.929 318.678 Q40.729 319.874 40.729 321.822 Q40.729 323.821 39.929 325.015 Q39.129 326.208 37.787 326.208 Z M37.798 325.377 Q39.556 325.377 39.556 321.805 Q39.556 318.313 37.821 318.313 Q36.091 318.313 36.091 321.839 Q36.091 325.377 37.798 325.377 Z M45.059 326.208 Q43.773 326.208 42.978 324.998 Q42.184 323.788 42.184 321.839 Q42.184 319.874 42.984 318.678 Q43.784 317.482 45.093 317.482 Q46.401 317.482 47.201 318.678 Q48.001 319.874 48.001 321.822 Q48.001 323.821 47.201 325.015 Q46.401 326.208 45.059 326.208 Z M45.07 325.377 Q46.828 325.377 46.828 321.805 Q46.828 318.313 45.093 318.313 Q43.363 318.313 43.363 321.839 Q43.363 325.377 45.07 325.377 Z M52.331 326.208 Q51.045 326.208 50.25 324.998 Q49.456 323.788 49.456 321.839 Q49.456 319.874 50.256 318.678 Q51.056 317.482 52.364 317.482 Q53.673 317.482 54.473 318.678 Q55.273 319.874 55.273 321.822 Q55.273 323.821 54.473 325.015 Q53.673 326.208 52.331 326.208 Z M52.342 325.377 Q54.099 325.377 54.099 321.805 Q54.099 318.313 52.364 318.313 Q50.635 318.313 50.635 321.839 Q50.635 325.377 52.342 325.377 Z" fill="#8C8478" fill-opacity="1"/>
<path d="M61 274 L616 274" fill="none" stroke="#E6DFD2" stroke-opacity="1" stroke-width="1" stroke-linecap="square" stroke-linejoin="miter"/>
<path d="M16.955 279 L16.955 278.029 Q17.438 276.9 18.909 275.569 L19.543 275.002 Q20.767 273.896 20.767 272.806 Q20.767 272.11 20.349 271.711 Q19.931 271.313 19.201 271.313 Q18.336 271.313 17.162 271.981 L17.162 271.004 Q18.269 270.482 19.358 270.482 Q20.526 270.482 21.233 271.111 Q21.941 271.74 21.941 272.778 Q21.941 273.525 21.584 274.104 Q21.228 274.682 20.256 275.507 L19.83 275.872 Q18.499 277.001 18.291 278.029 L21.902 278.029 L21.902 279 Z M26.877 279.208 Q25.591 279.208 24.796 277.998 Q24.002 276.788 24.002 274.839 Q24.002 272.874 24.802 271.678 Q25.602 270.482 26.91 270.482 Q28.219 270.482 29.019 271.678 Q29.819 272.874 29.819 274.822 Q29.819 276.821 29.019 278.015 Q28.219 279.208 26.877 279.208 Z M26.888 278.377 Q28.646 278.377 28.646 274.805 Q28.646 271.313 26.91 271.313 Q25.181 271.313 25.181 274.839 Q25.181 278.377 26.888 278.377 Z M31.667 280.802 L31.667 280.387 Q32.206 280.235 32.206 279.112 L32.206 279 L31.667 279 L31.667 277.613 L33.053 277.613 L33.053 278.815 Q33.053 280.662 31.667 280.802 Z M37.787 279.208 Q36.501 279.208 35.707 277.998 Q34.912 276.788 34.912 274.839 Q34.912 272.874 35.712 271.678 Q36.512 270.482 37.821 270.482 Q39.129 270.482 39.929 271.678 Q40.729 272.874 40.729 274.822 Q40.729 276.821 39.929 278.015 Q39.129 279.208 37.787 279.208 Z M37.798 278.377 Q39.556 278.377 39.556 274.805 Q39.556 271.313 37.821 271.313 Q36.091 271.313 36.091 274.839 Q36.091 278.377 37.798 278.377 Z M45.059 279.208 Q43.773 279.208 42.978 277.998 Q42.184 276.788 42.184 274.839 Q42.184 272.874 42.984 271.678 Q43.784 270.482 45.093 270.482 Q46.401 270.482 47.201 271.678 Q48.001 272.874 48.001 274.822 Q48.001 276.821 47.201 278.015 Q46.401 279.208 45.059 279.208 Z M45.07 278.377 Q46.828 278.377 46.828 274.805 Q46.828 271.313 45.093 271.313 Q43.363 271.313 43.363 274.839 Q43.363 278.377 45.07 278.377 Z M52.331 279.208 Q51.045 279.208 50.25 277.998 Q49.456 276.788 49.456 274.839 Q49.456 272.874 50.256 271.678 Q51.056 270.482 52.364 270.482 Q53.673 270.482 54.473 271.678 Q55.273 272.874 55.273 274.822 Q55.273 276.821 54.473 278.015 Q53.673 279.208 52.331 279.208 Z M52.342 278.377 Q54.099 278.377 54.099 274.805 Q54.099 271.313 52.364 271.313 Q50.635 271.313 50.635 274.839 Q50.635 278.377 52.342 278.377 Z" fill="#8C8478" fill-opacity="1"/>
<path d="M61 226 L616 226" fill="none" stroke="#E6DFD2" stroke-opacity="1" stroke-width="1" stroke-linecap="square" stroke-linejoin="miter"/>
<path d="M17.168 230.938 L17.168 229.905 Q18.358 230.377 19.043 230.377 Q19.835 230.377 20.332 229.913 Q20.829 229.45 20.829 228.715 Q20.829 226.963 18.375 226.963 L17.937 226.963 L17.937 226.216 L18.325 226.21 Q20.627 226.21 20.627 224.587 Q20.627 223.313 19.111 223.313 Q18.28 223.313 17.28 223.779 L17.28 222.813 Q18.263 222.482 19.189 222.482 Q21.739 222.482 21.739 224.408 Q21.739 225.873 20.004 226.497 Q22.014 226.963 22.014 228.698 Q22.014 229.871 21.239 230.54 Q20.464 231.208 19.111 231.208 Q18.342 231.208 17.168 230.938 Z M26.877 231.208 Q25.591 231.208 24.796 229.998 Q24.002 228.788 24.002 226.839 Q24.002 224.874 24.802 223.678 Q25.602 222.482 26.91 222.482 Q28.219 222.482 29.019 223.678 Q29.819 224.874 29.819 226.822 Q29.819 228.821 29.019 230.015 Q28.219 231.208 26.877 231.208 Z M26.888 230.377 Q28.646 230.377 28.646 226.805 Q28.646 223.313 26.91 223.313 Q25.181 223.313 25.181 226.839 Q25.181 230.377 26.888 230.377 Z M31.667 232.802 L31.667 232.387 Q32.206 232.235 32.206 231.112 L32.206 231 L31.667 231 L31.667 229.613 L33.053 229.613 L33.053 230.815 Q33.053 232.662 31.667 232.802 Z M37.787 231.208 Q36.501 231.208 35.707 229.998 Q34.912 228.788 34.912 226.839 Q34.912 224.874 35.712 223.678 Q36.512 222.482 37.821 222.482 Q39.129 222.482 39.929 223.678 Q40.729 224.874 40.729 226.822 Q40.729 228.821 39.929 230.015 Q39.129 231.208 37.787 231.208 Z M37.798 230.377 Q39.556 230.377 39.556 226.805 Q39.556 223.313 37.821 223.313 Q36.091 223.313 36.091 226.839 Q36.091 230.377 37.798 230.377 Z M45.059 231.208 Q43.773 231.208 42.978 229.998 Q42.184 228.788 42.184 226.839 Q42.184 224.874 42.984 223.678 Q43.784 222.482 45.093 222.482 Q46.401 222.482 47.201 223.678 Q48.001 224.874 48.001 226.822 Q48.001 228.821 47.201 230.015 Q46.401 231.208 45.059 231.208 Z M45.07 230.377 Q46.828 230.377 46.828 226.805 Q46.828 223.313 45.093 223.313 Q43.363 223.313 43.363 226.839 Q43.363 230.377 45.07 230.377 Z M52.331 231.208 Q51.045 231.208 50.25 229.998 Q49.456 228.788 49.456 226.839 Q49.456 224.874 50.256 223.678 Q51.056 222.482 52.364 222.482 Q53.673 222.482 54.473 223.678 Q55.273 224.874 55.273 226.822 Q55.273 228.821 54.473 230.015 Q53.673 231.208 52.331 231.208 Z M52.342 230.377 Q54.099 230.377 54.099 226.805 Q54.099 223.313 52.364 223.313 Q50.635 223.313 50.635 226.839 Q50.635 230.377 52.342 230.377 Z" fill="#8C8478" fill-opacity="1"/>
<path d="M61 179 L616 179" fill="none" stroke="#E6DFD2" stroke-opacity="1" stroke-width="1" stroke-linecap="square" stroke-linejoin="miter"/>
<path d="M20.329 184 L20.329 181.647 L16.59 181.647 L16.59 180.811 L20.329 175.689 L21.368 175.689 L21.368 180.743 L22.48 180.743 L22.48 181.647 L21.368 181.647 L21.368 184 Z M17.673 180.743 L20.402 180.743 L20.402 177.048 Z M26.877 184.208 Q25.591 184.208 24.796 182.998 Q24.002 181.788 24.002 179.839 Q24.002 177.874 24.802 176.678 Q25.602 175.482 26.91 175.482 Q28.219 175.482 29.019 176.678 Q29.819 177.874 29.819 179.822 Q29.819 181.821 29.019 183.015 Q28.219 184.208 26.877 184.208 Z M26.888 183.377 Q28.646 183.377 28.646 179.805 Q28.646 176.313 26.91 176.313 Q25.181 176.313 25.181 179.839 Q25.181 183.377 26.888 183.377 Z M31.667 185.802 L31.667 185.387 Q32.206 185.235 32.206 184.112 L32.206 184 L31.667 184 L31.667 182.613 L33.053 182.613 L33.053 183.815 Q33.053 185.662 31.667 185.802 Z M37.787 184.208 Q36.501 184.208 35.707 182.998 Q34.912 181.788 34.912 179.839 Q34.912 177.874 35.712 176.678 Q36.512 175.482 37.821 175.482 Q39.129 175.482 39.929 176.678 Q40.729 177.874 40.729 179.822 Q40.729 181.821 39.929 183.015 Q39.129 184.208 37.787 184.208 Z M37.798 183.377 Q39.556 183.377 39.556 179.805 Q39.556 176.313 37.821 176.313 Q36.091 176.313 36.091 179.839 Q36.091 183.377 37.798 183.377 Z M45.059 184.208 Q43.773 184.208 42.978 182.998 Q42.184 181.788 42.184 179.839 Q42.184 177.874 42.984 176.678 Q43.784 175.482 45.093 175.482 Q46.401 175.482 47.201 176.678 Q48.001 177.874 48.001 179.822 Q48.001 181.821 47.201 183.015 Q46.401 184.208 45.059 184.208 Z M45.07 183.377 Q46.828 183.377 46.828 179.805 Q46.828 176.313 45.093 176.313 Q43.363 176.313 43.363 179.839 Q43.363 183.377 45.07 183.377 Z M52.331 184.208 Q51.045 184.208 50.25 182.998 Q49.456 181.788 49.456 179.839 Q49.456 177.874 50.256 176.678 Q51.056 175.482 52.364 175.482 Q53.673 175.482 54.473 176.678 Q55.273 177.874 55.273 179.822 Q55.273 181.821 54.473 183.015 Q53.673 184.208 52.331 184.208 Z M52.342 183.377 Q54.099 183.377 54.099 179.805 Q54.099 176.313 52.364 176.313 Q50.635 176.313 50.635 179.839 Q50.635 183.377 52.342 183.377 Z" fill="#8C8478" fill-opacity="1"/>
<path d="M61 131 L616 131" fill="none" stroke="#E6DFD2" stroke-opacity="1" stroke-width="1" stroke-linecap="square" stroke-linejoin="miter"/>
<path d="M17.398 136.034 L17.398 135.045 Q18.224 135.377 18.97 135.377 Q19.79 135.377 20.259 134.894 Q20.728 134.411 20.728 133.563 Q20.728 131.693 18.151 131.693 Q17.859 131.693 17.539 131.732 L17.539 127.689 L21.744 127.689 L21.744 128.655 L18.51 128.655 L18.51 130.845 Q20.11 130.845 21.009 131.581 Q21.907 132.316 21.907 133.619 Q21.907 134.832 21.09 135.52 Q20.273 136.208 18.824 136.208 Q18.196 136.208 17.398 136.034 Z M26.877 136.208 Q25.591 136.208 24.796 134.998 Q24.002 133.788 24.002 131.839 Q24.002 129.874 24.802 128.678 Q25.602 127.482 26.91 127.482 Q28.219 127.482 29.019 128.678 Q29.819 129.874 29.819 131.822 Q29.819 133.821 29.019 135.015 Q28.219 136.208 26.877 136.208 Z M26.888 135.377 Q28.646 135.377 28.646 131.805 Q28.646 128.313 26.91 128.313 Q25.181 128.313 25.181 131.839 Q25.181 135.377 26.888 135.377 Z M31.667 137.802 L31.667 137.387 Q32.206 137.235 32.206 136.112 L32.206 136 L31.667 136 L31.667 134.613 L33.053 134.613 L33.053 135.815 Q33.053 137.662 31.667 137.802 Z M37.787 136.208 Q36.501 136.208 35.707 134.998 Q34.912 133.788 34.912 131.839 Q34.912 129.874 35.712 128.678 Q36.512 127.482 37.821 127.482 Q39.129 127.482 39.929 128.678 Q40.729 129.874 40.729 131.822 Q40.729 133.821 39.929 135.015 Q39.129 136.208 37.787 136.208 Z M37.798 135.377 Q39.556 135.377 39.556 131.805 Q39.556 128.313 37.821 128.313 Q36.091 128.313 36.091 131.839 Q36.091 135.377 37.798 135.377 Z M45.059 136.208 Q43.773 136.208 42.978 134.998 Q42.184 133.788 42.184 131.839 Q42.184 129.874 42.984 128.678 Q43.784 127.482 45.093 127.482 Q46.401 127.482 47.201 128.678 Q48.001 129.874 48.001 131.822 Q48.001 133.821 47.201 135.015 Q46.401 136.208 45.059 136.208 Z M45.07 135.377 Q46.828 135.377 46.828 131.805 Q46.828 128.313 45.093 128.313 Q43.363 128.313 43.363 131.839 Q43.363 135.377 45.07 135.377 Z M52.331 136.208 Q51.045 136.208 50.25 134.998 Q49.456 133.788 49.456 131.839 Q49.456 129.874 50.256 128.678 Q51.056 127.482 52.364 127.482 Q53.673 127.482 54.473 128.678 Q55.273 129.874 55.273 131.822 Q55.273 133.821 54.473 135.015 Q53.673 136.208 52.331 136.208 Z M52.342 135.377 Q54.099 135.377 54.099 131.805 Q54.099 128.313 52.364 128.313 Q50.635 128.313 50.635 131.839 Q50.635 135.377 52.342 135.377 Z" fill="#8C8478" fill-opacity="1"/>
<path d="M61 84 L616 84" fill="none" stroke="#E6DFD2" stroke-opacity="1" stroke-width="1" stroke-linecap="square" stroke-linejoin="miter"/>
<path d="M17.977 84.693 Q18.768 83.666 19.97 83.666 Q21.059 83.666 21.753 84.387 Q22.446 85.109 22.446 86.237 Q22.446 87.534 21.669 88.371 Q20.891 89.208 19.695 89.208 Q18.319 89.208 17.544 88.102 Q16.769 86.995 16.769 85.03 Q16.769 82.868 17.659 81.672 Q18.549 80.476 20.167 80.476 Q20.908 80.476 22.02 80.791 L22.02 81.756 Q20.846 81.307 20.099 81.307 Q17.977 81.307 17.977 84.693 Z M21.334 86.484 Q21.334 85.541 20.911 85.002 Q20.487 84.463 19.734 84.463 Q19.032 84.463 18.527 84.935 Q18.021 85.406 18.021 86.069 Q18.021 87.113 18.502 87.745 Q18.982 88.377 19.773 88.377 Q20.487 88.377 20.911 87.863 Q21.334 87.349 21.334 86.484 Z M26.877 89.208 Q25.591 89.208 24.796 87.998 Q24.002 86.788 24.002 84.839 Q24.002 82.874 24.802 81.678 Q25.602 80.482 26.91 80.482 Q28.219 80.482 29.019 81.678 Q29.819 82.874 29.819 84.822 Q29.819 86.821 29.019 88.015 Q28.219 89.208 26.877 89.208 Z M26.888 88.377 Q28.646 88.377 28.646 84.805 Q28.646 81.313 26.91 81.313 Q25.181 81.313 25.181 84.839 Q25.181 88.377 26.888 88.377 Z M31.667 90.802 L31.667 90.387 Q32.206 90.235 32.206 89.112 L32.206 89 L31.667 89 L31.667 87.613 L33.053 87.613 L33.053 88.815 Q33.053 90.662 31.667 90.802 Z M37.787 89.208 Q36.501 89.208 35.707 87.998 Q34.912 86.788 34.912 84.839 Q34.912 82.874 35.712 81.678 Q36.512 80.482 37.821 80.482 Q39.129 80.482 39.929 81.678 Q40.729 82.874 40.729 84.822 Q40.729 86.821 39.929 88.015 Q39.129 89.208 37.787 89.208 Z M37.798 88.377 Q39.556 88.377 39.556 84.805 Q39.556 81.313 37.821 81.313 Q36.091 81.313 36.091 84.839 Q36.091 88.377 37.798 88.377 Z M45.059 89.208 Q43.773 89.208 42.978 87.998 Q42.184 86.788 42.184 84.839 Q42.184 82.874 42.984 81.678 Q43.784 80.482 45.093 80.482 Q46.401 80.482 47.201 81.678 Q48.001 82.874 48.001 84.822 Q48.001 86.821 47.201 88.015 Q46.401 89.208 45.059 89.208 Z M45.07 88.377 Q46.828 88.377 46.828 84.805 Q46.828 81.313 45.093 81.313 Q43.363 81.313 43.363 84.839 Q43.363 88.377 45.07 88.377 Z M52.331 89.208 Q51.045 89.208 50.25 87.998 Q49.456 86.788 49.456 84.839 Q49.456 82.874 50.256 81.678 Q51.056 80.482 52.364 80.482 Q53.673 80.482 54.473 81.678 Q55.273 82.874 55.273 84.822 Q55.273 86.821 54.473 88.015 Q53.673 89.208 52.331 89.208 Z M52.342 88.377 Q54.099 88.377 54.099 84.805 Q54.099 81.313 52.364 81.313 Q50.635 81.313 50.635 84.839 Q50.635 88.377 52.342 88.377 Z" fill="#8C8478" fill-opacity="1"/>
<path d="M61 36 L616 36" fill="none" stroke="#E6DFD2" stroke-opacity="1" stroke-width="1" stroke-linecap="square" stroke-linejoin="miter"/>
<path d="M17.729 41 Q17.892 40.029 18.193 39.321 Q18.493 38.614 19.257 37.378 L21.525 33.728 L17.247 33.728 L17.247 32.689 L22.581 32.689 L22.581 33.728 Q19.386 38.439 19.004 41 Z M26.877 41.208 Q25.591 41.208 24.796 39.998 Q24.002 38.788 24.002 36.839 Q24.002 34.874 24.802 33.678 Q25.602 32.482 26.91 32.482 Q28.219 32.482 29.019 33.678 Q29.819 34.874 29.819 36.822 Q29.819 38.821 29.019 40.015 Q28.219 41.208 26.877 41.208 Z M26.888 40.377 Q28.646 40.377 28.646 36.805 Q28.646 33.313 26.91 33.313 Q25.181 33.313 25.181 36.839 Q25.181 40.377 26.888 40.377 Z M31.667 42.802 L31.667 42.387 Q32.206 42.235 32.206 41.112 L32.206 41 L31.667 41 L31.667 39.613 L33.053 39.613 L33.053 40.815 Q33.053 42.662 31.667 42.802 Z M37.787 41.208 Q36.501 41.208 35.707 39.998 Q34.912 38.788 34.912 36.839 Q34.912 34.874 35.712 33.678 Q36.512 32.482 37.821 32.482 Q39.129 32.482 39.929 33.678 Q40.729 34.874 40.729 36.822 Q40.729 38.821 39.929 40.015 Q39.129 41.208 37.787 41.208 Z M37.798 40.377 Q39.556 40.377 39.556 36.805 Q39.556 33.313 37.821 33.313 Q36.091 33.313 36.091 36.839 Q36.091 40.377 37.798 40.377 Z M45.059 41.208 Q43.773 41.208 42.978 39.998 Q42.184 38.788 42.184 36.839 Q42.184 34.874 42.984 33.678 Q43.784 32.482 45.093 32.482 Q46.401 32.482 47.201 33.678 Q48.001 34.874 48.001 36.822 Q48.001 38.821 47.201 40.015 Q46.401 41.208 45.059 41.208 Z M45.07 40.377 Q46.828 40.377 46.828 36.805 Q46.828 33.313 45.093 33.313 Q43.363 33.313 43.363 36.839 Q43.363 40.377 45.07 40.377 Z M52.331 41.208 Q51.045 41.208 50.25 39.998 Q49.456 38.788 49.456 36.839 Q49.456 34.874 50.256 33.678 Q51.056 32.482 52.364 32.482 Q53.673 32.482 54.473 33.678 Q55.273 34.874 55.273 36.822 Q55.273 38.821 54.473 40.015 Q53.673 41.208 52.331 41.208 Z M52.342 40.377 Q54.099 40.377 54.099 36.805 Q54.099 33.313 52.364 33.313 Q50.635 33.313 50.635 36.839 Q50.635 40.377 52.342 40.377 Z" fill="#8C8478" fill-opacity="1"/>
<path d="M118.375 369 L118.375 69.244 Q118.375 65.244 122.375 65.244 L138.375 65.244 Q142.375 65.244 142.375 69.244 L142.375 369 Z" fill="#B1512D" fill-opacity="1" clip-path="url(#c1)"/>
<path d="M257.125 369 L257.125 132.934 Q257.125 128.934 261.125 128.934 L277.125 128.934 Q281.125 128.934 281.125 132.934 L281.125 369 Z" fill="#B1512D" fill-opacity="1" clip-path="url(#c1)"/>
<path d="M395.875 369 L395.875 190.959 Q395.875 186.959 399.875 186.959 L415.875 186.959 Q419.875 186.959 419.875 190.959 L419.875 369 Z" fill="#B1512D" fill-opacity="1" clip-path="url(#c1)"/>
<path d="M534.625 369 L534.625 263.571 Q534.625 259.571 538.625 259.571 L554.625 259.571 Q558.625 259.571 558.625 263.571 L558.625 369 Z" fill="#B1512D" fill-opacity="1" clip-path="url(#c1)"/>
<path d="M116.073 387 L116.073 378.689 L117.229 378.689 L121.413 385.108 L121.413 378.689 L122.423 378.689 L122.423 387 L121.272 387 L117.083 380.582 L117.083 387 Z M126.989 387.14 Q125.68 387.14 124.9 386.273 Q124.119 385.405 124.119 383.951 Q124.119 382.48 124.902 381.623 Q125.686 380.767 127.028 380.767 Q128.37 380.767 129.153 381.623 Q129.937 382.48 129.937 383.94 Q129.937 385.433 129.15 386.287 Q128.364 387.14 126.989 387.14 Z M127.005 386.309 Q128.763 386.309 128.763 383.94 Q128.763 381.598 127.028 381.598 Q125.298 381.598 125.298 383.951 Q125.298 386.309 127.005 386.309 Z M131.666 387 L131.666 380.902 L132.772 380.902 L132.772 382.047 Q133.429 380.767 134.681 380.767 Q134.85 380.767 135.035 380.795 L135.035 381.828 Q134.749 381.733 134.53 381.733 Q133.48 381.733 132.772 382.979 L132.772 387 Z M138.202 387.14 Q137.36 387.14 136.888 386.657 Q136.417 386.175 136.417 385.315 L136.417 381.733 L135.653 381.733 L135.653 380.902 L136.417 380.902 L136.417 379.796 L137.523 379.689 L137.523 380.902 L139.117 380.902 L139.117 381.733 L137.523 381.733 L137.523 385.113 Q137.523 386.309 138.556 386.309 Q138.775 386.309 139.089 386.236 L139.089 387 Q138.578 387.14 138.202 387.14 Z M140.673 387 L140.673 378.134 L141.779 378.134 L141.779 382.047 Q142.655 380.767 143.924 380.767 Q144.716 380.767 145.188 381.27 Q145.659 381.772 145.659 382.62 L145.659 387 L144.553 387 L144.553 382.979 Q144.553 382.3 144.354 382.011 Q144.154 381.722 143.694 381.722 Q142.677 381.722 141.779 383.052 L141.779 387 Z" fill="#8C8478" fill-opacity="1"/>
<path d="M259.073 387 L259.073 378.689 L263.716 378.689 L263.716 379.571 L260.252 379.571 L260.252 382.238 L263.155 382.238 L263.155 383.109 L260.252 383.109 L260.252 386.118 L263.958 386.118 L263.958 387 Z M268.484 386.225 Q267.49 387.14 266.569 387.14 Q265.811 387.14 265.311 386.666 Q264.811 386.191 264.811 385.467 Q264.811 384.468 265.651 383.931 Q266.49 383.395 268.057 383.395 L268.321 383.395 L268.321 382.659 Q268.321 381.598 267.231 381.598 Q266.355 381.598 265.339 382.137 L265.339 381.222 Q266.457 380.767 267.434 380.767 Q268.456 380.767 268.941 381.228 Q269.427 381.688 269.427 382.659 L269.427 385.422 Q269.427 386.371 270.011 386.371 Q270.084 386.371 270.224 386.349 L270.303 386.961 Q269.927 387.14 269.472 387.14 Q268.697 387.14 268.484 386.225 Z M268.321 385.624 L268.321 384.046 L267.95 384.035 Q267.041 384.035 266.479 384.38 Q265.917 384.726 265.917 385.287 Q265.917 385.686 266.198 385.961 Q266.479 386.236 266.883 386.236 Q267.574 386.236 268.321 385.624 Z M273.307 387.14 Q272.549 387.14 271.465 386.787 L271.465 385.77 Q272.549 386.309 273.352 386.309 Q273.829 386.309 274.144 386.051 Q274.458 385.793 274.458 385.405 Q274.458 384.838 273.577 384.468 L272.931 384.192 Q271.499 383.597 271.499 382.48 Q271.499 381.682 272.063 381.225 Q272.628 380.767 273.61 380.767 Q274.121 380.767 274.874 380.907 L275.104 380.952 L275.104 381.873 Q274.177 381.598 273.633 381.598 Q272.566 381.598 272.566 382.373 Q272.566 382.873 273.375 383.215 L273.908 383.44 Q274.812 383.822 275.188 384.246 Q275.564 384.67 275.564 385.304 Q275.564 386.107 274.93 386.624 Q274.295 387.14 273.307 387.14 Z M279.383 387.14 Q278.541 387.14 278.069 386.657 Q277.597 386.175 277.597 385.315 L277.597 381.733 L276.833 381.733 L276.833 380.902 L277.597 380.902 L277.597 379.796 L278.703 379.689 L278.703 380.902 L280.298 380.902 L280.298 381.733 L278.703 381.733 L278.703 385.113 Q278.703 386.309 279.737 386.309 Q279.956 386.309 280.27 386.236 L280.27 387 Q279.759 387.14 279.383 387.14 Z" fill="#8C8478" fill-opacity="1"/>
<path d="M395.701 387.208 Q394.864 387.208 393.562 386.843 L393.562 385.675 Q394.965 386.326 395.869 386.326 Q396.566 386.326 396.99 385.961 Q397.414 385.596 397.414 385.001 Q397.414 384.512 397.136 384.17 Q396.858 383.827 396.111 383.406 L395.538 383.075 Q394.477 382.469 394.042 381.932 Q393.606 381.396 393.606 380.683 Q393.606 379.723 394.303 379.102 Q394.999 378.482 396.077 378.482 Q397.037 378.482 398.104 378.802 L398.104 379.88 Q396.79 379.363 396.145 379.363 Q395.532 379.363 395.134 379.689 Q394.735 380.015 394.735 380.509 Q394.735 380.924 395.027 381.244 Q395.319 381.564 396.094 382.008 L396.689 382.345 Q397.767 382.957 398.194 383.502 Q398.621 384.046 398.621 384.81 Q398.621 385.894 397.821 386.551 Q397.021 387.208 395.701 387.208 Z M402.686 387.14 Q401.378 387.14 400.597 386.273 Q399.817 385.405 399.817 383.951 Q399.817 382.48 400.6 381.623 Q401.384 380.767 402.726 380.767 Q404.068 380.767 404.851 381.623 Q405.634 382.48 405.634 383.94 Q405.634 385.433 404.848 386.287 Q404.062 387.14 402.686 387.14 Z M402.703 386.309 Q404.461 386.309 404.461 383.94 Q404.461 381.598 402.726 381.598 Q400.996 381.598 400.996 383.951 Q400.996 386.309 402.703 386.309 Z M411.177 387 L411.177 385.854 Q410.295 387.14 409.037 387.14 Q408.24 387.14 407.768 386.638 Q407.296 386.135 407.296 385.282 L407.296 380.902 L408.403 380.902 L408.403 384.922 Q408.403 385.607 408.602 385.897 Q408.801 386.186 409.267 386.186 Q410.278 386.186 411.177 384.855 L411.177 380.902 L412.283 380.902 L412.283 387 Z M416.331 387.14 Q415.489 387.14 415.017 386.657 Q414.546 386.175 414.546 385.315 L414.546 381.733 L413.782 381.733 L413.782 380.902 L414.546 380.902 L414.546 379.796 L415.652 379.689 L415.652 380.902 L417.247 380.902 L417.247 381.733 L415.652 381.733 L415.652 385.113 Q415.652 386.309 416.685 386.309 Q416.904 386.309 417.219 386.236 L417.219 387 Q416.708 387.14 416.331 387.14 Z M418.802 387 L418.802 378.134 L419.908 378.134 L419.908 382.047 Q420.784 380.767 422.053 380.767 Q422.845 380.767 423.317 381.27 Q423.788 381.772 423.788 382.62 L423.788 387 L422.682 387 L422.682 382.979 Q422.682 382.3 422.483 382.011 Q422.283 381.722 421.823 381.722 Q420.807 381.722 419.908 383.052 L419.908 387 Z" fill="#8C8478" fill-opacity="1"/>
<path d="M536.151 387 L534.011 378.689 L535.146 378.689 L536.847 385.254 L538.414 378.689 L539.548 378.689 L541.03 385.164 L542.861 378.689 L543.821 378.689 L541.491 387 L540.317 387 L538.852 380.593 L537.319 387 Z M549.414 386.803 Q548.302 387.14 547.51 387.14 Q546.163 387.14 545.312 386.245 Q544.461 385.349 544.461 383.923 Q544.461 382.536 545.211 381.649 Q545.96 380.761 547.128 380.761 Q548.235 380.761 548.838 381.548 Q549.442 382.334 549.442 383.782 L549.436 384.125 L545.59 384.125 Q545.831 386.298 547.718 386.298 Q548.409 386.298 549.414 385.927 Z M545.64 383.294 L548.33 383.294 Q548.33 381.593 547.061 381.593 Q545.786 381.593 545.64 383.294 Z M552.968 387.14 Q552.21 387.14 551.126 386.787 L551.126 385.77 Q552.21 386.309 553.013 386.309 Q553.49 386.309 553.805 386.051 Q554.119 385.793 554.119 385.405 Q554.119 384.838 553.238 384.468 L552.592 384.192 Q551.16 383.597 551.16 382.48 Q551.16 381.682 551.724 381.225 Q552.289 380.767 553.271 380.767 Q553.782 380.767 554.535 380.907 L554.765 380.952 L554.765 381.873 Q553.839 381.598 553.294 381.598 Q552.227 381.598 552.227 382.373 Q552.227 382.873 553.036 383.215 L553.569 383.44 Q554.473 383.822 554.849 384.246 Q555.226 384.67 555.226 385.304 Q555.226 386.107 554.591 386.624 Q553.957 387.14 552.968 387.14 Z M559.044 387.14 Q558.202 387.14 557.73 386.657 Q557.258 386.175 557.258 385.315 L557.258 381.733 L556.495 381.733 L556.495 380.902 L557.258 380.902 L557.258 379.796 L558.365 379.689 L558.365 380.902 L559.959 380.902 L559.959 381.733 L558.365 381.733 L558.365 385.113 Q558.365 386.309 559.398 386.309 Q559.617 386.309 559.931 386.236 L559.931 387 Q559.42 387.14 559.044 387.14 Z" fill="#8C8478" fill-opacity="1"/>
</svg>
