<svg xmlns="http://www.w3.org/2000/svg" width="640" height="400" viewBox="0 0 640 400">
<path d="M0 0 L640 0 L640 400 L0 400 L0 0 Z" fill="#FAF6EF" fill-opacity="1"/>
<path d="M17.174 21 L17.174 11.605 L21.218 11.605 Q23.401 11.605 24.563 12.764 Q25.725 13.922 25.725 16.106 Q25.725 18.429 24.493 19.715 Q23.262 21 21.046 21 Z M19.129 19.667 L20.589 19.667 Q22.132 19.667 22.89 18.813 Q23.649 17.959 23.649 16.22 Q23.649 14.875 23.04 13.979 Q22.621 13.364 22.03 13.129 Q21.44 12.894 20.31 12.894 L19.129 12.894 Z M27.483 21 L27.483 14.03 L29.362 14.03 L29.362 21 Z M27.483 12.856 L27.483 11.288 L29.362 11.288 L29.362 12.856 Z M31.526 20.778 L31.526 19.4 Q32.923 19.984 33.913 19.984 Q35.068 19.984 35.068 19.197 Q35.068 18.689 34.116 18.309 L33.481 18.055 Q32.447 17.636 32.002 17.153 Q31.558 16.671 31.558 15.96 Q31.558 14.97 32.313 14.421 Q33.069 13.872 34.427 13.872 Q35.278 13.872 36.452 14.119 L36.452 15.439 Q35.322 15.046 34.58 15.046 Q33.412 15.046 33.412 15.77 Q33.412 16.246 34.275 16.576 L34.821 16.785 Q36.046 17.249 36.525 17.725 Q37.004 18.201 37.004 18.95 Q37.004 19.934 36.189 20.546 Q35.373 21.159 34.065 21.159 Q32.809 21.159 31.526 20.778 Z M39.061 21 L39.061 10.977 L40.94 10.977 L40.94 17.28 L41.061 17.28 L43.542 14.03 L45.104 14.03 L42.813 17.014 L45.821 21 L43.536 21 L41.061 17.515 L40.94 17.515 L40.94 21 Z M55.882 21 L55.882 19.686 Q54.968 21.159 53.508 21.159 Q52.575 21.159 52.036 20.568 Q51.496 19.978 51.496 18.956 L51.496 14.03 L53.375 14.03 L53.375 18.493 Q53.375 19.68 54.168 19.68 Q55.057 19.68 55.882 18.417 L55.882 14.03 L57.761 14.03 L57.761 21 Z M59.926 20.778 L59.926 19.4 Q61.322 19.984 62.313 19.984 Q63.468 19.984 63.468 19.197 Q63.468 18.689 62.516 18.309 L61.881 18.055 Q60.846 17.636 60.402 17.153 Q59.958 16.671 59.958 15.96 Q59.958 14.97 60.713 14.421 Q61.468 13.872 62.827 13.872 Q63.677 13.872 64.852 14.119 L64.852 15.439 Q63.722 15.046 62.979 15.046 Q61.811 15.046 61.811 15.77 Q61.811 16.246 62.674 16.576 L63.22 16.785 Q64.445 17.249 64.925 17.725 Q65.404 18.201 65.404 18.95 Q65.404 19.934 64.588 20.546 Q63.772 21.159 62.465 21.159 Q61.208 21.159 59.926 20.778 Z M70.875 20.251 Q69.936 21.159 68.863 21.159 Q67.949 21.159 67.378 20.6 Q66.807 20.042 66.807 19.153 Q66.807 17.998 67.73 17.372 Q68.654 16.747 70.374 16.747 L70.875 16.747 L70.875 16.112 Q70.875 15.027 69.638 15.027 Q68.54 15.027 67.416 15.649 L67.416 14.354 Q68.692 13.872 69.942 13.872 Q72.678 13.872 72.678 16.049 L72.678 19.134 Q72.678 19.953 73.205 19.953 Q73.3 19.953 73.453 19.927 L73.497 20.981 Q72.9 21.159 72.443 21.159 Q71.288 21.159 70.958 20.251 Z M70.875 19.242 L70.875 17.826 L70.431 17.826 Q68.609 17.826 68.609 18.969 Q68.609 19.356 68.873 19.619 Q69.136 19.883 69.523 19.883 Q70.184 19.883 70.875 19.242 Z M75.154 23.165 L75.306 21.8 Q76.468 22.333 77.521 22.333 Q78.563 22.333 79.026 21.889 Q79.489 21.444 79.489 20.448 L79.489 19.496 Q78.804 21 77.223 21 Q75.979 21 75.249 20.07 Q74.519 19.14 74.519 17.553 Q74.519 15.884 75.338 14.878 Q76.157 13.872 77.515 13.872 Q78.582 13.872 79.489 14.735 L79.686 14.03 L81.375 14.03 L81.375 19.35 Q81.375 20.943 81.181 21.647 Q80.987 22.352 80.429 22.847 Q79.489 23.66 77.782 23.66 Q76.569 23.66 75.154 23.165 Z M79.489 18.404 L79.489 15.833 Q78.81 15.065 78.067 15.065 Q77.356 15.065 76.938 15.712 Q76.519 16.36 76.519 17.452 Q76.519 19.496 77.833 19.496 Q78.74 19.496 79.489 18.404 Z M89.354 20.765 Q88.014 21.159 86.814 21.159 Q85.069 21.159 84.06 20.168 Q83.05 19.178 83.05 17.464 Q83.05 15.846 83.974 14.859 Q84.897 13.872 86.415 13.872 Q87.944 13.872 88.649 14.836 Q89.354 15.801 89.354 17.89 L85.031 17.89 Q85.221 19.883 87.221 19.883 Q88.167 19.883 89.354 19.445 Z M85.005 16.83 L87.506 16.83 Q87.506 15.046 86.357 15.046 Q85.189 15.046 85.005 16.83 Z" fill="#2B2620" fill-opacity="1"/>
<path d="M99.073 21 L99.073 12.689 L100.707 12.689 L103.009 19.119 L105.378 12.689 L106.838 12.689 L106.838 21 L105.738 21 L105.738 14.239 L103.447 20.444 L102.307 20.444 L100.083 14.222 L100.083 21 Z M108.978 21 L108.978 12.689 L111.134 12.689 Q112.381 12.689 113.046 13.161 Q113.711 13.633 113.711 14.52 Q113.711 16.031 112.004 16.671 Q114.043 17.294 114.043 18.922 Q114.043 19.933 113.369 20.467 Q112.695 21 111.426 21 Z M110.146 20.118 L110.387 20.118 Q111.684 20.118 112.066 19.956 Q112.796 19.647 112.796 18.81 Q112.796 18.069 112.134 17.578 Q111.471 17.086 110.477 17.086 L110.146 17.086 Z M110.146 16.339 L110.522 16.339 Q111.465 16.339 111.985 15.935 Q112.504 15.531 112.504 14.795 Q112.504 13.571 110.606 13.571 L110.146 13.571 Z M119.265 23.218 L119.265 14.902 L120.371 14.902 L120.371 16.047 Q121.051 14.767 122.409 14.767 Q123.51 14.767 124.142 15.57 Q124.773 16.373 124.773 17.766 Q124.773 19.282 124.057 20.211 Q123.342 21.14 122.174 21.14 Q121.09 21.14 120.371 20.309 L120.371 23.218 Z M120.371 19.546 Q121.225 20.309 122 20.309 Q123.594 20.309 123.594 17.878 Q123.594 15.733 122.179 15.733 Q121.253 15.733 120.371 16.738 Z M130.973 20.803 Q129.861 21.14 129.069 21.14 Q127.721 21.14 126.871 20.245 Q126.02 19.349 126.02 17.923 Q126.02 16.536 126.77 15.649 Q127.519 14.761 128.687 14.761 Q129.793 14.761 130.397 15.548 Q131.001 16.334 131.001 17.782 L130.995 18.125 L127.149 18.125 Q127.39 20.298 129.277 20.298 Q129.968 20.298 130.973 19.927 Z M127.199 17.294 L129.889 17.294 Q129.889 15.593 128.62 15.593 Q127.345 15.593 127.199 17.294 Z M132.91 21 L132.91 14.902 L134.016 14.902 L134.016 16.047 Q134.673 14.767 135.925 14.767 Q136.094 14.767 136.279 14.795 L136.279 15.828 Q135.993 15.733 135.774 15.733 Q134.724 15.733 134.016 16.979 L134.016 21 Z M142.574 15.733 L142.574 21 L141.462 21 L141.462 15.733 L140.597 15.733 L140.597 14.902 L141.462 14.902 L141.462 14.172 Q141.462 11.993 143.45 11.993 Q144.006 11.993 144.713 12.178 L144.713 13.054 Q143.966 12.824 143.517 12.824 Q142.972 12.824 142.773 13.085 Q142.574 13.346 142.574 14.054 L142.574 14.902 L144.095 14.902 L144.095 15.733 Z M147.869 21.14 Q146.561 21.14 145.78 20.273 Q145 19.405 145 17.951 Q145 16.48 145.783 15.623 Q146.566 14.767 147.908 14.767 Q149.25 14.767 150.034 15.623 Q150.817 16.48 150.817 17.94 Q150.817 19.433 150.031 20.287 Q149.245 21.14 147.869 21.14 Z M147.886 20.309 Q149.643 20.309 149.643 17.94 Q149.643 15.598 147.908 15.598 Q146.179 15.598 146.179 17.951 Q146.179 20.309 147.886 20.309 Z M152.546 21 L152.546 12.134 L153.653 12.134 L153.653 21 Z M159.784 21 L159.784 19.854 Q159.111 21.14 157.752 21.14 Q156.651 21.14 156.019 20.337 Q155.388 19.534 155.388 18.142 Q155.388 16.62 156.104 15.694 Q156.82 14.767 157.988 14.767 Q159.071 14.767 159.784 15.598 L159.784 12.134 L160.896 12.134 L160.896 21 Z M159.784 16.356 Q158.925 15.598 158.156 15.598 Q156.567 15.598 156.567 18.03 Q156.567 20.169 157.982 20.169 Q158.903 20.169 159.784 19.164 Z M167.578 20.803 Q166.467 21.14 165.675 21.14 Q164.327 21.14 163.476 20.245 Q162.626 19.349 162.626 17.923 Q162.626 16.536 163.375 15.649 Q164.125 14.761 165.293 14.761 Q166.399 14.761 167.003 15.548 Q167.606 16.334 167.606 17.782 L167.601 18.125 L163.754 18.125 Q163.996 20.298 165.883 20.298 Q166.573 20.298 167.578 19.927 Z M163.805 17.294 L166.495 17.294 Q166.495 15.593 165.226 15.593 Q163.951 15.593 163.805 17.294 Z M169.516 21 L169.516 14.902 L170.622 14.902 L170.622 16.047 Q171.279 14.767 172.531 14.767 Q172.699 14.767 172.885 14.795 L172.885 15.828 Q172.598 15.733 172.379 15.733 Q171.329 15.733 170.622 16.979 L170.622 21 Z" fill="#8C8478" fill-opacity="1"/>
<path d="M17 38.5 L17 381.5 C17 382.328 17.672 383 18.5 383 L394.092 383 C394.921 383 395.592 382.328 395.592 381.5 L395.592 38.5 C395.592 37.672 394.921 37 394.092 37 L18.5 37 C17.672 37 17 37.672 17 38.5 Z" fill="#B1512D" fill-opacity="1"/>
<path d="M397.592 38.5 L397.592 190.583 C397.592 191.412 398.264 192.083 399.092 192.083 L621.5 192.083 C622.328 192.083 623 191.412 623 190.583 L623 38.5 C623 37.672 622.328 37 621.5 37 L399.092 37 C398.264 37 397.592 37.672 397.592 38.5 Z" fill="#007C5D" fill-opacity="1"/>
<path d="M397.592 195.583 L397.592 381.5 C397.592 382.328 398.264 383 399.092 383 L520.75 383 C521.578 383 522.25 382.328 522.25 381.5 L522.25 195.583 C522.25 194.755 521.578 194.083 520.75 194.083 L399.092 194.083 C398.264 194.083 397.592 194.755 397.592 195.583 Z" fill="#B68B16" fill-opacity="1"/>
<path d="M524.25 195.583 L524.25 283.314 C524.25 284.143 524.921 284.814 525.75 284.814 L621.5 284.814 C622.328 284.814 623 284.143 623 283.314 L623 195.583 C623 194.755 622.328 194.083 621.5 194.083 L525.75 194.083 C524.921 194.083 524.25 194.755 524.25 195.583 Z" fill="#614989" fill-opacity="1"/>
<path d="M524.25 288.314 L524.25 381.5 C524.25 382.328 524.921 383 525.75 383 L596.312 383 C597.141 383 597.812 382.328 597.812 381.5 L597.812 288.314 C597.812 287.486 597.141 286.814 596.312 286.814 L525.75 286.814 C524.921 286.814 524.25 287.486 524.25 288.314 Z" fill="#A64D40" fill-opacity="1"/>
<path d="M599.812 288.314 L599.812 381.5 C599.812 382.328 600.484 383 601.312 383 L621.5 383 C622.328 383 623 382.328 623 381.5 L623 288.314 C623 287.486 622.328 286.814 621.5 286.814 L601.312 286.814 C600.484 286.814 599.812 287.486 599.812 288.314 Z" fill="#8A943F" fill-opacity="1"/>
<path d="M24.106 54.118 L24.106 48.02 L25.212 48.02 L25.212 49.166 Q26.088 47.885 27.357 47.885 Q28.149 47.885 28.621 48.388 Q29.093 48.89 29.093 49.738 L29.093 54.118 L27.986 54.118 L27.986 50.098 Q27.986 49.418 27.787 49.129 Q27.588 48.84 27.127 48.84 Q26.111 48.84 25.212 50.171 L25.212 54.118 Z M33.63 54.259 Q32.321 54.259 31.541 53.391 Q30.76 52.523 30.76 51.069 Q30.76 49.598 31.544 48.742 Q32.327 47.885 33.669 47.885 Q35.011 47.885 35.794 48.742 Q36.578 49.598 36.578 51.058 Q36.578 52.552 35.792 53.405 Q35.005 54.259 33.63 54.259 Z M33.646 53.427 Q35.404 53.427 35.404 51.058 Q35.404 48.716 33.669 48.716 Q31.939 48.716 31.939 51.069 Q31.939 53.427 33.646 53.427 Z M42.221 54.118 L42.221 52.973 Q41.547 54.259 40.188 54.259 Q39.088 54.259 38.456 53.456 Q37.824 52.653 37.824 51.26 Q37.824 49.738 38.54 48.812 Q39.256 47.885 40.424 47.885 Q41.508 47.885 42.221 48.716 L42.221 45.252 L43.333 45.252 L43.333 54.118 Z M42.221 49.474 Q41.362 48.716 40.593 48.716 Q39.003 48.716 39.003 51.148 Q39.003 53.287 40.418 53.287 Q41.339 53.287 42.221 52.282 Z M50.015 53.922 Q48.903 54.259 48.111 54.259 Q46.764 54.259 45.913 53.363 Q45.062 52.467 45.062 51.041 Q45.062 49.654 45.812 48.767 Q46.562 47.88 47.729 47.88 Q48.836 47.88 49.439 48.666 Q50.043 49.452 50.043 50.901 L50.037 51.243 L46.191 51.243 Q46.432 53.416 48.319 53.416 Q49.01 53.416 50.015 53.046 Z M46.241 50.412 L48.931 50.412 Q48.931 48.711 47.662 48.711 Q46.387 48.711 46.241 50.412 Z M50.846 56.055 L50.846 55.224 L56.596 55.224 L56.596 56.055 Z M57.702 54.118 L57.702 48.02 L58.808 48.02 L58.808 49.166 Q59.617 47.885 60.886 47.885 Q62.11 47.885 62.554 49.166 Q63.34 47.88 64.598 47.88 Q65.406 47.88 65.85 48.354 Q66.293 48.829 66.293 49.682 L66.293 54.118 L65.182 54.118 L65.182 49.856 Q65.182 48.812 64.356 48.812 Q63.497 48.812 62.554 50.03 L62.554 54.118 L61.442 54.118 L61.442 49.856 Q61.442 48.806 60.6 48.806 Q59.763 48.806 58.808 50.03 L58.808 54.118 Z M70.825 54.259 Q69.517 54.259 68.736 53.391 Q67.956 52.523 67.956 51.069 Q67.956 49.598 68.739 48.742 Q69.522 47.885 70.864 47.885 Q72.206 47.885 72.99 48.742 Q73.773 49.598 73.773 51.058 Q73.773 52.552 72.987 53.405 Q72.201 54.259 70.825 54.259 Z M70.842 53.427 Q72.599 53.427 72.599 51.058 Q72.599 48.716 70.864 48.716 Q69.135 48.716 69.135 51.069 Q69.135 53.427 70.842 53.427 Z M79.416 54.118 L79.416 52.973 Q78.742 54.259 77.384 54.259 Q76.283 54.259 75.651 53.456 Q75.02 52.653 75.02 51.26 Q75.02 49.738 75.735 48.812 Q76.451 47.885 77.619 47.885 Q78.703 47.885 79.416 48.716 L79.416 45.252 L80.528 45.252 L80.528 54.118 Z M79.416 49.474 Q78.557 48.716 77.788 48.716 Q76.199 48.716 76.199 51.148 Q76.199 53.287 77.614 53.287 Q78.535 53.287 79.416 52.282 Z M86.553 54.118 L86.553 52.973 Q85.672 54.259 84.414 54.259 Q83.616 54.259 83.145 53.756 Q82.673 53.253 82.673 52.4 L82.673 48.02 L83.779 48.02 L83.779 52.041 Q83.779 52.726 83.979 53.015 Q84.178 53.304 84.644 53.304 Q85.655 53.304 86.553 51.973 L86.553 48.02 L87.659 48.02 L87.659 54.118 Z M89.877 54.118 L89.877 45.252 L90.984 45.252 L90.984 54.118 Z M97.671 53.922 Q96.56 54.259 95.768 54.259 Q94.42 54.259 93.569 53.363 Q92.719 52.467 92.719 51.041 Q92.719 49.654 93.468 48.767 Q94.218 47.88 95.386 47.88 Q96.492 47.88 97.096 48.666 Q97.699 49.452 97.699 50.901 L97.694 51.243 L93.847 51.243 Q94.089 53.416 95.976 53.416 Q96.666 53.416 97.671 53.046 Z M93.898 50.412 L96.588 50.412 Q96.588 48.711 95.319 48.711 Q94.044 48.711 93.898 50.412 Z M101.226 54.259 Q100.468 54.259 99.384 53.905 L99.384 52.888 Q100.468 53.427 101.271 53.427 Q101.748 53.427 102.063 53.169 Q102.377 52.911 102.377 52.523 Q102.377 51.956 101.495 51.586 L100.85 51.311 Q99.418 50.715 99.418 49.598 Q99.418 48.801 99.982 48.343 Q100.546 47.885 101.529 47.885 Q102.04 47.885 102.792 48.026 L103.023 48.071 L103.023 48.991 Q102.096 48.716 101.552 48.716 Q100.485 48.716 100.485 49.491 Q100.485 49.991 101.293 50.333 L101.827 50.558 Q102.731 50.94 103.107 51.364 Q103.483 51.788 103.483 52.422 Q103.483 53.225 102.849 53.742 Q102.214 54.259 101.226 54.259 Z" fill="#FFFFFF" fill-opacity="1"/>
<path d="M24.977 63.355 Q25.768 62.328 26.97 62.328 Q28.059 62.328 28.753 63.049 Q29.446 63.771 29.446 64.899 Q29.446 66.197 28.669 67.033 Q27.891 67.87 26.695 67.87 Q25.319 67.87 24.544 66.764 Q23.769 65.657 23.769 63.692 Q23.769 61.53 24.659 60.334 Q25.549 59.138 27.167 59.138 Q27.908 59.138 29.02 59.453 L29.02 60.418 Q27.846 59.969 27.099 59.969 Q24.977 59.969 24.977 63.355 Z M28.334 65.146 Q28.334 64.203 27.911 63.664 Q27.487 63.125 26.734 63.125 Q26.032 63.125 25.527 63.597 Q25.021 64.068 25.021 64.731 Q25.021 65.775 25.502 66.407 Q25.982 67.039 26.773 67.039 Q27.487 67.039 27.911 66.525 Q28.334 66.011 28.334 65.146 Z M31.44 67.6 L31.44 66.567 Q32.63 67.039 33.315 67.039 Q34.107 67.039 34.604 66.576 Q35.101 66.112 35.101 65.377 Q35.101 63.625 32.647 63.625 L32.209 63.625 L32.209 62.878 L32.596 62.872 Q34.899 62.872 34.899 61.25 Q34.899 59.975 33.383 59.975 Q32.552 59.975 31.552 60.441 L31.552 59.475 Q32.535 59.144 33.461 59.144 Q36.01 59.144 36.01 61.07 Q36.01 62.535 34.275 63.159 Q36.286 63.625 36.286 65.36 Q36.286 66.533 35.511 67.202 Q34.736 67.87 33.383 67.87 Q32.613 67.87 31.44 67.6 Z M37.678 67.87 L44.226 59.144 L45.09 59.144 L38.549 67.87 Z M39.352 63.507 Q38.56 63.507 38.085 62.94 Q37.611 62.373 37.611 61.424 Q37.611 60.469 38.088 59.91 Q38.565 59.352 39.38 59.352 Q40.188 59.352 40.666 59.91 Q41.143 60.469 41.143 61.418 Q41.143 62.389 40.666 62.948 Q40.188 63.507 39.352 63.507 Z M39.368 62.951 Q40.312 62.951 40.312 61.418 Q40.312 60.727 40.059 60.315 Q39.806 59.902 39.38 59.902 Q38.947 59.902 38.695 60.315 Q38.442 60.727 38.442 61.424 Q38.442 62.12 38.695 62.535 Q38.947 62.951 39.368 62.951 Z M43.372 67.662 Q42.575 67.662 42.103 67.098 Q41.631 66.533 41.631 65.584 Q41.631 64.63 42.109 64.068 Q42.586 63.507 43.395 63.507 Q44.203 63.507 44.683 64.066 Q45.163 64.624 45.163 65.573 Q45.163 66.55 44.686 67.106 Q44.209 67.662 43.372 67.662 Z M43.383 67.106 Q44.332 67.106 44.332 65.573 Q44.332 64.883 44.077 64.47 Q43.821 64.057 43.395 64.057 Q42.968 64.057 42.715 64.47 Q42.462 64.883 42.462 65.584 Q42.462 66.275 42.712 66.691 Q42.962 67.106 43.383 67.106 Z" fill="#FFFFFF" fill-opacity="0.722"/>
<path d="M404.715 54.118 L404.715 52.731 L406.102 52.731 L406.102 54.118 Z M408.36 56.145 L408.489 55.185 Q409.449 55.64 410.381 55.64 Q412.251 55.64 412.251 53.658 L412.251 52.698 Q411.639 53.978 410.241 53.978 Q409.146 53.978 408.5 53.18 Q407.854 52.383 407.854 51.03 Q407.854 49.637 408.59 48.761 Q409.325 47.885 410.493 47.885 Q411.515 47.885 412.251 48.716 L412.251 48.02 L413.363 48.02 L413.363 52.456 Q413.363 53.888 413.214 54.576 Q413.065 55.264 412.655 55.702 Q411.931 56.471 410.403 56.471 Q409.337 56.471 408.36 56.145 Z M412.251 52.007 L412.251 49.474 Q411.521 48.716 410.662 48.716 Q409.898 48.716 409.466 49.328 Q409.033 49.94 409.033 51.007 Q409.033 53.012 410.443 53.012 Q411.403 53.012 412.251 52.007 Z M415.508 54.118 L415.508 48.02 L416.614 48.02 L416.614 54.118 Z M415.508 46.914 L415.508 45.808 L416.614 45.808 L416.614 46.914 Z M420.663 54.259 Q419.82 54.259 419.349 53.776 Q418.877 53.293 418.877 52.434 L418.877 48.851 L418.113 48.851 L418.113 48.02 L418.877 48.02 L418.877 46.914 L419.983 46.807 L419.983 48.02 L421.578 48.02 L421.578 48.851 L419.983 48.851 L419.983 52.231 Q419.983 53.427 421.016 53.427 Q421.235 53.427 421.55 53.354 L421.55 54.118 Q421.039 54.259 420.663 54.259 Z" fill="#FFFFFF" fill-opacity="1"/>
<path d="M405.322 67.662 L405.322 66.831 L406.984 66.831 L406.984 60.272 L405.322 60.688 L405.322 59.834 L408.096 59.144 L408.096 66.831 L409.758 66.831 L409.758 67.662 Z M412.593 67.662 Q412.756 66.691 413.057 65.983 Q413.357 65.276 414.121 64.04 L416.389 60.39 L412.111 60.39 L412.111 59.352 L417.445 59.352 L417.445 60.39 Q414.25 65.102 413.868 67.662 Z M418.27 67.87 L424.818 59.144 L425.683 59.144 L419.141 67.87 Z M419.944 63.507 Q419.152 63.507 418.678 62.94 Q418.203 62.373 418.203 61.424 Q418.203 60.469 418.68 59.91 Q419.158 59.352 419.972 59.352 Q420.78 59.352 421.258 59.91 Q421.735 60.469 421.735 61.418 Q421.735 62.389 421.258 62.948 Q420.78 63.507 419.944 63.507 Z M419.961 62.951 Q420.904 62.951 420.904 61.418 Q420.904 60.727 420.651 60.315 Q420.399 59.902 419.972 59.902 Q419.539 59.902 419.287 60.315 Q419.034 60.727 419.034 61.424 Q419.034 62.12 419.287 62.535 Q419.539 62.951 419.961 62.951 Z M423.964 67.662 Q423.167 67.662 422.695 67.098 Q422.224 66.533 422.224 65.584 Q422.224 64.63 422.701 64.068 Q423.178 63.507 423.987 63.507 Q424.795 63.507 425.275 64.066 Q425.756 64.624 425.756 65.573 Q425.756 66.55 425.278 67.106 Q424.801 67.662 423.964 67.662 Z M423.975 67.106 Q424.924 67.106 424.924 65.573 Q424.924 64.883 424.669 64.47 Q424.413 64.057 423.987 64.057 Q423.56 64.057 423.307 64.47 Q423.055 64.883 423.055 65.584 Q423.055 66.275 423.304 66.691 Q423.554 67.106 423.975 67.106 Z" fill="#FFFFFF" fill-opacity="0.722"/>
<path d="M404.698 211.269 L404.698 202.335 L405.805 202.335 L405.805 206.249 Q406.484 204.969 407.843 204.969 Q408.944 204.969 409.575 205.772 Q410.207 206.575 410.207 207.967 Q410.207 209.483 409.491 210.413 Q408.775 211.342 407.607 211.342 Q406.523 211.342 405.805 210.511 L405.67 211.269 Z M405.805 209.747 Q406.658 210.511 407.433 210.511 Q409.028 210.511 409.028 208.079 Q409.028 205.934 407.613 205.934 Q406.686 205.934 405.805 206.94 Z M415.749 211.201 L415.749 210.056 Q414.868 211.342 413.61 211.342 Q412.812 211.342 412.341 210.839 Q411.869 210.337 411.869 209.483 L411.869 205.103 L412.975 205.103 L412.975 209.124 Q412.975 209.809 413.175 210.098 Q413.374 210.387 413.84 210.387 Q414.851 210.387 415.749 209.056 L415.749 205.103 L416.855 205.103 L416.855 211.201 Z M419.073 211.201 L419.073 205.103 L420.18 205.103 L420.18 211.201 Z M419.073 203.997 L419.073 202.891 L420.18 202.891 L420.18 203.997 Z M422.398 211.201 L422.398 202.335 L423.504 202.335 L423.504 211.201 Z M429.636 211.201 L429.636 210.056 Q428.962 211.342 427.603 211.342 Q426.502 211.342 425.871 210.539 Q425.239 209.736 425.239 208.343 Q425.239 206.822 425.955 205.895 Q426.671 204.969 427.839 204.969 Q428.923 204.969 429.636 205.8 L429.636 202.335 L430.747 202.335 L430.747 211.201 Z M429.636 206.558 Q428.777 205.8 428.007 205.8 Q426.418 205.8 426.418 208.231 Q426.418 210.37 427.833 210.37 Q428.754 210.37 429.636 209.365 Z" fill="#FFFFFF" fill-opacity="1"/>
<path d="M405.322 224.745 L405.322 223.914 L406.984 223.914 L406.984 217.356 L405.322 217.771 L405.322 216.918 L408.096 216.227 L408.096 223.914 L409.758 223.914 L409.758 224.745 Z M412.593 224.745 L412.593 223.914 L414.256 223.914 L414.256 217.356 L412.593 217.771 L412.593 216.918 L415.367 216.227 L415.367 223.914 L417.029 223.914 L417.029 224.745 Z M418.27 224.953 L424.818 216.227 L425.683 216.227 L419.141 224.953 Z M419.944 220.59 Q419.152 220.59 418.678 220.023 Q418.203 219.456 418.203 218.507 Q418.203 217.552 418.68 216.994 Q419.158 216.435 419.972 216.435 Q420.78 216.435 421.258 216.994 Q421.735 217.552 421.735 218.501 Q421.735 219.473 421.258 220.031 Q420.78 220.59 419.944 220.59 Z M419.961 220.034 Q420.904 220.034 420.904 218.501 Q420.904 217.811 420.651 217.398 Q420.399 216.985 419.972 216.985 Q419.539 216.985 419.287 217.398 Q419.034 217.811 419.034 218.507 Q419.034 219.203 419.287 219.619 Q419.539 220.034 419.961 220.034 Z M423.964 224.745 Q423.167 224.745 422.695 224.181 Q422.224 223.617 422.224 222.668 Q422.224 221.713 422.701 221.152 Q423.178 220.59 423.987 220.59 Q424.795 220.59 425.275 221.149 Q425.756 221.708 425.756 222.657 Q425.756 223.634 425.278 224.19 Q424.801 224.745 423.964 224.745 Z M423.975 224.19 Q424.924 224.19 424.924 222.657 Q424.924 221.966 424.669 221.553 Q424.413 221.14 423.987 221.14 Q423.56 221.14 423.307 221.553 Q423.055 221.966 423.055 222.668 Q423.055 223.358 423.304 223.774 Q423.554 224.19 423.975 224.19 Z" fill="#FFFFFF" fill-opacity="0.722"/>
<path d="M532.973 211.342 Q532.215 211.342 531.131 210.988 L531.131 209.972 Q532.215 210.511 533.018 210.511 Q533.495 210.511 533.81 210.253 Q534.124 209.994 534.124 209.607 Q534.124 209.04 533.243 208.669 L532.597 208.394 Q531.165 207.799 531.165 206.681 Q531.165 205.884 531.729 205.426 Q532.294 204.969 533.276 204.969 Q533.787 204.969 534.54 205.109 L534.77 205.154 L534.77 206.075 Q533.843 205.8 533.299 205.8 Q532.232 205.8 532.232 206.575 Q532.232 207.074 533.04 207.417 L533.574 207.641 Q534.478 208.023 534.854 208.447 Q535.23 208.871 535.23 209.506 Q535.23 210.309 534.596 210.825 Q533.961 211.342 532.973 211.342 Z M537.218 211.201 L537.218 205.103 L538.324 205.103 L538.324 206.249 Q538.981 204.969 540.234 204.969 Q540.402 204.969 540.587 204.997 L540.587 206.03 Q540.301 205.934 540.082 205.934 Q539.032 205.934 538.324 207.181 L538.324 211.201 Z M544.305 211.342 Q543.069 211.342 542.255 210.427 Q541.441 209.511 541.441 208.119 Q541.441 206.631 542.247 205.8 Q543.052 204.969 544.496 204.969 Q545.209 204.969 546.09 205.165 L546.09 206.092 Q545.153 205.816 544.563 205.816 Q543.715 205.816 543.201 206.454 Q542.687 207.091 542.687 208.152 Q542.687 209.18 543.215 209.815 Q543.743 210.449 544.597 210.449 Q545.355 210.449 546.158 210.062 L546.158 211.016 Q545.085 211.342 544.305 211.342 Z" fill="#FFFFFF" fill-opacity="1"/>
<path d="M534.579 224.745 L534.579 222.393 L530.839 222.393 L530.839 221.556 L534.579 216.435 L535.618 216.435 L535.618 221.489 L536.73 221.489 L536.73 222.393 L535.618 222.393 L535.618 224.745 Z M531.923 221.489 L534.652 221.489 L534.652 217.794 Z M537.656 224.953 L544.204 216.227 L545.068 216.227 L538.527 224.953 Z M539.33 220.59 Q538.538 220.59 538.063 220.023 Q537.589 219.456 537.589 218.507 Q537.589 217.552 538.066 216.994 Q538.543 216.435 539.358 216.435 Q540.166 216.435 540.643 216.994 Q541.121 217.552 541.121 218.501 Q541.121 219.473 540.643 220.031 Q540.166 220.59 539.33 220.59 Z M539.346 220.034 Q540.29 220.034 540.29 218.501 Q540.29 217.811 540.037 217.398 Q539.784 216.985 539.358 216.985 Q538.925 216.985 538.673 217.398 Q538.42 217.811 538.42 218.507 Q538.42 219.203 538.673 219.619 Q538.925 220.034 539.346 220.034 Z M543.35 224.745 Q542.553 224.745 542.081 224.181 Q541.609 223.617 541.609 222.668 Q541.609 221.713 542.087 221.152 Q542.564 220.59 543.372 220.59 Q544.181 220.59 544.661 221.149 Q545.141 221.708 545.141 222.657 Q545.141 223.634 544.664 224.19 Q544.187 224.745 543.35 224.745 Z M543.361 224.19 Q544.31 224.19 544.31 222.657 Q544.31 221.966 544.055 221.553 Q543.799 221.14 543.372 221.14 Q542.946 221.14 542.693 221.553 Q542.44 221.966 542.44 222.668 Q542.44 223.358 542.69 223.774 Q542.94 224.19 543.361 224.19 Z" fill="#FFFFFF" fill-opacity="0.722"/>
<path d="M534.5 303.158 Q533.507 304.073 532.586 304.073 Q531.828 304.073 531.328 303.598 Q530.828 303.124 530.828 302.4 Q530.828 301.4 531.668 300.864 Q532.507 300.327 534.074 300.327 L534.338 300.327 L534.338 299.592 Q534.338 298.531 533.248 298.531 Q532.372 298.531 531.356 299.07 L531.356 298.154 Q532.473 297.7 533.45 297.7 Q534.472 297.7 534.958 298.16 Q535.444 298.62 535.444 299.592 L535.444 302.355 Q535.444 303.304 536.028 303.304 Q536.101 303.304 536.241 303.281 L536.32 303.893 Q535.944 304.073 535.489 304.073 Q534.714 304.073 534.5 303.158 Z M534.338 302.557 L534.338 300.979 L533.967 300.968 Q533.057 300.968 532.496 301.313 Q531.934 301.658 531.934 302.22 Q531.934 302.618 532.215 302.894 Q532.496 303.169 532.9 303.169 Q533.591 303.169 534.338 302.557 Z M539.324 304.073 Q538.566 304.073 537.482 303.719 L537.482 302.703 Q538.566 303.242 539.369 303.242 Q539.846 303.242 540.161 302.983 Q540.475 302.725 540.475 302.338 Q540.475 301.771 539.593 301.4 L538.948 301.125 Q537.516 300.53 537.516 299.412 Q537.516 298.615 538.08 298.157 Q538.644 297.7 539.627 297.7 Q540.138 297.7 540.891 297.84 L541.121 297.885 L541.121 298.806 Q540.194 298.531 539.65 298.531 Q538.583 298.531 538.583 299.306 Q538.583 299.805 539.391 300.148 L539.925 300.372 Q540.829 300.754 541.205 301.178 Q541.581 301.602 541.581 302.237 Q541.581 303.04 540.947 303.556 Q540.312 304.073 539.324 304.073 Z M545.186 304.073 Q544.428 304.073 543.344 303.719 L543.344 302.703 Q544.428 303.242 545.231 303.242 Q545.708 303.242 546.023 302.983 Q546.337 302.725 546.337 302.338 Q546.337 301.771 545.456 301.4 L544.81 301.125 Q543.378 300.53 543.378 299.412 Q543.378 298.615 543.942 298.157 Q544.507 297.7 545.489 297.7 Q546 297.7 546.753 297.84 L546.983 297.885 L546.983 298.806 Q546.057 298.531 545.512 298.531 Q544.445 298.531 544.445 299.306 Q544.445 299.805 545.254 300.148 L545.787 300.372 Q546.691 300.754 547.067 301.178 Q547.444 301.602 547.444 302.237 Q547.444 303.04 546.809 303.556 Q546.174 304.073 545.186 304.073 Z M553.901 303.736 Q552.789 304.073 551.997 304.073 Q550.65 304.073 549.799 303.177 Q548.948 302.282 548.948 300.855 Q548.948 299.468 549.698 298.581 Q550.448 297.694 551.616 297.694 Q552.722 297.694 553.326 298.48 Q553.929 299.266 553.929 300.715 L553.924 301.057 L550.077 301.057 Q550.319 303.231 552.205 303.231 Q552.896 303.231 553.901 302.86 Z M550.128 300.226 L552.817 300.226 Q552.817 298.525 551.548 298.525 Q550.274 298.525 550.128 300.226 Z M557.669 304.073 Q556.827 304.073 556.355 303.59 Q555.883 303.107 555.883 302.248 L555.883 298.665 L555.12 298.665 L555.12 297.834 L555.883 297.834 L555.883 296.728 L556.989 296.621 L556.989 297.834 L558.584 297.834 L558.584 298.665 L556.989 298.665 L556.989 302.046 Q556.989 303.242 558.023 303.242 Q558.242 303.242 558.556 303.169 L558.556 303.932 Q558.045 304.073 557.669 304.073 Z M561.757 304.073 Q560.999 304.073 559.915 303.719 L559.915 302.703 Q560.999 303.242 561.802 303.242 Q562.279 303.242 562.593 302.983 Q562.908 302.725 562.908 302.338 Q562.908 301.771 562.026 301.4 L561.381 301.125 Q559.949 300.53 559.949 299.412 Q559.949 298.615 560.513 298.157 Q561.077 297.7 562.06 297.7 Q562.571 297.7 563.323 297.84 L563.554 297.885 L563.554 298.806 Q562.627 298.531 562.082 298.531 Q561.016 298.531 561.016 299.306 Q561.016 299.805 561.824 300.148 L562.358 300.372 Q563.262 300.754 563.638 301.178 Q564.014 301.602 564.014 302.237 Q564.014 303.04 563.38 303.556 Q562.745 304.073 561.757 304.073 Z" fill="#FFFFFF" fill-opacity="1"/>
<path d="M534.579 317.476 L534.579 315.124 L530.839 315.124 L530.839 314.287 L534.579 309.166 L535.618 309.166 L535.618 314.22 L536.73 314.22 L536.73 315.124 L535.618 315.124 L535.618 317.476 Z M531.923 314.22 L534.652 314.22 L534.652 310.525 Z M537.656 317.684 L544.204 308.958 L545.068 308.958 L538.527 317.684 Z M539.33 313.321 Q538.538 313.321 538.063 312.754 Q537.589 312.187 537.589 311.238 Q537.589 310.283 538.066 309.725 Q538.543 309.166 539.358 309.166 Q540.166 309.166 540.643 309.725 Q541.121 310.283 541.121 311.232 Q541.121 312.204 540.643 312.762 Q540.166 313.321 539.33 313.321 Z M539.346 312.765 Q540.29 312.765 540.29 311.232 Q540.29 310.542 540.037 310.129 Q539.784 309.716 539.358 309.716 Q538.925 309.716 538.673 310.129 Q538.42 310.542 538.42 311.238 Q538.42 311.934 538.673 312.35 Q538.925 312.765 539.346 312.765 Z M543.35 317.476 Q542.553 317.476 542.081 316.912 Q541.609 316.348 541.609 315.399 Q541.609 314.444 542.087 313.883 Q542.564 313.321 543.372 313.321 Q544.181 313.321 544.661 313.88 Q545.141 314.439 545.141 315.388 Q545.141 316.365 544.664 316.921 Q544.187 317.476 543.35 317.476 Z M543.361 316.921 Q544.31 316.921 544.31 315.388 Q544.31 314.697 544.055 314.284 Q543.799 313.871 543.372 313.871 Q542.946 313.871 542.693 314.284 Q542.44 314.697 542.44 315.399 Q542.44 316.089 542.69 316.505 Q542.94 316.921 543.361 316.921 Z" fill="#FFFFFF" fill-opacity="0.722"/>
</svg>
