<svg xmlns="http://www.w3.org/2000/svg" width="640" height="400" viewBox="0 0 640 400">
<path d="M0 0 L640 0 L640 400 L0 400 L0 0 Z" fill="#FAF6EF" fill-opacity="1"/>
<path d="M16.647 20.917 L16.647 19.305 Q18.165 19.94 19.244 19.94 Q19.999 19.94 20.434 19.604 Q20.869 19.267 20.869 18.689 Q20.869 18.232 20.596 17.918 Q20.323 17.604 19.561 17.172 L18.933 16.823 Q17.669 16.112 17.149 15.462 Q16.628 14.811 16.628 13.941 Q16.628 12.78 17.482 12.075 Q18.336 11.371 19.739 11.371 Q20.862 11.371 22.271 11.694 L22.271 13.199 Q20.831 12.659 19.993 12.659 Q19.345 12.659 18.955 12.948 Q18.564 13.237 18.564 13.707 Q18.564 14.094 18.837 14.386 Q19.11 14.678 19.866 15.103 L20.539 15.478 Q21.897 16.239 22.411 16.88 Q22.925 17.521 22.925 18.442 Q22.925 19.75 21.954 20.492 Q20.983 21.235 19.275 21.235 Q18.146 21.235 16.647 20.917 Z M30.276 20.765 Q28.937 21.159 27.737 21.159 Q25.991 21.159 24.982 20.168 Q23.973 19.178 23.973 17.464 Q23.973 15.846 24.896 14.859 Q25.82 13.872 27.337 13.872 Q28.867 13.872 29.571 14.836 Q30.276 15.801 30.276 17.89 L25.953 17.89 Q26.144 19.883 28.143 19.883 Q29.089 19.883 30.276 19.445 Z M25.928 16.83 L28.429 16.83 Q28.429 15.046 27.28 15.046 Q26.112 15.046 25.928 16.83 Z M32.034 20.778 L32.034 19.4 Q33.431 19.984 34.421 19.984 Q35.576 19.984 35.576 19.197 Q35.576 18.689 34.624 18.309 L33.989 18.055 Q32.955 17.636 32.51 17.153 Q32.066 16.671 32.066 15.96 Q32.066 14.97 32.821 14.421 Q33.577 13.872 34.935 13.872 Q35.786 13.872 36.96 14.119 L36.96 15.439 Q35.83 15.046 35.087 15.046 Q33.919 15.046 33.919 15.77 Q33.919 16.246 34.783 16.576 L35.329 16.785 Q36.554 17.249 37.033 17.725 Q37.512 18.201 37.512 18.95 Q37.512 19.934 36.697 20.546 Q35.881 21.159 34.573 21.159 Q33.316 21.159 32.034 20.778 Z M39.385 20.778 L39.385 19.4 Q40.781 19.984 41.771 19.984 Q42.927 19.984 42.927 19.197 Q42.927 18.689 41.975 18.309 L41.34 18.055 Q40.305 17.636 39.861 17.153 Q39.417 16.671 39.417 15.96 Q39.417 14.97 40.172 14.421 Q40.927 13.872 42.286 13.872 Q43.136 13.872 44.311 14.119 L44.311 15.439 Q43.181 15.046 42.438 15.046 Q41.27 15.046 41.27 15.77 Q41.27 16.246 42.133 16.576 L42.679 16.785 Q43.904 17.249 44.384 17.725 Q44.863 18.201 44.863 18.95 Q44.863 19.934 44.047 20.546 Q43.231 21.159 41.924 21.159 Q40.667 21.159 39.385 20.778 Z M46.919 21 L46.919 14.03 L48.798 14.03 L48.798 21 Z M46.919 12.856 L46.919 11.288 L48.798 11.288 L48.798 12.856 Z M54.073 21.159 Q52.442 21.159 51.48 20.172 Q50.519 19.185 50.519 17.515 Q50.519 15.827 51.487 14.849 Q52.455 13.872 54.118 13.872 Q55.787 13.872 56.755 14.849 Q57.723 15.827 57.723 17.502 Q57.723 19.216 56.752 20.188 Q55.781 21.159 54.073 21.159 Z M54.105 19.984 Q55.724 19.984 55.724 17.502 Q55.724 16.366 55.295 15.706 Q54.867 15.046 54.118 15.046 Q53.375 15.046 52.947 15.706 Q52.518 16.366 52.518 17.515 Q52.518 18.651 52.943 19.318 Q53.369 19.984 54.105 19.984 Z M59.45 21 L59.45 14.03 L61.329 14.03 L61.329 15.344 Q62.249 13.872 63.703 13.872 Q64.636 13.872 65.175 14.462 Q65.715 15.052 65.715 16.074 L65.715 21 L63.836 21 L63.836 16.538 Q63.836 15.351 63.049 15.351 Q62.154 15.351 61.329 16.614 L61.329 21 Z M67.803 20.778 L67.803 19.4 Q69.2 19.984 70.19 19.984 Q71.345 19.984 71.345 19.197 Q71.345 18.689 70.393 18.309 L69.758 18.055 Q68.724 17.636 68.279 17.153 Q67.835 16.671 67.835 15.96 Q67.835 14.97 68.59 14.421 Q69.346 13.872 70.704 13.872 Q71.555 13.872 72.729 14.119 L72.729 15.439 Q71.599 15.046 70.856 15.046 Q69.688 15.046 69.688 15.77 Q69.688 16.246 70.552 16.576 L71.098 16.785 Q72.323 17.249 72.802 17.725 Q73.281 18.201 73.281 18.95 Q73.281 19.934 72.466 20.546 Q71.65 21.159 70.342 21.159 Q69.085 21.159 67.803 20.778 Z M79.623 21 L79.623 10.977 L81.501 10.977 L81.501 15.344 Q82.225 13.872 83.78 13.872 Q85.037 13.872 85.758 14.792 Q86.478 15.712 86.478 17.325 Q86.478 19.07 85.666 20.115 Q84.853 21.159 83.495 21.159 Q82.327 21.159 81.501 20.295 L81.152 21 Z M81.501 19.178 Q82.187 19.94 82.961 19.94 Q83.653 19.94 84.066 19.27 Q84.479 18.601 84.479 17.483 Q84.479 15.344 83.101 15.344 Q82.27 15.344 81.501 16.417 Z M88.262 23.507 L89.842 21 L87.259 14.03 L89.277 14.03 L91.004 18.689 L93.054 14.03 L94.482 14.03 L90.179 23.507 Z M99.916 20.778 L99.916 19.4 Q101.313 19.984 102.303 19.984 Q103.458 19.984 103.458 19.197 Q103.458 18.689 102.506 18.309 L101.871 18.055 Q100.836 17.636 100.392 17.153 Q99.948 16.671 99.948 15.96 Q99.948 14.97 100.703 14.421 Q101.458 13.872 102.817 13.872 Q103.667 13.872 104.842 14.119 L104.842 15.439 Q103.712 15.046 102.969 15.046 Q101.801 15.046 101.801 15.77 Q101.801 16.246 102.665 16.576 L103.21 16.785 Q104.436 17.249 104.915 17.725 Q105.394 18.201 105.394 18.95 Q105.394 19.934 104.578 20.546 Q103.763 21.159 102.455 21.159 Q101.198 21.159 99.916 20.778 Z M110.377 21.159 Q108.746 21.159 107.784 20.172 Q106.822 19.185 106.822 17.515 Q106.822 15.827 107.79 14.849 Q108.758 13.872 110.421 13.872 Q112.091 13.872 113.059 14.849 Q114.027 15.827 114.027 17.502 Q114.027 19.216 113.056 20.188 Q112.084 21.159 110.377 21.159 Z M110.409 19.984 Q112.027 19.984 112.027 17.502 Q112.027 16.366 111.599 15.706 Q111.17 15.046 110.421 15.046 Q109.679 15.046 109.25 15.706 Q108.822 16.366 108.822 17.515 Q108.822 18.651 109.247 19.318 Q109.672 19.984 110.409 19.984 Z M120.063 21 L120.063 19.686 Q119.149 21.159 117.689 21.159 Q116.756 21.159 116.217 20.568 Q115.677 19.978 115.677 18.956 L115.677 14.03 L117.556 14.03 L117.556 18.493 Q117.556 19.68 118.35 19.68 Q119.238 19.68 120.063 18.417 L120.063 14.03 L121.942 14.03 L121.942 21 Z M124.291 21 L124.291 14.03 L126.17 14.03 L126.17 15.344 Q126.9 13.872 128.392 13.872 Q128.569 13.872 128.741 13.91 L128.741 15.585 Q128.341 15.439 127.998 15.439 Q126.875 15.439 126.17 16.576 L126.17 21 Z M135.342 20.848 Q134.174 21.159 133.178 21.159 Q131.508 21.159 130.54 20.178 Q129.572 19.197 129.572 17.509 Q129.572 15.801 130.569 14.836 Q131.565 13.872 133.324 13.872 Q134.174 13.872 135.285 14.145 L135.285 15.503 Q134.13 15.128 133.438 15.128 Q132.594 15.128 132.08 15.776 Q131.565 16.423 131.565 17.496 Q131.565 18.594 132.121 19.254 Q132.676 19.915 133.603 19.915 Q134.447 19.915 135.342 19.546 Z M142.794 20.765 Q141.455 21.159 140.255 21.159 Q138.51 21.159 137.5 20.168 Q136.491 19.178 136.491 17.464 Q136.491 15.846 137.415 14.859 Q138.338 13.872 139.855 13.872 Q141.385 13.872 142.09 14.836 Q142.794 15.801 142.794 17.89 L138.472 17.89 Q138.662 19.883 140.662 19.883 Q141.607 19.883 142.794 19.445 Z M138.446 16.83 L140.947 16.83 Q140.947 15.046 139.798 15.046 Q138.63 15.046 138.446 16.83 Z" fill="#2B2620" fill-opacity="1"/>
<path d="M320 53.544 L320 112.997 C373.573 112.997 417.003 156.427 417.003 210 C417.003 251.8 390.564 287.425 353.496 301.064 L353.496 301.064 L374.011 356.838 C445.176 330.661 487.327 257.221 474.033 182.569 C460.738 107.917 395.827 53.544 320 53.544 Z" fill="#B1512D" fill-opacity="1"/>
<path d="M320 53.544 L320 112.997 C373.573 112.997 417.003 156.427 417.003 210 C417.003 251.8 390.564 287.425 353.496 301.064 L353.496 301.064 L374.011 356.838 C445.176 330.661 487.327 257.221 474.033 182.569 C460.738 107.917 395.827 53.544 320 53.544 Z" fill="none" stroke="#FAF6EF" stroke-opacity="1" stroke-width="2" stroke-linecap="square" stroke-linejoin="miter"/>
<path d="M223.022 212.23 L163.585 213.596 L163.585 213.596 C164.746 264.088 190.209 310.914 231.96 339.334 C258.271 357.245 289.011 366.457 320.012 366.457 C338.202 366.457 356.483 363.285 374.011 356.838 L353.496 301.064 L353.496 301.064 C343.056 304.905 331.773 307.003 320 307.003 C267.172 307.003 224.207 264.773 223.022 212.23 Z" fill="#007C5D" fill-opacity="1"/>
<path d="M223.022 212.23 L163.585 213.596 L163.585 213.596 C164.746 264.088 190.209 310.914 231.96 339.334 C258.271 357.245 289.011 366.457 320.012 366.457 C338.202 366.457 356.483 363.285 374.011 356.838 L353.496 301.064 L353.496 301.064 C343.056 304.905 331.773 307.003 320 307.003 C267.172 307.003 224.207 264.773 223.022 212.23 Z" fill="none" stroke="#FAF6EF" stroke-opacity="1" stroke-width="2" stroke-linecap="square" stroke-linejoin="miter"/>
<path d="M224.202 86.302 C184.939 116.709 162.444 163.949 163.585 213.596 L163.585 213.596 L223.022 212.23 L223.022 212.23 C223.006 211.488 222.997 210.745 222.997 210 C222.997 178.805 237.723 151.048 260.602 133.304 L260.602 133.304 L224.202 86.302 Z" fill="#B68B16" fill-opacity="1"/>
<path d="M224.202 86.302 C184.939 116.709 162.444 163.949 163.585 213.596 L163.585 213.596 L223.022 212.23 L223.022 212.23 C223.006 211.488 222.997 210.745 222.997 210 C222.997 178.805 237.723 151.048 260.602 133.304 L260.602 133.304 L224.202 86.302 Z" fill="none" stroke="#FAF6EF" stroke-opacity="1" stroke-width="2" stroke-linecap="square" stroke-linejoin="miter"/>
<path d="M286.69 57.131 C263.95 62.086 242.602 72.052 224.202 86.302 L260.602 133.304 L260.602 133.304 C271.815 124.607 284.987 118.315 299.343 115.201 L299.343 115.201 L286.69 57.131 Z" fill="#614989" fill-opacity="1"/>
<path d="M286.69 57.131 C263.95 62.086 242.602 72.052 224.202 86.302 L260.602 133.304 L260.602 133.304 C271.815 124.607 284.987 118.315 299.343 115.201 L299.343 115.201 L286.69 57.131 Z" fill="none" stroke="#FAF6EF" stroke-opacity="1" stroke-width="2" stroke-linecap="square" stroke-linejoin="miter"/>
<path d="M320 53.544 C308.8 53.544 297.633 54.747 286.69 57.131 L299.343 115.201 L299.343 115.201 C306 113.758 312.911 112.997 320 112.997 L320 112.997 L320 53.544 Z" fill="#A64D40" fill-opacity="1"/>
<path d="M320 53.544 C308.8 53.544 297.633 54.747 286.69 57.131 L299.343 115.201 L299.343 115.201 C306 113.758 312.911 112.997 320 112.997 L320 112.997 L320 53.544 Z" fill="none" stroke="#FAF6EF" stroke-opacity="1" stroke-width="2" stroke-linecap="square" stroke-linejoin="miter"/>
<path d="M474.033 182.569 L477.577 181.938 L482.456 181.517" fill="none" stroke="#8C8478" stroke-opacity="0.549" stroke-width="1" stroke-linecap="square" stroke-linejoin="miter"/>
<path d="M490.875 186.071 Q489.146 186.071 488.093 184.873 Q487.04 183.674 487.04 181.703 Q487.04 179.721 488.099 178.533 Q489.157 177.345 490.926 177.345 Q492.689 177.345 493.75 178.53 Q494.812 179.715 494.812 181.691 Q494.812 183.707 493.75 184.889 Q492.689 186.071 490.875 186.071 Z M490.892 185.19 Q492.167 185.19 492.863 184.272 Q493.559 183.354 493.559 181.68 Q493.559 180.057 492.86 179.142 Q492.161 178.227 490.926 178.227 Q489.685 178.227 488.989 179.145 Q488.292 180.063 488.292 181.697 Q488.292 183.326 488.983 184.258 Q489.674 185.19 490.892 185.19 Z M496.496 185.864 L496.496 179.765 L497.602 179.765 L497.602 180.911 Q498.259 179.631 499.511 179.631 Q499.68 179.631 499.865 179.659 L499.865 180.692 Q499.579 180.597 499.36 180.597 Q498.31 180.597 497.602 181.843 L497.602 185.864 Z M501.224 187.891 L501.353 186.931 Q502.313 187.385 503.246 187.385 Q505.115 187.385 505.115 185.403 L505.115 184.443 Q504.503 185.723 503.105 185.723 Q502.01 185.723 501.365 184.926 Q500.719 184.129 500.719 182.775 Q500.719 181.383 501.454 180.507 Q502.19 179.631 503.358 179.631 Q504.38 179.631 505.115 180.462 L505.115 179.765 L506.227 179.765 L506.227 184.202 Q506.227 185.633 506.078 186.321 Q505.93 187.009 505.52 187.447 Q504.795 188.216 503.268 188.216 Q502.201 188.216 501.224 187.891 Z M505.115 183.752 L505.115 181.22 Q504.385 180.462 503.526 180.462 Q502.763 180.462 502.33 181.074 Q501.898 181.686 501.898 182.753 Q501.898 184.757 503.307 184.757 Q504.268 184.757 505.115 183.752 Z M511.517 185.089 Q510.523 186.004 509.602 186.004 Q508.844 186.004 508.344 185.53 Q507.844 185.055 507.844 184.331 Q507.844 183.331 508.684 182.795 Q509.523 182.259 511.09 182.259 L511.354 182.259 L511.354 181.523 Q511.354 180.462 510.265 180.462 Q509.389 180.462 508.372 181.001 L508.372 180.086 Q509.49 179.631 510.467 179.631 Q511.489 179.631 511.974 180.091 Q512.46 180.552 512.46 181.523 L512.46 184.286 Q512.46 185.235 513.044 185.235 Q513.117 185.235 513.258 185.212 L513.336 185.824 Q512.96 186.004 512.505 186.004 Q511.73 186.004 511.517 185.089 Z M511.354 184.488 L511.354 182.91 L510.983 182.899 Q510.074 182.899 509.512 183.244 Q508.951 183.589 508.951 184.151 Q508.951 184.55 509.231 184.825 Q509.512 185.1 509.917 185.1 Q510.607 185.1 511.354 184.488 Z M514.723 185.864 L514.723 179.765 L515.829 179.765 L515.829 180.911 Q516.705 179.631 517.974 179.631 Q518.766 179.631 519.238 180.133 Q519.709 180.636 519.709 181.484 L519.709 185.864 L518.603 185.864 L518.603 181.843 Q518.603 181.164 518.404 180.874 Q518.205 180.585 517.744 180.585 Q516.728 180.585 515.829 181.916 L515.829 185.864 Z M521.86 185.864 L521.86 179.765 L522.966 179.765 L522.966 185.864 Z M521.86 178.659 L521.86 177.553 L522.966 177.553 L522.966 178.659 Z M527.565 186.004 Q526.33 186.004 525.516 185.089 Q524.701 184.173 524.701 182.781 Q524.701 181.293 525.507 180.462 Q526.313 179.631 527.756 179.631 Q528.469 179.631 529.351 179.827 L529.351 180.754 Q528.413 180.479 527.823 180.479 Q526.976 180.479 526.462 181.116 Q525.948 181.753 525.948 182.815 Q525.948 183.842 526.476 184.477 Q527.004 185.111 527.857 185.111 Q528.615 185.111 529.418 184.724 L529.418 185.678 Q528.346 186.004 527.565 186.004 Z M536.331 186.004 Q535.573 186.004 534.489 185.65 L534.489 184.634 Q535.573 185.173 536.375 185.173 Q536.853 185.173 537.167 184.915 Q537.482 184.656 537.482 184.269 Q537.482 183.702 536.6 183.331 L535.954 183.056 Q534.522 182.461 534.522 181.343 Q534.522 180.546 535.087 180.088 Q535.651 179.631 536.634 179.631 Q537.145 179.631 537.897 179.771 L538.127 179.816 L538.127 180.737 Q537.201 180.462 536.656 180.462 Q535.589 180.462 535.589 181.237 Q535.589 181.736 536.398 182.079 L536.931 182.304 Q537.835 182.685 538.212 183.109 Q538.588 183.533 538.588 184.168 Q538.588 184.971 537.953 185.487 Q537.319 186.004 536.331 186.004 Z M545.045 185.667 Q543.934 186.004 543.142 186.004 Q541.794 186.004 540.943 185.108 Q540.093 184.213 540.093 182.786 Q540.093 181.4 540.842 180.512 Q541.592 179.625 542.76 179.625 Q543.866 179.625 544.47 180.411 Q545.073 181.197 545.073 182.646 L545.068 182.989 L541.221 182.989 Q541.463 185.162 543.35 185.162 Q544.04 185.162 545.045 184.791 Z M541.272 182.158 L543.962 182.158 Q543.962 180.456 542.693 180.456 Q541.418 180.456 541.272 182.158 Z M550.127 185.089 Q549.133 186.004 548.212 186.004 Q547.454 186.004 546.955 185.53 Q546.455 185.055 546.455 184.331 Q546.455 183.331 547.294 182.795 Q548.134 182.259 549.7 182.259 L549.964 182.259 L549.964 181.523 Q549.964 180.462 548.875 180.462 Q547.999 180.462 546.983 181.001 L546.983 180.086 Q548.1 179.631 549.077 179.631 Q550.099 179.631 550.585 180.091 Q551.071 180.552 551.071 181.523 L551.071 184.286 Q551.071 185.235 551.655 185.235 Q551.728 185.235 551.868 185.212 L551.947 185.824 Q551.57 186.004 551.115 186.004 Q550.341 186.004 550.127 185.089 Z M549.964 184.488 L549.964 182.91 L549.594 182.899 Q548.684 182.899 548.123 183.244 Q547.561 183.589 547.561 184.151 Q547.561 184.55 547.842 184.825 Q548.123 185.1 548.527 185.1 Q549.218 185.1 549.964 184.488 Z M553.333 185.864 L553.333 179.765 L554.44 179.765 L554.44 180.911 Q555.097 179.631 556.349 179.631 Q556.517 179.631 556.703 179.659 L556.703 180.692 Q556.416 180.597 556.197 180.597 Q555.147 180.597 554.44 181.843 L554.44 185.864 Z M560.42 186.004 Q559.185 186.004 558.37 185.089 Q557.556 184.173 557.556 182.781 Q557.556 181.293 558.362 180.462 Q559.168 179.631 560.611 179.631 Q561.324 179.631 562.206 179.827 L562.206 180.754 Q561.268 180.479 560.678 180.479 Q559.83 180.479 559.317 181.116 Q558.803 181.753 558.803 182.815 Q558.803 183.842 559.331 184.477 Q559.858 185.111 560.712 185.111 Q561.47 185.111 562.273 184.724 L562.273 185.678 Q561.2 186.004 560.42 186.004 Z M563.929 185.864 L563.929 176.997 L565.036 176.997 L565.036 180.911 Q565.912 179.631 567.181 179.631 Q567.972 179.631 568.444 180.133 Q568.916 180.636 568.916 181.484 L568.916 185.864 L567.81 185.864 L567.81 181.843 Q567.81 181.164 567.61 180.874 Q567.411 180.585 566.95 180.585 Q565.934 180.585 565.036 181.916 L565.036 185.864 Z M574.722 183.107 L574.722 181.72 L576.109 181.72 L576.109 183.107 Z M585.206 185.864 L585.206 183.511 L581.466 183.511 L581.466 182.674 L585.206 177.553 L586.244 177.553 L586.244 182.607 L587.356 182.607 L587.356 183.511 L586.244 183.511 L586.244 185.864 Z M582.55 182.607 L585.279 182.607 L585.279 178.912 Z M592.477 185.864 L592.477 183.511 L588.738 183.511 L588.738 182.674 L592.477 177.553 L593.516 177.553 L593.516 182.607 L594.628 182.607 L594.628 183.511 L593.516 183.511 L593.516 185.864 Z M589.821 182.607 L592.55 182.607 L592.55 178.912 Z M595.554 186.071 L602.102 177.345 L602.967 177.345 L596.425 186.071 Z M597.228 181.708 Q596.436 181.708 595.962 181.141 Q595.487 180.574 595.487 179.625 Q595.487 178.671 595.964 178.112 Q596.442 177.553 597.256 177.553 Q598.064 177.553 598.542 178.112 Q599.019 178.671 599.019 179.619 Q599.019 180.591 598.542 181.15 Q598.064 181.708 597.228 181.708 Z M597.245 181.152 Q598.188 181.152 598.188 179.619 Q598.188 178.929 597.935 178.516 Q597.683 178.103 597.256 178.103 Q596.823 178.103 596.571 178.516 Q596.318 178.929 596.318 179.625 Q596.318 180.321 596.571 180.737 Q596.823 181.152 597.245 181.152 Z M601.248 185.864 Q600.451 185.864 599.979 185.299 Q599.508 184.735 599.508 183.786 Q599.508 182.831 599.985 182.27 Q600.462 181.708 601.271 181.708 Q602.079 181.708 602.559 182.267 Q603.04 182.826 603.04 183.775 Q603.04 184.752 602.562 185.308 Q602.085 185.864 601.248 185.864 Z M601.26 185.308 Q602.208 185.308 602.208 183.775 Q602.208 183.084 601.953 182.671 Q601.698 182.259 601.271 182.259 Q600.844 182.259 600.591 182.671 Q600.339 183.084 600.339 183.786 Q600.339 184.477 600.589 184.892 Q600.838 185.308 601.26 185.308 Z" fill="#2B2620" fill-opacity="1"/>
<path d="M303.249 54.443 L302.863 50.864 L157.544 48.478" fill="none" stroke="#8C8478" stroke-opacity="0.549" stroke-width="1" stroke-linecap="square" stroke-linejoin="miter"/>
<path d="M98.773 52.824 L98.773 44.513 L103.417 44.513 L103.417 45.395 L99.952 45.395 L99.952 48.062 L102.855 48.062 L102.855 48.933 L99.952 48.933 L99.952 51.942 L103.658 51.942 L103.658 52.824 Z M105.04 52.824 L105.04 46.726 L106.146 46.726 L106.146 47.871 Q106.954 46.591 108.223 46.591 Q109.448 46.591 109.891 47.871 Q110.677 46.585 111.935 46.585 Q112.744 46.585 113.187 47.06 Q113.631 47.534 113.631 48.388 L113.631 52.824 L112.519 52.824 L112.519 48.562 Q112.519 47.518 111.694 47.518 Q110.834 47.518 109.891 48.736 L109.891 52.824 L108.779 52.824 L108.779 48.562 Q108.779 47.512 107.937 47.512 Q107.1 47.512 106.146 48.736 L106.146 52.824 Z M118.92 52.049 Q117.927 52.964 117.006 52.964 Q116.248 52.964 115.748 52.49 Q115.248 52.015 115.248 51.291 Q115.248 50.292 116.088 49.755 Q116.927 49.219 118.494 49.219 L118.758 49.219 L118.758 48.483 Q118.758 47.422 117.668 47.422 Q116.792 47.422 115.776 47.961 L115.776 47.046 Q116.893 46.591 117.87 46.591 Q118.892 46.591 119.378 47.052 Q119.864 47.512 119.864 48.483 L119.864 51.246 Q119.864 52.195 120.448 52.195 Q120.521 52.195 120.661 52.173 L120.74 52.785 Q120.364 52.964 119.909 52.964 Q119.134 52.964 118.92 52.049 Z M118.758 51.448 L118.758 49.87 L118.387 49.859 Q117.477 49.859 116.916 50.204 Q116.354 50.55 116.354 51.111 Q116.354 51.51 116.635 51.785 Q116.916 52.06 117.32 52.06 Q118.011 52.06 118.758 51.448 Z M122.127 52.824 L122.127 46.726 L123.233 46.726 L123.233 52.824 Z M122.127 45.62 L122.127 44.513 L123.233 44.513 L123.233 45.62 Z M125.451 52.824 L125.451 43.958 L126.557 43.958 L126.557 52.824 Z M132.431 50.067 L132.431 48.68 L133.818 48.68 L133.818 50.067 Z M139.753 52.762 L139.753 51.729 Q140.943 52.201 141.628 52.201 Q142.42 52.201 142.917 51.737 Q143.414 51.274 143.414 50.539 Q143.414 48.787 140.96 48.787 L140.522 48.787 L140.522 48.04 L140.91 48.034 Q143.212 48.034 143.212 46.411 Q143.212 45.137 141.696 45.137 Q140.865 45.137 139.865 45.603 L139.865 44.637 Q140.848 44.306 141.774 44.306 Q144.324 44.306 144.324 46.232 Q144.324 47.697 142.589 48.321 Q144.599 48.787 144.599 50.522 Q144.599 51.695 143.824 52.364 Q143.049 53.032 141.696 53.032 Q140.927 53.032 139.753 52.762 Z M145.991 53.032 L152.539 44.306 L153.404 44.306 L146.862 53.032 Z M147.665 48.669 Q146.873 48.669 146.399 48.102 Q145.924 47.534 145.924 46.585 Q145.924 45.631 146.401 45.072 Q146.879 44.513 147.693 44.513 Q148.501 44.513 148.979 45.072 Q149.456 45.631 149.456 46.58 Q149.456 47.551 148.979 48.11 Q148.501 48.669 147.665 48.669 Z M147.682 48.113 Q148.625 48.113 148.625 46.58 Q148.625 45.889 148.372 45.476 Q148.12 45.064 147.693 45.064 Q147.26 45.064 147.008 45.476 Q146.755 45.889 146.755 46.585 Q146.755 47.282 147.008 47.697 Q147.26 48.113 147.682 48.113 Z M151.685 52.824 Q150.888 52.824 150.416 52.26 Q149.945 51.695 149.945 50.746 Q149.945 49.792 150.422 49.23 Q150.899 48.669 151.708 48.669 Q152.516 48.669 152.996 49.227 Q153.477 49.786 153.477 50.735 Q153.477 51.712 152.999 52.268 Q152.522 52.824 151.685 52.824 Z M151.697 52.268 Q152.646 52.268 152.646 50.735 Q152.646 50.044 152.39 49.632 Q152.135 49.219 151.708 49.219 Q151.281 49.219 151.028 49.632 Q150.776 50.044 150.776 50.746 Q150.776 51.437 151.026 51.853 Q151.275 52.268 151.697 52.268 Z" fill="#2B2620" fill-opacity="1"/>
<path d="M253.818 68.231 L252.296 64.969 L157.544 62.794" fill="none" stroke="#8C8478" stroke-opacity="0.549" stroke-width="1" stroke-linecap="square" stroke-linejoin="miter"/>
<path d="M85.341 67.14 L85.341 58.83 L87.857 58.83 Q89.053 58.83 89.69 59.358 Q90.328 59.885 90.328 60.89 Q90.328 62.553 88.649 63.249 L91.423 67.14 L89.974 67.14 L87.61 63.625 L86.509 63.625 L86.509 67.14 Z M86.509 62.744 L86.891 62.744 Q89.115 62.744 89.115 60.997 Q89.115 59.711 87.25 59.711 L86.509 59.711 Z M97.116 66.944 Q96.005 67.281 95.213 67.281 Q93.865 67.281 93.015 66.385 Q92.164 65.489 92.164 64.063 Q92.164 62.676 92.913 61.789 Q93.663 60.902 94.831 60.902 Q95.937 60.902 96.541 61.688 Q97.145 62.474 97.145 63.923 L97.139 64.265 L93.292 64.265 Q93.534 66.438 95.421 66.438 Q96.111 66.438 97.116 66.068 Z M93.343 63.434 L96.033 63.434 Q96.033 61.733 94.764 61.733 Q93.489 61.733 93.343 63.434 Z M100.373 61.873 L100.373 67.14 L99.261 67.14 L99.261 61.873 L98.397 61.873 L98.397 61.042 L99.261 61.042 L99.261 60.312 Q99.261 58.133 101.249 58.133 Q101.805 58.133 102.513 58.319 L102.513 59.195 Q101.766 58.964 101.317 58.964 Q100.772 58.964 100.573 59.226 Q100.373 59.487 100.373 60.194 L100.373 61.042 L101.895 61.042 L101.895 61.873 Z M107.752 66.944 Q106.64 67.281 105.848 67.281 Q104.5 67.281 103.65 66.385 Q102.799 65.489 102.799 64.063 Q102.799 62.676 103.549 61.789 Q104.298 60.902 105.466 60.902 Q106.573 60.902 107.176 61.688 Q107.78 62.474 107.78 63.923 L107.774 64.265 L103.928 64.265 Q104.169 66.438 106.056 66.438 Q106.747 66.438 107.752 66.068 Z M103.978 63.434 L106.668 63.434 Q106.668 61.733 105.399 61.733 Q104.124 61.733 103.978 63.434 Z M109.689 67.14 L109.689 61.042 L110.795 61.042 L110.795 62.188 Q111.452 60.907 112.704 60.907 Q112.873 60.907 113.058 60.935 L113.058 61.969 Q112.772 61.873 112.553 61.873 Q111.503 61.873 110.795 63.12 L110.795 67.14 Z M114.395 67.14 L114.395 61.042 L115.501 61.042 L115.501 62.188 Q116.158 60.907 117.41 60.907 Q117.578 60.907 117.764 60.935 L117.764 61.969 Q117.477 61.873 117.258 61.873 Q116.208 61.873 115.501 63.12 L115.501 67.14 Z M122.245 66.365 Q121.251 67.281 120.33 67.281 Q119.572 67.281 119.072 66.806 Q118.572 66.332 118.572 65.607 Q118.572 64.608 119.412 64.072 Q120.251 63.535 121.818 63.535 L122.082 63.535 L122.082 62.8 Q122.082 61.738 120.992 61.738 Q120.116 61.738 119.1 62.277 L119.1 61.362 Q120.218 60.907 121.195 60.907 Q122.217 60.907 122.702 61.368 Q123.188 61.828 123.188 62.8 L123.188 65.562 Q123.188 66.511 123.772 66.511 Q123.845 66.511 123.985 66.489 L124.064 67.101 Q123.688 67.281 123.233 67.281 Q122.458 67.281 122.245 66.365 Z M122.082 65.765 L122.082 64.187 L121.711 64.175 Q120.802 64.175 120.24 64.521 Q119.678 64.866 119.678 65.428 Q119.678 65.826 119.959 66.101 Q120.24 66.377 120.644 66.377 Q121.335 66.377 122.082 65.765 Z M125.451 67.14 L125.451 58.274 L126.557 58.274 L126.557 67.14 Z M132.431 64.383 L132.431 62.996 L133.818 62.996 L133.818 64.383 Z M140.314 67.14 Q140.477 66.169 140.778 65.461 Q141.078 64.754 141.842 63.518 L144.11 59.869 L139.832 59.869 L139.832 58.83 L145.166 58.83 L145.166 59.869 Q141.971 64.58 141.589 67.14 Z M145.991 67.348 L152.539 58.622 L153.404 58.622 L146.862 67.348 Z M147.665 62.985 Q146.873 62.985 146.399 62.418 Q145.924 61.851 145.924 60.902 Q145.924 59.947 146.401 59.388 Q146.879 58.83 147.693 58.83 Q148.501 58.83 148.979 59.388 Q149.456 59.947 149.456 60.896 Q149.456 61.868 148.979 62.426 Q148.501 62.985 147.665 62.985 Z M147.682 62.429 Q148.625 62.429 148.625 60.896 Q148.625 60.205 148.372 59.793 Q148.12 59.38 147.693 59.38 Q147.26 59.38 147.008 59.793 Q146.755 60.205 146.755 60.902 Q146.755 61.598 147.008 62.014 Q147.26 62.429 147.682 62.429 Z M151.685 67.14 Q150.888 67.14 150.416 66.576 Q149.945 66.012 149.945 65.063 Q149.945 64.108 150.422 63.546 Q150.899 62.985 151.708 62.985 Q152.516 62.985 152.996 63.544 Q153.477 64.102 153.477 65.051 Q153.477 66.028 152.999 66.584 Q152.522 67.14 151.685 67.14 Z M151.697 66.584 Q152.646 66.584 152.646 65.051 Q152.646 64.361 152.39 63.948 Q152.135 63.535 151.708 63.535 Q151.281 63.535 151.028 63.948 Q150.776 64.361 150.776 65.063 Q150.776 65.753 151.026 66.169 Q151.275 66.584 151.697 66.584 Z" fill="#2B2620" fill-opacity="1"/>
<path d="M178.742 142.734 L175.492 141.186 L157.544 140.155" fill="none" stroke="#8C8478" stroke-opacity="0.549" stroke-width="1" stroke-linecap="square" stroke-linejoin="miter"/>
<path d="M90.951 144.708 Q90.114 144.708 88.812 144.343 L88.812 143.176 Q90.215 143.827 91.119 143.827 Q91.816 143.827 92.24 143.462 Q92.664 143.097 92.664 142.502 Q92.664 142.013 92.386 141.671 Q92.108 141.328 91.361 140.907 L90.788 140.576 Q89.727 139.969 89.292 139.433 Q88.856 138.897 88.856 138.184 Q88.856 137.223 89.553 136.603 Q90.249 135.982 91.327 135.982 Q92.287 135.982 93.354 136.302 L93.354 137.381 Q92.04 136.864 91.395 136.864 Q90.782 136.864 90.384 137.19 Q89.985 137.515 89.985 138.009 Q89.985 138.425 90.277 138.745 Q90.569 139.065 91.344 139.509 L91.939 139.846 Q93.017 140.458 93.444 141.002 Q93.871 141.547 93.871 142.311 Q93.871 143.395 93.071 144.051 Q92.271 144.708 90.951 144.708 Z M97.936 144.641 Q96.628 144.641 95.847 143.774 Q95.067 142.906 95.067 141.452 Q95.067 139.98 95.85 139.124 Q96.634 138.268 97.976 138.268 Q99.318 138.268 100.101 139.124 Q100.884 139.98 100.884 141.44 Q100.884 142.934 100.098 143.788 Q99.312 144.641 97.936 144.641 Z M97.953 143.81 Q99.711 143.81 99.711 141.44 Q99.711 139.099 97.976 139.099 Q96.246 139.099 96.246 141.452 Q96.246 143.81 97.953 143.81 Z M104.995 144.641 Q103.759 144.641 102.945 143.726 Q102.131 142.811 102.131 141.418 Q102.131 139.93 102.937 139.099 Q103.742 138.268 105.186 138.268 Q105.899 138.268 106.78 138.464 L106.78 139.391 Q105.843 139.116 105.253 139.116 Q104.405 139.116 103.891 139.753 Q103.377 140.39 103.377 141.452 Q103.377 142.479 103.905 143.114 Q104.433 143.748 105.287 143.748 Q106.045 143.748 106.848 143.361 L106.848 144.315 Q105.775 144.641 104.995 144.641 Z M108.504 144.501 L108.504 138.403 L109.61 138.403 L109.61 144.501 Z M108.504 137.296 L108.504 136.19 L109.61 136.19 L109.61 137.296 Z M114.973 143.726 Q113.979 144.641 113.058 144.641 Q112.3 144.641 111.8 144.167 Q111.301 143.692 111.301 142.968 Q111.301 141.968 112.14 141.432 Q112.979 140.896 114.546 140.896 L114.81 140.896 L114.81 140.16 Q114.81 139.099 113.721 139.099 Q112.845 139.099 111.828 139.638 L111.828 138.723 Q112.946 138.268 113.923 138.268 Q114.945 138.268 115.431 138.728 Q115.916 139.189 115.916 140.16 L115.916 142.923 Q115.916 143.872 116.5 143.872 Q116.573 143.872 116.714 143.849 L116.792 144.461 Q116.416 144.641 115.961 144.641 Q115.186 144.641 114.973 143.726 Z M114.81 143.125 L114.81 141.547 L114.439 141.536 Q113.53 141.536 112.968 141.881 Q112.407 142.227 112.407 142.788 Q112.407 143.187 112.688 143.462 Q112.968 143.737 113.373 143.737 Q114.063 143.737 114.81 143.125 Z M118.179 144.501 L118.179 135.634 L119.285 135.634 L119.285 144.501 Z M125.159 141.744 L125.159 140.357 L126.546 140.357 L126.546 141.744 Z M133.043 144.501 L133.043 143.67 L134.705 143.67 L134.705 137.111 L133.043 137.527 L133.043 136.673 L135.817 135.982 L135.817 143.67 L137.479 143.67 L137.479 144.501 Z M139.983 144.534 L139.983 143.546 Q140.809 143.877 141.555 143.877 Q142.375 143.877 142.844 143.395 Q143.313 142.912 143.313 142.064 Q143.313 140.194 140.736 140.194 Q140.444 140.194 140.124 140.233 L140.124 136.19 L144.329 136.19 L144.329 137.156 L141.095 137.156 L141.095 139.346 Q142.695 139.346 143.594 140.082 Q144.492 140.817 144.492 142.12 Q144.492 143.333 143.675 144.021 Q142.858 144.708 141.409 144.708 Q140.781 144.708 139.983 144.534 Z M145.991 144.708 L152.539 135.982 L153.404 135.982 L146.862 144.708 Z M147.665 140.345 Q146.873 140.345 146.399 139.778 Q145.924 139.211 145.924 138.262 Q145.924 137.308 146.401 136.749 Q146.879 136.19 147.693 136.19 Q148.501 136.19 148.979 136.749 Q149.456 137.308 149.456 138.257 Q149.456 139.228 148.979 139.787 Q148.501 140.345 147.665 140.345 Z M147.682 139.79 Q148.625 139.79 148.625 138.257 Q148.625 137.566 148.372 137.153 Q148.12 136.74 147.693 136.74 Q147.26 136.74 147.008 137.153 Q146.755 137.566 146.755 138.262 Q146.755 138.958 147.008 139.374 Q147.26 139.79 147.682 139.79 Z M151.685 144.501 Q150.888 144.501 150.416 143.936 Q149.945 143.372 149.945 142.423 Q149.945 141.468 150.422 140.907 Q150.899 140.345 151.708 140.345 Q152.516 140.345 152.996 140.904 Q153.477 141.463 153.477 142.412 Q153.477 143.389 152.999 143.945 Q152.522 144.501 151.685 144.501 Z M151.697 143.945 Q152.646 143.945 152.646 142.412 Q152.646 141.721 152.39 141.308 Q152.135 140.896 151.708 140.896 Q151.281 140.896 151.028 141.308 Q150.776 141.721 150.776 142.423 Q150.776 143.114 151.026 143.529 Q151.275 143.945 151.697 143.945 Z" fill="#2B2620" fill-opacity="1"/>
<path d="M231.96 339.334 L229.934 342.31 L157.544 344.294" fill="none" stroke="#8C8478" stroke-opacity="0.549" stroke-width="1" stroke-linecap="square" stroke-linejoin="miter"/>
<path d="M88.228 348.64 L88.228 340.33 L90.99 340.33 Q92.226 340.33 92.986 340.605 Q93.747 340.88 94.303 341.537 Q95.185 342.582 95.185 344.289 Q95.185 346.361 94.09 347.501 Q92.995 348.64 91.007 348.64 Z M89.407 347.759 L90.917 347.759 Q92.534 347.759 93.208 346.888 Q93.933 345.962 93.933 344.401 Q93.933 342.935 93.219 342.099 Q92.787 341.588 92.186 341.4 Q91.585 341.211 90.378 341.211 L89.407 341.211 Z M96.875 348.64 L96.875 342.542 L97.981 342.542 L97.981 348.64 Z M96.875 341.436 L96.875 340.33 L97.981 340.33 L97.981 341.436 Z M100.199 348.64 L100.199 342.542 L101.305 342.542 L101.305 343.688 Q101.962 342.408 103.215 342.408 Q103.383 342.408 103.568 342.436 L103.568 343.469 Q103.282 343.373 103.063 343.373 Q102.013 343.373 101.305 344.62 L101.305 348.64 Z M109.375 348.444 Q108.263 348.781 107.471 348.781 Q106.123 348.781 105.273 347.885 Q104.422 346.99 104.422 345.563 Q104.422 344.176 105.172 343.289 Q105.921 342.402 107.089 342.402 Q108.195 342.402 108.799 343.188 Q109.403 343.974 109.403 345.423 L109.397 345.765 L105.551 345.765 Q105.792 347.939 107.679 347.939 Q108.369 347.939 109.375 347.568 Z M105.601 344.934 L108.291 344.934 Q108.291 343.233 107.022 343.233 Q105.747 343.233 105.601 344.934 Z M113.693 348.781 Q112.457 348.781 111.643 347.866 Q110.829 346.95 110.829 345.558 Q110.829 344.07 111.635 343.239 Q112.44 342.408 113.884 342.408 Q114.597 342.408 115.478 342.604 L115.478 343.531 Q114.541 343.255 113.951 343.255 Q113.103 343.255 112.589 343.893 Q112.075 344.53 112.075 345.591 Q112.075 346.619 112.603 347.253 Q113.131 347.888 113.985 347.888 Q114.743 347.888 115.546 347.501 L115.546 348.455 Q114.473 348.781 113.693 348.781 Z M119.033 348.781 Q118.19 348.781 117.719 348.298 Q117.247 347.815 117.247 346.956 L117.247 343.373 L116.483 343.373 L116.483 342.542 L117.247 342.542 L117.247 341.436 L118.353 341.329 L118.353 342.542 L119.948 342.542 L119.948 343.373 L118.353 343.373 L118.353 346.754 Q118.353 347.95 119.386 347.95 Q119.605 347.95 119.92 347.877 L119.92 348.64 Q119.409 348.781 119.033 348.781 Z M125.159 345.883 L125.159 344.496 L126.546 344.496 L126.546 345.883 Z M132.481 348.579 L132.481 347.545 Q133.672 348.017 134.357 348.017 Q135.148 348.017 135.645 347.554 Q136.142 347.091 136.142 346.355 Q136.142 344.603 133.688 344.603 L133.25 344.603 L133.25 343.856 L133.638 343.851 Q135.94 343.851 135.94 342.228 Q135.94 340.953 134.424 340.953 Q133.593 340.953 132.594 341.419 L132.594 340.453 Q133.576 340.122 134.503 340.122 Q137.052 340.122 137.052 342.048 Q137.052 343.514 135.317 344.137 Q137.327 344.603 137.327 346.338 Q137.327 347.512 136.552 348.18 Q135.777 348.848 134.424 348.848 Q133.655 348.848 132.481 348.579 Z M142.19 348.848 Q140.904 348.848 140.109 347.638 Q139.315 346.428 139.315 344.48 Q139.315 342.514 140.115 341.318 Q140.915 340.122 142.224 340.122 Q143.532 340.122 144.332 341.318 Q145.132 342.514 145.132 344.463 Q145.132 346.462 144.332 347.655 Q143.532 348.848 142.19 348.848 Z M142.201 348.017 Q143.959 348.017 143.959 344.446 Q143.959 340.953 142.224 340.953 Q140.494 340.953 140.494 344.48 Q140.494 348.017 142.201 348.017 Z M145.991 348.848 L152.539 340.122 L153.404 340.122 L146.862 348.848 Z M147.665 344.485 Q146.873 344.485 146.399 343.918 Q145.924 343.351 145.924 342.402 Q145.924 341.447 146.401 340.889 Q146.879 340.33 147.693 340.33 Q148.501 340.33 148.979 340.889 Q149.456 341.447 149.456 342.396 Q149.456 343.368 148.979 343.926 Q148.501 344.485 147.665 344.485 Z M147.682 343.929 Q148.625 343.929 148.625 342.396 Q148.625 341.706 148.372 341.293 Q148.12 340.88 147.693 340.88 Q147.26 340.88 147.008 341.293 Q146.755 341.706 146.755 342.402 Q146.755 343.098 147.008 343.514 Q147.26 343.929 147.682 343.929 Z M151.685 348.64 Q150.888 348.64 150.416 348.076 Q149.945 347.512 149.945 346.563 Q149.945 345.608 150.422 345.047 Q150.899 344.485 151.708 344.485 Q152.516 344.485 152.996 345.044 Q153.477 345.603 153.477 346.552 Q153.477 347.529 152.999 348.085 Q152.522 348.64 151.685 348.64 Z M151.697 348.085 Q152.646 348.085 152.646 346.552 Q152.646 345.861 152.39 345.448 Q152.135 345.035 151.708 345.035 Q151.281 345.035 151.028 345.448 Q150.776 345.861 150.776 346.563 Q150.776 347.253 151.026 347.669 Q151.275 348.085 151.697 348.085 Z" fill="#2B2620" fill-opacity="1"/>
<path d="M299.174 208 L299.174 205.107 L294.113 205.107 L294.113 203.481 L299.086 197.16 L301.071 197.16 L301.071 203.481 L302.338 203.481 L302.338 205.107 L301.071 205.107 L301.071 208 Z M295.848 203.481 L299.218 203.481 L299.218 199.233 Z M305.414 208 L305.414 206.733 L307.582 206.733 L307.582 198.735 L305.414 199.277 L305.414 197.973 L309.757 196.889 L309.757 206.733 L311.925 206.733 L311.925 208 Z M314.781 208 L313.881 208 L313.881 205.649 L316.232 205.649 L316.232 207.473 Q316.232 210.351 313.881 210.351 L313.881 209.538 Q314.781 209.538 314.781 208.234 Z M321.805 208.271 Q319.96 208.271 318.806 206.689 Q317.653 205.107 317.653 202.58 Q317.653 200.024 318.81 198.457 Q319.967 196.889 321.857 196.889 Q323.732 196.889 324.893 198.453 Q326.053 200.017 326.053 202.551 Q326.053 205.151 324.893 206.711 Q323.732 208.271 321.805 208.271 Z M321.827 206.916 Q323.754 206.916 323.754 202.58 Q323.754 198.244 321.857 198.244 Q319.96 198.244 319.96 202.573 Q319.96 206.916 321.827 206.916 Z M331.7 208.271 Q329.855 208.271 328.701 206.689 Q327.548 205.107 327.548 202.58 Q327.548 200.024 328.705 198.457 Q329.862 196.889 331.752 196.889 Q333.627 196.889 334.788 198.453 Q335.948 200.017 335.948 202.551 Q335.948 205.151 334.788 206.711 Q333.627 208.271 331.7 208.271 Z M331.722 206.916 Q333.649 206.916 333.649 202.58 Q333.649 198.244 331.752 198.244 Q329.855 198.244 329.855 202.573 Q329.855 206.916 331.722 206.916 Z M341.595 208.271 Q339.75 208.271 338.596 206.689 Q337.443 205.107 337.443 202.58 Q337.443 200.024 338.6 198.457 Q339.757 196.889 341.647 196.889 Q343.522 196.889 344.683 198.453 Q345.844 200.017 345.844 202.551 Q345.844 205.151 344.683 206.711 Q343.522 208.271 341.595 208.271 Z M341.617 206.916 Q343.544 206.916 343.544 202.58 Q343.544 198.244 341.647 198.244 Q339.75 198.244 339.75 202.573 Q339.75 206.916 341.617 206.916 Z" fill="#2B2620" fill-opacity="1"/>
<path d="M298.845 223.326 Q298.008 223.326 296.705 222.961 L296.705 221.793 Q298.109 222.444 299.013 222.444 Q299.709 222.444 300.133 222.079 Q300.557 221.714 300.557 221.119 Q300.557 220.631 300.279 220.288 Q300.001 219.946 299.255 219.524 L298.682 219.193 Q297.62 218.587 297.185 218.05 Q296.75 217.514 296.75 216.801 Q296.75 215.841 297.446 215.22 Q298.143 214.6 299.221 214.6 Q300.181 214.6 301.248 214.92 L301.248 215.998 Q299.934 215.481 299.288 215.481 Q298.676 215.481 298.277 215.807 Q297.879 216.133 297.879 216.627 Q297.879 217.042 298.171 217.363 Q298.463 217.683 299.238 218.126 L299.833 218.463 Q300.911 219.075 301.338 219.62 Q301.765 220.165 301.765 220.928 Q301.765 222.012 300.964 222.669 Q300.164 223.326 298.845 223.326 Z M307.913 222.922 Q306.801 223.259 306.01 223.259 Q304.662 223.259 303.811 222.363 Q302.961 221.467 302.961 220.041 Q302.961 218.654 303.71 217.767 Q304.46 216.88 305.628 216.88 Q306.734 216.88 307.338 217.666 Q307.941 218.452 307.941 219.901 L307.936 220.243 L304.089 220.243 Q304.331 222.416 306.217 222.416 Q306.908 222.416 307.913 222.046 Z M304.14 219.412 L306.829 219.412 Q306.829 217.711 305.56 217.711 Q304.286 217.711 304.14 219.412 Z M311.468 223.259 Q310.71 223.259 309.626 222.905 L309.626 221.888 Q310.71 222.427 311.513 222.427 Q311.99 222.427 312.304 222.169 Q312.619 221.911 312.619 221.523 Q312.619 220.956 311.737 220.586 L311.091 220.311 Q309.66 219.715 309.66 218.598 Q309.66 217.801 310.224 217.343 Q310.788 216.885 311.771 216.885 Q312.282 216.885 313.034 217.026 L313.265 217.071 L313.265 217.991 Q312.338 217.716 311.793 217.716 Q310.726 217.716 310.726 218.491 Q310.726 218.991 311.535 219.333 L312.068 219.558 Q312.973 219.94 313.349 220.364 Q313.725 220.788 313.725 221.422 Q313.725 222.225 313.09 222.742 Q312.456 223.259 311.468 223.259 Z M317.33 223.259 Q316.572 223.259 315.488 222.905 L315.488 221.888 Q316.572 222.427 317.375 222.427 Q317.852 222.427 318.167 222.169 Q318.481 221.911 318.481 221.523 Q318.481 220.956 317.599 220.586 L316.954 220.311 Q315.522 219.715 315.522 218.598 Q315.522 217.801 316.086 217.343 Q316.651 216.885 317.633 216.885 Q318.144 216.885 318.897 217.026 L319.127 217.071 L319.127 217.991 Q318.2 217.716 317.656 217.716 Q316.589 217.716 316.589 218.491 Q316.589 218.991 317.397 219.333 L317.931 219.558 Q318.835 219.94 319.211 220.364 Q319.587 220.788 319.587 221.422 Q319.587 222.225 318.953 222.742 Q318.318 223.259 317.33 223.259 Z M321.575 223.118 L321.575 217.02 L322.681 217.02 L322.681 223.118 Z M321.575 215.914 L321.575 214.808 L322.681 214.808 L322.681 215.914 Z M327.286 223.259 Q325.977 223.259 325.197 222.391 Q324.416 221.523 324.416 220.069 Q324.416 218.598 325.2 217.742 Q325.983 216.885 327.325 216.885 Q328.667 216.885 329.45 217.742 Q330.234 218.598 330.234 220.058 Q330.234 221.552 329.448 222.405 Q328.661 223.259 327.286 223.259 Z M327.303 222.427 Q329.06 222.427 329.06 220.058 Q329.06 217.716 327.325 217.716 Q325.596 217.716 325.596 220.069 Q325.596 222.427 327.303 222.427 Z M331.963 223.118 L331.963 217.02 L333.069 217.02 L333.069 218.166 Q333.945 216.885 335.214 216.885 Q336.006 216.885 336.478 217.388 Q336.95 217.89 336.95 218.738 L336.95 223.118 L335.843 223.118 L335.843 219.098 Q335.843 218.418 335.644 218.129 Q335.445 217.84 334.984 217.84 Q333.968 217.84 333.069 219.171 L333.069 223.118 Z M340.717 223.259 Q339.959 223.259 338.876 222.905 L338.876 221.888 Q339.959 222.427 340.762 222.427 Q341.24 222.427 341.554 222.169 Q341.869 221.911 341.869 221.523 Q341.869 220.956 340.987 220.586 L340.341 220.311 Q338.909 219.715 338.909 218.598 Q338.909 217.801 339.474 217.343 Q340.038 216.885 341.021 216.885 Q341.532 216.885 342.284 217.026 L342.514 217.071 L342.514 217.991 Q341.588 217.716 341.043 217.716 Q339.976 217.716 339.976 218.491 Q339.976 218.991 340.785 219.333 L341.318 219.558 Q342.222 219.94 342.599 220.364 Q342.975 220.788 342.975 221.422 Q342.975 222.225 342.34 222.742 Q341.706 223.259 340.717 223.259 Z" fill="#8C8478" fill-opacity="1"/>
</svg>
