<svg xmlns="http://www.w3.org/2000/svg" width="640" height="400" viewBox="0 0 640 400">
<defs>
<clipPath id="c1" clipPathUnits="userSpaceOnUse"><path d="M185 36 L616 36 L616 363 L185 363 L185 36 Z"/></clipPath>
</defs>
<path d="M0 0 L640 0 L640 400 L0 400 L0 0 Z" fill="#FAF6EF" fill-opacity="1"/>
<path d="M16.647 20.917 L16.647 19.305 Q18.165 19.94 19.244 19.94 Q19.999 19.94 20.434 19.604 Q20.869 19.267 20.869 18.689 Q20.869 18.232 20.596 17.918 Q20.323 17.604 19.561 17.172 L18.933 16.823 Q17.669 16.112 17.149 15.462 Q16.628 14.811 16.628 13.941 Q16.628 12.78 17.482 12.075 Q18.336 11.371 19.739 11.371 Q20.862 11.371 22.271 11.694 L22.271 13.199 Q20.831 12.659 19.993 12.659 Q19.345 12.659 18.955 12.948 Q18.564 13.237 18.564 13.707 Q18.564 14.094 18.837 14.386 Q19.11 14.678 19.866 15.103 L20.539 15.478 Q21.897 16.239 22.411 16.88 Q22.925 17.521 22.925 18.442 Q22.925 19.75 21.954 20.492 Q20.983 21.235 19.275 21.235 Q18.146 21.235 16.647 20.917 Z M28.911 21 L28.911 19.686 Q27.997 21.159 26.537 21.159 Q25.604 21.159 25.064 20.568 Q24.525 19.978 24.525 18.956 L24.525 14.03 L26.404 14.03 L26.404 18.493 Q26.404 19.68 27.197 19.68 Q28.086 19.68 28.911 18.417 L28.911 14.03 L30.79 14.03 L30.79 21 Z M33.139 23.507 L33.139 14.03 L35.018 14.03 L35.018 15.344 Q35.741 13.872 37.296 13.872 Q38.553 13.872 39.274 14.792 Q39.994 15.712 39.994 17.325 Q39.994 19.077 39.182 20.118 Q38.369 21.159 37.004 21.159 Q35.906 21.159 35.018 20.295 L35.018 23.507 Z M35.018 19.178 Q35.703 19.94 36.478 19.94 Q37.169 19.94 37.582 19.27 Q37.995 18.601 37.995 17.483 Q37.995 15.344 36.617 15.344 Q35.786 15.344 35.018 16.417 Z M41.752 23.507 L41.752 14.03 L43.631 14.03 L43.631 15.344 Q44.355 13.872 45.91 13.872 Q47.167 13.872 47.887 14.792 Q48.608 15.712 48.608 17.325 Q48.608 19.077 47.795 20.118 Q46.983 21.159 45.618 21.159 Q44.52 21.159 43.631 20.295 L43.631 23.507 Z M43.631 19.178 Q44.317 19.94 45.091 19.94 Q45.783 19.94 46.196 19.27 Q46.608 18.601 46.608 17.483 Q46.608 15.344 45.231 15.344 Q44.399 15.344 43.631 16.417 Z M53.292 21.159 Q51.661 21.159 50.699 20.172 Q49.738 19.185 49.738 17.515 Q49.738 15.827 50.706 14.849 Q51.674 13.872 53.337 13.872 Q55.006 13.872 55.974 14.849 Q56.942 15.827 56.942 17.502 Q56.942 19.216 55.971 20.188 Q55 21.159 53.292 21.159 Z M53.324 19.984 Q54.943 19.984 54.943 17.502 Q54.943 16.366 54.514 15.706 Q54.086 15.046 53.337 15.046 Q52.594 15.046 52.166 15.706 Q51.737 16.366 51.737 17.515 Q51.737 18.651 52.163 19.318 Q52.588 19.984 53.324 19.984 Z M58.669 21 L58.669 14.03 L60.548 14.03 L60.548 15.344 Q61.278 13.872 62.77 13.872 Q62.947 13.872 63.119 13.91 L63.119 15.585 Q62.719 15.439 62.376 15.439 Q61.252 15.439 60.548 16.576 L60.548 21 Z M68.171 20.962 Q67.499 21.159 67.111 21.159 Q64.667 21.159 64.667 18.874 L64.667 15.205 L63.887 15.205 L63.887 14.03 L64.667 14.03 L64.667 12.856 L66.546 12.64 L66.546 14.03 L68.038 14.03 L68.038 15.205 L66.546 15.205 L66.546 18.626 Q66.546 19.908 67.594 19.908 Q67.835 19.908 68.171 19.819 Z M75.852 21 L73.192 14.03 L75.173 14.03 L77.122 19.058 L79.058 14.03 L80.416 14.03 L77.731 21 Z M84.771 21.159 Q83.139 21.159 82.177 20.172 Q81.216 19.185 81.216 17.515 Q81.216 15.827 82.184 14.849 Q83.152 13.872 84.815 13.872 Q86.484 13.872 87.452 14.849 Q88.42 15.827 88.42 17.502 Q88.42 19.216 87.449 20.188 Q86.478 21.159 84.771 21.159 Z M84.802 19.984 Q86.421 19.984 86.421 17.502 Q86.421 16.366 85.992 15.706 Q85.564 15.046 84.815 15.046 Q84.072 15.046 83.644 15.706 Q83.215 16.366 83.215 17.515 Q83.215 18.651 83.641 19.318 Q84.066 19.984 84.802 19.984 Z M90.147 21 L90.147 10.977 L92.026 10.977 L92.026 21 Z M98.685 21 L98.685 19.686 Q97.771 21.159 96.311 21.159 Q95.377 21.159 94.838 20.568 Q94.298 19.978 94.298 18.956 L94.298 14.03 L96.177 14.03 L96.177 18.493 Q96.177 19.68 96.971 19.68 Q97.859 19.68 98.685 18.417 L98.685 14.03 L100.563 14.03 L100.563 21 Z M102.912 21 L102.912 14.03 L104.715 14.03 L104.715 15.344 Q105.54 13.872 107.063 13.872 Q107.851 13.872 108.358 14.259 Q108.866 14.646 108.98 15.344 Q109.958 13.872 111.342 13.872 Q113.252 13.872 113.252 15.979 L113.252 21 L111.45 21 L111.45 16.595 Q111.45 15.357 110.625 15.357 Q109.78 15.357 108.98 16.576 L108.98 21 L107.178 21 L107.178 16.595 Q107.178 15.351 106.346 15.351 Q105.515 15.351 104.715 16.576 L104.715 21 Z M121.193 20.765 Q119.854 21.159 118.654 21.159 Q116.909 21.159 115.899 20.168 Q114.89 19.178 114.89 17.464 Q114.89 15.846 115.814 14.859 Q116.737 13.872 118.254 13.872 Q119.784 13.872 120.489 14.836 Q121.193 15.801 121.193 17.89 L116.871 17.89 Q117.061 19.883 119.061 19.883 Q120.006 19.883 121.193 19.445 Z M116.845 16.83 L119.346 16.83 Q119.346 15.046 118.197 15.046 Q117.029 15.046 116.845 16.83 Z M127.42 21 L127.42 10.977 L129.299 10.977 L129.299 15.344 Q130.023 13.872 131.578 13.872 Q132.835 13.872 133.555 14.792 Q134.276 15.712 134.276 17.325 Q134.276 19.07 133.463 20.115 Q132.651 21.159 131.292 21.159 Q130.125 21.159 129.299 20.295 L128.95 21 Z M129.299 19.178 Q129.985 19.94 130.759 19.94 Q131.451 19.94 131.864 19.27 Q132.276 18.601 132.276 17.483 Q132.276 15.344 130.899 15.344 Q130.067 15.344 129.299 16.417 Z M136.06 23.507 L137.64 21 L135.057 14.03 L137.075 14.03 L138.802 18.689 L140.852 14.03 L142.28 14.03 L137.977 23.507 Z M152.284 23.507 L152.284 19.686 Q151.561 21.159 150.005 21.159 Q148.749 21.159 148.031 20.238 Q147.314 19.318 147.314 17.706 Q147.314 15.954 148.123 14.913 Q148.933 13.872 150.297 13.872 Q151.389 13.872 152.284 14.735 L152.519 14.03 L154.169 14.03 L154.169 23.507 Z M152.284 15.852 Q151.605 15.09 150.831 15.09 Q150.139 15.09 149.726 15.757 Q149.313 16.423 149.313 17.547 Q149.313 19.686 150.685 19.686 Q151.522 19.686 152.284 18.613 Z M160.822 21 L160.822 19.686 Q159.908 21.159 158.448 21.159 Q157.515 21.159 156.975 20.568 Q156.436 19.978 156.436 18.956 L156.436 14.03 L158.314 14.03 L158.314 18.493 Q158.314 19.68 159.108 19.68 Q159.997 19.68 160.822 18.417 L160.822 14.03 L162.701 14.03 L162.701 21 Z M170.724 20.765 Q169.385 21.159 168.185 21.159 Q166.439 21.159 165.43 20.168 Q164.421 19.178 164.421 17.464 Q164.421 15.846 165.344 14.859 Q166.268 13.872 167.785 13.872 Q169.315 13.872 170.02 14.836 Q170.724 15.801 170.724 17.89 L166.401 17.89 Q166.592 19.883 168.591 19.883 Q169.537 19.883 170.724 19.445 Z M166.376 16.83 L168.877 16.83 Q168.877 15.046 167.728 15.046 Q166.56 15.046 166.376 16.83 Z M176.977 21 L176.977 19.686 Q176.063 21.159 174.603 21.159 Q173.669 21.159 173.13 20.568 Q172.59 19.978 172.59 18.956 L172.59 14.03 L174.469 14.03 L174.469 18.493 Q174.469 19.68 175.263 19.68 Q176.151 19.68 176.977 18.417 L176.977 14.03 L178.855 14.03 L178.855 21 Z M186.879 20.765 Q185.54 21.159 184.34 21.159 Q182.594 21.159 181.585 20.168 Q180.576 19.178 180.576 17.464 Q180.576 15.846 181.499 14.859 Q182.423 13.872 183.94 13.872 Q185.47 13.872 186.174 14.836 Q186.879 15.801 186.879 17.89 L182.556 17.89 Q182.747 19.883 184.746 19.883 Q185.692 19.883 186.879 19.445 Z M182.531 16.83 L185.032 16.83 Q185.032 15.046 183.883 15.046 Q182.715 15.046 182.531 16.83 Z" fill="#2B2620" fill-opacity="1"/>
<path d="M19.073 74 L19.073 65.689 L21.229 65.689 Q22.475 65.689 23.141 66.161 Q23.806 66.633 23.806 67.52 Q23.806 69.031 22.099 69.671 Q24.137 70.294 24.137 71.922 Q24.137 72.933 23.464 73.467 Q22.79 74 21.521 74 Z M20.24 73.118 L20.482 73.118 Q21.779 73.118 22.161 72.956 Q22.891 72.647 22.891 71.81 Q22.891 71.069 22.228 70.578 Q21.566 70.086 20.572 70.086 L20.24 70.086 Z M20.24 69.339 L20.617 69.339 Q21.56 69.339 22.079 68.935 Q22.599 68.531 22.599 67.795 Q22.599 66.571 20.701 66.571 L20.24 66.571 Z M25.721 74 L25.721 67.902 L26.827 67.902 L26.827 74 Z M25.721 66.796 L25.721 65.689 L26.827 65.689 L26.827 66.796 Z M29.045 74 L29.045 65.134 L30.151 65.134 L30.151 74 Z M32.369 74 L32.369 65.134 L33.476 65.134 L33.476 74 Z M35.694 74 L35.694 67.902 L36.8 67.902 L36.8 74 Z M35.694 66.796 L35.694 65.689 L36.8 65.689 L36.8 66.796 Z M39.018 74 L39.018 67.902 L40.124 67.902 L40.124 69.047 Q41 67.767 42.269 67.767 Q43.061 67.767 43.532 68.27 Q44.004 68.772 44.004 69.62 L44.004 74 L42.898 74 L42.898 69.979 Q42.898 69.3 42.699 69.011 Q42.499 68.722 42.039 68.722 Q41.022 68.722 40.124 70.052 L40.124 74 Z M46.177 76.027 L46.306 75.067 Q47.267 75.522 48.199 75.522 Q50.069 75.522 50.069 73.54 L50.069 72.579 Q49.457 73.86 48.058 73.86 Q46.963 73.86 46.318 73.062 Q45.672 72.265 45.672 70.912 Q45.672 69.519 46.407 68.643 Q47.143 67.767 48.311 67.767 Q49.333 67.767 50.069 68.598 L50.069 67.902 L51.18 67.902 L51.18 72.338 Q51.18 73.77 51.032 74.458 Q50.883 75.146 50.473 75.583 Q49.749 76.353 48.221 76.353 Q47.154 76.353 46.177 76.027 Z M50.069 71.889 L50.069 69.356 Q49.339 68.598 48.479 68.598 Q47.716 68.598 47.283 69.21 Q46.851 69.822 46.851 70.889 Q46.851 72.894 48.26 72.894 Q49.221 72.894 50.069 71.889 Z M60.109 73.225 Q59.115 74.14 58.194 74.14 Q57.436 74.14 56.936 73.666 Q56.436 73.191 56.436 72.467 Q56.436 71.468 57.276 70.931 Q58.115 70.395 59.682 70.395 L59.946 70.395 L59.946 69.659 Q59.946 68.598 58.856 68.598 Q57.98 68.598 56.964 69.137 L56.964 68.222 Q58.082 67.767 59.059 67.767 Q60.081 67.767 60.566 68.228 Q61.052 68.688 61.052 69.659 L61.052 72.422 Q61.052 73.371 61.636 73.371 Q61.709 73.371 61.849 73.349 L61.928 73.961 Q61.552 74.14 61.097 74.14 Q60.322 74.14 60.109 73.225 Z M59.946 72.624 L59.946 71.046 L59.575 71.035 Q58.666 71.035 58.104 71.38 Q57.542 71.726 57.542 72.287 Q57.542 72.686 57.823 72.961 Q58.104 73.236 58.508 73.236 Q59.199 73.236 59.946 72.624 Z M63.315 74 L63.315 67.902 L64.421 67.902 L64.421 69.047 Q65.297 67.767 66.566 67.767 Q67.358 67.767 67.83 68.27 Q68.301 68.772 68.301 69.62 L68.301 74 L67.195 74 L67.195 69.979 Q67.195 69.3 66.996 69.011 Q66.796 68.722 66.336 68.722 Q65.32 68.722 64.421 70.052 L64.421 74 Z M74.366 74 L74.366 72.854 Q73.692 74.14 72.333 74.14 Q71.232 74.14 70.601 73.337 Q69.969 72.534 69.969 71.142 Q69.969 69.62 70.685 68.694 Q71.401 67.767 72.569 67.767 Q73.653 67.767 74.366 68.598 L74.366 65.134 L75.478 65.134 L75.478 74 Z M74.366 69.356 Q73.507 68.598 72.737 68.598 Q71.148 68.598 71.148 71.03 Q71.148 73.169 72.563 73.169 Q73.484 73.169 74.366 72.164 Z M84.473 73.225 Q83.479 74.14 82.558 74.14 Q81.8 74.14 81.301 73.666 Q80.801 73.191 80.801 72.467 Q80.801 71.468 81.64 70.931 Q82.48 70.395 84.046 70.395 L84.31 70.395 L84.31 69.659 Q84.31 68.598 83.221 68.598 Q82.345 68.598 81.329 69.137 L81.329 68.222 Q82.446 67.767 83.423 67.767 Q84.445 67.767 84.931 68.228 Q85.417 68.688 85.417 69.659 L85.417 72.422 Q85.417 73.371 86 73.371 Q86.073 73.371 86.214 73.349 L86.292 73.961 Q85.916 74.14 85.461 74.14 Q84.687 74.14 84.473 73.225 Z M84.31 72.624 L84.31 71.046 L83.94 71.035 Q83.03 71.035 82.469 71.38 Q81.907 71.726 81.907 72.287 Q81.907 72.686 82.188 72.961 Q82.469 73.236 82.873 73.236 Q83.563 73.236 84.31 72.624 Z M90.06 74.14 Q88.825 74.14 88.011 73.225 Q87.197 72.31 87.197 70.917 Q87.197 69.429 88.002 68.598 Q88.808 67.767 90.251 67.767 Q90.964 67.767 91.846 67.964 L91.846 68.89 Q90.908 68.615 90.319 68.615 Q89.471 68.615 88.957 69.252 Q88.443 69.89 88.443 70.951 Q88.443 71.979 88.971 72.613 Q89.499 73.248 90.352 73.248 Q91.11 73.248 91.913 72.86 L91.913 73.815 Q90.841 74.14 90.06 74.14 Z M95.951 74.14 Q94.715 74.14 93.901 73.225 Q93.087 72.31 93.087 70.917 Q93.087 69.429 93.893 68.598 Q94.698 67.767 96.142 67.767 Q96.855 67.767 97.736 67.964 L97.736 68.89 Q96.799 68.615 96.209 68.615 Q95.361 68.615 94.847 69.252 Q94.333 69.89 94.333 70.951 Q94.333 71.979 94.861 72.613 Q95.389 73.248 96.243 73.248 Q97.001 73.248 97.804 72.86 L97.804 73.815 Q96.731 74.14 95.951 74.14 Z M101.847 74.14 Q100.538 74.14 99.758 73.273 Q98.977 72.405 98.977 70.951 Q98.977 69.48 99.761 68.623 Q100.544 67.767 101.886 67.767 Q103.228 67.767 104.011 68.623 Q104.795 69.48 104.795 70.94 Q104.795 72.433 104.009 73.287 Q103.222 74.14 101.847 74.14 Z M101.864 73.309 Q103.621 73.309 103.621 70.94 Q103.621 68.598 101.886 68.598 Q100.156 68.598 100.156 70.951 Q100.156 73.309 101.864 73.309 Z M110.337 74 L110.337 72.854 Q109.455 74.14 108.198 74.14 Q107.4 74.14 106.928 73.638 Q106.457 73.135 106.457 72.282 L106.457 67.902 L107.563 67.902 L107.563 71.922 Q107.563 72.607 107.762 72.897 Q107.962 73.186 108.428 73.186 Q109.438 73.186 110.337 71.855 L110.337 67.902 L111.443 67.902 L111.443 74 Z M113.661 74 L113.661 67.902 L114.767 67.902 L114.767 69.047 Q115.643 67.767 116.912 67.767 Q117.704 67.767 118.176 68.27 Q118.647 68.772 118.647 69.62 L118.647 74 L117.541 74 L117.541 69.979 Q117.541 69.3 117.342 69.011 Q117.143 68.722 116.682 68.722 Q115.666 68.722 114.767 70.052 L114.767 74 Z M122.629 74.14 Q121.786 74.14 121.315 73.657 Q120.843 73.175 120.843 72.315 L120.843 68.733 L120.079 68.733 L120.079 67.902 L120.843 67.902 L120.843 66.796 L121.949 66.689 L121.949 67.902 L123.544 67.902 L123.544 68.733 L121.949 68.733 L121.949 72.113 Q121.949 73.309 122.982 73.309 Q123.201 73.309 123.516 73.236 L123.516 74 Q123.005 74.14 122.629 74.14 Z M132.652 76.218 L132.652 72.854 Q131.978 74.14 130.619 74.14 Q129.519 74.14 128.887 73.337 Q128.255 72.534 128.255 71.142 Q128.255 69.62 128.971 68.694 Q129.687 67.767 130.855 67.767 Q131.939 67.767 132.652 68.598 L132.652 67.902 L133.764 67.902 L133.764 76.218 Z M132.652 69.356 Q131.793 68.598 131.023 68.598 Q129.434 68.598 129.434 71.03 Q129.434 73.169 130.849 73.169 Q131.77 73.169 132.652 72.164 Z M139.789 74 L139.789 72.854 Q138.907 74.14 137.649 74.14 Q136.852 74.14 136.38 73.638 Q135.909 73.135 135.909 72.282 L135.909 67.902 L137.015 67.902 L137.015 71.922 Q137.015 72.607 137.214 72.897 Q137.414 73.186 137.88 73.186 Q138.89 73.186 139.789 71.855 L139.789 67.902 L140.895 67.902 L140.895 74 Z M147.583 73.803 Q146.471 74.14 145.679 74.14 Q144.332 74.14 143.481 73.245 Q142.63 72.349 142.63 70.923 Q142.63 69.536 143.38 68.649 Q144.129 67.761 145.297 67.761 Q146.404 67.761 147.007 68.548 Q147.611 69.334 147.611 70.782 L147.605 71.125 L143.759 71.125 Q144 73.298 145.887 73.298 Q146.578 73.298 147.583 72.927 Z M143.809 70.294 L146.499 70.294 Q146.499 68.593 145.23 68.593 Q143.955 68.593 143.809 70.294 Z M151.137 74.14 Q150.379 74.14 149.295 73.787 L149.295 72.77 Q150.379 73.309 151.182 73.309 Q151.659 73.309 151.974 73.051 Q152.288 72.793 152.288 72.405 Q152.288 71.838 151.407 71.468 L150.761 71.192 Q149.329 70.597 149.329 69.48 Q149.329 68.682 149.893 68.225 Q150.458 67.767 151.44 67.767 Q151.951 67.767 152.704 67.907 L152.934 67.952 L152.934 68.873 Q152.008 68.598 151.463 68.598 Q150.396 68.598 150.396 69.373 Q150.396 69.873 151.205 70.215 L151.738 70.44 Q152.642 70.822 153.018 71.246 Q153.395 71.67 153.395 72.304 Q153.395 73.107 152.76 73.624 Q152.125 74.14 151.137 74.14 Z M157.213 74.14 Q156.371 74.14 155.899 73.657 Q155.427 73.175 155.427 72.315 L155.427 68.733 L154.664 68.733 L154.664 67.902 L155.427 67.902 L155.427 66.796 L156.533 66.689 L156.533 67.902 L158.128 67.902 L158.128 68.733 L156.533 68.733 L156.533 72.113 Q156.533 73.309 157.567 73.309 Q157.786 73.309 158.1 73.236 L158.1 74 Q157.589 74.14 157.213 74.14 Z M159.684 74 L159.684 67.902 L160.79 67.902 L160.79 74 Z M159.684 66.796 L159.684 65.689 L160.79 65.689 L160.79 66.796 Z M165.394 74.14 Q164.086 74.14 163.305 73.273 Q162.525 72.405 162.525 70.951 Q162.525 69.48 163.308 68.623 Q164.092 67.767 165.434 67.767 Q166.776 67.767 167.559 68.623 Q168.342 69.48 168.342 70.94 Q168.342 72.433 167.556 73.287 Q166.77 74.14 165.394 74.14 Z M165.411 73.309 Q167.169 73.309 167.169 70.94 Q167.169 68.598 165.434 68.598 Q163.704 68.598 163.704 70.951 Q163.704 73.309 165.411 73.309 Z M170.072 74 L170.072 67.902 L171.178 67.902 L171.178 69.047 Q172.054 67.767 173.323 67.767 Q174.115 67.767 174.586 68.27 Q175.058 68.772 175.058 69.62 L175.058 74 L173.952 74 L173.952 69.979 Q173.952 69.3 173.753 69.011 Q173.553 68.722 173.093 68.722 Q172.076 68.722 171.178 70.052 L171.178 74 Z M178.826 74.14 Q178.068 74.14 176.984 73.787 L176.984 72.77 Q178.068 73.309 178.871 73.309 Q179.348 73.309 179.663 73.051 Q179.977 72.793 179.977 72.405 Q179.977 71.838 179.095 71.468 L178.45 71.192 Q177.018 70.597 177.018 69.48 Q177.018 68.682 177.582 68.225 Q178.146 67.767 179.129 67.767 Q179.64 67.767 180.393 67.907 L180.623 67.952 L180.623 68.873 Q179.696 68.598 179.152 68.598 Q178.085 68.598 178.085 69.373 Q178.085 69.873 178.893 70.215 L179.427 70.44 Q180.331 70.822 180.707 71.246 Q181.083 71.67 181.083 72.304 Q181.083 73.107 180.449 73.624 Q179.814 74.14 178.826 74.14 Z" fill="#8C8478" fill-opacity="1"/>
<path d="M26.701 139.208 Q25.864 139.208 24.562 138.843 L24.562 137.675 Q25.965 138.326 26.869 138.326 Q27.566 138.326 27.99 137.961 Q28.414 137.596 28.414 137.001 Q28.414 136.512 28.136 136.17 Q27.858 135.827 27.111 135.406 L26.538 135.075 Q25.477 134.469 25.042 133.932 Q24.606 133.396 24.606 132.683 Q24.606 131.723 25.303 131.102 Q25.999 130.482 27.077 130.482 Q28.037 130.482 29.104 130.802 L29.104 131.88 Q27.79 131.363 27.145 131.363 Q26.532 131.363 26.134 131.689 Q25.735 132.015 25.735 132.509 Q25.735 132.924 26.027 133.244 Q26.319 133.564 27.094 134.008 L27.689 134.345 Q28.767 134.957 29.194 135.502 Q29.621 136.046 29.621 136.81 Q29.621 137.894 28.821 138.551 Q28.021 139.208 26.701 139.208 Z M31.3 139 L31.3 130.134 L32.406 130.134 L32.406 134.047 Q33.282 132.767 34.551 132.767 Q35.343 132.767 35.814 133.27 Q36.286 133.772 36.286 134.62 L36.286 139 L35.18 139 L35.18 134.979 Q35.18 134.3 34.981 134.011 Q34.781 133.722 34.321 133.722 Q33.304 133.722 32.406 135.052 L32.406 139 Z M38.437 139 L38.437 132.902 L39.543 132.902 L39.543 139 Z M38.437 131.796 L38.437 130.689 L39.543 130.689 L39.543 131.796 Z M41.761 141.218 L41.761 132.902 L42.867 132.902 L42.867 134.047 Q43.547 132.767 44.906 132.767 Q46.006 132.767 46.638 133.57 Q47.27 134.373 47.27 135.766 Q47.27 137.282 46.554 138.211 Q45.838 139.14 44.67 139.14 Q43.586 139.14 42.867 138.309 L42.867 141.218 Z M42.867 137.546 Q43.721 138.309 44.496 138.309 Q46.09 138.309 46.09 135.878 Q46.09 133.733 44.675 133.733 Q43.749 133.733 42.867 134.738 Z M48.999 141.218 L48.999 132.902 L50.105 132.902 L50.105 134.047 Q50.785 132.767 52.144 132.767 Q53.244 132.767 53.876 133.57 Q54.508 134.373 54.508 135.766 Q54.508 137.282 53.792 138.211 Q53.076 139.14 51.908 139.14 Q50.824 139.14 50.105 138.309 L50.105 141.218 Z M50.105 137.546 Q50.959 138.309 51.734 138.309 Q53.328 138.309 53.328 135.878 Q53.328 133.733 51.913 133.733 Q50.987 133.733 50.105 134.738 Z M56.237 139 L56.237 132.902 L57.343 132.902 L57.343 139 Z M56.237 131.796 L56.237 130.689 L57.343 130.689 L57.343 131.796 Z M59.561 139 L59.561 132.902 L60.667 132.902 L60.667 134.047 Q61.543 132.767 62.813 132.767 Q63.604 132.767 64.076 133.27 Q64.548 133.772 64.548 134.62 L64.548 139 L63.441 139 L63.441 134.979 Q63.441 134.3 63.242 134.011 Q63.043 133.722 62.582 133.722 Q61.566 133.722 60.667 135.052 L60.667 139 Z M66.721 141.027 L66.85 140.067 Q67.81 140.522 68.742 140.522 Q70.612 140.522 70.612 138.54 L70.612 137.579 Q70 138.86 68.602 138.86 Q67.507 138.86 66.861 138.062 Q66.215 137.265 66.215 135.912 Q66.215 134.519 66.951 133.643 Q67.687 132.767 68.854 132.767 Q69.876 132.767 70.612 133.598 L70.612 132.902 L71.724 132.902 L71.724 137.338 Q71.724 138.77 71.575 139.458 Q71.426 140.146 71.016 140.583 Q70.292 141.353 68.765 141.353 Q67.698 141.353 66.721 141.027 Z M70.612 136.889 L70.612 134.356 Q69.882 133.598 69.023 133.598 Q68.259 133.598 67.827 134.21 Q67.395 134.822 67.395 135.889 Q67.395 137.894 68.804 137.894 Q69.764 137.894 70.612 136.889 Z M80.652 138.225 Q79.658 139.14 78.737 139.14 Q77.979 139.14 77.479 138.666 Q76.98 138.191 76.98 137.467 Q76.98 136.468 77.819 135.931 Q78.659 135.395 80.225 135.395 L80.489 135.395 L80.489 134.659 Q80.489 133.598 79.4 133.598 Q78.524 133.598 77.508 134.137 L77.508 133.222 Q78.625 132.767 79.602 132.767 Q80.624 132.767 81.11 133.228 Q81.595 133.688 81.595 134.659 L81.595 137.422 Q81.595 138.371 82.179 138.371 Q82.252 138.371 82.393 138.349 L82.471 138.961 Q82.095 139.14 81.64 139.14 Q80.865 139.14 80.652 138.225 Z M80.489 137.624 L80.489 136.046 L80.119 136.035 Q79.209 136.035 78.647 136.38 Q78.086 136.726 78.086 137.287 Q78.086 137.686 78.367 137.961 Q78.647 138.236 79.052 138.236 Q79.742 138.236 80.489 137.624 Z M83.858 139 L83.858 132.902 L84.965 132.902 L84.965 134.047 Q85.841 132.767 87.11 132.767 Q87.901 132.767 88.373 133.27 Q88.845 133.772 88.845 134.62 L88.845 139 L87.739 139 L87.739 134.979 Q87.739 134.3 87.539 134.011 Q87.34 133.722 86.879 133.722 Q85.863 133.722 84.965 135.052 L84.965 139 Z M94.909 139 L94.909 137.854 Q94.235 139.14 92.876 139.14 Q91.776 139.14 91.144 138.337 Q90.512 137.534 90.512 136.142 Q90.512 134.62 91.228 133.694 Q91.944 132.767 93.112 132.767 Q94.196 132.767 94.909 133.598 L94.909 130.134 L96.021 130.134 L96.021 139 Z M94.909 134.356 Q94.05 133.598 93.281 133.598 Q91.692 133.598 91.692 136.03 Q91.692 138.169 93.107 138.169 Q94.028 138.169 94.909 137.164 Z M105.786 139 L105.786 137.854 Q105.112 139.14 103.753 139.14 Q102.653 139.14 102.021 138.337 Q101.389 137.534 101.389 136.142 Q101.389 134.62 102.105 133.694 Q102.821 132.767 103.989 132.767 Q105.073 132.767 105.786 133.598 L105.786 130.134 L106.898 130.134 L106.898 139 Z M105.786 134.356 Q104.927 133.598 104.157 133.598 Q102.568 133.598 102.568 136.03 Q102.568 138.169 103.983 138.169 Q104.904 138.169 105.786 137.164 Z M113.58 138.803 Q112.468 139.14 111.676 139.14 Q110.329 139.14 109.478 138.245 Q108.627 137.349 108.627 135.923 Q108.627 134.536 109.377 133.649 Q110.126 132.761 111.294 132.761 Q112.401 132.761 113.004 133.548 Q113.608 134.334 113.608 135.782 L113.602 136.125 L109.756 136.125 Q109.997 138.298 111.884 138.298 Q112.575 138.298 113.58 137.927 Z M109.806 135.294 L112.496 135.294 Q112.496 133.593 111.227 133.593 Q109.952 133.593 109.806 135.294 Z M115.517 139 L115.517 130.134 L116.623 130.134 L116.623 139 Z M118.841 139 L118.841 132.902 L119.948 132.902 L119.948 139 Z M118.841 131.796 L118.841 130.689 L119.948 130.689 L119.948 131.796 Z M123.429 139 L121.16 132.902 L122.267 132.902 L124.041 137.647 L125.911 132.902 L126.944 132.902 L124.535 139 Z M132.587 138.803 Q131.476 139.14 130.684 139.14 Q129.336 139.14 128.485 138.245 Q127.635 137.349 127.635 135.923 Q127.635 134.536 128.384 133.649 Q129.134 132.761 130.302 132.761 Q131.408 132.761 132.012 133.548 Q132.615 134.334 132.615 135.782 L132.61 136.125 L128.763 136.125 Q129.005 138.298 130.892 138.298 Q131.582 138.298 132.587 137.927 Z M128.814 135.294 L131.504 135.294 Q131.504 133.593 130.235 133.593 Q128.96 133.593 128.814 135.294 Z M134.525 139 L134.525 132.902 L135.631 132.902 L135.631 134.047 Q136.288 132.767 137.54 132.767 Q137.708 132.767 137.894 132.795 L137.894 133.828 Q137.607 133.733 137.388 133.733 Q136.338 133.733 135.631 134.979 L135.631 139 Z M139.584 141.218 L140.572 139 L138.214 132.902 L139.41 132.902 L141.156 137.495 L143.021 132.902 L144.065 132.902 L140.735 141.218 Z M152.791 139 L152.791 137.854 Q152.117 139.14 150.758 139.14 Q149.658 139.14 149.026 138.337 Q148.394 137.534 148.394 136.142 Q148.394 134.62 149.11 133.694 Q149.826 132.767 150.994 132.767 Q152.078 132.767 152.791 133.598 L152.791 130.134 L153.903 130.134 L153.903 139 Z M152.791 134.356 Q151.932 133.598 151.163 133.598 Q149.573 133.598 149.573 136.03 Q149.573 138.169 150.989 138.169 Q151.909 138.169 152.791 137.164 Z M160.585 138.803 Q159.473 139.14 158.681 139.14 Q157.334 139.14 156.483 138.245 Q155.632 137.349 155.632 135.923 Q155.632 134.536 156.382 133.649 Q157.132 132.761 158.3 132.761 Q159.406 132.761 160.009 133.548 Q160.613 134.334 160.613 135.782 L160.607 136.125 L156.761 136.125 Q157.002 138.298 158.889 138.298 Q159.58 138.298 160.585 137.927 Z M156.812 135.294 L159.501 135.294 Q159.501 133.593 158.232 133.593 Q156.958 133.593 156.812 135.294 Z M162.522 139 L162.522 130.134 L163.628 130.134 L163.628 139 Z M168.991 138.225 Q167.997 139.14 167.076 139.14 Q166.318 139.14 165.818 138.666 Q165.319 138.191 165.319 137.467 Q165.319 136.468 166.158 135.931 Q166.998 135.395 168.564 135.395 L168.828 135.395 L168.828 134.659 Q168.828 133.598 167.739 133.598 Q166.863 133.598 165.846 134.137 L165.846 133.222 Q166.964 132.767 167.941 132.767 Q168.963 132.767 169.449 133.228 Q169.934 133.688 169.934 134.659 L169.934 137.422 Q169.934 138.371 170.518 138.371 Q170.591 138.371 170.732 138.349 L170.81 138.961 Q170.434 139.14 169.979 139.14 Q169.204 139.14 168.991 138.225 Z M168.828 137.624 L168.828 136.046 L168.458 136.035 Q167.548 136.035 166.986 136.38 Q166.425 136.726 166.425 137.287 Q166.425 137.686 166.706 137.961 Q166.986 138.236 167.391 138.236 Q168.081 138.236 168.828 137.624 Z M172.551 141.218 L173.539 139 L171.181 132.902 L172.377 132.902 L174.123 137.495 L175.988 132.902 L177.032 132.902 L173.702 141.218 Z M179.823 139.14 Q179.065 139.14 177.981 138.787 L177.981 137.77 Q179.065 138.309 179.868 138.309 Q180.345 138.309 180.659 138.051 Q180.974 137.793 180.974 137.405 Q180.974 136.838 180.092 136.468 L179.447 136.192 Q178.015 135.597 178.015 134.48 Q178.015 133.682 178.579 133.225 Q179.143 132.767 180.126 132.767 Q180.637 132.767 181.389 132.907 L181.62 132.952 L181.62 133.873 Q180.693 133.598 180.148 133.598 Q179.082 133.598 179.082 134.373 Q179.082 134.873 179.89 135.215 L180.424 135.44 Q181.328 135.822 181.704 136.246 Q182.08 136.67 182.08 137.304 Q182.08 138.107 181.446 138.624 Q180.811 139.14 179.823 139.14 Z" fill="#8C8478" fill-opacity="1"/>
<path d="M17.073 205 L17.073 196.689 L19.335 196.689 Q20.84 196.689 21.497 197.198 Q22.154 197.706 22.154 198.868 Q22.154 200.193 21.256 200.946 Q20.357 201.698 18.763 201.698 L18.24 201.698 L18.24 205 Z M18.24 200.805 L18.718 200.805 Q19.768 200.805 20.341 200.323 Q20.913 199.84 20.913 198.958 Q20.913 198.211 20.464 197.891 Q20.015 197.571 18.965 197.571 L18.24 197.571 Z M23.463 205 L23.463 198.902 L24.569 198.902 L24.569 200.047 Q25.226 198.767 26.478 198.767 Q26.646 198.767 26.832 198.795 L26.832 199.828 Q26.545 199.733 26.326 199.733 Q25.276 199.733 24.569 200.979 L24.569 205 Z M30.555 205.14 Q29.246 205.14 28.466 204.273 Q27.685 203.405 27.685 201.951 Q27.685 200.48 28.469 199.623 Q29.252 198.767 30.594 198.767 Q31.936 198.767 32.719 199.623 Q33.503 200.48 33.503 201.94 Q33.503 203.433 32.717 204.287 Q31.93 205.14 30.555 205.14 Z M30.572 204.309 Q32.329 204.309 32.329 201.94 Q32.329 199.598 30.594 199.598 Q28.865 199.598 28.865 201.951 Q28.865 204.309 30.572 204.309 Z M39.146 205 L39.146 203.854 Q38.472 205.14 37.113 205.14 Q36.013 205.14 35.381 204.337 Q34.749 203.534 34.749 202.142 Q34.749 200.62 35.465 199.694 Q36.181 198.767 37.349 198.767 Q38.433 198.767 39.146 199.598 L39.146 196.134 L40.258 196.134 L40.258 205 Z M39.146 200.356 Q38.287 199.598 37.518 199.598 Q35.928 199.598 35.928 202.03 Q35.928 204.169 37.344 204.169 Q38.264 204.169 39.146 203.164 Z M46.283 205 L46.283 203.854 Q45.401 205.14 44.144 205.14 Q43.346 205.14 42.875 204.638 Q42.403 204.135 42.403 203.282 L42.403 198.902 L43.509 198.902 L43.509 202.922 Q43.509 203.607 43.708 203.897 Q43.908 204.186 44.374 204.186 Q45.385 204.186 46.283 202.855 L46.283 198.902 L47.389 198.902 L47.389 205 Z M51.988 205.14 Q50.753 205.14 49.938 204.225 Q49.124 203.31 49.124 201.917 Q49.124 200.429 49.93 199.598 Q50.736 198.767 52.179 198.767 Q52.892 198.767 53.774 198.964 L53.774 199.89 Q52.836 199.615 52.246 199.615 Q51.398 199.615 50.885 200.252 Q50.371 200.89 50.371 201.951 Q50.371 202.979 50.899 203.613 Q51.427 204.248 52.28 204.248 Q53.038 204.248 53.841 203.86 L53.841 204.815 Q52.769 205.14 51.988 205.14 Z M57.328 205.14 Q56.486 205.14 56.014 204.657 Q55.542 204.175 55.542 203.315 L55.542 199.733 L54.779 199.733 L54.779 198.902 L55.542 198.902 L55.542 197.796 L56.649 197.689 L56.649 198.902 L58.243 198.902 L58.243 199.733 L56.649 199.733 L56.649 203.113 Q56.649 204.309 57.682 204.309 Q57.901 204.309 58.215 204.236 L58.215 205 Q57.704 205.14 57.328 205.14 Z M65.055 205.14 Q64.297 205.14 63.213 204.787 L63.213 203.77 Q64.297 204.309 65.1 204.309 Q65.577 204.309 65.891 204.051 Q66.206 203.793 66.206 203.405 Q66.206 202.838 65.324 202.468 L64.678 202.192 Q63.247 201.597 63.247 200.48 Q63.247 199.682 63.811 199.225 Q64.375 198.767 65.358 198.767 Q65.869 198.767 66.621 198.907 L66.852 198.952 L66.852 199.873 Q65.925 199.598 65.38 199.598 Q64.313 199.598 64.313 200.373 Q64.313 200.873 65.122 201.215 L65.656 201.44 Q66.56 201.822 66.936 202.246 Q67.312 202.67 67.312 203.304 Q67.312 204.107 66.677 204.624 Q66.043 205.14 65.055 205.14 Z M73.77 204.803 Q72.658 205.14 71.866 205.14 Q70.518 205.14 69.668 204.245 Q68.817 203.349 68.817 201.923 Q68.817 200.536 69.567 199.649 Q70.316 198.761 71.484 198.761 Q72.59 198.761 73.194 199.548 Q73.798 200.334 73.798 201.782 L73.792 202.125 L69.946 202.125 Q70.187 204.298 72.074 204.298 Q72.764 204.298 73.77 203.927 Z M69.996 201.294 L72.686 201.294 Q72.686 199.593 71.417 199.593 Q70.142 199.593 69.996 201.294 Z M77.537 205.14 Q76.695 205.14 76.223 204.657 Q75.752 204.175 75.752 203.315 L75.752 199.733 L74.988 199.733 L74.988 198.902 L75.752 198.902 L75.752 197.796 L76.858 197.689 L76.858 198.902 L78.453 198.902 L78.453 199.733 L76.858 199.733 L76.858 203.113 Q76.858 204.309 77.891 204.309 Q78.11 204.309 78.425 204.236 L78.425 205 Q77.914 205.14 77.537 205.14 Z M83.821 205 L83.821 203.854 Q82.939 205.14 81.681 205.14 Q80.884 205.14 80.412 204.638 Q79.941 204.135 79.941 203.282 L79.941 198.902 L81.047 198.902 L81.047 202.922 Q81.047 203.607 81.246 203.897 Q81.446 204.186 81.912 204.186 Q82.922 204.186 83.821 202.855 L83.821 198.902 L84.927 198.902 L84.927 205 Z M87.145 207.218 L87.145 198.902 L88.251 198.902 L88.251 200.047 Q88.931 198.767 90.29 198.767 Q91.39 198.767 92.022 199.57 Q92.654 200.373 92.654 201.766 Q92.654 203.282 91.938 204.211 Q91.222 205.14 90.054 205.14 Q88.97 205.14 88.251 204.309 L88.251 207.218 Z M88.251 203.546 Q89.105 204.309 89.88 204.309 Q91.474 204.309 91.474 201.878 Q91.474 199.733 90.059 199.733 Q89.133 199.733 88.251 200.738 Z M101.166 204.225 Q100.172 205.14 99.251 205.14 Q98.493 205.14 97.994 204.666 Q97.494 204.191 97.494 203.467 Q97.494 202.468 98.333 201.931 Q99.173 201.395 100.74 201.395 L101.003 201.395 L101.003 200.659 Q101.003 199.598 99.914 199.598 Q99.038 199.598 98.022 200.137 L98.022 199.222 Q99.139 198.767 100.116 198.767 Q101.138 198.767 101.624 199.228 Q102.11 199.688 102.11 200.659 L102.11 203.422 Q102.11 204.371 102.694 204.371 Q102.767 204.371 102.907 204.349 L102.986 204.961 Q102.609 205.14 102.155 205.14 Q101.38 205.14 101.166 204.225 Z M101.003 203.624 L101.003 202.046 L100.633 202.035 Q99.723 202.035 99.162 202.38 Q98.6 202.726 98.6 203.287 Q98.6 203.686 98.881 203.961 Q99.162 204.236 99.566 204.236 Q100.257 204.236 101.003 203.624 Z M104.373 205 L104.373 198.902 L105.479 198.902 L105.479 200.047 Q106.355 198.767 107.624 198.767 Q108.416 198.767 108.887 199.27 Q109.359 199.772 109.359 200.62 L109.359 205 L108.253 205 L108.253 200.979 Q108.253 200.3 108.053 200.011 Q107.854 199.722 107.394 199.722 Q106.377 199.722 105.479 201.052 L105.479 205 Z M115.423 205 L115.423 203.854 Q114.75 205.14 113.391 205.14 Q112.29 205.14 111.658 204.337 Q111.027 203.534 111.027 202.142 Q111.027 200.62 111.743 199.694 Q112.458 198.767 113.626 198.767 Q114.71 198.767 115.423 199.598 L115.423 196.134 L116.535 196.134 L116.535 205 Z M115.423 200.356 Q114.564 199.598 113.795 199.598 Q112.206 199.598 112.206 202.03 Q112.206 204.169 113.621 204.169 Q114.542 204.169 115.423 203.164 Z M122.386 205 L122.386 198.902 L123.492 198.902 L123.492 205 Z M122.386 197.796 L122.386 196.689 L123.492 196.689 L123.492 197.796 Z M125.71 205 L125.71 198.902 L126.817 198.902 L126.817 200.047 Q127.693 198.767 128.962 198.767 Q129.753 198.767 130.225 199.27 Q130.697 199.772 130.697 200.62 L130.697 205 L129.591 205 L129.591 200.979 Q129.591 200.3 129.391 200.011 Q129.192 199.722 128.731 199.722 Q127.715 199.722 126.817 201.052 L126.817 205 Z M134.465 205.14 Q133.707 205.14 132.623 204.787 L132.623 203.77 Q133.707 204.309 134.51 204.309 Q134.987 204.309 135.301 204.051 Q135.616 203.793 135.616 203.405 Q135.616 202.838 134.734 202.468 L134.088 202.192 Q132.656 201.597 132.656 200.48 Q132.656 199.682 133.221 199.225 Q133.785 198.767 134.768 198.767 Q135.279 198.767 136.031 198.907 L136.261 198.952 L136.261 199.873 Q135.335 199.598 134.79 199.598 Q133.723 199.598 133.723 200.373 Q133.723 200.873 134.532 201.215 L135.065 201.44 Q135.969 201.822 136.346 202.246 Q136.722 202.67 136.722 203.304 Q136.722 204.107 136.087 204.624 Q135.453 205.14 134.465 205.14 Z M140.54 205.14 Q139.698 205.14 139.226 204.657 Q138.755 204.175 138.755 203.315 L138.755 199.733 L137.991 199.733 L137.991 198.902 L138.755 198.902 L138.755 197.796 L139.861 197.689 L139.861 198.902 L141.456 198.902 L141.456 199.733 L139.861 199.733 L139.861 203.113 Q139.861 204.309 140.894 204.309 Q141.113 204.309 141.427 204.236 L141.427 205 Q140.917 205.14 140.54 205.14 Z M146.156 204.225 Q145.162 205.14 144.241 205.14 Q143.483 205.14 142.983 204.666 Q142.483 204.191 142.483 203.467 Q142.483 202.468 143.323 201.931 Q144.162 201.395 145.729 201.395 L145.993 201.395 L145.993 200.659 Q145.993 199.598 144.903 199.598 Q144.027 199.598 143.011 200.137 L143.011 199.222 Q144.128 198.767 145.105 198.767 Q146.127 198.767 146.613 199.228 Q147.099 199.688 147.099 200.659 L147.099 203.422 Q147.099 204.371 147.683 204.371 Q147.756 204.371 147.896 204.349 L147.975 204.961 Q147.599 205.14 147.144 205.14 Q146.369 205.14 146.156 204.225 Z M145.993 203.624 L145.993 202.046 L145.622 202.035 Q144.712 202.035 144.151 202.38 Q143.589 202.726 143.589 203.287 Q143.589 203.686 143.87 203.961 Q144.151 204.236 144.555 204.236 Q145.246 204.236 145.993 203.624 Z M149.362 205 L149.362 196.134 L150.468 196.134 L150.468 205 Z M152.686 205 L152.686 196.134 L153.792 196.134 L153.792 205 Z M159.155 204.225 Q158.161 205.14 157.24 205.14 Q156.482 205.14 155.982 204.666 Q155.482 204.191 155.482 203.467 Q155.482 202.468 156.322 201.931 Q157.161 201.395 158.728 201.395 L158.992 201.395 L158.992 200.659 Q158.992 199.598 157.903 199.598 Q157.027 199.598 156.01 200.137 L156.01 199.222 Q157.128 198.767 158.105 198.767 Q159.127 198.767 159.612 199.228 Q160.098 199.688 160.098 200.659 L160.098 203.422 Q160.098 204.371 160.682 204.371 Q160.755 204.371 160.896 204.349 L160.974 204.961 Q160.598 205.14 160.143 205.14 Q159.368 205.14 159.155 204.225 Z M158.992 203.624 L158.992 202.046 L158.621 202.035 Q157.712 202.035 157.15 202.38 Q156.589 202.726 156.589 203.287 Q156.589 203.686 156.869 203.961 Q157.15 204.236 157.554 204.236 Q158.245 204.236 158.992 203.624 Z M164.192 205.14 Q163.349 205.14 162.878 204.657 Q162.406 204.175 162.406 203.315 L162.406 199.733 L161.642 199.733 L161.642 198.902 L162.406 198.902 L162.406 197.796 L163.512 197.689 L163.512 198.902 L165.107 198.902 L165.107 199.733 L163.512 199.733 L163.512 203.113 Q163.512 204.309 164.545 204.309 Q164.764 204.309 165.079 204.236 L165.079 205 Q164.568 205.14 164.192 205.14 Z M166.662 205 L166.662 198.902 L167.769 198.902 L167.769 205 Z M166.662 197.796 L166.662 196.689 L167.769 196.689 L167.769 197.796 Z M172.373 205.14 Q171.065 205.14 170.284 204.273 Q169.504 203.405 169.504 201.951 Q169.504 200.48 170.287 199.623 Q171.07 198.767 172.412 198.767 Q173.754 198.767 174.538 199.623 Q175.321 200.48 175.321 201.94 Q175.321 203.433 174.535 204.287 Q173.749 205.14 172.373 205.14 Z M172.39 204.309 Q174.147 204.309 174.147 201.94 Q174.147 199.598 172.412 199.598 Q170.683 199.598 170.683 201.951 Q170.683 204.309 172.39 204.309 Z M177.051 205 L177.051 198.902 L178.157 198.902 L178.157 200.047 Q179.033 198.767 180.302 198.767 Q181.094 198.767 181.565 199.27 Q182.037 199.772 182.037 200.62 L182.037 205 L180.931 205 L180.931 200.979 Q180.931 200.3 180.731 200.011 Q180.532 199.722 180.072 199.722 Q179.055 199.722 178.157 201.052 L178.157 205 Z" fill="#8C8478" fill-opacity="1"/>
<path d="M23.073 270 L23.073 261.689 L25.588 261.689 Q26.784 261.689 27.422 262.217 Q28.059 262.745 28.059 263.75 Q28.059 265.412 26.38 266.109 L29.154 270 L27.705 270 L25.341 266.485 L24.24 266.485 L24.24 270 Z M24.24 265.603 L24.622 265.603 Q26.846 265.603 26.846 263.857 Q26.846 262.571 24.982 262.571 L24.24 262.571 Z M34.848 269.803 Q33.736 270.14 32.944 270.14 Q31.596 270.14 30.746 269.245 Q29.895 268.349 29.895 266.923 Q29.895 265.536 30.645 264.649 Q31.394 263.761 32.562 263.761 Q33.668 263.761 34.272 264.548 Q34.876 265.334 34.876 266.782 L34.87 267.125 L31.024 267.125 Q31.265 269.298 33.152 269.298 Q33.843 269.298 34.848 268.927 Z M31.074 266.294 L33.764 266.294 Q33.764 264.593 32.495 264.593 Q31.22 264.593 31.074 266.294 Z M38.615 270.14 Q37.773 270.14 37.302 269.657 Q36.83 269.175 36.83 268.315 L36.83 264.733 L36.066 264.733 L36.066 263.902 L36.83 263.902 L36.83 262.796 L37.936 262.689 L37.936 263.902 L39.531 263.902 L39.531 264.733 L37.936 264.733 L37.936 268.113 Q37.936 269.309 38.969 269.309 Q39.188 269.309 39.503 269.236 L39.503 270 Q38.992 270.14 38.615 270.14 Z M44.899 270 L44.899 268.854 Q44.017 270.14 42.76 270.14 Q41.962 270.14 41.49 269.638 Q41.019 269.135 41.019 268.282 L41.019 263.902 L42.125 263.902 L42.125 267.922 Q42.125 268.607 42.324 268.897 Q42.524 269.186 42.99 269.186 Q44 269.186 44.899 267.855 L44.899 263.902 L46.005 263.902 L46.005 270 Z M48.223 270 L48.223 263.902 L49.329 263.902 L49.329 265.047 Q49.986 263.767 51.239 263.767 Q51.407 263.767 51.592 263.795 L51.592 264.828 Q51.306 264.733 51.087 264.733 Q50.037 264.733 49.329 265.979 L49.329 270 Z M52.929 270 L52.929 263.902 L54.035 263.902 L54.035 265.047 Q54.911 263.767 56.18 263.767 Q56.972 263.767 57.443 264.27 Q57.915 264.772 57.915 265.62 L57.915 270 L56.809 270 L56.809 265.979 Q56.809 265.3 56.609 265.011 Q56.41 264.722 55.95 264.722 Q54.933 264.722 54.035 266.052 L54.035 270 Z M61.683 270.14 Q60.925 270.14 59.841 269.787 L59.841 268.77 Q60.925 269.309 61.728 269.309 Q62.205 269.309 62.52 269.051 Q62.834 268.793 62.834 268.405 Q62.834 267.838 61.952 267.468 L61.307 267.192 Q59.875 266.597 59.875 265.48 Q59.875 264.682 60.439 264.225 Q61.003 263.767 61.986 263.767 Q62.497 263.767 63.25 263.907 L63.48 263.952 L63.48 264.873 Q62.553 264.598 62.009 264.598 Q60.942 264.598 60.942 265.373 Q60.942 265.873 61.75 266.215 L62.284 266.44 Q63.188 266.822 63.564 267.246 Q63.94 267.67 63.94 268.304 Q63.94 269.107 63.306 269.624 Q62.671 270.14 61.683 270.14 Z M72.711 269.225 Q71.717 270.14 70.796 270.14 Q70.038 270.14 69.539 269.666 Q69.039 269.191 69.039 268.467 Q69.039 267.468 69.878 266.931 Q70.718 266.395 72.284 266.395 L72.548 266.395 L72.548 265.659 Q72.548 264.598 71.459 264.598 Q70.583 264.598 69.567 265.137 L69.567 264.222 Q70.684 263.767 71.661 263.767 Q72.683 263.767 73.169 264.228 Q73.655 264.688 73.655 265.659 L73.655 268.422 Q73.655 269.371 74.239 269.371 Q74.312 269.371 74.452 269.349 L74.531 269.961 Q74.154 270.14 73.699 270.14 Q72.925 270.14 72.711 269.225 Z M72.548 268.624 L72.548 267.046 L72.178 267.035 Q71.268 267.035 70.707 267.38 Q70.145 267.726 70.145 268.287 Q70.145 268.686 70.426 268.961 Q70.707 269.236 71.111 269.236 Q71.802 269.236 72.548 268.624 Z M75.917 270 L75.917 263.902 L77.024 263.902 L77.024 265.047 Q77.9 263.767 79.169 263.767 Q79.96 263.767 80.432 264.27 Q80.904 264.772 80.904 265.62 L80.904 270 L79.798 270 L79.798 265.979 Q79.798 265.3 79.598 265.011 Q79.399 264.722 78.938 264.722 Q77.922 264.722 77.024 266.052 L77.024 270 Z M86.968 270 L86.968 268.854 Q86.294 270.14 84.936 270.14 Q83.835 270.14 83.203 269.337 Q82.572 268.534 82.572 267.142 Q82.572 265.62 83.287 264.694 Q84.003 263.767 85.171 263.767 Q86.255 263.767 86.968 264.598 L86.968 261.134 L88.08 261.134 L88.08 270 Z M86.968 265.356 Q86.109 264.598 85.34 264.598 Q83.751 264.598 83.751 267.03 Q83.751 269.169 85.166 269.169 Q86.087 269.169 86.968 268.164 Z M93.931 270 L93.931 263.902 L95.037 263.902 L95.037 265.047 Q95.694 263.767 96.947 263.767 Q97.115 263.767 97.3 263.795 L97.3 264.828 Q97.014 264.733 96.795 264.733 Q95.745 264.733 95.037 265.979 L95.037 270 Z M103.106 269.803 Q101.995 270.14 101.203 270.14 Q99.855 270.14 99.005 269.245 Q98.154 268.349 98.154 266.923 Q98.154 265.536 98.903 264.649 Q99.653 263.761 100.821 263.761 Q101.927 263.761 102.531 264.548 Q103.135 265.334 103.135 266.782 L103.129 267.125 L99.282 267.125 Q99.524 269.298 101.411 269.298 Q102.101 269.298 103.106 268.927 Z M99.333 266.294 L102.023 266.294 Q102.023 264.593 100.754 264.593 Q99.479 264.593 99.333 266.294 Z M106.363 264.733 L106.363 270 L105.251 270 L105.251 264.733 L104.387 264.733 L104.387 263.902 L105.251 263.902 L105.251 263.172 Q105.251 260.993 107.239 260.993 Q107.795 260.993 108.503 261.178 L108.503 262.054 Q107.756 261.824 107.307 261.824 Q106.762 261.824 106.563 262.085 Q106.363 262.346 106.363 263.054 L106.363 263.902 L107.885 263.902 L107.885 264.733 Z M113.085 270 L113.085 268.854 Q112.203 270.14 110.945 270.14 Q110.148 270.14 109.676 269.638 Q109.205 269.135 109.205 268.282 L109.205 263.902 L110.311 263.902 L110.311 267.922 Q110.311 268.607 110.51 268.897 Q110.709 269.186 111.176 269.186 Q112.186 269.186 113.085 267.855 L113.085 263.902 L114.191 263.902 L114.191 270 Z M116.409 270 L116.409 263.902 L117.515 263.902 L117.515 265.047 Q118.391 263.767 119.66 263.767 Q120.452 263.767 120.924 264.27 Q121.395 264.772 121.395 265.62 L121.395 270 L120.289 270 L120.289 265.979 Q120.289 265.3 120.09 265.011 Q119.89 264.722 119.43 264.722 Q118.414 264.722 117.515 266.052 L117.515 270 Z M127.46 270 L127.46 268.854 Q126.786 270.14 125.427 270.14 Q124.326 270.14 123.695 269.337 Q123.063 268.534 123.063 267.142 Q123.063 265.62 123.779 264.694 Q124.495 263.767 125.663 263.767 Q126.747 263.767 127.46 264.598 L127.46 261.134 L128.572 261.134 L128.572 270 Z M127.46 265.356 Q126.601 264.598 125.831 264.598 Q124.242 264.598 124.242 267.03 Q124.242 269.169 125.657 269.169 Q126.578 269.169 127.46 268.164 Z M134.423 270 L134.423 263.902 L135.529 263.902 L135.529 265.047 Q136.186 263.767 137.438 263.767 Q137.606 263.767 137.792 263.795 L137.792 264.828 Q137.505 264.733 137.286 264.733 Q136.236 264.733 135.529 265.979 L135.529 270 Z M143.598 269.803 Q142.486 270.14 141.694 270.14 Q140.347 270.14 139.496 269.245 Q138.645 268.349 138.645 266.923 Q138.645 265.536 139.395 264.649 Q140.145 263.761 141.313 263.761 Q142.419 263.761 143.022 264.548 Q143.626 265.334 143.626 266.782 L143.62 267.125 L139.774 267.125 Q140.015 269.298 141.902 269.298 Q142.593 269.298 143.598 268.927 Z M139.824 266.294 L142.514 266.294 Q142.514 264.593 141.245 264.593 Q139.97 264.593 139.824 266.294 Z M149.449 272.218 L149.449 268.854 Q148.775 270.14 147.416 270.14 Q146.316 270.14 145.684 269.337 Q145.052 268.534 145.052 267.142 Q145.052 265.62 145.768 264.694 Q146.484 263.767 147.652 263.767 Q148.736 263.767 149.449 264.598 L149.449 263.902 L150.561 263.902 L150.561 272.218 Z M149.449 265.356 Q148.59 264.598 147.821 264.598 Q146.231 264.598 146.231 267.03 Q146.231 269.169 147.646 269.169 Q148.567 269.169 149.449 268.164 Z M156.586 270 L156.586 268.854 Q155.704 270.14 154.447 270.14 Q153.649 270.14 153.177 269.638 Q152.706 269.135 152.706 268.282 L152.706 263.902 L153.812 263.902 L153.812 267.922 Q153.812 268.607 154.011 268.897 Q154.211 269.186 154.677 269.186 Q155.688 269.186 156.586 267.855 L156.586 263.902 L157.692 263.902 L157.692 270 Z M164.38 269.803 Q163.268 270.14 162.476 270.14 Q161.129 270.14 160.278 269.245 Q159.427 268.349 159.427 266.923 Q159.427 265.536 160.177 264.649 Q160.927 263.761 162.094 263.761 Q163.201 263.761 163.804 264.548 Q164.408 265.334 164.408 266.782 L164.402 267.125 L160.556 267.125 Q160.797 269.298 162.684 269.298 Q163.375 269.298 164.38 268.927 Z M160.606 266.294 L163.296 266.294 Q163.296 264.593 162.027 264.593 Q160.752 264.593 160.606 266.294 Z M167.934 270.14 Q167.176 270.14 166.093 269.787 L166.093 268.77 Q167.176 269.309 167.979 269.309 Q168.457 269.309 168.771 269.051 Q169.085 268.793 169.085 268.405 Q169.085 267.838 168.204 267.468 L167.558 267.192 Q166.126 266.597 166.126 265.48 Q166.126 264.682 166.691 264.225 Q167.255 263.767 168.238 263.767 Q168.749 263.767 169.501 263.907 L169.731 263.952 L169.731 264.873 Q168.805 264.598 168.26 264.598 Q167.193 264.598 167.193 265.373 Q167.193 265.873 168.002 266.215 L168.535 266.44 Q169.439 266.822 169.815 267.246 Q170.192 267.67 170.192 268.304 Q170.192 269.107 169.557 269.624 Q168.923 270.14 167.934 270.14 Z M174.01 270.14 Q173.168 270.14 172.696 269.657 Q172.224 269.175 172.224 268.315 L172.224 264.733 L171.461 264.733 L171.461 263.902 L172.224 263.902 L172.224 262.796 L173.331 262.689 L173.331 263.902 L174.925 263.902 L174.925 264.733 L173.331 264.733 L173.331 268.113 Q173.331 269.309 174.364 269.309 Q174.583 269.309 174.897 269.236 L174.897 270 Q174.386 270.14 174.01 270.14 Z M178.098 270.14 Q177.34 270.14 176.256 269.787 L176.256 268.77 Q177.34 269.309 178.143 269.309 Q178.62 269.309 178.935 269.051 Q179.249 268.793 179.249 268.405 Q179.249 267.838 178.367 267.468 L177.722 267.192 Q176.29 266.597 176.29 265.48 Q176.29 264.682 176.854 264.225 Q177.418 263.767 178.401 263.767 Q178.912 263.767 179.665 263.907 L179.895 263.952 L179.895 264.873 Q178.968 264.598 178.424 264.598 Q177.357 264.598 177.357 265.373 Q177.357 265.873 178.165 266.215 L178.699 266.44 Q179.603 266.822 179.979 267.246 Q180.355 267.67 180.355 268.304 Q180.355 269.107 179.721 269.624 Q179.086 270.14 178.098 270.14 Z" fill="#8C8478" fill-opacity="1"/>
<path d="M40.049 335 L40.049 327.571 L37.101 327.571 L37.101 326.689 L44.176 326.689 L44.176 327.571 L41.228 327.571 L41.228 335 Z M49.848 334.803 Q48.736 335.14 47.944 335.14 Q46.596 335.14 45.746 334.245 Q44.895 333.349 44.895 331.923 Q44.895 330.536 45.645 329.649 Q46.394 328.761 47.562 328.761 Q48.668 328.761 49.272 329.548 Q49.876 330.334 49.876 331.782 L49.87 332.125 L46.024 332.125 Q46.265 334.298 48.152 334.298 Q48.843 334.298 49.848 333.927 Z M46.074 331.294 L48.764 331.294 Q48.764 329.593 47.495 329.593 Q46.22 329.593 46.074 331.294 Z M54.166 335.14 Q52.93 335.14 52.116 334.225 Q51.302 333.31 51.302 331.917 Q51.302 330.429 52.108 329.598 Q52.914 328.767 54.357 328.767 Q55.07 328.767 55.951 328.964 L55.951 329.89 Q55.014 329.615 54.424 329.615 Q53.576 329.615 53.062 330.252 Q52.549 330.89 52.549 331.951 Q52.549 332.979 53.076 333.613 Q53.604 334.248 54.458 334.248 Q55.216 334.248 56.019 333.86 L56.019 334.815 Q54.946 335.14 54.166 335.14 Z M57.675 335 L57.675 326.134 L58.781 326.134 L58.781 330.047 Q59.657 328.767 60.927 328.767 Q61.718 328.767 62.19 329.27 Q62.662 329.772 62.662 330.62 L62.662 335 L61.555 335 L61.555 330.979 Q61.555 330.3 61.356 330.011 Q61.157 329.722 60.696 329.722 Q59.68 329.722 58.781 331.052 L58.781 335 Z M64.812 335 L64.812 328.902 L65.918 328.902 L65.918 330.047 Q66.794 328.767 68.063 328.767 Q68.855 328.767 69.327 329.27 Q69.799 329.772 69.799 330.62 L69.799 335 L68.692 335 L68.692 330.979 Q68.692 330.3 68.493 330.011 Q68.294 329.722 67.833 329.722 Q66.817 329.722 65.918 331.052 L65.918 335 Z M71.949 335 L71.949 328.902 L73.055 328.902 L73.055 335 Z M71.949 327.796 L71.949 326.689 L73.055 326.689 L73.055 327.796 Z M77.654 335.14 Q76.419 335.14 75.605 334.225 Q74.791 333.31 74.791 331.917 Q74.791 330.429 75.596 329.598 Q76.402 328.767 77.845 328.767 Q78.558 328.767 79.44 328.964 L79.44 329.89 Q78.502 329.615 77.913 329.615 Q77.065 329.615 76.551 330.252 Q76.037 330.89 76.037 331.951 Q76.037 332.979 76.565 333.613 Q77.093 334.248 77.946 334.248 Q78.704 334.248 79.507 333.86 L79.507 334.815 Q78.435 335.14 77.654 335.14 Z M84.308 334.225 Q83.314 335.14 82.394 335.14 Q81.635 335.14 81.136 334.666 Q80.636 334.191 80.636 333.467 Q80.636 332.468 81.475 331.931 Q82.315 331.395 83.882 331.395 L84.146 331.395 L84.146 330.659 Q84.146 329.598 83.056 329.598 Q82.18 329.598 81.164 330.137 L81.164 329.222 Q82.281 328.767 83.258 328.767 Q84.28 328.767 84.766 329.228 Q85.252 329.688 85.252 330.659 L85.252 333.422 Q85.252 334.371 85.836 334.371 Q85.909 334.371 86.049 334.349 L86.128 334.961 Q85.751 335.14 85.297 335.14 Q84.522 335.14 84.308 334.225 Z M84.146 333.624 L84.146 332.046 L83.775 332.035 Q82.865 332.035 82.304 332.38 Q81.742 332.726 81.742 333.287 Q81.742 333.686 82.023 333.961 Q82.304 334.236 82.708 334.236 Q83.399 334.236 84.146 333.624 Z M87.515 335 L87.515 326.134 L88.621 326.134 L88.621 335 Z M96.308 335.14 Q95.466 335.14 94.994 334.657 Q94.522 334.175 94.522 333.315 L94.522 329.733 L93.759 329.733 L93.759 328.902 L94.522 328.902 L94.522 327.796 L95.629 327.689 L95.629 328.902 L97.223 328.902 L97.223 329.733 L95.629 329.733 L95.629 333.113 Q95.629 334.309 96.662 334.309 Q96.881 334.309 97.195 334.236 L97.195 335 Q96.684 335.14 96.308 335.14 Z M98.779 335 L98.779 328.902 L99.885 328.902 L99.885 330.047 Q100.542 328.767 101.794 328.767 Q101.963 328.767 102.148 328.795 L102.148 329.828 Q101.862 329.733 101.643 329.733 Q100.593 329.733 99.885 330.979 L99.885 335 Z M105.871 335.14 Q104.563 335.14 103.782 334.273 Q103.001 333.405 103.001 331.951 Q103.001 330.48 103.785 329.623 Q104.568 328.767 105.91 328.767 Q107.252 328.767 108.036 329.623 Q108.819 330.48 108.819 331.94 Q108.819 333.433 108.033 334.287 Q107.247 335.14 105.871 335.14 Z M105.888 334.309 Q107.645 334.309 107.645 331.94 Q107.645 329.598 105.91 329.598 Q104.181 329.598 104.181 331.951 Q104.181 334.309 105.888 334.309 Z M114.361 335 L114.361 333.854 Q113.479 335.14 112.222 335.14 Q111.424 335.14 110.953 334.638 Q110.481 334.135 110.481 333.282 L110.481 328.902 L111.587 328.902 L111.587 332.922 Q111.587 333.607 111.786 333.897 Q111.986 334.186 112.452 334.186 Q113.463 334.186 114.361 332.855 L114.361 328.902 L115.467 328.902 L115.467 335 Z M117.685 335.067 L117.685 326.134 L118.792 326.134 L118.792 330.047 Q119.471 328.767 120.83 328.767 Q121.93 328.767 122.562 329.57 Q123.194 330.373 123.194 331.766 Q123.194 333.282 122.478 334.211 Q121.762 335.14 120.594 335.14 Q119.51 335.14 118.792 334.309 L118.657 335.067 Z M118.792 333.546 Q119.645 334.309 120.42 334.309 Q122.015 334.309 122.015 331.878 Q122.015 329.733 120.6 329.733 Q119.673 329.733 118.792 330.738 Z M124.923 335 L124.923 326.134 L126.03 326.134 L126.03 335 Z M132.717 334.803 Q131.605 335.14 130.814 335.14 Q129.466 335.14 128.615 334.245 Q127.765 333.349 127.765 331.923 Q127.765 330.536 128.514 329.649 Q129.264 328.761 130.432 328.761 Q131.538 328.761 132.142 329.548 Q132.745 330.334 132.745 331.782 L132.74 332.125 L128.893 332.125 Q129.135 334.298 131.021 334.298 Q131.712 334.298 132.717 333.927 Z M128.944 331.294 L131.634 331.294 Q131.634 329.593 130.365 329.593 Q129.09 329.593 128.944 331.294 Z M136.272 335.14 Q135.514 335.14 134.43 334.787 L134.43 333.77 Q135.514 334.309 136.317 334.309 Q136.794 334.309 137.108 334.051 Q137.423 333.793 137.423 333.405 Q137.423 332.838 136.541 332.468 L135.896 332.192 Q134.464 331.597 134.464 330.48 Q134.464 329.682 135.028 329.225 Q135.592 328.767 136.575 328.767 Q137.086 328.767 137.838 328.907 L138.069 328.952 L138.069 329.873 Q137.142 329.598 136.597 329.598 Q135.531 329.598 135.531 330.373 Q135.531 330.873 136.339 331.215 L136.873 331.44 Q137.777 331.822 138.153 332.246 Q138.529 332.67 138.529 333.304 Q138.529 334.107 137.895 334.624 Q137.26 335.14 136.272 335.14 Z M140.517 335 L140.517 326.134 L141.623 326.134 L141.623 330.047 Q142.499 328.767 143.768 328.767 Q144.56 328.767 145.031 329.27 Q145.503 329.772 145.503 330.62 L145.503 335 L144.397 335 L144.397 330.979 Q144.397 330.3 144.198 330.011 Q143.998 329.722 143.538 329.722 Q142.521 329.722 141.623 331.052 L141.623 335 Z M150.04 335.14 Q148.732 335.14 147.951 334.273 Q147.171 333.405 147.171 331.951 Q147.171 330.48 147.954 329.623 Q148.738 328.767 150.08 328.767 Q151.422 328.767 152.205 329.623 Q152.988 330.48 152.988 331.94 Q152.988 333.433 152.202 334.287 Q151.416 335.14 150.04 335.14 Z M150.057 334.309 Q151.815 334.309 151.815 331.94 Q151.815 329.598 150.08 329.598 Q148.35 329.598 148.35 331.951 Q148.35 334.309 150.057 334.309 Z M157.104 335.14 Q155.796 335.14 155.015 334.273 Q154.235 333.405 154.235 331.951 Q154.235 330.48 155.018 329.623 Q155.802 328.767 157.144 328.767 Q158.486 328.767 159.269 329.623 Q160.052 330.48 160.052 331.94 Q160.052 333.433 159.266 334.287 Q158.48 335.14 157.104 335.14 Z M157.121 334.309 Q158.879 334.309 158.879 331.94 Q158.879 329.598 157.144 329.598 Q155.414 329.598 155.414 331.951 Q155.414 334.309 157.121 334.309 Z M163.612 335.14 Q162.77 335.14 162.298 334.657 Q161.827 334.175 161.827 333.315 L161.827 329.733 L161.063 329.733 L161.063 328.902 L161.827 328.902 L161.827 327.796 L162.933 327.689 L162.933 328.902 L164.528 328.902 L164.528 329.733 L162.933 329.733 L162.933 333.113 Q162.933 334.309 163.966 334.309 Q164.185 334.309 164.5 334.236 L164.5 335 Q163.989 335.14 163.612 335.14 Z M166.083 335 L166.083 328.902 L167.189 328.902 L167.189 335 Z M166.083 327.796 L166.083 326.689 L167.189 326.689 L167.189 327.796 Z M169.407 335 L169.407 328.902 L170.513 328.902 L170.513 330.047 Q171.389 328.767 172.658 328.767 Q173.45 328.767 173.922 329.27 Q174.394 329.772 174.394 330.62 L174.394 335 L173.287 335 L173.287 330.979 Q173.287 330.3 173.088 330.011 Q172.889 329.722 172.428 329.722 Q171.412 329.722 170.513 331.052 L170.513 335 Z M176.567 337.027 L176.696 336.067 Q177.656 336.522 178.588 336.522 Q180.458 336.522 180.458 334.54 L180.458 333.579 Q179.846 334.86 178.448 334.86 Q177.353 334.86 176.707 334.062 Q176.061 333.265 176.061 331.912 Q176.061 330.519 176.797 329.643 Q177.532 328.767 178.7 328.767 Q179.722 328.767 180.458 329.598 L180.458 328.902 L181.57 328.902 L181.57 333.338 Q181.57 334.77 181.421 335.458 Q181.272 336.146 180.862 336.583 Q180.138 337.353 178.611 337.353 Q177.544 337.353 176.567 337.027 Z M180.458 332.889 L180.458 330.356 Q179.728 329.598 178.869 329.598 Q178.105 329.598 177.673 330.21 Q177.24 330.822 177.24 331.889 Q177.24 333.894 178.65 333.894 Q179.61 333.894 180.458 332.889 Z" fill="#8C8478" fill-opacity="1"/>
<path d="M185 56.7 L586.14 56.7 Q590.14 56.7 590.14 60.7 L590.14 76.7 Q590.14 80.7 586.14 80.7 L185 80.7 Z" fill="#B1512D" fill-opacity="1" clip-path="url(#c1)"/>
<path d="M185 122.1 L491.32 122.1 Q495.32 122.1 495.32 126.1 L495.32 142.1 Q495.32 146.1 491.32 146.1 L185 146.1 Z" fill="#B1512D" fill-opacity="1" clip-path="url(#c1)"/>
<path d="M185 187.5 L314.61 187.5 Q318.61 187.5 318.61 191.5 L318.61 207.5 Q318.61 211.5 314.61 211.5 L185 211.5 Z" fill="#B1512D" fill-opacity="1" clip-path="url(#c1)"/>
<path d="M185 252.9 L284.44 252.9 Q288.44 252.9 288.44 256.9 L288.44 272.9 Q288.44 276.9 284.44 276.9 L185 276.9 Z" fill="#B1512D" fill-opacity="1" clip-path="url(#c1)"/>
<path d="M185 318.3 L262.89 318.3 Q266.89 318.3 266.89 322.3 L266.89 338.3 Q266.89 342.3 262.89 342.3 L185 342.3 Z" fill="#B1512D" fill-opacity="1" clip-path="url(#c1)"/>
<path d="M185 36 L185 363" fill="none" stroke="#E6DFD2" stroke-opacity="1" stroke-width="1" stroke-linecap="square" stroke-linejoin="miter"/>
<path d="M185.605 381.208 Q184.319 381.208 183.525 379.998 Q182.73 378.788 182.73 376.839 Q182.73 374.874 183.53 373.678 Q184.33 372.482 185.639 372.482 Q186.947 372.482 187.747 373.678 Q188.547 374.874 188.547 376.822 Q188.547 378.821 187.747 380.015 Q186.947 381.208 185.605 381.208 Z M185.616 380.377 Q187.374 380.377 187.374 376.805 Q187.374 373.313 185.639 373.313 Q183.909 373.313 183.909 376.839 Q183.909 380.377 185.616 380.377 Z" fill="#8C8478" fill-opacity="1"/>
<path d="M271 36 L271 363" fill="none" stroke="#E6DFD2" stroke-opacity="1" stroke-width="1" stroke-linecap="square" stroke-linejoin="miter"/>
<path d="M255.955 381 L255.955 380.029 Q256.438 378.9 257.909 377.569 L258.543 377.002 Q259.767 375.896 259.767 374.806 Q259.767 374.11 259.349 373.711 Q258.931 373.313 258.201 373.313 Q257.336 373.313 256.162 373.981 L256.162 373.004 Q257.269 372.482 258.358 372.482 Q259.526 372.482 260.233 373.111 Q260.941 373.74 260.941 374.778 Q260.941 375.525 260.584 376.104 Q260.228 376.682 259.256 377.507 L258.83 377.872 Q257.499 379.001 257.291 380.029 L260.902 380.029 L260.902 381 Z M263.395 382.802 L263.395 382.387 Q263.934 382.235 263.934 381.112 L263.934 381 L263.395 381 L263.395 379.613 L264.782 379.613 L264.782 380.815 Q264.782 382.662 263.395 382.802 Z M269.515 381.208 Q268.229 381.208 267.435 379.998 Q266.64 378.788 266.64 376.839 Q266.64 374.874 267.441 373.678 Q268.241 372.482 269.549 372.482 Q270.857 372.482 271.658 373.678 Q272.458 374.874 272.458 376.822 Q272.458 378.821 271.658 380.015 Q270.857 381.208 269.515 381.208 Z M269.527 380.377 Q271.284 380.377 271.284 376.805 Q271.284 373.313 269.549 373.313 Q267.82 373.313 267.82 376.839 Q267.82 380.377 269.527 380.377 Z M276.787 381.208 Q275.501 381.208 274.707 379.998 Q273.912 378.788 273.912 376.839 Q273.912 374.874 274.712 373.678 Q275.512 372.482 276.821 372.482 Q278.129 372.482 278.929 373.678 Q279.729 374.874 279.729 376.822 Q279.729 378.821 278.929 380.015 Q278.129 381.208 276.787 381.208 Z M276.798 380.377 Q278.556 380.377 278.556 376.805 Q278.556 373.313 276.821 373.313 Q275.091 373.313 275.091 376.839 Q275.091 380.377 276.798 380.377 Z M284.059 381.208 Q282.773 381.208 281.978 379.998 Q281.184 378.788 281.184 376.839 Q281.184 374.874 281.984 373.678 Q282.784 372.482 284.093 372.482 Q285.401 372.482 286.201 373.678 Q287.001 374.874 287.001 376.822 Q287.001 378.821 286.201 380.015 Q285.401 381.208 284.059 381.208 Z M284.07 380.377 Q285.828 380.377 285.828 376.805 Q285.828 373.313 284.093 373.313 Q282.363 373.313 282.363 376.839 Q282.363 380.377 284.07 380.377 Z" fill="#8C8478" fill-opacity="1"/>
<path d="M357 36 L357 363" fill="none" stroke="#E6DFD2" stroke-opacity="1" stroke-width="1" stroke-linecap="square" stroke-linejoin="miter"/>
<path d="M345.329 381 L345.329 378.647 L341.59 378.647 L341.59 377.811 L345.329 372.689 L346.368 372.689 L346.368 377.743 L347.48 377.743 L347.48 378.647 L346.368 378.647 L346.368 381 Z M342.673 377.743 L345.402 377.743 L345.402 374.048 Z M349.395 382.802 L349.395 382.387 Q349.934 382.235 349.934 381.112 L349.934 381 L349.395 381 L349.395 379.613 L350.782 379.613 L350.782 380.815 Q350.782 382.662 349.395 382.802 Z M355.515 381.208 Q354.229 381.208 353.435 379.998 Q352.64 378.788 352.64 376.839 Q352.64 374.874 353.441 373.678 Q354.241 372.482 355.549 372.482 Q356.857 372.482 357.658 373.678 Q358.458 374.874 358.458 376.822 Q358.458 378.821 357.658 380.015 Q356.857 381.208 355.515 381.208 Z M355.527 380.377 Q357.284 380.377 357.284 376.805 Q357.284 373.313 355.549 373.313 Q353.82 373.313 353.82 376.839 Q353.82 380.377 355.527 380.377 Z M362.787 381.208 Q361.501 381.208 360.707 379.998 Q359.912 378.788 359.912 376.839 Q359.912 374.874 360.712 373.678 Q361.512 372.482 362.821 372.482 Q364.129 372.482 364.929 373.678 Q365.729 374.874 365.729 376.822 Q365.729 378.821 364.929 380.015 Q364.129 381.208 362.787 381.208 Z M362.798 380.377 Q364.556 380.377 364.556 376.805 Q364.556 373.313 362.821 373.313 Q361.091 373.313 361.091 376.839 Q361.091 380.377 362.798 380.377 Z M370.059 381.208 Q368.773 381.208 367.978 379.998 Q367.184 378.788 367.184 376.839 Q367.184 374.874 367.984 373.678 Q368.784 372.482 370.093 372.482 Q371.401 372.482 372.201 373.678 Q373.001 374.874 373.001 376.822 Q373.001 378.821 372.201 380.015 Q371.401 381.208 370.059 381.208 Z M370.07 380.377 Q371.828 380.377 371.828 376.805 Q371.828 373.313 370.093 373.313 Q368.363 373.313 368.363 376.839 Q368.363 380.377 370.07 380.377 Z" fill="#8C8478" fill-opacity="1"/>
<path d="M444 36 L444 363" fill="none" stroke="#E6DFD2" stroke-opacity="1" stroke-width="1" stroke-linecap="square" stroke-linejoin="miter"/>
<path d="M429.977 376.693 Q430.768 375.666 431.97 375.666 Q433.059 375.666 433.753 376.387 Q434.446 377.109 434.446 378.237 Q434.446 379.534 433.669 380.371 Q432.891 381.208 431.695 381.208 Q430.319 381.208 429.544 380.102 Q428.769 378.995 428.769 377.03 Q428.769 374.868 429.659 373.672 Q430.549 372.476 432.167 372.476 Q432.908 372.476 434.02 372.791 L434.02 373.756 Q432.846 373.307 432.099 373.307 Q429.977 373.307 429.977 376.693 Z M433.334 378.484 Q433.334 377.541 432.911 377.002 Q432.487 376.463 431.734 376.463 Q431.032 376.463 430.527 376.935 Q430.021 377.406 430.021 378.069 Q430.021 379.113 430.502 379.745 Q430.982 380.377 431.773 380.377 Q432.487 380.377 432.911 379.863 Q433.334 379.349 433.334 378.484 Z M436.395 382.802 L436.395 382.387 Q436.934 382.235 436.934 381.112 L436.934 381 L436.395 381 L436.395 379.613 L437.782 379.613 L437.782 380.815 Q437.782 382.662 436.395 382.802 Z M442.515 381.208 Q441.229 381.208 440.435 379.998 Q439.64 378.788 439.64 376.839 Q439.64 374.874 440.441 373.678 Q441.241 372.482 442.549 372.482 Q443.857 372.482 444.658 373.678 Q445.458 374.874 445.458 376.822 Q445.458 378.821 444.658 380.015 Q443.857 381.208 442.515 381.208 Z M442.527 380.377 Q444.284 380.377 444.284 376.805 Q444.284 373.313 442.549 373.313 Q440.82 373.313 440.82 376.839 Q440.82 380.377 442.527 380.377 Z M449.787 381.208 Q448.501 381.208 447.707 379.998 Q446.912 378.788 446.912 376.839 Q446.912 374.874 447.712 373.678 Q448.512 372.482 449.821 372.482 Q451.129 372.482 451.929 373.678 Q452.729 374.874 452.729 376.822 Q452.729 378.821 451.929 380.015 Q451.129 381.208 449.787 381.208 Z M449.798 380.377 Q451.556 380.377 451.556 376.805 Q451.556 373.313 449.821 373.313 Q448.091 373.313 448.091 376.839 Q448.091 380.377 449.798 380.377 Z M457.059 381.208 Q455.773 381.208 454.978 379.998 Q454.184 378.788 454.184 376.839 Q454.184 374.874 454.984 373.678 Q455.784 372.482 457.093 372.482 Q458.401 372.482 459.201 373.678 Q460.001 374.874 460.001 376.822 Q460.001 378.821 459.201 380.015 Q458.401 381.208 457.059 381.208 Z M457.07 380.377 Q458.828 380.377 458.828 376.805 Q458.828 373.313 457.093 373.313 Q455.363 373.313 455.363 376.839 Q455.363 380.377 457.07 380.377 Z" fill="#8C8478" fill-opacity="1"/>
<path d="M530 36 L530 363" fill="none" stroke="#E6DFD2" stroke-opacity="1" stroke-width="1" stroke-linecap="square" stroke-linejoin="miter"/>
<path d="M516.645 376.474 Q515.426 375.626 515.426 374.599 Q515.426 373.655 516.117 373.066 Q516.808 372.476 517.919 372.476 Q518.947 372.476 519.584 372.976 Q520.222 373.476 520.222 374.273 Q520.222 375.48 518.672 376.474 Q520.553 377.395 520.553 378.849 Q520.553 379.894 519.764 380.551 Q518.975 381.208 517.729 381.208 Q516.504 381.208 515.749 380.587 Q514.994 379.967 514.994 378.956 Q514.994 377.462 516.645 376.474 Z M518.054 376.126 Q519.217 375.362 519.217 374.425 Q519.217 373.925 518.829 373.619 Q518.442 373.313 517.807 373.313 Q517.195 373.313 516.813 373.613 Q516.431 373.914 516.431 374.391 Q516.431 374.857 516.777 375.225 Q517.122 375.593 518.054 376.126 Z M517.246 376.923 Q516.577 377.44 516.339 377.825 Q516.1 378.209 516.1 378.782 Q516.1 379.495 516.561 379.936 Q517.021 380.377 517.773 380.377 Q518.498 380.377 518.955 380 Q519.413 379.624 519.413 379.023 Q519.413 378.541 519.13 378.206 Q518.846 377.872 518.032 377.389 Z M522.395 382.802 L522.395 382.387 Q522.934 382.235 522.934 381.112 L522.934 381 L522.395 381 L522.395 379.613 L523.782 379.613 L523.782 380.815 Q523.782 382.662 522.395 382.802 Z M528.515 381.208 Q527.229 381.208 526.435 379.998 Q525.64 378.788 525.64 376.839 Q525.64 374.874 526.441 373.678 Q527.241 372.482 528.549 372.482 Q529.857 372.482 530.658 373.678 Q531.458 374.874 531.458 376.822 Q531.458 378.821 530.658 380.015 Q529.857 381.208 528.515 381.208 Z M528.527 380.377 Q530.284 380.377 530.284 376.805 Q530.284 373.313 528.549 373.313 Q526.82 373.313 526.82 376.839 Q526.82 380.377 528.527 380.377 Z M535.787 381.208 Q534.501 381.208 533.707 379.998 Q532.912 378.788 532.912 376.839 Q532.912 374.874 533.712 373.678 Q534.512 372.482 535.821 372.482 Q537.129 372.482 537.929 373.678 Q538.729 374.874 538.729 376.822 Q538.729 378.821 537.929 380.015 Q537.129 381.208 535.787 381.208 Z M535.798 380.377 Q537.556 380.377 537.556 376.805 Q537.556 373.313 535.821 373.313 Q534.091 373.313 534.091 376.839 Q534.091 380.377 535.798 380.377 Z M543.059 381.208 Q541.773 381.208 540.978 379.998 Q540.184 378.788 540.184 376.839 Q540.184 374.874 540.984 373.678 Q541.784 372.482 543.093 372.482 Q544.401 372.482 545.201 373.678 Q546.001 374.874 546.001 376.822 Q546.001 378.821 545.201 380.015 Q544.401 381.208 543.059 381.208 Z M543.07 380.377 Q544.828 380.377 544.828 376.805 Q544.828 373.313 543.093 373.313 Q541.363 373.313 541.363 376.839 Q541.363 380.377 543.07 380.377 Z" fill="#8C8478" fill-opacity="1"/>
<path d="M616 36 L616 363" fill="none" stroke="#E6DFD2" stroke-opacity="1" stroke-width="1" stroke-linecap="square" stroke-linejoin="miter"/>
<path d="M598.729 381 L598.729 380.169 L600.392 380.169 L600.392 373.61 L598.729 374.026 L598.729 373.172 L601.503 372.482 L601.503 380.169 L603.166 380.169 L603.166 381 Z M607.877 381.208 Q606.591 381.208 605.796 379.998 Q605.002 378.788 605.002 376.839 Q605.002 374.874 605.802 373.678 Q606.602 372.482 607.91 372.482 Q609.219 372.482 610.019 373.678 Q610.819 374.874 610.819 376.822 Q610.819 378.821 610.019 380.015 Q609.219 381.208 607.877 381.208 Z M607.888 380.377 Q609.646 380.377 609.646 376.805 Q609.646 373.313 607.91 373.313 Q606.181 373.313 606.181 376.839 Q606.181 380.377 607.888 380.377 Z M612.667 382.802 L612.667 382.387 Q613.206 382.235 613.206 381.112 L613.206 381 L612.667 381 L612.667 379.613 L614.053 379.613 L614.053 380.815 Q614.053 382.662 612.667 382.802 Z M618.787 381.208 Q617.501 381.208 616.707 379.998 Q615.912 378.788 615.912 376.839 Q615.912 374.874 616.712 373.678 Q617.512 372.482 618.821 372.482 Q620.129 372.482 620.929 373.678 Q621.729 374.874 621.729 376.822 Q621.729 378.821 620.929 380.015 Q620.129 381.208 618.787 381.208 Z M618.798 380.377 Q620.556 380.377 620.556 376.805 Q620.556 373.313 618.821 373.313 Q617.091 373.313 617.091 376.839 Q617.091 380.377 618.798 380.377 Z M626.059 381.208 Q624.773 381.208 623.978 379.998 Q623.184 378.788 623.184 376.839 Q623.184 374.874 623.984 373.678 Q624.784 372.482 626.093 372.482 Q627.401 372.482 628.201 373.678 Q629.001 374.874 629.001 376.822 Q629.001 378.821 628.201 380.015 Q627.401 381.208 626.059 381.208 Z M626.07 380.377 Q627.828 380.377 627.828 376.805 Q627.828 373.313 626.093 373.313 Q624.363 373.313 624.363 376.839 Q624.363 380.377 626.07 380.377 Z M633.331 381.208 Q632.045 381.208 631.25 379.998 Q630.456 378.788 630.456 376.839 Q630.456 374.874 631.256 373.678 Q632.056 372.482 633.364 372.482 Q634.673 372.482 635.473 373.678 Q636.273 374.874 636.273 376.822 Q636.273 378.821 635.473 380.015 Q634.673 381.208 633.331 381.208 Z M633.342 380.377 Q635.099 380.377 635.099 376.805 Q635.099 373.313 633.364 373.313 Q631.635 373.313 631.635 376.839 Q631.635 380.377 633.342 380.377 Z" fill="#8C8478" fill-opacity="1"/>
</svg>
