<svg xmlns="http://www.w3.org/2000/svg" width="640" height="400" viewBox="0 0 640 400">
<defs>
<clipPath id="c1" clipPathUnits="userSpaceOnUse"><path d="M43 36 L616 36 L616 363 L43 363 L43 36 Z"/></clipPath>
</defs>
<path d="M0 0 L640 0 L640 400 L0 400 L0 0 Z" fill="#FAF6EF" fill-opacity="1"/>
<path d="M17.174 21 L17.174 11.605 L20.691 11.605 Q23.554 11.605 23.554 13.935 Q23.554 14.805 23.068 15.519 Q22.583 16.233 21.732 16.614 L24.804 21 L22.424 21 L20.094 17.16 L19.015 17.16 L19.015 21 Z M19.015 15.871 L19.466 15.871 Q21.592 15.871 21.592 14.151 Q21.592 12.894 19.694 12.894 L19.015 12.894 Z M31.818 20.765 Q30.479 21.159 29.279 21.159 Q27.534 21.159 26.524 20.168 Q25.515 19.178 25.515 17.464 Q25.515 15.846 26.439 14.859 Q27.362 13.872 28.879 13.872 Q30.409 13.872 31.114 14.836 Q31.818 15.801 31.818 17.89 L27.496 17.89 Q27.686 19.883 29.686 19.883 Q30.631 19.883 31.818 19.445 Z M27.47 16.83 L29.971 16.83 Q29.971 15.046 28.822 15.046 Q27.654 15.046 27.47 16.83 Z M33.577 20.778 L33.577 19.4 Q34.973 19.984 35.963 19.984 Q37.119 19.984 37.119 19.197 Q37.119 18.689 36.167 18.309 L35.532 18.055 Q34.497 17.636 34.053 17.153 Q33.608 16.671 33.608 15.96 Q33.608 14.97 34.364 14.421 Q35.119 13.872 36.478 13.872 Q37.328 13.872 38.502 14.119 L38.502 15.439 Q37.373 15.046 36.63 15.046 Q35.462 15.046 35.462 15.77 Q35.462 16.246 36.325 16.576 L36.871 16.785 Q38.096 17.249 38.575 17.725 Q39.055 18.201 39.055 18.95 Q39.055 19.934 38.239 20.546 Q37.423 21.159 36.116 21.159 Q34.859 21.159 33.577 20.778 Z M41.111 23.507 L41.111 14.03 L42.99 14.03 L42.99 15.344 Q43.714 13.872 45.269 13.872 Q46.526 13.872 47.246 14.792 Q47.967 15.712 47.967 17.325 Q47.967 19.077 47.154 20.118 Q46.342 21.159 44.977 21.159 Q43.879 21.159 42.99 20.295 L42.99 23.507 Z M42.99 19.178 Q43.676 19.94 44.45 19.94 Q45.142 19.94 45.555 19.27 Q45.967 18.601 45.967 17.483 Q45.967 15.344 44.59 15.344 Q43.758 15.344 42.99 16.417 Z M52.651 21.159 Q51.02 21.159 50.058 20.172 Q49.097 19.185 49.097 17.515 Q49.097 15.827 50.065 14.849 Q51.033 13.872 52.696 13.872 Q54.365 13.872 55.333 14.849 Q56.301 15.827 56.301 17.502 Q56.301 19.216 55.33 20.188 Q54.359 21.159 52.651 21.159 Z M52.683 19.984 Q54.302 19.984 54.302 17.502 Q54.302 16.366 53.873 15.706 Q53.445 15.046 52.696 15.046 Q51.953 15.046 51.525 15.706 Q51.096 16.366 51.096 17.515 Q51.096 18.651 51.521 19.318 Q51.947 19.984 52.683 19.984 Z M58.028 21 L58.028 14.03 L59.907 14.03 L59.907 15.344 Q60.827 13.872 62.281 13.872 Q63.214 13.872 63.753 14.462 Q64.293 15.052 64.293 16.074 L64.293 21 L62.414 21 L62.414 16.538 Q62.414 15.351 61.627 15.351 Q60.732 15.351 59.907 16.614 L59.907 21 Z M66.381 20.778 L66.381 19.4 Q67.778 19.984 68.768 19.984 Q69.923 19.984 69.923 19.197 Q69.923 18.689 68.971 18.309 L68.336 18.055 Q67.302 17.636 66.857 17.153 Q66.413 16.671 66.413 15.96 Q66.413 14.97 67.168 14.421 Q67.924 13.872 69.282 13.872 Q70.133 13.872 71.307 14.119 L71.307 15.439 Q70.177 15.046 69.435 15.046 Q68.267 15.046 68.267 15.77 Q68.267 16.246 69.13 16.576 L69.676 16.785 Q70.901 17.249 71.38 17.725 Q71.859 18.201 71.859 18.95 Q71.859 19.934 71.044 20.546 Q70.228 21.159 68.92 21.159 Q67.664 21.159 66.381 20.778 Z M79.591 20.765 Q78.251 21.159 77.052 21.159 Q75.306 21.159 74.297 20.168 Q73.288 19.178 73.288 17.464 Q73.288 15.846 74.211 14.859 Q75.135 13.872 76.652 13.872 Q78.182 13.872 78.886 14.836 Q79.591 15.801 79.591 17.89 L75.268 17.89 Q75.458 19.883 77.458 19.883 Q78.404 19.883 79.591 19.445 Z M75.243 16.83 L77.744 16.83 Q77.744 15.046 76.595 15.046 Q75.427 15.046 75.243 16.83 Z M89.411 20.962 Q88.738 21.159 88.351 21.159 Q85.907 21.159 85.907 18.874 L85.907 15.205 L85.126 15.205 L85.126 14.03 L85.907 14.03 L85.907 12.856 L87.786 12.64 L87.786 14.03 L89.277 14.03 L89.277 15.205 L87.786 15.205 L87.786 18.626 Q87.786 19.908 88.833 19.908 Q89.074 19.908 89.411 19.819 Z M91.086 21 L91.086 14.03 L92.965 14.03 L92.965 21 Z M91.086 12.856 L91.086 11.288 L92.965 11.288 L92.965 12.856 Z M95.314 21 L95.314 14.03 L97.117 14.03 L97.117 15.344 Q97.942 13.872 99.465 13.872 Q100.252 13.872 100.76 14.259 Q101.268 14.646 101.382 15.344 Q102.36 13.872 103.744 13.872 Q105.654 13.872 105.654 15.979 L105.654 21 L103.852 21 L103.852 16.595 Q103.852 15.357 103.026 15.357 Q102.182 15.357 101.382 16.576 L101.382 21 L99.58 21 L99.58 16.595 Q99.58 15.351 98.748 15.351 Q97.917 15.351 97.117 16.576 L97.117 21 Z M113.595 20.765 Q112.256 21.159 111.056 21.159 Q109.311 21.159 108.301 20.168 Q107.292 19.178 107.292 17.464 Q107.292 15.846 108.216 14.859 Q109.139 13.872 110.656 13.872 Q112.186 13.872 112.891 14.836 Q113.595 15.801 113.595 17.89 L109.272 17.89 Q109.463 19.883 111.462 19.883 Q112.408 19.883 113.595 19.445 Z M109.247 16.83 L111.748 16.83 Q111.748 15.046 110.599 15.046 Q109.431 15.046 109.247 16.83 Z" fill="#2B2620" fill-opacity="1"/>
<path d="M124.106 21 L124.106 14.902 L125.212 14.902 L125.212 16.047 Q126.021 14.767 127.29 14.767 Q128.514 14.767 128.958 16.047 Q129.744 14.761 131.002 14.761 Q131.81 14.761 132.254 15.236 Q132.698 15.71 132.698 16.564 L132.698 21 L131.586 21 L131.586 16.738 Q131.586 15.694 130.76 15.694 Q129.901 15.694 128.958 16.912 L128.958 21 L127.846 21 L127.846 16.738 Q127.846 15.688 127.004 15.688 Q126.167 15.688 125.212 16.912 L125.212 21 Z M134.843 21 L134.843 14.902 L135.949 14.902 L135.949 21 Z M134.843 13.796 L134.843 12.689 L135.949 12.689 L135.949 13.796 Z M138.167 21 L138.167 12.134 L139.273 12.134 L139.273 21 Z M141.491 21 L141.491 12.134 L142.597 12.134 L142.597 21 Z M144.815 21 L144.815 14.902 L145.921 14.902 L145.921 21 Z M144.815 13.796 L144.815 12.689 L145.921 12.689 L145.921 13.796 Z M149.757 21.14 Q148.999 21.14 147.915 20.787 L147.915 19.77 Q148.999 20.309 149.802 20.309 Q150.279 20.309 150.593 20.051 Q150.908 19.793 150.908 19.405 Q150.908 18.838 150.026 18.468 L149.38 18.192 Q147.948 17.597 147.948 16.48 Q147.948 15.682 148.513 15.225 Q149.077 14.767 150.06 14.767 Q150.571 14.767 151.323 14.907 L151.553 14.952 L151.553 15.873 Q150.627 15.598 150.082 15.598 Q149.015 15.598 149.015 16.373 Q149.015 16.873 149.824 17.215 L150.357 17.44 Q151.261 17.822 151.638 18.246 Q152.014 18.67 152.014 19.304 Q152.014 20.107 151.379 20.624 Q150.745 21.14 149.757 21.14 Z M158.471 20.803 Q157.36 21.14 156.568 21.14 Q155.22 21.14 154.37 20.245 Q153.519 19.349 153.519 17.923 Q153.519 16.536 154.268 15.649 Q155.018 14.761 156.186 14.761 Q157.292 14.761 157.896 15.548 Q158.5 16.334 158.5 17.782 L158.494 18.125 L154.647 18.125 Q154.889 20.298 156.776 20.298 Q157.466 20.298 158.471 19.927 Z M154.698 17.294 L157.388 17.294 Q157.388 15.593 156.119 15.593 Q154.844 15.593 154.698 17.294 Z M162.79 21.14 Q161.554 21.14 160.74 20.225 Q159.926 19.31 159.926 17.917 Q159.926 16.429 160.732 15.598 Q161.537 14.767 162.98 14.767 Q163.694 14.767 164.575 14.964 L164.575 15.89 Q163.637 15.615 163.048 15.615 Q162.2 15.615 161.686 16.252 Q161.172 16.89 161.172 17.951 Q161.172 18.979 161.7 19.613 Q162.228 20.248 163.082 20.248 Q163.84 20.248 164.643 19.86 L164.643 20.815 Q163.57 21.14 162.79 21.14 Z M168.686 21.14 Q167.377 21.14 166.597 20.273 Q165.816 19.405 165.816 17.951 Q165.816 16.48 166.599 15.623 Q167.383 14.767 168.725 14.767 Q170.067 14.767 170.85 15.623 Q171.634 16.48 171.634 17.94 Q171.634 19.433 170.847 20.287 Q170.061 21.14 168.686 21.14 Z M168.702 20.309 Q170.46 20.309 170.46 17.94 Q170.46 15.598 168.725 15.598 Q166.995 15.598 166.995 17.951 Q166.995 20.309 168.702 20.309 Z M173.363 21 L173.363 14.902 L174.469 14.902 L174.469 16.047 Q175.345 14.767 176.614 14.767 Q177.406 14.767 177.878 15.27 Q178.349 15.772 178.349 16.62 L178.349 21 L177.243 21 L177.243 16.979 Q177.243 16.3 177.044 16.011 Q176.844 15.722 176.384 15.722 Q175.368 15.722 174.469 17.052 L174.469 21 Z M184.414 21 L184.414 19.854 Q183.74 21.14 182.381 21.14 Q181.281 21.14 180.649 20.337 Q180.017 19.534 180.017 18.142 Q180.017 16.62 180.733 15.694 Q181.449 14.767 182.617 14.767 Q183.701 14.767 184.414 15.598 L184.414 12.134 L185.526 12.134 L185.526 21 Z M184.414 16.356 Q183.555 15.598 182.785 15.598 Q181.196 15.598 181.196 18.03 Q181.196 20.169 182.611 20.169 Q183.532 20.169 184.414 19.164 Z M189.355 21.14 Q188.597 21.14 187.513 20.787 L187.513 19.77 Q188.597 20.309 189.4 20.309 Q189.877 20.309 190.192 20.051 Q190.506 19.793 190.506 19.405 Q190.506 18.838 189.625 18.468 L188.979 18.192 Q187.547 17.597 187.547 16.48 Q187.547 15.682 188.111 15.225 Q188.676 14.767 189.658 14.767 Q190.169 14.767 190.922 14.907 L191.152 14.952 L191.152 15.873 Q190.226 15.598 189.681 15.598 Q188.614 15.598 188.614 16.373 Q188.614 16.873 189.423 17.215 L189.956 17.44 Q190.86 17.822 191.236 18.246 Q191.613 18.67 191.613 19.304 Q191.613 20.107 190.978 20.624 Q190.344 21.14 189.355 21.14 Z M193.617 22.802 L193.617 22.387 Q194.156 22.235 194.156 21.112 L194.156 21 L193.617 21 L193.617 19.613 L195.004 19.613 L195.004 20.815 Q195.004 22.662 193.617 22.802 Z M202.416 16.474 Q201.198 15.626 201.198 14.599 Q201.198 13.655 201.888 13.066 Q202.579 12.476 203.691 12.476 Q204.719 12.476 205.356 12.976 Q205.993 13.476 205.993 14.273 Q205.993 15.48 204.443 16.474 Q206.324 17.395 206.324 18.849 Q206.324 19.894 205.536 20.551 Q204.747 21.208 203.5 21.208 Q202.276 21.208 201.521 20.587 Q200.765 19.967 200.765 18.956 Q200.765 17.462 202.416 16.474 Z M203.826 16.126 Q204.988 15.362 204.988 14.425 Q204.988 13.925 204.601 13.619 Q204.213 13.313 203.579 13.313 Q202.967 13.313 202.585 13.613 Q202.203 13.914 202.203 14.391 Q202.203 14.857 202.548 15.225 Q202.894 15.593 203.826 16.126 Z M203.017 16.923 Q202.349 17.44 202.11 17.825 Q201.872 18.209 201.872 18.782 Q201.872 19.495 202.332 19.936 Q202.792 20.377 203.545 20.377 Q204.269 20.377 204.727 20 Q205.185 19.624 205.185 19.023 Q205.185 18.541 204.901 18.206 Q204.617 17.872 203.803 17.389 Z M208.166 22.802 L208.166 22.387 Q208.705 22.235 208.705 21.112 L208.705 21 L208.166 21 L208.166 19.613 L209.553 19.613 L209.553 20.815 Q209.553 22.662 208.166 22.802 Z M214.287 21.208 Q213.001 21.208 212.206 19.998 Q211.412 18.788 211.412 16.839 Q211.412 14.874 212.212 13.678 Q213.012 12.482 214.321 12.482 Q215.629 12.482 216.429 13.678 Q217.229 14.874 217.229 16.822 Q217.229 18.821 216.429 20.015 Q215.629 21.208 214.287 21.208 Z M214.298 20.377 Q216.056 20.377 216.056 16.805 Q216.056 13.313 214.321 13.313 Q212.591 13.313 212.591 16.839 Q212.591 20.377 214.298 20.377 Z M221.559 21.208 Q220.273 21.208 219.478 19.998 Q218.684 18.788 218.684 16.839 Q218.684 14.874 219.484 13.678 Q220.284 12.482 221.592 12.482 Q222.901 12.482 223.701 13.678 Q224.501 14.874 224.501 16.822 Q224.501 18.821 223.701 20.015 Q222.901 21.208 221.559 21.208 Z M221.57 20.377 Q223.327 20.377 223.327 16.805 Q223.327 13.313 221.592 13.313 Q219.863 13.313 219.863 16.839 Q219.863 20.377 221.57 20.377 Z M228.83 21.208 Q227.544 21.208 226.75 19.998 Q225.955 18.788 225.955 16.839 Q225.955 14.874 226.755 13.678 Q227.556 12.482 228.864 12.482 Q230.172 12.482 230.973 13.678 Q231.773 14.874 231.773 16.822 Q231.773 18.821 230.973 20.015 Q230.172 21.208 228.83 21.208 Z M228.842 20.377 Q230.599 20.377 230.599 16.805 Q230.599 13.313 228.864 13.313 Q227.135 13.313 227.135 16.839 Q227.135 20.377 228.842 20.377 Z M237.242 21 L237.242 14.902 L238.348 14.902 L238.348 16.047 Q239.005 14.767 240.257 14.767 Q240.426 14.767 240.611 14.795 L240.611 15.828 Q240.325 15.733 240.106 15.733 Q239.056 15.733 238.348 16.979 L238.348 21 Z M246.417 20.803 Q245.305 21.14 244.514 21.14 Q243.166 21.14 242.315 20.245 Q241.465 19.349 241.465 17.923 Q241.465 16.536 242.214 15.649 Q242.964 14.761 244.132 14.761 Q245.238 14.761 245.842 15.548 Q246.445 16.334 246.445 17.782 L246.44 18.125 L242.593 18.125 Q242.835 20.298 244.721 20.298 Q245.412 20.298 246.417 19.927 Z M242.644 17.294 L245.333 17.294 Q245.333 15.593 244.064 15.593 Q242.79 15.593 242.644 17.294 Z M252.268 23.218 L252.268 19.854 Q251.594 21.14 250.236 21.14 Q249.135 21.14 248.503 20.337 Q247.872 19.534 247.872 18.142 Q247.872 16.62 248.588 15.694 Q249.303 14.767 250.471 14.767 Q251.555 14.767 252.268 15.598 L252.268 14.902 L253.38 14.902 L253.38 23.218 Z M252.268 16.356 Q251.409 15.598 250.64 15.598 Q249.051 15.598 249.051 18.03 Q249.051 20.169 250.466 20.169 Q251.387 20.169 252.268 19.164 Z M259.405 21 L259.405 19.854 Q258.524 21.14 257.266 21.14 Q256.469 21.14 255.997 20.638 Q255.525 20.135 255.525 19.282 L255.525 14.902 L256.631 14.902 L256.631 18.922 Q256.631 19.607 256.831 19.897 Q257.03 20.186 257.496 20.186 Q258.507 20.186 259.405 18.855 L259.405 14.902 L260.511 14.902 L260.511 21 Z M267.199 20.803 Q266.087 21.14 265.296 21.14 Q263.948 21.14 263.097 20.245 Q262.247 19.349 262.247 17.923 Q262.247 16.536 262.996 15.649 Q263.746 14.761 264.914 14.761 Q266.02 14.761 266.624 15.548 Q267.227 16.334 267.227 17.782 L267.222 18.125 L263.375 18.125 Q263.617 20.298 265.503 20.298 Q266.194 20.298 267.199 19.927 Z M263.426 17.294 L266.115 17.294 Q266.115 15.593 264.846 15.593 Q263.572 15.593 263.426 17.294 Z M270.754 21.14 Q269.996 21.14 268.912 20.787 L268.912 19.77 Q269.996 20.309 270.799 20.309 Q271.276 20.309 271.59 20.051 Q271.905 19.793 271.905 19.405 Q271.905 18.838 271.023 18.468 L270.377 18.192 Q268.946 17.597 268.946 16.48 Q268.946 15.682 269.51 15.225 Q270.074 14.767 271.057 14.767 Q271.568 14.767 272.32 14.907 L272.551 14.952 L272.551 15.873 Q271.624 15.598 271.079 15.598 Q270.012 15.598 270.012 16.373 Q270.012 16.873 270.821 17.215 L271.354 17.44 Q272.259 17.822 272.635 18.246 Q273.011 18.67 273.011 19.304 Q273.011 20.107 272.376 20.624 Q271.742 21.14 270.754 21.14 Z M276.829 21.14 Q275.987 21.14 275.515 20.657 Q275.044 20.175 275.044 19.315 L275.044 15.733 L274.28 15.733 L274.28 14.902 L275.044 14.902 L275.044 13.796 L276.15 13.689 L276.15 14.902 L277.745 14.902 L277.745 15.733 L276.15 15.733 L276.15 19.113 Q276.15 20.309 277.183 20.309 Q277.402 20.309 277.717 20.236 L277.717 21 Q277.206 21.14 276.829 21.14 Z M280.917 21.14 Q280.159 21.14 279.075 20.787 L279.075 19.77 Q280.159 20.309 280.962 20.309 Q281.439 20.309 281.754 20.051 Q282.068 19.793 282.068 19.405 Q282.068 18.838 281.187 18.468 L280.541 18.192 Q279.109 17.597 279.109 16.48 Q279.109 15.682 279.673 15.225 Q280.238 14.767 281.22 14.767 Q281.731 14.767 282.484 14.907 L282.714 14.952 L282.714 15.873 Q281.788 15.598 281.243 15.598 Q280.176 15.598 280.176 16.373 Q280.176 16.873 280.985 17.215 L281.518 17.44 Q282.422 17.822 282.798 18.246 Q283.175 18.67 283.175 19.304 Q283.175 20.107 282.54 20.624 Q281.906 21.14 280.917 21.14 Z" fill="#8C8478" fill-opacity="1"/>
<path d="M43 363 L616 363" fill="none" stroke="#B9B2A5" stroke-opacity="1" stroke-width="1" stroke-linecap="square" stroke-linejoin="miter"/>
<path d="M33.605 368.208 Q32.319 368.208 31.525 366.998 Q30.73 365.788 30.73 363.839 Q30.73 361.874 31.53 360.678 Q32.33 359.482 33.639 359.482 Q34.947 359.482 35.747 360.678 Q36.547 361.874 36.547 363.822 Q36.547 365.821 35.747 367.015 Q34.947 368.208 33.605 368.208 Z M33.616 367.377 Q35.374 367.377 35.374 363.805 Q35.374 360.313 33.639 360.313 Q31.909 360.313 31.909 363.839 Q31.909 367.377 33.616 367.377 Z" fill="#8C8478" fill-opacity="1"/>
<path d="M43 327 L616 327" fill="none" stroke="#E6DFD2" stroke-opacity="1" stroke-width="1" stroke-linecap="square" stroke-linejoin="miter"/>
<path d="M17.729 332 L17.729 331.169 L19.392 331.169 L19.392 324.61 L17.729 325.026 L17.729 324.172 L20.503 323.482 L20.503 331.169 L22.166 331.169 L22.166 332 Z M26.877 332.208 Q25.591 332.208 24.796 330.998 Q24.002 329.788 24.002 327.839 Q24.002 325.874 24.802 324.678 Q25.602 323.482 26.91 323.482 Q28.219 323.482 29.019 324.678 Q29.819 325.874 29.819 327.822 Q29.819 329.821 29.019 331.015 Q28.219 332.208 26.877 332.208 Z M26.888 331.377 Q28.646 331.377 28.646 327.805 Q28.646 324.313 26.91 324.313 Q25.181 324.313 25.181 327.839 Q25.181 331.377 26.888 331.377 Z M34.148 332.208 Q32.863 332.208 32.068 330.998 Q31.273 329.788 31.273 327.839 Q31.273 325.874 32.074 324.678 Q32.874 323.482 34.182 323.482 Q35.49 323.482 36.291 324.678 Q37.091 325.874 37.091 327.822 Q37.091 329.821 36.291 331.015 Q35.49 332.208 34.148 332.208 Z M34.16 331.377 Q35.917 331.377 35.917 327.805 Q35.917 324.313 34.182 324.313 Q32.453 324.313 32.453 327.839 Q32.453 331.377 34.16 331.377 Z" fill="#8C8478" fill-opacity="1"/>
<path d="M43 290 L616 290" fill="none" stroke="#E6DFD2" stroke-opacity="1" stroke-width="1" stroke-linecap="square" stroke-linejoin="miter"/>
<path d="M16.955 295 L16.955 294.029 Q17.438 292.9 18.909 291.569 L19.543 291.002 Q20.767 289.896 20.767 288.806 Q20.767 288.11 20.349 287.711 Q19.931 287.313 19.201 287.313 Q18.336 287.313 17.162 287.981 L17.162 287.004 Q18.269 286.482 19.358 286.482 Q20.526 286.482 21.233 287.111 Q21.941 287.74 21.941 288.778 Q21.941 289.525 21.584 290.104 Q21.228 290.682 20.256 291.507 L19.83 291.872 Q18.499 293.001 18.291 294.029 L21.902 294.029 L21.902 295 Z M26.877 295.208 Q25.591 295.208 24.796 293.998 Q24.002 292.788 24.002 290.839 Q24.002 288.874 24.802 287.678 Q25.602 286.482 26.91 286.482 Q28.219 286.482 29.019 287.678 Q29.819 288.874 29.819 290.822 Q29.819 292.821 29.019 294.015 Q28.219 295.208 26.877 295.208 Z M26.888 294.377 Q28.646 294.377 28.646 290.805 Q28.646 287.313 26.91 287.313 Q25.181 287.313 25.181 290.839 Q25.181 294.377 26.888 294.377 Z M34.148 295.208 Q32.863 295.208 32.068 293.998 Q31.273 292.788 31.273 290.839 Q31.273 288.874 32.074 287.678 Q32.874 286.482 34.182 286.482 Q35.49 286.482 36.291 287.678 Q37.091 288.874 37.091 290.822 Q37.091 292.821 36.291 294.015 Q35.49 295.208 34.148 295.208 Z M34.16 294.377 Q35.917 294.377 35.917 290.805 Q35.917 287.313 34.182 287.313 Q32.453 287.313 32.453 290.839 Q32.453 294.377 34.16 294.377 Z" fill="#8C8478" fill-opacity="1"/>
<path d="M43 254 L616 254" fill="none" stroke="#E6DFD2" stroke-opacity="1" stroke-width="1" stroke-linecap="square" stroke-linejoin="miter"/>
<path d="M17.168 258.938 L17.168 257.905 Q18.358 258.377 19.043 258.377 Q19.835 258.377 20.332 257.913 Q20.829 257.45 20.829 256.715 Q20.829 254.963 18.375 254.963 L17.937 254.963 L17.937 254.216 L18.325 254.21 Q20.627 254.21 20.627 252.587 Q20.627 251.313 19.111 251.313 Q18.28 251.313 17.28 251.779 L17.28 250.813 Q18.263 250.482 19.189 250.482 Q21.739 250.482 21.739 252.408 Q21.739 253.873 20.004 254.497 Q22.014 254.963 22.014 256.698 Q22.014 257.871 21.239 258.54 Q20.464 259.208 19.111 259.208 Q18.342 259.208 17.168 258.938 Z M26.877 259.208 Q25.591 259.208 24.796 257.998 Q24.002 256.788 24.002 254.839 Q24.002 252.874 24.802 251.678 Q25.602 250.482 26.91 250.482 Q28.219 250.482 29.019 251.678 Q29.819 252.874 29.819 254.822 Q29.819 256.821 29.019 258.015 Q28.219 259.208 26.877 259.208 Z M26.888 258.377 Q28.646 258.377 28.646 254.805 Q28.646 251.313 26.91 251.313 Q25.181 251.313 25.181 254.839 Q25.181 258.377 26.888 258.377 Z M34.148 259.208 Q32.863 259.208 32.068 257.998 Q31.273 256.788 31.273 254.839 Q31.273 252.874 32.074 251.678 Q32.874 250.482 34.182 250.482 Q35.49 250.482 36.291 251.678 Q37.091 252.874 37.091 254.822 Q37.091 256.821 36.291 258.015 Q35.49 259.208 34.148 259.208 Z M34.16 258.377 Q35.917 258.377 35.917 254.805 Q35.917 251.313 34.182 251.313 Q32.453 251.313 32.453 254.839 Q32.453 258.377 34.16 258.377 Z" fill="#8C8478" fill-opacity="1"/>
<path d="M43 218 L616 218" fill="none" stroke="#E6DFD2" stroke-opacity="1" stroke-width="1" stroke-linecap="square" stroke-linejoin="miter"/>
<path d="M20.329 223 L20.329 220.647 L16.59 220.647 L16.59 219.811 L20.329 214.689 L21.368 214.689 L21.368 219.743 L22.48 219.743 L22.48 220.647 L21.368 220.647 L21.368 223 Z M17.673 219.743 L20.402 219.743 L20.402 216.048 Z M26.877 223.208 Q25.591 223.208 24.796 221.998 Q24.002 220.788 24.002 218.839 Q24.002 216.874 24.802 215.678 Q25.602 214.482 26.91 214.482 Q28.219 214.482 29.019 215.678 Q29.819 216.874 29.819 218.822 Q29.819 220.821 29.019 222.015 Q28.219 223.208 26.877 223.208 Z M26.888 222.377 Q28.646 222.377 28.646 218.805 Q28.646 215.313 26.91 215.313 Q25.181 215.313 25.181 218.839 Q25.181 222.377 26.888 222.377 Z M34.148 223.208 Q32.863 223.208 32.068 221.998 Q31.273 220.788 31.273 218.839 Q31.273 216.874 32.074 215.678 Q32.874 214.482 34.182 214.482 Q35.49 214.482 36.291 215.678 Q37.091 216.874 37.091 218.822 Q37.091 220.821 36.291 222.015 Q35.49 223.208 34.148 223.208 Z M34.16 222.377 Q35.917 222.377 35.917 218.805 Q35.917 215.313 34.182 215.313 Q32.453 215.313 32.453 218.839 Q32.453 222.377 34.16 222.377 Z" fill="#8C8478" fill-opacity="1"/>
<path d="M43 181 L616 181" fill="none" stroke="#E6DFD2" stroke-opacity="1" stroke-width="1" stroke-linecap="square" stroke-linejoin="miter"/>
<path d="M17.398 186.034 L17.398 185.045 Q18.224 185.377 18.97 185.377 Q19.79 185.377 20.259 184.894 Q20.728 184.411 20.728 183.563 Q20.728 181.693 18.151 181.693 Q17.859 181.693 17.539 181.732 L17.539 177.689 L21.744 177.689 L21.744 178.655 L18.51 178.655 L18.51 180.845 Q20.11 180.845 21.009 181.581 Q21.907 182.316 21.907 183.619 Q21.907 184.832 21.09 185.52 Q20.273 186.208 18.824 186.208 Q18.196 186.208 17.398 186.034 Z M26.877 186.208 Q25.591 186.208 24.796 184.998 Q24.002 183.788 24.002 181.839 Q24.002 179.874 24.802 178.678 Q25.602 177.482 26.91 177.482 Q28.219 177.482 29.019 178.678 Q29.819 179.874 29.819 181.822 Q29.819 183.821 29.019 185.015 Q28.219 186.208 26.877 186.208 Z M26.888 185.377 Q28.646 185.377 28.646 181.805 Q28.646 178.313 26.91 178.313 Q25.181 178.313 25.181 181.839 Q25.181 185.377 26.888 185.377 Z M34.148 186.208 Q32.863 186.208 32.068 184.998 Q31.273 183.788 31.273 181.839 Q31.273 179.874 32.074 178.678 Q32.874 177.482 34.182 177.482 Q35.49 177.482 36.291 178.678 Q37.091 179.874 37.091 181.822 Q37.091 183.821 36.291 185.015 Q35.49 186.208 34.148 186.208 Z M34.16 185.377 Q35.917 185.377 35.917 181.805 Q35.917 178.313 34.182 178.313 Q32.453 178.313 32.453 181.839 Q32.453 185.377 34.16 185.377 Z" fill="#8C8478" fill-opacity="1"/>
<path d="M43 145 L616 145" fill="none" stroke="#E6DFD2" stroke-opacity="1" stroke-width="1" stroke-linecap="square" stroke-linejoin="miter"/>
<path d="M17.977 145.693 Q18.768 144.666 19.97 144.666 Q21.059 144.666 21.753 145.387 Q22.446 146.109 22.446 147.237 Q22.446 148.534 21.669 149.371 Q20.891 150.208 19.695 150.208 Q18.319 150.208 17.544 149.102 Q16.769 147.995 16.769 146.03 Q16.769 143.868 17.659 142.672 Q18.549 141.476 20.167 141.476 Q20.908 141.476 22.02 141.791 L22.02 142.756 Q20.846 142.307 20.099 142.307 Q17.977 142.307 17.977 145.693 Z M21.334 147.484 Q21.334 146.541 20.911 146.002 Q20.487 145.463 19.734 145.463 Q19.032 145.463 18.527 145.935 Q18.021 146.406 18.021 147.069 Q18.021 148.113 18.502 148.745 Q18.982 149.377 19.773 149.377 Q20.487 149.377 20.911 148.863 Q21.334 148.349 21.334 147.484 Z M26.877 150.208 Q25.591 150.208 24.796 148.998 Q24.002 147.788 24.002 145.839 Q24.002 143.874 24.802 142.678 Q25.602 141.482 26.91 141.482 Q28.219 141.482 29.019 142.678 Q29.819 143.874 29.819 145.822 Q29.819 147.821 29.019 149.015 Q28.219 150.208 26.877 150.208 Z M26.888 149.377 Q28.646 149.377 28.646 145.805 Q28.646 142.313 26.91 142.313 Q25.181 142.313 25.181 145.839 Q25.181 149.377 26.888 149.377 Z M34.148 150.208 Q32.863 150.208 32.068 148.998 Q31.273 147.788 31.273 145.839 Q31.273 143.874 32.074 142.678 Q32.874 141.482 34.182 141.482 Q35.49 141.482 36.291 142.678 Q37.091 143.874 37.091 145.822 Q37.091 147.821 36.291 149.015 Q35.49 150.208 34.148 150.208 Z M34.16 149.377 Q35.917 149.377 35.917 145.805 Q35.917 142.313 34.182 142.313 Q32.453 142.313 32.453 145.839 Q32.453 149.377 34.16 149.377 Z" fill="#8C8478" fill-opacity="1"/>
<path d="M43 109 L616 109" fill="none" stroke="#E6DFD2" stroke-opacity="1" stroke-width="1" stroke-linecap="square" stroke-linejoin="miter"/>
<path d="M17.729 114 Q17.892 113.029 18.193 112.321 Q18.493 111.614 19.257 110.378 L21.525 106.728 L17.247 106.728 L17.247 105.689 L22.581 105.689 L22.581 106.728 Q19.386 111.439 19.004 114 Z M26.877 114.208 Q25.591 114.208 24.796 112.998 Q24.002 111.788 24.002 109.839 Q24.002 107.874 24.802 106.678 Q25.602 105.482 26.91 105.482 Q28.219 105.482 29.019 106.678 Q29.819 107.874 29.819 109.822 Q29.819 111.821 29.019 113.015 Q28.219 114.208 26.877 114.208 Z M26.888 113.377 Q28.646 113.377 28.646 109.805 Q28.646 106.313 26.91 106.313 Q25.181 106.313 25.181 109.839 Q25.181 113.377 26.888 113.377 Z M34.148 114.208 Q32.863 114.208 32.068 112.998 Q31.273 111.788 31.273 109.839 Q31.273 107.874 32.074 106.678 Q32.874 105.482 34.182 105.482 Q35.49 105.482 36.291 106.678 Q37.091 107.874 37.091 109.822 Q37.091 111.821 36.291 113.015 Q35.49 114.208 34.148 114.208 Z M34.16 113.377 Q35.917 113.377 35.917 109.805 Q35.917 106.313 34.182 106.313 Q32.453 106.313 32.453 109.839 Q32.453 113.377 34.16 113.377 Z" fill="#8C8478" fill-opacity="1"/>
<path d="M43 72 L616 72" fill="none" stroke="#E6DFD2" stroke-opacity="1" stroke-width="1" stroke-linecap="square" stroke-linejoin="miter"/>
<path d="M18.645 72.474 Q17.426 71.626 17.426 70.599 Q17.426 69.655 18.117 69.066 Q18.808 68.476 19.919 68.476 Q20.947 68.476 21.584 68.976 Q22.222 69.476 22.222 70.273 Q22.222 71.48 20.672 72.474 Q22.553 73.395 22.553 74.849 Q22.553 75.894 21.764 76.551 Q20.975 77.208 19.729 77.208 Q18.504 77.208 17.749 76.587 Q16.994 75.967 16.994 74.956 Q16.994 73.462 18.645 72.474 Z M20.054 72.126 Q21.217 71.362 21.217 70.425 Q21.217 69.925 20.829 69.619 Q20.442 69.313 19.807 69.313 Q19.195 69.313 18.813 69.613 Q18.431 69.914 18.431 70.391 Q18.431 70.857 18.777 71.225 Q19.122 71.593 20.054 72.126 Z M19.246 72.923 Q18.577 73.44 18.339 73.825 Q18.1 74.209 18.1 74.782 Q18.1 75.495 18.561 75.936 Q19.021 76.377 19.773 76.377 Q20.498 76.377 20.955 76 Q21.413 75.624 21.413 75.023 Q21.413 74.541 21.13 74.206 Q20.846 73.872 20.032 73.389 Z M26.877 77.208 Q25.591 77.208 24.796 75.998 Q24.002 74.788 24.002 72.839 Q24.002 70.874 24.802 69.678 Q25.602 68.482 26.91 68.482 Q28.219 68.482 29.019 69.678 Q29.819 70.874 29.819 72.822 Q29.819 74.821 29.019 76.015 Q28.219 77.208 26.877 77.208 Z M26.888 76.377 Q28.646 76.377 28.646 72.805 Q28.646 69.313 26.91 69.313 Q25.181 69.313 25.181 72.839 Q25.181 76.377 26.888 76.377 Z M34.148 77.208 Q32.863 77.208 32.068 75.998 Q31.273 74.788 31.273 72.839 Q31.273 70.874 32.074 69.678 Q32.874 68.482 34.182 68.482 Q35.49 68.482 36.291 69.678 Q37.091 70.874 37.091 72.822 Q37.091 74.821 36.291 76.015 Q35.49 77.208 34.148 77.208 Z M34.16 76.377 Q35.917 76.377 35.917 72.805 Q35.917 69.313 34.182 69.313 Q32.453 69.313 32.453 72.839 Q32.453 76.377 34.16 76.377 Z" fill="#8C8478" fill-opacity="1"/>
<path d="M43 36 L616 36" fill="none" stroke="#E6DFD2" stroke-opacity="1" stroke-width="1" stroke-linecap="square" stroke-linejoin="miter"/>
<path d="M17.308 40.949 L17.308 40.012 Q18.364 40.377 19.105 40.377 Q20.138 40.377 20.72 39.498 Q21.301 38.619 21.301 37.052 Q20.458 38.091 19.386 38.091 Q18.336 38.091 17.606 37.319 Q16.876 36.547 16.876 35.435 Q16.876 34.161 17.654 33.321 Q18.431 32.482 19.611 32.482 Q20.964 32.482 21.744 33.568 Q22.525 34.655 22.525 36.542 Q22.525 38.687 21.573 39.947 Q20.621 41.208 18.999 41.208 Q18.347 41.208 17.308 40.949 Z M17.982 35.216 Q17.982 36.182 18.412 36.738 Q18.841 37.294 19.588 37.294 Q20.29 37.294 20.787 36.817 Q21.284 36.339 21.284 35.666 Q21.284 34.604 20.804 33.956 Q20.324 33.307 19.543 33.307 Q18.819 33.307 18.401 33.821 Q17.982 34.335 17.982 35.216 Z M26.877 41.208 Q25.591 41.208 24.796 39.998 Q24.002 38.788 24.002 36.839 Q24.002 34.874 24.802 33.678 Q25.602 32.482 26.91 32.482 Q28.219 32.482 29.019 33.678 Q29.819 34.874 29.819 36.822 Q29.819 38.821 29.019 40.015 Q28.219 41.208 26.877 41.208 Z M26.888 40.377 Q28.646 40.377 28.646 36.805 Q28.646 33.313 26.91 33.313 Q25.181 33.313 25.181 36.839 Q25.181 40.377 26.888 40.377 Z M34.148 41.208 Q32.863 41.208 32.068 39.998 Q31.273 38.788 31.273 36.839 Q31.273 34.874 32.074 33.678 Q32.874 32.482 34.182 32.482 Q35.49 32.482 36.291 33.678 Q37.091 34.874 37.091 36.822 Q37.091 38.821 36.291 40.015 Q35.49 41.208 34.148 41.208 Z M34.16 40.377 Q35.917 40.377 35.917 36.805 Q35.917 33.313 34.182 33.313 Q32.453 33.313 32.453 36.839 Q32.453 40.377 34.16 40.377 Z" fill="#8C8478" fill-opacity="1"/>
<path d="M54.61 347.74 L61.009 347.74 L61.009 363 L54.61 363 L54.61 347.74 Z" fill="#B1512D" fill-opacity="1" clip-path="url(#c1)"/>
<path d="M61.009 347.74 L63.009 347.74 L63.009 363 L61.009 363 L61.009 347.74 Z" fill="#FAF6EF" fill-opacity="1" clip-path="url(#c1)"/>
<path d="M63.009 292.877 L69.408 292.877 L69.408 363 L63.009 363 L63.009 292.877 Z" fill="#B1512D" fill-opacity="1" clip-path="url(#c1)"/>
<path d="M69.408 292.877 L71.408 292.877 L71.408 363 L69.408 363 L69.408 292.877 Z" fill="#FAF6EF" fill-opacity="1" clip-path="url(#c1)"/>
<path d="M71.408 190.053 L77.807 190.053 L77.807 363 L71.408 363 L71.408 190.053 Z" fill="#B1512D" fill-opacity="1" clip-path="url(#c1)"/>
<path d="M77.807 190.053 L79.807 190.053 L79.807 363 L77.807 363 L77.807 190.053 Z" fill="#FAF6EF" fill-opacity="1" clip-path="url(#c1)"/>
<path d="M79.807 118.477 L86.206 118.477 L86.206 363 L79.807 363 L79.807 118.477 Z" fill="#B1512D" fill-opacity="1" clip-path="url(#c1)"/>
<path d="M86.206 118.477 L88.206 118.477 L88.206 363 L86.206 363 L86.206 118.477 Z" fill="#FAF6EF" fill-opacity="1" clip-path="url(#c1)"/>
<path d="M88.206 45.447 L94.606 45.447 L94.606 363 L88.206 363 L88.206 45.447 Z" fill="#B1512D" fill-opacity="1" clip-path="url(#c1)"/>
<path d="M94.606 45.447 L96.606 45.447 L96.606 363 L94.606 363 L94.606 45.447 Z" fill="#FAF6EF" fill-opacity="1" clip-path="url(#c1)"/>
<path d="M96.606 59.98 L103.005 59.98 L103.005 363 L96.606 363 L96.606 59.98 Z" fill="#B1512D" fill-opacity="1" clip-path="url(#c1)"/>
<path d="M103.005 59.98 L105.005 59.98 L105.005 363 L103.005 363 L103.005 59.98 Z" fill="#FAF6EF" fill-opacity="1" clip-path="url(#c1)"/>
<path d="M105.005 82.507 L111.404 82.507 L111.404 363 L105.005 363 L105.005 82.507 Z" fill="#B1512D" fill-opacity="1" clip-path="url(#c1)"/>
<path d="M111.404 82.507 L113.404 82.507 L113.404 363 L111.404 363 L111.404 82.507 Z" fill="#FAF6EF" fill-opacity="1" clip-path="url(#c1)"/>
<path d="M113.404 110.483 L119.803 110.483 L119.803 363 L113.404 363 L113.404 110.483 Z" fill="#B1512D" fill-opacity="1" clip-path="url(#c1)"/>
<path d="M119.803 110.483 L121.803 110.483 L121.803 363 L119.803 363 L119.803 110.483 Z" fill="#FAF6EF" fill-opacity="1" clip-path="url(#c1)"/>
<path d="M121.803 137.733 L128.202 137.733 L128.202 363 L121.803 363 L121.803 137.733 Z" fill="#B1512D" fill-opacity="1" clip-path="url(#c1)"/>
<path d="M128.202 137.733 L130.202 137.733 L130.202 363 L128.202 363 L128.202 137.733 Z" fill="#FAF6EF" fill-opacity="1" clip-path="url(#c1)"/>
<path d="M130.202 164.257 L136.601 164.257 L136.601 363 L130.202 363 L130.202 164.257 Z" fill="#B1512D" fill-opacity="1" clip-path="url(#c1)"/>
<path d="M136.601 164.257 L138.601 164.257 L138.601 363 L136.601 363 L136.601 164.257 Z" fill="#FAF6EF" fill-opacity="1" clip-path="url(#c1)"/>
<path d="M138.601 204.223 L145 204.223 L145 363 L138.601 363 L138.601 204.223 Z" fill="#B1512D" fill-opacity="1" clip-path="url(#c1)"/>
<path d="M145 204.223 L147 204.223 L147 363 L145 363 L145 204.223 Z" fill="#FAF6EF" fill-opacity="1" clip-path="url(#c1)"/>
<path d="M147 240.557 L153.399 240.557 L153.399 363 L147 363 L147 240.557 Z" fill="#B1512D" fill-opacity="1" clip-path="url(#c1)"/>
<path d="M153.399 240.557 L155.399 240.557 L155.399 363 L153.399 363 L153.399 240.557 Z" fill="#FAF6EF" fill-opacity="1" clip-path="url(#c1)"/>
<path d="M155.399 254.727 L161.799 254.727 L161.799 363 L155.399 363 L155.399 254.727 Z" fill="#B1512D" fill-opacity="1" clip-path="url(#c1)"/>
<path d="M161.799 254.727 L163.799 254.727 L163.799 363 L161.799 363 L161.799 254.727 Z" fill="#FAF6EF" fill-opacity="1" clip-path="url(#c1)"/>
<path d="M163.799 273.62 L170.198 273.62 L170.198 363 L163.799 363 L163.799 273.62 Z" fill="#B1512D" fill-opacity="1" clip-path="url(#c1)"/>
<path d="M170.198 273.62 L172.198 273.62 L172.198 363 L170.198 363 L170.198 273.62 Z" fill="#FAF6EF" fill-opacity="1" clip-path="url(#c1)"/>
<path d="M172.198 298.327 L178.597 298.327 L178.597 363 L172.198 363 L172.198 298.327 Z" fill="#B1512D" fill-opacity="1" clip-path="url(#c1)"/>
<path d="M178.597 298.327 L180.597 298.327 L180.597 363 L178.597 363 L178.597 298.327 Z" fill="#FAF6EF" fill-opacity="1" clip-path="url(#c1)"/>
<path d="M180.597 305.957 L186.996 305.957 L186.996 363 L180.597 363 L180.597 305.957 Z" fill="#B1512D" fill-opacity="1" clip-path="url(#c1)"/>
<path d="M186.996 305.957 L188.996 305.957 L188.996 363 L186.996 363 L186.996 305.957 Z" fill="#FAF6EF" fill-opacity="1" clip-path="url(#c1)"/>
<path d="M188.996 319.4 L195.395 319.4 L195.395 363 L188.996 363 L188.996 319.4 Z" fill="#B1512D" fill-opacity="1" clip-path="url(#c1)"/>
<path d="M195.395 319.4 L197.395 319.4 L197.395 363 L195.395 363 L195.395 319.4 Z" fill="#FAF6EF" fill-opacity="1" clip-path="url(#c1)"/>
<path d="M197.395 330.3 L203.794 330.3 L203.794 363 L197.395 363 L197.395 330.3 Z" fill="#B1512D" fill-opacity="1" clip-path="url(#c1)"/>
<path d="M203.794 330.3 L205.794 330.3 L205.794 363 L203.794 363 L203.794 330.3 Z" fill="#FAF6EF" fill-opacity="1" clip-path="url(#c1)"/>
<path d="M205.794 334.297 L212.193 334.297 L212.193 363 L205.794 363 L205.794 334.297 Z" fill="#B1512D" fill-opacity="1" clip-path="url(#c1)"/>
<path d="M212.193 334.297 L214.193 334.297 L214.193 363 L212.193 363 L212.193 334.297 Z" fill="#FAF6EF" fill-opacity="1" clip-path="url(#c1)"/>
<path d="M214.193 337.93 L220.592 337.93 L220.592 363 L214.193 363 L214.193 337.93 Z" fill="#B1512D" fill-opacity="1" clip-path="url(#c1)"/>
<path d="M220.592 337.93 L222.592 337.93 L222.592 363 L220.592 363 L220.592 337.93 Z" fill="#FAF6EF" fill-opacity="1" clip-path="url(#c1)"/>
<path d="M222.592 345.197 L228.992 345.197 L228.992 363 L222.592 363 L222.592 345.197 Z" fill="#B1512D" fill-opacity="1" clip-path="url(#c1)"/>
<path d="M228.992 345.197 L230.992 345.197 L230.992 363 L228.992 363 L228.992 345.197 Z" fill="#FAF6EF" fill-opacity="1" clip-path="url(#c1)"/>
<path d="M230.992 347.74 L237.391 347.74 L237.391 363 L230.992 363 L230.992 347.74 Z" fill="#B1512D" fill-opacity="1" clip-path="url(#c1)"/>
<path d="M237.391 347.74 L239.391 347.74 L239.391 363 L237.391 363 L237.391 347.74 Z" fill="#FAF6EF" fill-opacity="1" clip-path="url(#c1)"/>
<path d="M239.391 349.193 L245.79 349.193 L245.79 363 L239.391 363 L239.391 349.193 Z" fill="#B1512D" fill-opacity="1" clip-path="url(#c1)"/>
<path d="M245.79 349.193 L247.79 349.193 L247.79 363 L245.79 363 L245.79 349.193 Z" fill="#FAF6EF" fill-opacity="1" clip-path="url(#c1)"/>
<path d="M247.79 352.1 L254.189 352.1 L254.189 363 L247.79 363 L247.79 352.1 Z" fill="#B1512D" fill-opacity="1" clip-path="url(#c1)"/>
<path d="M254.189 352.1 L256.189 352.1 L256.189 363 L254.189 363 L254.189 352.1 Z" fill="#FAF6EF" fill-opacity="1" clip-path="url(#c1)"/>
<path d="M256.189 359.73 L262.588 359.73 L262.588 363 L256.189 363 L256.189 359.73 Z" fill="#B1512D" fill-opacity="1" clip-path="url(#c1)"/>
<path d="M262.588 359.73 L264.588 359.73 L264.588 363 L262.588 363 L262.588 359.73 Z" fill="#FAF6EF" fill-opacity="1" clip-path="url(#c1)"/>
<path d="M264.588 354.643 L270.987 354.643 L270.987 363 L264.588 363 L264.588 354.643 Z" fill="#B1512D" fill-opacity="1" clip-path="url(#c1)"/>
<path d="M270.987 354.643 L272.987 354.643 L272.987 363 L270.987 363 L270.987 354.643 Z" fill="#FAF6EF" fill-opacity="1" clip-path="url(#c1)"/>
<path d="M272.987 358.64 L279.386 358.64 L279.386 363 L272.987 363 L272.987 358.64 Z" fill="#B1512D" fill-opacity="1" clip-path="url(#c1)"/>
<path d="M279.386 358.64 L281.386 358.64 L281.386 363 L279.386 363 L279.386 358.64 Z" fill="#FAF6EF" fill-opacity="1" clip-path="url(#c1)"/>
<path d="M281.386 358.64 L287.785 358.64 L287.785 363 L281.386 363 L281.386 358.64 Z" fill="#B1512D" fill-opacity="1" clip-path="url(#c1)"/>
<path d="M287.785 358.64 L289.785 358.64 L289.785 363 L287.785 363 L287.785 358.64 Z" fill="#FAF6EF" fill-opacity="1" clip-path="url(#c1)"/>
<path d="M289.785 358.277 L296.185 358.277 L296.185 363 L289.785 363 L289.785 358.277 Z" fill="#B1512D" fill-opacity="1" clip-path="url(#c1)"/>
<path d="M296.185 358.277 L298.185 358.277 L298.185 363 L296.185 363 L296.185 358.277 Z" fill="#FAF6EF" fill-opacity="1" clip-path="url(#c1)"/>
<path d="M298.185 360.82 L304.584 360.82 L304.584 363 L298.185 363 L298.185 360.82 Z" fill="#B1512D" fill-opacity="1" clip-path="url(#c1)"/>
<path d="M304.584 360.82 L306.584 360.82 L306.584 363 L304.584 363 L304.584 360.82 Z" fill="#FAF6EF" fill-opacity="1" clip-path="url(#c1)"/>
<path d="M306.584 361.91 L312.983 361.91 L312.983 363 L306.584 363 L306.584 361.91 Z" fill="#B1512D" fill-opacity="1" clip-path="url(#c1)"/>
<path d="M312.983 361.91 L314.983 361.91 L314.983 363 L312.983 363 L312.983 361.91 Z" fill="#FAF6EF" fill-opacity="1" clip-path="url(#c1)"/>
<path d="M314.983 361.183 L321.382 361.183 L321.382 363 L314.983 363 L314.983 361.183 Z" fill="#B1512D" fill-opacity="1" clip-path="url(#c1)"/>
<path d="M321.382 361.183 L323.382 361.183 L323.382 363 L321.382 363 L321.382 361.183 Z" fill="#FAF6EF" fill-opacity="1" clip-path="url(#c1)"/>
<path d="M323.382 361.547 L329.781 361.547 L329.781 363 L323.382 363 L323.382 361.547 Z" fill="#B1512D" fill-opacity="1" clip-path="url(#c1)"/>
<path d="M329.781 361.547 L331.781 361.547 L331.781 363 L329.781 363 L329.781 361.547 Z" fill="#FAF6EF" fill-opacity="1" clip-path="url(#c1)"/>
<path d="M331.781 362.637 L338.18 362.637 L338.18 363 L331.781 363 L331.781 362.637 Z" fill="#B1512D" fill-opacity="1" clip-path="url(#c1)"/>
<path d="M338.18 362.637 L340.18 362.637 L340.18 363 L338.18 363 L338.18 362.637 Z" fill="#FAF6EF" fill-opacity="1" clip-path="url(#c1)"/>
<path d="M340.18 361.547 L346.579 361.547 L346.579 363 L340.18 363 L340.18 361.547 Z" fill="#B1512D" fill-opacity="1" clip-path="url(#c1)"/>
<path d="M346.579 361.547 L348.579 361.547 L348.579 363 L346.579 363 L346.579 361.547 Z" fill="#FAF6EF" fill-opacity="1" clip-path="url(#c1)"/>
<path d="M348.579 363 L354.978 363 L354.978 363 L348.579 363 L348.579 363 Z" fill="#B1512D" fill-opacity="1" clip-path="url(#c1)"/>
<path d="M354.978 363 L356.978 363 L356.978 363 L354.978 363 L354.978 363 Z" fill="#FAF6EF" fill-opacity="1" clip-path="url(#c1)"/>
<path d="M356.978 362.273 L363.378 362.273 L363.378 363 L356.978 363 L356.978 362.273 Z" fill="#B1512D" fill-opacity="1" clip-path="url(#c1)"/>
<path d="M363.378 362.273 L365.378 362.273 L365.378 363 L363.378 363 L363.378 362.273 Z" fill="#FAF6EF" fill-opacity="1" clip-path="url(#c1)"/>
<path d="M365.378 363 L371.777 363 L371.777 363 L365.378 363 L365.378 363 Z" fill="#B1512D" fill-opacity="1" clip-path="url(#c1)"/>
<path d="M371.777 363 L373.777 363 L373.777 363 L371.777 363 L371.777 363 Z" fill="#FAF6EF" fill-opacity="1" clip-path="url(#c1)"/>
<path d="M373.777 362.637 L380.176 362.637 L380.176 363 L373.777 363 L373.777 362.637 Z" fill="#B1512D" fill-opacity="1" clip-path="url(#c1)"/>
<path d="M380.176 362.637 L382.176 362.637 L382.176 363 L380.176 363 L380.176 362.637 Z" fill="#FAF6EF" fill-opacity="1" clip-path="url(#c1)"/>
<path d="M382.176 362.273 L388.575 362.273 L388.575 363 L382.176 363 L382.176 362.273 Z" fill="#B1512D" fill-opacity="1" clip-path="url(#c1)"/>
<path d="M388.575 362.273 L390.575 362.273 L390.575 363 L388.575 363 L388.575 362.273 Z" fill="#FAF6EF" fill-opacity="1" clip-path="url(#c1)"/>
<path d="M390.575 362.637 L396.974 362.637 L396.974 363 L390.575 363 L390.575 362.637 Z" fill="#B1512D" fill-opacity="1" clip-path="url(#c1)"/>
<path d="M396.974 362.637 L398.974 362.637 L398.974 363 L396.974 363 L396.974 362.637 Z" fill="#FAF6EF" fill-opacity="1" clip-path="url(#c1)"/>
<path d="M398.974 362.637 L405.373 362.637 L405.373 363 L398.974 363 L398.974 362.637 Z" fill="#B1512D" fill-opacity="1" clip-path="url(#c1)"/>
<path d="M405.373 362.637 L407.373 362.637 L407.373 363 L405.373 363 L405.373 362.637 Z" fill="#FAF6EF" fill-opacity="1" clip-path="url(#c1)"/>
<path d="M407.373 363 L413.772 363 L413.772 363 L407.373 363 L407.373 363 Z" fill="#B1512D" fill-opacity="1" clip-path="url(#c1)"/>
<path d="M413.772 363 L415.772 363 L415.772 363 L413.772 363 L413.772 363 Z" fill="#FAF6EF" fill-opacity="1" clip-path="url(#c1)"/>
<path d="M415.772 363 L422.171 363 L422.171 363 L415.772 363 L415.772 363 Z" fill="#B1512D" fill-opacity="1" clip-path="url(#c1)"/>
<path d="M422.171 363 L424.171 363 L424.171 363 L422.171 363 L422.171 363 Z" fill="#FAF6EF" fill-opacity="1" clip-path="url(#c1)"/>
<path d="M424.171 362.273 L430.571 362.273 L430.571 363 L424.171 363 L424.171 362.273 Z" fill="#B1512D" fill-opacity="1" clip-path="url(#c1)"/>
<path d="M430.571 362.273 L432.571 362.273 L432.571 363 L430.571 363 L430.571 362.273 Z" fill="#FAF6EF" fill-opacity="1" clip-path="url(#c1)"/>
<path d="M432.571 362.273 L438.97 362.273 L438.97 363 L432.571 363 L432.571 362.273 Z" fill="#B1512D" fill-opacity="1" clip-path="url(#c1)"/>
<path d="M438.97 362.273 L440.97 362.273 L440.97 363 L438.97 363 L438.97 362.273 Z" fill="#FAF6EF" fill-opacity="1" clip-path="url(#c1)"/>
<path d="M440.97 363 L447.369 363 L447.369 363 L440.97 363 L440.97 363 Z" fill="#B1512D" fill-opacity="1" clip-path="url(#c1)"/>
<path d="M447.369 363 L449.369 363 L449.369 363 L447.369 363 L447.369 363 Z" fill="#FAF6EF" fill-opacity="1" clip-path="url(#c1)"/>
<path d="M449.369 363 L455.768 363 L455.768 363 L449.369 363 L449.369 363 Z" fill="#B1512D" fill-opacity="1" clip-path="url(#c1)"/>
<path d="M455.768 363 L457.768 363 L457.768 363 L455.768 363 L455.768 363 Z" fill="#FAF6EF" fill-opacity="1" clip-path="url(#c1)"/>
<path d="M457.768 363 L464.167 363 L464.167 363 L457.768 363 L457.768 363 Z" fill="#B1512D" fill-opacity="1" clip-path="url(#c1)"/>
<path d="M464.167 363 L466.167 363 L466.167 363 L464.167 363 L464.167 363 Z" fill="#FAF6EF" fill-opacity="1" clip-path="url(#c1)"/>
<path d="M466.167 363 L472.566 363 L472.566 363 L466.167 363 L466.167 363 Z" fill="#B1512D" fill-opacity="1" clip-path="url(#c1)"/>
<path d="M472.566 363 L474.566 363 L474.566 363 L472.566 363 L472.566 363 Z" fill="#FAF6EF" fill-opacity="1" clip-path="url(#c1)"/>
<path d="M474.566 363 L480.965 363 L480.965 363 L474.566 363 L474.566 363 Z" fill="#B1512D" fill-opacity="1" clip-path="url(#c1)"/>
<path d="M480.965 363 L482.965 363 L482.965 363 L480.965 363 L480.965 363 Z" fill="#FAF6EF" fill-opacity="1" clip-path="url(#c1)"/>
<path d="M482.965 363 L489.364 363 L489.364 363 L482.965 363 L482.965 363 Z" fill="#B1512D" fill-opacity="1" clip-path="url(#c1)"/>
<path d="M489.364 363 L491.364 363 L491.364 363 L489.364 363 L489.364 363 Z" fill="#FAF6EF" fill-opacity="1" clip-path="url(#c1)"/>
<path d="M491.364 363 L497.764 363 L497.764 363 L491.364 363 L491.364 363 Z" fill="#B1512D" fill-opacity="1" clip-path="url(#c1)"/>
<path d="M497.764 363 L499.764 363 L499.764 363 L497.764 363 L497.764 363 Z" fill="#FAF6EF" fill-opacity="1" clip-path="url(#c1)"/>
<path d="M499.764 363 L506.163 363 L506.163 363 L499.764 363 L499.764 363 Z" fill="#B1512D" fill-opacity="1" clip-path="url(#c1)"/>
<path d="M506.163 363 L508.163 363 L508.163 363 L506.163 363 L506.163 363 Z" fill="#FAF6EF" fill-opacity="1" clip-path="url(#c1)"/>
<path d="M508.163 363 L514.562 363 L514.562 363 L508.163 363 L508.163 363 Z" fill="#B1512D" fill-opacity="1" clip-path="url(#c1)"/>
<path d="M514.562 363 L516.562 363 L516.562 363 L514.562 363 L514.562 363 Z" fill="#FAF6EF" fill-opacity="1" clip-path="url(#c1)"/>
<path d="M516.562 363 L522.961 363 L522.961 363 L516.562 363 L516.562 363 Z" fill="#B1512D" fill-opacity="1" clip-path="url(#c1)"/>
<path d="M522.961 363 L524.961 363 L524.961 363 L522.961 363 L522.961 363 Z" fill="#FAF6EF" fill-opacity="1" clip-path="url(#c1)"/>
<path d="M524.961 363 L531.36 363 L531.36 363 L524.961 363 L524.961 363 Z" fill="#B1512D" fill-opacity="1" clip-path="url(#c1)"/>
<path d="M531.36 363 L533.36 363 L533.36 363 L531.36 363 L531.36 363 Z" fill="#FAF6EF" fill-opacity="1" clip-path="url(#c1)"/>
<path d="M533.36 363 L539.759 363 L539.759 363 L533.36 363 L533.36 363 Z" fill="#B1512D" fill-opacity="1" clip-path="url(#c1)"/>
<path d="M539.759 363 L541.759 363 L541.759 363 L539.759 363 L539.759 363 Z" fill="#FAF6EF" fill-opacity="1" clip-path="url(#c1)"/>
<path d="M541.759 363 L548.158 363 L548.158 363 L541.759 363 L541.759 363 Z" fill="#B1512D" fill-opacity="1" clip-path="url(#c1)"/>
<path d="M548.158 363 L550.158 363 L550.158 363 L548.158 363 L548.158 363 Z" fill="#FAF6EF" fill-opacity="1" clip-path="url(#c1)"/>
<path d="M550.158 362.637 L556.557 362.637 L556.557 363 L550.158 363 L550.158 362.637 Z" fill="#B1512D" fill-opacity="1" clip-path="url(#c1)"/>
<path d="M556.557 362.637 L558.557 362.637 L558.557 363 L556.557 363 L556.557 362.637 Z" fill="#FAF6EF" fill-opacity="1" clip-path="url(#c1)"/>
<path d="M43 36 L43 363" fill="none" stroke="#E6DFD2" stroke-opacity="1" stroke-width="1" stroke-linecap="square" stroke-linejoin="miter"/>
<path d="M43.605 381.208 Q42.319 381.208 41.525 379.998 Q40.73 378.788 40.73 376.839 Q40.73 374.874 41.53 373.678 Q42.33 372.482 43.639 372.482 Q44.947 372.482 45.747 373.678 Q46.547 374.874 46.547 376.822 Q46.547 378.821 45.747 380.015 Q44.947 381.208 43.605 381.208 Z M43.616 380.377 Q45.374 380.377 45.374 376.805 Q45.374 373.313 43.639 373.313 Q41.909 373.313 41.909 376.839 Q41.909 380.377 43.616 380.377 Z" fill="#8C8478" fill-opacity="1"/>
<path d="M186 36 L186 363" fill="none" stroke="#E6DFD2" stroke-opacity="1" stroke-width="1" stroke-linecap="square" stroke-linejoin="miter"/>
<path d="M176.955 381 L176.955 380.029 Q177.438 378.9 178.909 377.569 L179.543 377.002 Q180.767 375.896 180.767 374.806 Q180.767 374.11 180.349 373.711 Q179.931 373.313 179.201 373.313 Q178.336 373.313 177.162 373.981 L177.162 373.004 Q178.269 372.482 179.358 372.482 Q180.526 372.482 181.233 373.111 Q181.941 373.74 181.941 374.778 Q181.941 375.525 181.584 376.104 Q181.228 376.682 180.256 377.507 L179.83 377.872 Q178.499 379.001 178.291 380.029 L181.902 380.029 L181.902 381 Z M186.877 381.208 Q185.591 381.208 184.796 379.998 Q184.002 378.788 184.002 376.839 Q184.002 374.874 184.802 373.678 Q185.602 372.482 186.91 372.482 Q188.219 372.482 189.019 373.678 Q189.819 374.874 189.819 376.822 Q189.819 378.821 189.019 380.015 Q188.219 381.208 186.877 381.208 Z M186.888 380.377 Q188.646 380.377 188.646 376.805 Q188.646 373.313 186.91 373.313 Q185.181 373.313 185.181 376.839 Q185.181 380.377 186.888 380.377 Z M194.148 381.208 Q192.863 381.208 192.068 379.998 Q191.273 378.788 191.273 376.839 Q191.273 374.874 192.074 373.678 Q192.874 372.482 194.182 372.482 Q195.49 372.482 196.291 373.678 Q197.091 374.874 197.091 376.822 Q197.091 378.821 196.291 380.015 Q195.49 381.208 194.148 381.208 Z M194.16 380.377 Q195.917 380.377 195.917 376.805 Q195.917 373.313 194.182 373.313 Q192.453 373.313 192.453 376.839 Q192.453 380.377 194.16 380.377 Z" fill="#8C8478" fill-opacity="1"/>
<path d="M330 36 L330 363" fill="none" stroke="#E6DFD2" stroke-opacity="1" stroke-width="1" stroke-linecap="square" stroke-linejoin="miter"/>
<path d="M324.329 381 L324.329 378.647 L320.59 378.647 L320.59 377.811 L324.329 372.689 L325.368 372.689 L325.368 377.743 L326.48 377.743 L326.48 378.647 L325.368 378.647 L325.368 381 Z M321.673 377.743 L324.402 377.743 L324.402 374.048 Z M330.877 381.208 Q329.591 381.208 328.796 379.998 Q328.002 378.788 328.002 376.839 Q328.002 374.874 328.802 373.678 Q329.602 372.482 330.91 372.482 Q332.219 372.482 333.019 373.678 Q333.819 374.874 333.819 376.822 Q333.819 378.821 333.019 380.015 Q332.219 381.208 330.877 381.208 Z M330.888 380.377 Q332.646 380.377 332.646 376.805 Q332.646 373.313 330.91 373.313 Q329.181 373.313 329.181 376.839 Q329.181 380.377 330.888 380.377 Z M338.148 381.208 Q336.863 381.208 336.068 379.998 Q335.273 378.788 335.273 376.839 Q335.273 374.874 336.074 373.678 Q336.874 372.482 338.182 372.482 Q339.49 372.482 340.291 373.678 Q341.091 374.874 341.091 376.822 Q341.091 378.821 340.291 380.015 Q339.49 381.208 338.148 381.208 Z M338.16 380.377 Q339.917 380.377 339.917 376.805 Q339.917 373.313 338.182 373.313 Q336.453 373.313 336.453 376.839 Q336.453 380.377 338.16 380.377 Z" fill="#8C8478" fill-opacity="1"/>
<path d="M473 36 L473 363" fill="none" stroke="#E6DFD2" stroke-opacity="1" stroke-width="1" stroke-linecap="square" stroke-linejoin="miter"/>
<path d="M464.977 376.693 Q465.768 375.666 466.97 375.666 Q468.059 375.666 468.753 376.387 Q469.446 377.109 469.446 378.237 Q469.446 379.534 468.669 380.371 Q467.891 381.208 466.695 381.208 Q465.319 381.208 464.544 380.102 Q463.769 378.995 463.769 377.03 Q463.769 374.868 464.659 373.672 Q465.549 372.476 467.167 372.476 Q467.908 372.476 469.02 372.791 L469.02 373.756 Q467.846 373.307 467.099 373.307 Q464.977 373.307 464.977 376.693 Z M468.334 378.484 Q468.334 377.541 467.911 377.002 Q467.487 376.463 466.734 376.463 Q466.032 376.463 465.527 376.935 Q465.021 377.406 465.021 378.069 Q465.021 379.113 465.502 379.745 Q465.982 380.377 466.773 380.377 Q467.487 380.377 467.911 379.863 Q468.334 379.349 468.334 378.484 Z M473.877 381.208 Q472.591 381.208 471.796 379.998 Q471.002 378.788 471.002 376.839 Q471.002 374.874 471.802 373.678 Q472.602 372.482 473.91 372.482 Q475.219 372.482 476.019 373.678 Q476.819 374.874 476.819 376.822 Q476.819 378.821 476.019 380.015 Q475.219 381.208 473.877 381.208 Z M473.888 380.377 Q475.646 380.377 475.646 376.805 Q475.646 373.313 473.91 373.313 Q472.181 373.313 472.181 376.839 Q472.181 380.377 473.888 380.377 Z M481.148 381.208 Q479.863 381.208 479.068 379.998 Q478.273 378.788 478.273 376.839 Q478.273 374.874 479.074 373.678 Q479.874 372.482 481.182 372.482 Q482.49 372.482 483.291 373.678 Q484.091 374.874 484.091 376.822 Q484.091 378.821 483.291 380.015 Q482.49 381.208 481.148 381.208 Z M481.16 380.377 Q482.917 380.377 482.917 376.805 Q482.917 373.313 481.182 373.313 Q479.453 373.313 479.453 376.839 Q479.453 380.377 481.16 380.377 Z" fill="#8C8478" fill-opacity="1"/>
<path d="M616 36 L616 363" fill="none" stroke="#E6DFD2" stroke-opacity="1" stroke-width="1" stroke-linecap="square" stroke-linejoin="miter"/>
<path d="M608.645 376.474 Q607.426 375.626 607.426 374.599 Q607.426 373.655 608.117 373.066 Q608.808 372.476 609.919 372.476 Q610.947 372.476 611.584 372.976 Q612.222 373.476 612.222 374.273 Q612.222 375.48 610.672 376.474 Q612.553 377.395 612.553 378.849 Q612.553 379.894 611.764 380.551 Q610.975 381.208 609.729 381.208 Q608.504 381.208 607.749 380.587 Q606.994 379.967 606.994 378.956 Q606.994 377.462 608.645 376.474 Z M610.054 376.126 Q611.217 375.362 611.217 374.425 Q611.217 373.925 610.829 373.619 Q610.442 373.313 609.807 373.313 Q609.195 373.313 608.813 373.613 Q608.431 373.914 608.431 374.391 Q608.431 374.857 608.777 375.225 Q609.122 375.593 610.054 376.126 Z M609.246 376.923 Q608.577 377.44 608.339 377.825 Q608.1 378.209 608.1 378.782 Q608.1 379.495 608.561 379.936 Q609.021 380.377 609.773 380.377 Q610.498 380.377 610.955 380 Q611.413 379.624 611.413 379.023 Q611.413 378.541 611.13 378.206 Q610.846 377.872 610.032 377.389 Z M616.877 381.208 Q615.591 381.208 614.796 379.998 Q614.002 378.788 614.002 376.839 Q614.002 374.874 614.802 373.678 Q615.602 372.482 616.91 372.482 Q618.219 372.482 619.019 373.678 Q619.819 374.874 619.819 376.822 Q619.819 378.821 619.019 380.015 Q618.219 381.208 616.877 381.208 Z M616.888 380.377 Q618.646 380.377 618.646 376.805 Q618.646 373.313 616.91 373.313 Q615.181 373.313 615.181 376.839 Q615.181 380.377 616.888 380.377 Z M624.148 381.208 Q622.863 381.208 622.068 379.998 Q621.273 378.788 621.273 376.839 Q621.273 374.874 622.074 373.678 Q622.874 372.482 624.182 372.482 Q625.49 372.482 626.291 373.678 Q627.091 374.874 627.091 376.822 Q627.091 378.821 626.291 380.015 Q625.49 381.208 624.148 381.208 Z M624.16 380.377 Q625.917 380.377 625.917 376.805 Q625.917 373.313 624.182 373.313 Q622.453 373.313 622.453 376.839 Q622.453 380.377 624.16 380.377 Z" fill="#8C8478" fill-opacity="1"/>
</svg>
