<svg xmlns="http://www.w3.org/2000/svg" width="1020" height="520" viewBox="0 0 1020 520">
<defs>
<clipPath id="c1" clipPathUnits="userSpaceOnUse"><path d="M43 59 L996 59 L996 483 L43 483 L43 59 Z"/></clipPath>
</defs>
<path d="M0 0 L1020 0 L1020 520 L0 520 L0 0 Z" fill="#FAF6EF" fill-opacity="1"/>
<path d="M19.631 21 L16.159 11.605 L18.247 11.605 L20.938 18.874 L23.541 11.605 L24.95 11.605 L21.592 21 Z M31.933 20.765 Q30.593 21.159 29.394 21.159 Q27.648 21.159 26.639 20.168 Q25.629 19.178 25.629 17.464 Q25.629 15.846 26.553 14.859 Q27.477 13.872 28.994 13.872 Q30.523 13.872 31.228 14.836 Q31.933 15.801 31.933 17.89 L27.61 17.89 Q27.8 19.883 29.8 19.883 Q30.746 19.883 31.933 19.445 Z M27.584 16.83 L30.085 16.83 Q30.085 15.046 28.937 15.046 Q27.769 15.046 27.584 16.83 Z M33.875 21 L33.875 10.977 L35.754 10.977 L35.754 21 Z M41.029 21.159 Q39.397 21.159 38.436 20.172 Q37.474 19.185 37.474 17.515 Q37.474 15.827 38.442 14.849 Q39.41 13.872 41.073 13.872 Q42.743 13.872 43.711 14.849 Q44.679 15.827 44.679 17.502 Q44.679 19.216 43.708 20.188 Q42.736 21.159 41.029 21.159 Z M41.061 19.984 Q42.679 19.984 42.679 17.502 Q42.679 16.366 42.251 15.706 Q41.822 15.046 41.073 15.046 Q40.331 15.046 39.902 15.706 Q39.474 16.366 39.474 17.515 Q39.474 18.651 39.899 19.318 Q40.324 19.984 41.061 19.984 Z M51.547 20.848 Q50.379 21.159 49.382 21.159 Q47.713 21.159 46.745 20.178 Q45.777 19.197 45.777 17.509 Q45.777 15.801 46.773 14.836 Q47.77 13.872 49.528 13.872 Q50.379 13.872 51.49 14.145 L51.49 15.503 Q50.334 15.128 49.643 15.128 Q48.798 15.128 48.284 15.776 Q47.77 16.423 47.77 17.496 Q47.77 18.594 48.325 19.254 Q48.881 19.915 49.808 19.915 Q50.652 19.915 51.547 19.546 Z M53.324 21 L53.324 14.03 L55.203 14.03 L55.203 21 Z M53.324 12.856 L53.324 11.288 L55.203 11.288 L55.203 12.856 Z M61.145 20.962 Q60.472 21.159 60.084 21.159 Q57.641 21.159 57.641 18.874 L57.641 15.205 L56.86 15.205 L56.86 14.03 L57.641 14.03 L57.641 12.856 L59.52 12.64 L59.52 14.03 L61.011 14.03 L61.011 15.205 L59.52 15.205 L59.52 18.626 Q59.52 19.908 60.567 19.908 Q60.808 19.908 61.145 19.819 Z M62.846 23.507 L64.426 21 L61.843 14.03 L63.861 14.03 L65.588 18.689 L67.638 14.03 L69.066 14.03 L64.763 23.507 Z M74.684 21 L74.684 10.977 L76.563 10.977 L76.563 15.344 Q77.287 13.872 78.842 13.872 Q80.099 13.872 80.819 14.792 Q81.54 15.712 81.54 17.325 Q81.54 19.07 80.727 20.115 Q79.915 21.159 78.556 21.159 Q77.388 21.159 76.563 20.295 L76.214 21 Z M76.563 19.178 Q77.249 19.94 78.023 19.94 Q78.715 19.94 79.127 19.27 Q79.54 18.601 79.54 17.483 Q79.54 15.344 78.163 15.344 Q77.331 15.344 76.563 16.417 Z M83.323 23.507 L84.904 21 L82.32 14.03 L84.339 14.03 L86.065 18.689 L88.116 14.03 L89.544 14.03 L85.24 23.507 Z M98.754 20.962 Q98.082 21.159 97.694 21.159 Q95.25 21.159 95.25 18.874 L95.25 15.205 L94.47 15.205 L94.47 14.03 L95.25 14.03 L95.25 12.856 L97.129 12.64 L97.129 14.03 L98.621 14.03 L98.621 15.205 L97.129 15.205 L97.129 18.626 Q97.129 19.908 98.177 19.908 Q98.418 19.908 98.754 19.819 Z M106.105 20.765 Q104.766 21.159 103.566 21.159 Q101.82 21.159 100.811 20.168 Q99.802 19.178 99.802 17.464 Q99.802 15.846 100.725 14.859 Q101.649 13.872 103.166 13.872 Q104.696 13.872 105.4 14.836 Q106.105 15.801 106.105 17.89 L101.782 17.89 Q101.973 19.883 103.972 19.883 Q104.918 19.883 106.105 19.445 Z M101.757 16.83 L104.258 16.83 Q104.258 15.046 103.109 15.046 Q101.941 15.046 101.757 16.83 Z M111.462 20.251 Q110.523 21.159 109.45 21.159 Q108.536 21.159 107.965 20.6 Q107.394 20.042 107.394 19.153 Q107.394 17.998 108.317 17.372 Q109.241 16.747 110.961 16.747 L111.462 16.747 L111.462 16.112 Q111.462 15.027 110.225 15.027 Q109.126 15.027 108.003 15.649 L108.003 14.354 Q109.279 13.872 110.529 13.872 Q113.265 13.872 113.265 16.049 L113.265 19.134 Q113.265 19.953 113.792 19.953 Q113.887 19.953 114.04 19.927 L114.084 20.981 Q113.487 21.159 113.03 21.159 Q111.875 21.159 111.545 20.251 Z M111.462 19.242 L111.462 17.826 L111.018 17.826 Q109.196 17.826 109.196 18.969 Q109.196 19.356 109.46 19.619 Q109.723 19.883 110.11 19.883 Q110.771 19.883 111.462 19.242 Z M115.69 21 L115.69 14.03 L117.493 14.03 L117.493 15.344 Q118.318 13.872 119.841 13.872 Q120.628 13.872 121.136 14.259 Q121.644 14.646 121.758 15.344 Q122.736 13.872 124.12 13.872 Q126.03 13.872 126.03 15.979 L126.03 21 L124.228 21 L124.228 16.595 Q124.228 15.357 123.402 15.357 Q122.558 15.357 121.758 16.576 L121.758 21 L119.956 21 L119.956 16.595 Q119.956 15.351 119.124 15.351 Q118.292 15.351 117.493 16.576 L117.493 21 Z" fill="#2B2620" fill-opacity="1"/>
<path d="M137.729 21 L137.729 20.169 L139.392 20.169 L139.392 13.61 L137.729 14.026 L137.729 13.172 L140.503 12.482 L140.503 20.169 L142.166 20.169 L142.166 21 Z M144.226 21 L144.226 20.029 Q144.709 18.9 146.18 17.569 L146.815 17.002 Q148.039 15.896 148.039 14.806 Q148.039 14.11 147.621 13.711 Q147.202 13.313 146.472 13.313 Q145.608 13.313 144.434 13.981 L144.434 13.004 Q145.54 12.482 146.63 12.482 Q147.798 12.482 148.505 13.111 Q149.213 13.74 149.213 14.778 Q149.213 15.525 148.856 16.104 Q148.5 16.682 147.528 17.507 L147.101 17.872 Q145.771 19.001 145.563 20.029 L149.173 20.029 L149.173 21 Z M156.906 21.14 Q156.147 21.14 155.064 20.787 L155.064 19.77 Q156.147 20.309 156.95 20.309 Q157.428 20.309 157.742 20.051 Q158.057 19.793 158.057 19.405 Q158.057 18.838 157.175 18.468 L156.529 18.192 Q155.097 17.597 155.097 16.48 Q155.097 15.682 155.662 15.225 Q156.226 14.767 157.209 14.767 Q157.72 14.767 158.472 14.907 L158.702 14.952 L158.702 15.873 Q157.776 15.598 157.231 15.598 Q156.164 15.598 156.164 16.373 Q156.164 16.873 156.973 17.215 L157.506 17.44 Q158.41 17.822 158.787 18.246 Q159.163 18.67 159.163 19.304 Q159.163 20.107 158.528 20.624 Q157.894 21.14 156.906 21.14 Z M165.62 20.803 Q164.509 21.14 163.717 21.14 Q162.369 21.14 161.518 20.245 Q160.668 19.349 160.668 17.923 Q160.668 16.536 161.417 15.649 Q162.167 14.761 163.335 14.761 Q164.441 14.761 165.045 15.548 Q165.648 16.334 165.648 17.782 L165.643 18.125 L161.796 18.125 Q162.038 20.298 163.925 20.298 Q164.615 20.298 165.62 19.927 Z M161.847 17.294 L164.537 17.294 Q164.537 15.593 163.268 15.593 Q161.993 15.593 161.847 17.294 Z M167.558 21 L167.558 14.902 L168.664 14.902 L168.664 16.047 Q169.321 14.767 170.573 14.767 Q170.741 14.767 170.927 14.795 L170.927 15.828 Q170.64 15.733 170.421 15.733 Q169.371 15.733 168.664 16.979 L168.664 21 Z M172.263 21 L172.263 14.902 L173.369 14.902 L173.369 21 Z M172.263 13.796 L172.263 12.689 L173.369 12.689 L173.369 13.796 Z M180.057 20.803 Q178.945 21.14 178.154 21.14 Q176.806 21.14 175.955 20.245 Q175.104 19.349 175.104 17.923 Q175.104 16.536 175.854 15.649 Q176.604 14.761 177.772 14.761 Q178.878 14.761 179.482 15.548 Q180.085 16.334 180.085 17.782 L180.08 18.125 L176.233 18.125 Q176.475 20.298 178.361 20.298 Q179.052 20.298 180.057 19.927 Z M176.284 17.294 L178.973 17.294 Q178.973 15.593 177.704 15.593 Q176.43 15.593 176.284 17.294 Z M183.612 21.14 Q182.854 21.14 181.77 20.787 L181.77 19.77 Q182.854 20.309 183.656 20.309 Q184.134 20.309 184.448 20.051 Q184.763 19.793 184.763 19.405 Q184.763 18.838 183.881 18.468 L183.235 18.192 Q181.803 17.597 181.803 16.48 Q181.803 15.682 182.368 15.225 Q182.932 14.767 183.915 14.767 Q184.426 14.767 185.178 14.907 L185.408 14.952 L185.408 15.873 Q184.482 15.598 183.937 15.598 Q182.87 15.598 182.87 16.373 Q182.87 16.873 183.679 17.215 L184.212 17.44 Q185.116 17.822 185.493 18.246 Q185.869 18.67 185.869 19.304 Q185.869 20.107 185.234 20.624 Q184.6 21.14 183.612 21.14 Z M190.945 17.951 L190.945 17.187 L201.339 17.187 L201.339 17.951 Z M209.857 21 L209.857 18.647 L206.117 18.647 L206.117 17.811 L209.857 12.689 L210.896 12.689 L210.896 17.743 L212.008 17.743 L212.008 18.647 L210.896 18.647 L210.896 21 Z M207.201 17.743 L209.93 17.743 L209.93 14.048 Z M217.544 23.218 L217.544 14.902 L218.651 14.902 L218.651 16.047 Q219.33 14.767 220.689 14.767 Q221.79 14.767 222.421 15.57 Q223.053 16.373 223.053 17.766 Q223.053 19.282 222.337 20.211 Q221.621 21.14 220.453 21.14 Q219.369 21.14 218.651 20.309 L218.651 23.218 Z M218.651 19.546 Q219.504 20.309 220.279 20.309 Q221.874 20.309 221.874 17.878 Q221.874 15.733 220.459 15.733 Q219.532 15.733 218.651 16.738 Z M227.927 20.225 Q226.933 21.14 226.012 21.14 Q225.254 21.14 224.754 20.666 Q224.255 20.191 224.255 19.467 Q224.255 18.468 225.094 17.931 Q225.934 17.395 227.5 17.395 L227.764 17.395 L227.764 16.659 Q227.764 15.598 226.675 15.598 Q225.799 15.598 224.782 16.137 L224.782 15.222 Q225.9 14.767 226.877 14.767 Q227.899 14.767 228.385 15.228 Q228.87 15.688 228.87 16.659 L228.87 19.422 Q228.87 20.371 229.454 20.371 Q229.527 20.371 229.668 20.349 L229.746 20.961 Q229.37 21.14 228.915 21.14 Q228.14 21.14 227.927 20.225 Z M227.764 19.624 L227.764 18.046 L227.394 18.035 Q226.484 18.035 225.922 18.38 Q225.361 18.726 225.361 19.287 Q225.361 19.686 225.642 19.961 Q225.922 20.236 226.327 20.236 Q227.017 20.236 227.764 19.624 Z M232.75 21.14 Q231.992 21.14 230.909 20.787 L230.909 19.77 Q231.992 20.309 232.795 20.309 Q233.273 20.309 233.587 20.051 Q233.902 19.793 233.902 19.405 Q233.902 18.838 233.02 18.468 L232.374 18.192 Q230.942 17.597 230.942 16.48 Q230.942 15.682 231.507 15.225 Q232.071 14.767 233.054 14.767 Q233.565 14.767 234.317 14.907 L234.547 14.952 L234.547 15.873 Q233.621 15.598 233.076 15.598 Q232.009 15.598 232.009 16.373 Q232.009 16.873 232.818 17.215 L233.351 17.44 Q234.255 17.822 234.632 18.246 Q235.008 18.67 235.008 19.304 Q235.008 20.107 234.373 20.624 Q233.739 21.14 232.75 21.14 Z M238.826 21.14 Q237.984 21.14 237.512 20.657 Q237.041 20.175 237.041 19.315 L237.041 15.733 L236.277 15.733 L236.277 14.902 L237.041 14.902 L237.041 13.796 L238.147 13.689 L238.147 14.902 L239.741 14.902 L239.741 15.733 L238.147 15.733 L238.147 19.113 Q238.147 20.309 239.18 20.309 Q239.399 20.309 239.713 20.236 L239.713 21 Q239.202 21.14 238.826 21.14 Z M246.766 21.14 Q245.924 21.14 245.452 20.657 Q244.98 20.175 244.98 19.315 L244.98 15.733 L244.217 15.733 L244.217 14.902 L244.98 14.902 L244.98 13.796 L246.087 13.689 L246.087 14.902 L247.681 14.902 L247.681 15.733 L246.087 15.733 L246.087 19.113 Q246.087 20.309 247.12 20.309 Q247.339 20.309 247.653 20.236 L247.653 21 Q247.142 21.14 246.766 21.14 Z M249.237 21 L249.237 12.134 L250.343 12.134 L250.343 16.047 Q251.219 14.767 252.488 14.767 Q253.28 14.767 253.751 15.27 Q254.223 15.772 254.223 16.62 L254.223 21 L253.117 21 L253.117 16.979 Q253.117 16.3 252.918 16.011 Q252.718 15.722 252.258 15.722 Q251.241 15.722 250.343 17.052 L250.343 21 Z M260.844 20.803 Q259.732 21.14 258.94 21.14 Q257.592 21.14 256.742 20.245 Q255.891 19.349 255.891 17.923 Q255.891 16.536 256.641 15.649 Q257.39 14.761 258.558 14.761 Q259.664 14.761 260.268 15.548 Q260.872 16.334 260.872 17.782 L260.866 18.125 L257.02 18.125 Q257.261 20.298 259.148 20.298 Q259.838 20.298 260.844 19.927 Z M257.07 17.294 L259.76 17.294 Q259.76 15.593 258.491 15.593 Q257.216 15.593 257.07 17.294 Z M266.419 21.067 L266.419 12.134 L267.526 12.134 L267.526 16.047 Q268.205 14.767 269.564 14.767 Q270.665 14.767 271.296 15.57 Q271.928 16.373 271.928 17.766 Q271.928 19.282 271.212 20.211 Q270.496 21.14 269.328 21.14 Q268.244 21.14 267.526 20.309 L267.391 21.067 Z M267.526 19.546 Q268.379 20.309 269.154 20.309 Q270.749 20.309 270.749 17.878 Q270.749 15.733 269.334 15.733 Q268.407 15.733 267.526 16.738 Z M276.802 20.225 Q275.808 21.14 274.887 21.14 Q274.129 21.14 273.629 20.666 Q273.13 20.191 273.13 19.467 Q273.13 18.468 273.969 17.931 Q274.809 17.395 276.375 17.395 L276.639 17.395 L276.639 16.659 Q276.639 15.598 275.55 15.598 Q274.674 15.598 273.657 16.137 L273.657 15.222 Q274.775 14.767 275.752 14.767 Q276.774 14.767 277.26 15.228 Q277.745 15.688 277.745 16.659 L277.745 19.422 Q277.745 20.371 278.329 20.371 Q278.402 20.371 278.543 20.349 L278.621 20.961 Q278.245 21.14 277.79 21.14 Q277.015 21.14 276.802 20.225 Z M276.639 19.624 L276.639 18.046 L276.269 18.035 Q275.359 18.035 274.797 18.38 Q274.236 18.726 274.236 19.287 Q274.236 19.686 274.517 19.961 Q274.797 20.236 275.202 20.236 Q275.892 20.236 276.639 19.624 Z M281.625 21.14 Q280.867 21.14 279.784 20.787 L279.784 19.77 Q280.867 20.309 281.67 20.309 Q282.148 20.309 282.462 20.051 Q282.777 19.793 282.777 19.405 Q282.777 18.838 281.895 18.468 L281.249 18.192 Q279.817 17.597 279.817 16.48 Q279.817 15.682 280.382 15.225 Q280.946 14.767 281.929 14.767 Q282.44 14.767 283.192 14.907 L283.422 14.952 L283.422 15.873 Q282.496 15.598 281.951 15.598 Q280.884 15.598 280.884 16.373 Q280.884 16.873 281.693 17.215 L282.226 17.44 Q283.13 17.822 283.507 18.246 Q283.883 18.67 283.883 19.304 Q283.883 20.107 283.248 20.624 Q282.614 21.14 281.625 21.14 Z M290.34 20.803 Q289.229 21.14 288.437 21.14 Q287.089 21.14 286.238 20.245 Q285.388 19.349 285.388 17.923 Q285.388 16.536 286.137 15.649 Q286.887 14.761 288.055 14.761 Q289.161 14.761 289.765 15.548 Q290.368 16.334 290.368 17.782 L290.363 18.125 L286.516 18.125 Q286.758 20.298 288.645 20.298 Q289.335 20.298 290.34 19.927 Z M286.567 17.294 L289.257 17.294 Q289.257 15.593 287.988 15.593 Q286.713 15.593 286.567 17.294 Z M295.916 23.218 L295.916 14.902 L297.022 14.902 L297.022 16.047 Q297.702 14.767 299.061 14.767 Q300.161 14.767 300.793 15.57 Q301.425 16.373 301.425 17.766 Q301.425 19.282 300.709 20.211 Q299.993 21.14 298.825 21.14 Q297.741 21.14 297.022 20.309 L297.022 23.218 Z M297.022 19.546 Q297.876 20.309 298.651 20.309 Q300.246 20.309 300.246 17.878 Q300.246 15.733 298.831 15.733 Q297.904 15.733 297.022 16.738 Z M306.299 20.225 Q305.305 21.14 304.384 21.14 Q303.626 21.14 303.126 20.666 Q302.626 20.191 302.626 19.467 Q302.626 18.468 303.466 17.931 Q304.305 17.395 305.872 17.395 L306.136 17.395 L306.136 16.659 Q306.136 15.598 305.047 15.598 Q304.171 15.598 303.154 16.137 L303.154 15.222 Q304.272 14.767 305.249 14.767 Q306.271 14.767 306.756 15.228 Q307.242 15.688 307.242 16.659 L307.242 19.422 Q307.242 20.371 307.826 20.371 Q307.899 20.371 308.04 20.349 L308.118 20.961 Q307.742 21.14 307.287 21.14 Q306.512 21.14 306.299 20.225 Z M306.136 19.624 L306.136 18.046 L305.765 18.035 Q304.856 18.035 304.294 18.38 Q303.733 18.726 303.733 19.287 Q303.733 19.686 304.013 19.961 Q304.294 20.236 304.698 20.236 Q305.389 20.236 306.136 19.624 Z M309.505 21 L309.505 12.134 L310.611 12.134 L310.611 21 Z M317.299 20.803 Q316.187 21.14 315.396 21.14 Q314.048 21.14 313.197 20.245 Q312.346 19.349 312.346 17.923 Q312.346 16.536 313.096 15.649 Q313.846 14.761 315.014 14.761 Q316.12 14.761 316.724 15.548 Q317.327 16.334 317.327 17.782 L317.322 18.125 L313.475 18.125 Q313.717 20.298 315.603 20.298 Q316.294 20.298 317.299 19.927 Z M313.526 17.294 L316.215 17.294 Q316.215 15.593 314.946 15.593 Q313.672 15.593 313.526 17.294 Z M321.067 21.14 Q320.225 21.14 319.753 20.657 Q319.281 20.175 319.281 19.315 L319.281 15.733 L318.518 15.733 L318.518 14.902 L319.281 14.902 L319.281 13.796 L320.387 13.689 L320.387 14.902 L321.982 14.902 L321.982 15.733 L320.387 15.733 L320.387 19.113 Q320.387 20.309 321.421 20.309 Q321.64 20.309 321.954 20.236 L321.954 21 Q321.443 21.14 321.067 21.14 Z M325.368 21.14 Q324.526 21.14 324.054 20.657 Q323.583 20.175 323.583 19.315 L323.583 15.733 L322.819 15.733 L322.819 14.902 L323.583 14.902 L323.583 13.796 L324.689 13.689 L324.689 14.902 L326.283 14.902 L326.283 15.733 L324.689 15.733 L324.689 19.113 Q324.689 20.309 325.722 20.309 Q325.941 20.309 326.255 20.236 L326.255 21 Q325.744 21.14 325.368 21.14 Z M332.309 20.803 Q331.197 21.14 330.405 21.14 Q329.057 21.14 328.207 20.245 Q327.356 19.349 327.356 17.923 Q327.356 16.536 328.106 15.649 Q328.855 14.761 330.023 14.761 Q331.129 14.761 331.733 15.548 Q332.337 16.334 332.337 17.782 L332.331 18.125 L328.485 18.125 Q328.726 20.298 330.613 20.298 Q331.303 20.298 332.309 19.927 Z M328.535 17.294 L331.225 17.294 Q331.225 15.593 329.956 15.593 Q328.681 15.593 328.535 17.294 Z" fill="#8C8478" fill-opacity="1"/>
<path d="M43 483 L996 483" fill="none" stroke="#B9B2A5" stroke-opacity="1" stroke-width="1" stroke-linecap="square" stroke-linejoin="miter"/>
<path d="M33.605 488.208 Q32.319 488.208 31.525 486.998 Q30.73 485.788 30.73 483.839 Q30.73 481.874 31.53 480.678 Q32.33 479.482 33.639 479.482 Q34.947 479.482 35.747 480.678 Q36.547 481.874 36.547 483.822 Q36.547 485.821 35.747 487.015 Q34.947 488.208 33.605 488.208 Z M33.616 487.377 Q35.374 487.377 35.374 483.805 Q35.374 480.313 33.639 480.313 Q31.909 480.313 31.909 483.839 Q31.909 487.377 33.616 487.377 Z" fill="#8C8478" fill-opacity="1"/>
<path d="M43 412 L996 412" fill="none" stroke="#E6DFD2" stroke-opacity="1" stroke-width="1" stroke-linecap="square" stroke-linejoin="miter"/>
<path d="M23.955 417 L23.955 416.029 Q24.438 414.9 25.909 413.569 L26.543 413.002 Q27.767 411.896 27.767 410.806 Q27.767 410.11 27.349 409.711 Q26.931 409.313 26.201 409.313 Q25.336 409.313 24.162 409.981 L24.162 409.004 Q25.269 408.482 26.358 408.482 Q27.526 408.482 28.233 409.111 Q28.941 409.74 28.941 410.778 Q28.941 411.525 28.584 412.104 Q28.228 412.682 27.256 413.507 L26.83 413.872 Q25.499 415.001 25.291 416.029 L28.902 416.029 L28.902 417 Z M33.877 417.208 Q32.591 417.208 31.796 415.998 Q31.002 414.788 31.002 412.839 Q31.002 410.874 31.802 409.678 Q32.602 408.482 33.91 408.482 Q35.219 408.482 36.019 409.678 Q36.819 410.874 36.819 412.822 Q36.819 414.821 36.019 416.015 Q35.219 417.208 33.877 417.208 Z M33.888 416.377 Q35.646 416.377 35.646 412.805 Q35.646 409.313 33.91 409.313 Q32.181 409.313 32.181 412.839 Q32.181 416.377 33.888 416.377 Z" fill="#8C8478" fill-opacity="1"/>
<path d="M43 342 L996 342" fill="none" stroke="#E6DFD2" stroke-opacity="1" stroke-width="1" stroke-linecap="square" stroke-linejoin="miter"/>
<path d="M27.329 347 L27.329 344.647 L23.59 344.647 L23.59 343.811 L27.329 338.689 L28.368 338.689 L28.368 343.743 L29.48 343.743 L29.48 344.647 L28.368 344.647 L28.368 347 Z M24.673 343.743 L27.402 343.743 L27.402 340.048 Z M33.877 347.208 Q32.591 347.208 31.796 345.998 Q31.002 344.788 31.002 342.839 Q31.002 340.874 31.802 339.678 Q32.602 338.482 33.91 338.482 Q35.219 338.482 36.019 339.678 Q36.819 340.874 36.819 342.822 Q36.819 344.821 36.019 346.015 Q35.219 347.208 33.877 347.208 Z M33.888 346.377 Q35.646 346.377 35.646 342.805 Q35.646 339.313 33.91 339.313 Q32.181 339.313 32.181 342.839 Q32.181 346.377 33.888 346.377 Z" fill="#8C8478" fill-opacity="1"/>
<path d="M43 271 L996 271" fill="none" stroke="#E6DFD2" stroke-opacity="1" stroke-width="1" stroke-linecap="square" stroke-linejoin="miter"/>
<path d="M24.977 271.693 Q25.768 270.666 26.97 270.666 Q28.059 270.666 28.753 271.387 Q29.446 272.109 29.446 273.237 Q29.446 274.534 28.669 275.371 Q27.891 276.208 26.695 276.208 Q25.319 276.208 24.544 275.102 Q23.769 273.995 23.769 272.03 Q23.769 269.868 24.659 268.672 Q25.549 267.476 27.167 267.476 Q27.908 267.476 29.02 267.791 L29.02 268.756 Q27.846 268.307 27.099 268.307 Q24.977 268.307 24.977 271.693 Z M28.334 273.484 Q28.334 272.541 27.911 272.002 Q27.487 271.463 26.734 271.463 Q26.032 271.463 25.527 271.935 Q25.021 272.406 25.021 273.069 Q25.021 274.113 25.502 274.745 Q25.982 275.377 26.773 275.377 Q27.487 275.377 27.911 274.863 Q28.334 274.349 28.334 273.484 Z M33.877 276.208 Q32.591 276.208 31.796 274.998 Q31.002 273.788 31.002 271.839 Q31.002 269.874 31.802 268.678 Q32.602 267.482 33.91 267.482 Q35.219 267.482 36.019 268.678 Q36.819 269.874 36.819 271.822 Q36.819 273.821 36.019 275.015 Q35.219 276.208 33.877 276.208 Z M33.888 275.377 Q35.646 275.377 35.646 271.805 Q35.646 268.313 33.91 268.313 Q32.181 268.313 32.181 271.839 Q32.181 275.377 33.888 275.377 Z" fill="#8C8478" fill-opacity="1"/>
<path d="M43 200 L996 200" fill="none" stroke="#E6DFD2" stroke-opacity="1" stroke-width="1" stroke-linecap="square" stroke-linejoin="miter"/>
<path d="M25.645 200.474 Q24.426 199.626 24.426 198.599 Q24.426 197.655 25.117 197.066 Q25.808 196.476 26.919 196.476 Q27.947 196.476 28.584 196.976 Q29.222 197.476 29.222 198.273 Q29.222 199.48 27.672 200.474 Q29.553 201.395 29.553 202.849 Q29.553 203.894 28.764 204.551 Q27.975 205.208 26.729 205.208 Q25.504 205.208 24.749 204.587 Q23.994 203.967 23.994 202.956 Q23.994 201.462 25.645 200.474 Z M27.054 200.126 Q28.217 199.362 28.217 198.425 Q28.217 197.925 27.829 197.619 Q27.442 197.313 26.807 197.313 Q26.195 197.313 25.813 197.613 Q25.431 197.914 25.431 198.391 Q25.431 198.857 25.777 199.225 Q26.122 199.593 27.054 200.126 Z M26.246 200.923 Q25.577 201.44 25.339 201.825 Q25.1 202.209 25.1 202.782 Q25.1 203.495 25.561 203.936 Q26.021 204.377 26.773 204.377 Q27.498 204.377 27.955 204 Q28.413 203.624 28.413 203.023 Q28.413 202.541 28.13 202.206 Q27.846 201.872 27.032 201.389 Z M33.877 205.208 Q32.591 205.208 31.796 203.998 Q31.002 202.788 31.002 200.839 Q31.002 198.874 31.802 197.678 Q32.602 196.482 33.91 196.482 Q35.219 196.482 36.019 197.678 Q36.819 198.874 36.819 200.822 Q36.819 202.821 36.019 204.015 Q35.219 205.208 33.877 205.208 Z M33.888 204.377 Q35.646 204.377 35.646 200.805 Q35.646 197.313 33.91 197.313 Q32.181 197.313 32.181 200.839 Q32.181 204.377 33.888 204.377 Z" fill="#8C8478" fill-opacity="1"/>
<path d="M43 130 L996 130" fill="none" stroke="#E6DFD2" stroke-opacity="1" stroke-width="1" stroke-linecap="square" stroke-linejoin="miter"/>
<path d="M17.729 135 L17.729 134.169 L19.392 134.169 L19.392 127.61 L17.729 128.026 L17.729 127.172 L20.503 126.482 L20.503 134.169 L22.166 134.169 L22.166 135 Z M26.877 135.208 Q25.591 135.208 24.796 133.998 Q24.002 132.788 24.002 130.839 Q24.002 128.874 24.802 127.678 Q25.602 126.482 26.91 126.482 Q28.219 126.482 29.019 127.678 Q29.819 128.874 29.819 130.822 Q29.819 132.821 29.019 134.015 Q28.219 135.208 26.877 135.208 Z M26.888 134.377 Q28.646 134.377 28.646 130.805 Q28.646 127.313 26.91 127.313 Q25.181 127.313 25.181 130.839 Q25.181 134.377 26.888 134.377 Z M34.148 135.208 Q32.863 135.208 32.068 133.998 Q31.273 132.788 31.273 130.839 Q31.273 128.874 32.074 127.678 Q32.874 126.482 34.182 126.482 Q35.49 126.482 36.291 127.678 Q37.091 128.874 37.091 130.822 Q37.091 132.821 36.291 134.015 Q35.49 135.208 34.148 135.208 Z M34.16 134.377 Q35.917 134.377 35.917 130.805 Q35.917 127.313 34.182 127.313 Q32.453 127.313 32.453 130.839 Q32.453 134.377 34.16 134.377 Z" fill="#8C8478" fill-opacity="1"/>
<path d="M43 59 L996 59" fill="none" stroke="#E6DFD2" stroke-opacity="1" stroke-width="1" stroke-linecap="square" stroke-linejoin="miter"/>
<path d="M17.729 64 L17.729 63.169 L19.392 63.169 L19.392 56.61 L17.729 57.026 L17.729 56.172 L20.503 55.482 L20.503 63.169 L22.166 63.169 L22.166 64 Z M24.226 64 L24.226 63.029 Q24.709 61.9 26.18 60.569 L26.815 60.002 Q28.039 58.896 28.039 57.806 Q28.039 57.11 27.621 56.711 Q27.202 56.313 26.472 56.313 Q25.608 56.313 24.434 56.981 L24.434 56.004 Q25.54 55.482 26.63 55.482 Q27.798 55.482 28.505 56.111 Q29.213 56.74 29.213 57.778 Q29.213 58.525 28.856 59.104 Q28.5 59.682 27.528 60.507 L27.101 60.872 Q25.771 62.001 25.563 63.029 L29.173 63.029 L29.173 64 Z M34.148 64.208 Q32.863 64.208 32.068 62.998 Q31.273 61.788 31.273 59.839 Q31.273 57.874 32.074 56.678 Q32.874 55.482 34.182 55.482 Q35.49 55.482 36.291 56.678 Q37.091 57.874 37.091 59.822 Q37.091 61.821 36.291 63.015 Q35.49 64.208 34.148 64.208 Z M34.16 63.377 Q35.917 63.377 35.917 59.805 Q35.917 56.313 34.182 56.313 Q32.453 56.313 32.453 59.839 Q32.453 63.377 34.16 63.377 Z" fill="#8C8478" fill-opacity="1"/>
<path d="M43 409.913 L66.825 410.874 L90.65 418.706 L114.475 412.137 L138.3 410.067 L162.125 415.731 L185.95 425.111 L209.775 440.215 L233.6 443.101 L257.425 448.25 L281.25 447.166 L305.075 440.54 L328.9 431.676 L352.725 429.741 L376.55 424.946 L400.375 435.917 L424.2 434.43 L448.025 432.588 L471.85 437.844 L495.675 445.983 L519.5 446.433 L543.325 453.037 L567.15 438.954 L590.975 439.346 L614.8 447.866 L638.625 448.062 L662.45 461.029 L686.275 459.72 L710.1 428.522 L733.925 431.782 L757.75 439.42 L781.575 447.898 L805.4 442.884 L829.225 439.453 L853.05 435.869 L876.875 445.962 L900.7 433.844 L924.525 416.347 L948.35 423.096 L972.175 414.137" fill="none" stroke="#B1512D" stroke-opacity="1" stroke-width="2" stroke-linecap="round" stroke-linejoin="round" clip-path="url(#c1)"/>
<path d="M978.175 414.137 C978.175 417.451 975.489 420.137 972.175 420.137 C968.861 420.137 966.175 417.451 966.175 414.137 C966.175 410.824 968.861 408.137 972.175 408.137 C975.489 408.137 978.175 410.824 978.175 414.137 Z" fill="#FAF6EF" fill-opacity="1" clip-path="url(#c1)"/>
<path d="M976.175 414.137 C976.175 416.346 974.384 418.137 972.175 418.137 C969.966 418.137 968.175 416.346 968.175 414.137 C968.175 411.928 969.966 410.137 972.175 410.137 C974.384 410.137 976.175 411.928 976.175 414.137 Z" fill="#B1512D" fill-opacity="1" clip-path="url(#c1)"/>
<path d="M43 391.708 L66.825 385.298 L90.65 384.176 L114.475 391.867 L138.3 380.467 L162.125 368.401 L185.95 360.972 L209.775 350.75 L233.6 358.797 L257.425 358.962 L281.25 360.196 L305.075 367.294 L328.9 361.491 L352.725 362.838 L376.55 368.514 L400.375 363.059 L424.2 360.566 L448.025 364.313 L471.85 367.256 L495.675 382.459 L519.5 383.266 L543.325 382.321 L567.15 385.813 L590.975 381.523 L614.8 366.291 L638.625 366.866 L662.45 377.43 L686.275 381.113 L710.1 382.776 L733.925 380.403 L757.75 374.649 L781.575 369.015 L805.4 363.207 L829.225 353.786 L853.05 360.986 L876.875 364.281 L900.7 352.732 L924.525 358.121 L948.35 357.554 L972.175 361.85" fill="none" stroke="#007C5D" stroke-opacity="1" stroke-width="2" stroke-linecap="round" stroke-linejoin="round" clip-path="url(#c1)"/>
<path d="M978.175 361.85 C978.175 365.164 975.489 367.85 972.175 367.85 C968.861 367.85 966.175 365.164 966.175 361.85 C966.175 358.536 968.861 355.85 972.175 355.85 C975.489 355.85 978.175 358.536 978.175 361.85 Z" fill="#FAF6EF" fill-opacity="1" clip-path="url(#c1)"/>
<path d="M976.175 361.85 C976.175 364.059 974.384 365.85 972.175 365.85 C969.966 365.85 968.175 364.059 968.175 361.85 C968.175 359.641 969.966 357.85 972.175 357.85 C974.384 357.85 976.175 359.641 976.175 361.85 Z" fill="#007C5D" fill-opacity="1" clip-path="url(#c1)"/>
<path d="M43 375.604 L66.825 367.64 L90.65 363.206 L114.475 366.761 L138.3 364.148 L162.125 362.985 L185.95 355.097 L209.775 354.154 L233.6 340.198 L257.425 334.836 L281.25 334.018 L305.075 328.563 L328.9 334.175 L352.725 328.753 L376.55 330.129 L400.375 328.021 L424.2 341.89 L448.025 344.203 L471.85 336.918 L495.675 340.323 L519.5 334.739 L543.325 320.184 L567.15 324.573 L590.975 320.457 L614.8 321.251 L638.625 305.922 L662.45 312.061 L686.275 309.027 L710.1 311.319 L733.925 324.475 L757.75 326.445 L781.575 329.85 L805.4 329.666 L829.225 326.809 L853.05 340.197 L876.875 345.602 L900.7 338.267 L924.525 332.16 L948.35 314.63 L972.175 314.853" fill="none" stroke="#B68B16" stroke-opacity="1" stroke-width="2" stroke-linecap="round" stroke-linejoin="round" clip-path="url(#c1)"/>
<path d="M978.175 314.853 C978.175 318.167 975.489 320.853 972.175 320.853 C968.861 320.853 966.175 318.167 966.175 314.853 C966.175 311.54 968.861 308.853 972.175 308.853 C975.489 308.853 978.175 311.54 978.175 314.853 Z" fill="#FAF6EF" fill-opacity="1" clip-path="url(#c1)"/>
<path d="M976.175 314.853 C976.175 317.062 974.384 318.853 972.175 318.853 C969.966 318.853 968.175 317.062 968.175 314.853 C968.175 312.644 969.966 310.853 972.175 310.853 C974.384 310.853 976.175 312.644 976.175 314.853 Z" fill="#B68B16" fill-opacity="1" clip-path="url(#c1)"/>
<path d="M43 337.115 L66.825 326.246 L90.65 330.338 L114.475 320.817 L138.3 303.111 L162.125 312.094 L185.95 321.534 L209.775 320.532 L233.6 324.824 L257.425 325.88 L281.25 332.502 L305.075 327.509 L328.9 324.578 L352.725 336.375 L376.55 327.9 L400.375 340.664 L424.2 348.173 L448.025 337.149 L471.85 336.801 L495.675 337.834 L519.5 335.554 L543.325 326.505 L567.15 329.653 L590.975 331.799 L614.8 333.275 L638.625 341.539 L662.45 335.59 L686.275 341.843 L710.1 346.026 L733.925 333.893 L757.75 343.861 L781.575 348.007 L805.4 357.096 L829.225 335.578 L853.05 334.267 L876.875 334.033 L900.7 343.129 L924.525 338.929 L948.35 340.759 L972.175 354.343" fill="none" stroke="#614989" stroke-opacity="1" stroke-width="2" stroke-linecap="round" stroke-linejoin="round" clip-path="url(#c1)"/>
<path d="M978.175 354.343 C978.175 357.657 975.489 360.343 972.175 360.343 C968.861 360.343 966.175 357.657 966.175 354.343 C966.175 351.03 968.861 348.343 972.175 348.343 C975.489 348.343 978.175 351.03 978.175 354.343 Z" fill="#FAF6EF" fill-opacity="1" clip-path="url(#c1)"/>
<path d="M976.175 354.343 C976.175 356.553 974.384 358.343 972.175 358.343 C969.966 358.343 968.175 356.553 968.175 354.343 C968.175 352.134 969.966 350.343 972.175 350.343 C974.384 350.343 976.175 352.134 976.175 354.343 Z" fill="#614989" fill-opacity="1" clip-path="url(#c1)"/>
<path d="M43 325.932 L66.825 321.212 L90.65 313.278 L114.475 329.349 L138.3 315.855 L162.125 328.413 L185.95 326.092 L209.775 318.379 L233.6 310.813 L257.425 312.864 L281.25 301.251 L305.075 301.06 L328.9 294.673 L352.725 301.709 L376.55 317.521 L400.375 317.809 L424.2 307.11 L448.025 283.919 L471.85 279.551 L495.675 278.929 L519.5 277.919 L543.325 260.748 L567.15 259.789 L590.975 269.392 L614.8 275.094 L638.625 268.646 L662.45 267.949 L686.275 268.937 L710.1 272.577 L733.925 265.707 L757.75 260.584 L781.575 258.465 L805.4 254.949 L829.225 248.428 L853.05 258.211 L876.875 264.54 L900.7 249.597 L924.525 260.19 L948.35 257.564 L972.175 265.612" fill="none" stroke="#A64D40" stroke-opacity="1" stroke-width="2" stroke-linecap="round" stroke-linejoin="round" clip-path="url(#c1)"/>
<path d="M978.175 265.612 C978.175 268.926 975.489 271.612 972.175 271.612 C968.861 271.612 966.175 268.926 966.175 265.612 C966.175 262.299 968.861 259.612 972.175 259.612 C975.489 259.612 978.175 262.299 978.175 265.612 Z" fill="#FAF6EF" fill-opacity="1" clip-path="url(#c1)"/>
<path d="M976.175 265.612 C976.175 267.822 974.384 269.612 972.175 269.612 C969.966 269.612 968.175 267.822 968.175 265.612 C968.175 263.403 969.966 261.612 972.175 261.612 C974.384 261.612 976.175 263.403 976.175 265.612 Z" fill="#A64D40" fill-opacity="1" clip-path="url(#c1)"/>
<path d="M43 299.448 L66.825 291.218 L90.65 290.978 L114.475 280.804 L138.3 291.328 L162.125 285.062 L185.95 296.606 L209.775 294.327 L233.6 289.656 L257.425 277.605 L281.25 269.397 L305.075 279.633 L328.9 276.238 L352.725 270.734 L376.55 263.308 L400.375 275.322 L424.2 273.593 L448.025 256.1 L471.85 265.69 L495.675 259.279 L519.5 259.235 L543.325 248.347 L567.15 249.692 L590.975 243.438 L614.8 239.167 L638.625 222.5 L662.45 218.734 L686.275 225.014 L710.1 221.064 L733.925 227.487 L757.75 213.239 L781.575 209.161 L805.4 211.347 L829.225 218.765 L853.05 211.562 L876.875 203.337 L900.7 210.939 L924.525 202.368 L948.35 194.972 L972.175 197.073" fill="none" stroke="#8A943F" stroke-opacity="1" stroke-width="2" stroke-linecap="round" stroke-linejoin="round" clip-path="url(#c1)"/>
<path d="M978.175 197.073 C978.175 200.386 975.489 203.073 972.175 203.073 C968.861 203.073 966.175 200.386 966.175 197.073 C966.175 193.759 968.861 191.073 972.175 191.073 C975.489 191.073 978.175 193.759 978.175 197.073 Z" fill="#FAF6EF" fill-opacity="1" clip-path="url(#c1)"/>
<path d="M976.175 197.073 C976.175 199.282 974.384 201.073 972.175 201.073 C969.966 201.073 968.175 199.282 968.175 197.073 C968.175 194.863 969.966 193.073 972.175 193.073 C974.384 193.073 976.175 194.863 976.175 197.073 Z" fill="#8A943F" fill-opacity="1" clip-path="url(#c1)"/>
<path d="M43 277.405 L66.825 278.055 L90.65 274.518 L114.475 264.045 L138.3 259.42 L162.125 252.16 L185.95 232.25 L209.775 230.735 L233.6 234.478 L257.425 240.441 L281.25 241.91 L305.075 237.924 L328.9 245.161 L352.725 258.479 L376.55 256.549 L400.375 253.935 L424.2 239.515 L448.025 244.175 L471.85 237.419 L495.675 233.623 L519.5 219.501 L543.325 231.819 L567.15 240.751 L590.975 241.533 L614.8 244.009 L638.625 243.935 L662.45 242.013 L686.275 241.174 L710.1 240.079 L733.925 238.815 L757.75 226.38 L781.575 234.045 L805.4 241.062 L829.225 247.827 L853.05 243.974 L876.875 237.728 L900.7 235.496 L924.525 243.896 L948.35 249.124 L972.175 243.538" fill="none" stroke="#255E93" stroke-opacity="1" stroke-width="2" stroke-linecap="round" stroke-linejoin="round" clip-path="url(#c1)"/>
<path d="M978.175 243.538 C978.175 246.852 975.489 249.538 972.175 249.538 C968.861 249.538 966.175 246.852 966.175 243.538 C966.175 240.225 968.861 237.538 972.175 237.538 C975.489 237.538 978.175 240.225 978.175 243.538 Z" fill="#FAF6EF" fill-opacity="1" clip-path="url(#c1)"/>
<path d="M976.175 243.538 C976.175 245.747 974.384 247.538 972.175 247.538 C969.966 247.538 968.175 245.747 968.175 243.538 C968.175 241.329 969.966 239.538 972.175 239.538 C974.384 239.538 976.175 241.329 976.175 243.538 Z" fill="#255E93" fill-opacity="1" clip-path="url(#c1)"/>
<path d="M43 252.227 L66.825 266.008 L90.65 258.916 L114.475 272.35 L138.3 276.638 L162.125 284.858 L185.95 279.153 L209.775 287.663 L233.6 286.845 L257.425 289.744 L281.25 288.097 L305.075 282.183 L328.9 278.882 L352.725 265.338 L376.55 281.487 L400.375 261.541 L424.2 264.94 L448.025 261.511 L471.85 260.61 L495.675 247.194 L519.5 252.395 L543.325 242.687 L567.15 237.701 L590.975 230.239 L614.8 216.893 L638.625 222.049 L662.45 227.105 L686.275 220.237 L710.1 226.199 L733.925 229.099 L757.75 220.302 L781.575 223.877 L805.4 211.646 L829.225 201.21 L853.05 210.648 L876.875 202.566 L900.7 193.742 L924.525 177.102 L948.35 173.631 L972.175 180.067" fill="none" stroke="#AA6694" stroke-opacity="1" stroke-width="2" stroke-linecap="round" stroke-linejoin="round" clip-path="url(#c1)"/>
<path d="M978.175 180.067 C978.175 183.381 975.489 186.067 972.175 186.067 C968.861 186.067 966.175 183.381 966.175 180.067 C966.175 176.753 968.861 174.067 972.175 174.067 C975.489 174.067 978.175 176.753 978.175 180.067 Z" fill="#FAF6EF" fill-opacity="1" clip-path="url(#c1)"/>
<path d="M976.175 180.067 C976.175 182.276 974.384 184.067 972.175 184.067 C969.966 184.067 968.175 182.276 968.175 180.067 C968.175 177.858 969.966 176.067 972.175 176.067 C974.384 176.067 976.175 177.858 976.175 180.067 Z" fill="#AA6694" fill-opacity="1" clip-path="url(#c1)"/>
<path d="M43 225.346 L66.825 232.823 L90.65 228.008 L114.475 235.541 L138.3 222.289 L162.125 224.167 L185.95 223.207 L209.775 217.45 L233.6 236.216 L257.425 236.471 L281.25 248.695 L305.075 249.472 L328.9 248.377 L352.725 250.681 L376.55 263.146 L400.375 254.622 L424.2 262.983 L448.025 267.878 L471.85 270.58 L495.675 279.029 L519.5 282.045 L543.325 281.402 L567.15 277.328 L590.975 289.013 L614.8 299.995 L638.625 305.12 L662.45 304.562 L686.275 314.789 L710.1 321.763 L733.925 327.232 L757.75 316.321 L781.575 324.749 L805.4 318.323 L829.225 317.144 L853.05 309.156 L876.875 311.962 L900.7 311.003 L924.525 309.354 L948.35 299.227 L972.175 290.123" fill="none" stroke="#2D30B1" stroke-opacity="1" stroke-width="2" stroke-linecap="round" stroke-linejoin="round" clip-path="url(#c1)"/>
<path d="M978.175 290.123 C978.175 293.437 975.489 296.123 972.175 296.123 C968.861 296.123 966.175 293.437 966.175 290.123 C966.175 286.81 968.861 284.123 972.175 284.123 C975.489 284.123 978.175 286.81 978.175 290.123 Z" fill="#FAF6EF" fill-opacity="1" clip-path="url(#c1)"/>
<path d="M976.175 290.123 C976.175 292.333 974.384 294.123 972.175 294.123 C969.966 294.123 968.175 292.333 968.175 290.123 C968.175 287.914 969.966 286.123 972.175 286.123 C974.384 286.123 976.175 287.914 976.175 290.123 Z" fill="#2D30B1" fill-opacity="1" clip-path="url(#c1)"/>
<path d="M43 198.296 L66.825 206.477 L90.65 216.814 L114.475 224.206 L138.3 217.602 L162.125 215.703 L185.95 215.068 L209.775 199.359 L233.6 197.582 L257.425 191.476 L281.25 184.113 L305.075 177.358 L328.9 176.07 L352.725 167.518 L376.55 166.358 L400.375 165.935 L424.2 163.555 L448.025 153.346 L471.85 152.886 L495.675 136.024 L519.5 135.269 L543.325 144.127 L567.15 139.12 L590.975 131.658 L614.8 117.862 L638.625 113.647 L662.45 118.471 L686.275 112.931 L710.1 112.791 L733.925 113.264 L757.75 108.958 L781.575 107.768 L805.4 105.481 L829.225 106.723 L853.05 112.01 L876.875 102.569 L900.7 108.996 L924.525 111.409 L948.35 117.244 L972.175 111.194" fill="none" stroke="#7C3900" stroke-opacity="1" stroke-width="2" stroke-linecap="round" stroke-linejoin="round" clip-path="url(#c1)"/>
<path d="M978.175 111.194 C978.175 114.508 975.489 117.194 972.175 117.194 C968.861 117.194 966.175 114.508 966.175 111.194 C966.175 107.881 968.861 105.194 972.175 105.194 C975.489 105.194 978.175 107.881 978.175 111.194 Z" fill="#FAF6EF" fill-opacity="1" clip-path="url(#c1)"/>
<path d="M976.175 111.194 C976.175 113.404 974.384 115.194 972.175 115.194 C969.966 115.194 968.175 113.404 968.175 111.194 C968.175 108.985 969.966 107.194 972.175 107.194 C974.384 107.194 976.175 108.985 976.175 111.194 Z" fill="#7C3900" fill-opacity="1" clip-path="url(#c1)"/>
<path d="M43 177.74 L66.825 173.762 L90.65 179.94 L114.475 183.663 L138.3 188.41 L162.125 181.61 L185.95 184.664 L209.775 171.527 L233.6 174.629 L257.425 181.872 L281.25 187.417 L305.075 189.241 L328.9 181.03 L352.725 171.193 L376.55 177.737 L400.375 172.143 L424.2 189.631 L448.025 193.769 L471.85 194.963 L495.675 169.569 L519.5 172.686 L543.325 171.881 L567.15 173.663 L590.975 164.92 L614.8 173.979 L638.625 177.87 L662.45 177.598 L686.275 164.737 L710.1 148.486 L733.925 142.16 L757.75 137.863 L781.575 140.654 L805.4 137.629 L829.225 145.343 L853.05 148.509 L876.875 144.954 L900.7 144.846 L924.525 149.956 L948.35 142.56 L972.175 140.751" fill="none" stroke="#5C16B6" stroke-opacity="1" stroke-width="2" stroke-linecap="round" stroke-linejoin="round" clip-path="url(#c1)"/>
<path d="M978.175 140.751 C978.175 144.064 975.489 146.751 972.175 146.751 C968.861 146.751 966.175 144.064 966.175 140.751 C966.175 137.437 968.861 134.751 972.175 134.751 C975.489 134.751 978.175 137.437 978.175 140.751 Z" fill="#FAF6EF" fill-opacity="1" clip-path="url(#c1)"/>
<path d="M976.175 140.751 C976.175 142.96 974.384 144.751 972.175 144.751 C969.966 144.751 968.175 142.96 968.175 140.751 C968.175 138.542 969.966 136.751 972.175 136.751 C974.384 136.751 976.175 138.542 976.175 140.751 Z" fill="#5C16B6" fill-opacity="1" clip-path="url(#c1)"/>
<path d="M43 161.261 L66.825 160.077 L90.65 158.874 L114.475 168.813 L138.3 170.465 L162.125 176.478 L185.95 166.879 L209.775 157.872 L233.6 161.994 L257.425 158.856 L281.25 170.4 L305.075 173.096 L328.9 171.114 L352.725 147.106 L376.55 152.472 L400.375 147.252 L424.2 143.097 L448.025 157.416 L471.85 145.192 L495.675 148.104 L519.5 158.804 L543.325 161.933 L567.15 172.516 L590.975 183.98 L614.8 182.48 L638.625 167.811 L662.45 171.867 L686.275 165.423 L710.1 165.605 L733.925 167.166 L757.75 162.499 L781.575 154.133 L805.4 164.611 L829.225 163.752 L853.05 165.553 L876.875 164.753 L900.7 166.322 L924.525 166.524 L948.35 171.803 L972.175 176.631" fill="none" stroke="#49894E" stroke-opacity="1" stroke-width="2" stroke-linecap="round" stroke-linejoin="round" clip-path="url(#c1)"/>
<path d="M978.175 176.631 C978.175 179.945 975.489 182.631 972.175 182.631 C968.861 182.631 966.175 179.945 966.175 176.631 C966.175 173.318 968.861 170.631 972.175 170.631 C975.489 170.631 978.175 173.318 978.175 176.631 Z" fill="#FAF6EF" fill-opacity="1" clip-path="url(#c1)"/>
<path d="M976.175 176.631 C976.175 178.841 974.384 180.631 972.175 180.631 C969.966 180.631 968.175 178.841 968.175 176.631 C968.175 174.422 969.966 172.631 972.175 172.631 C974.384 172.631 976.175 174.422 976.175 176.631 Z" fill="#49894E" fill-opacity="1" clip-path="url(#c1)"/>
<path d="M43 59 L43 483" fill="none" stroke="#E6DFD2" stroke-opacity="1" stroke-width="1" stroke-linecap="square" stroke-linejoin="miter"/>
<path d="M43.605 501.208 Q42.319 501.208 41.525 499.998 Q40.73 498.788 40.73 496.839 Q40.73 494.874 41.53 493.678 Q42.33 492.482 43.639 492.482 Q44.947 492.482 45.747 493.678 Q46.547 494.874 46.547 496.822 Q46.547 498.821 45.747 500.015 Q44.947 501.208 43.605 501.208 Z M43.616 500.377 Q45.374 500.377 45.374 496.805 Q45.374 493.313 43.639 493.313 Q41.909 493.313 41.909 496.839 Q41.909 500.377 43.616 500.377 Z" fill="#8C8478" fill-opacity="1"/>
<path d="M162 59 L162 483" fill="none" stroke="#E6DFD2" stroke-opacity="1" stroke-width="1" stroke-linecap="square" stroke-linejoin="miter"/>
<path d="M160.398 501.034 L160.398 500.045 Q161.224 500.377 161.97 500.377 Q162.79 500.377 163.259 499.894 Q163.728 499.411 163.728 498.563 Q163.728 496.693 161.151 496.693 Q160.859 496.693 160.539 496.732 L160.539 492.689 L164.744 492.689 L164.744 493.655 L161.51 493.655 L161.51 495.845 Q163.11 495.845 164.009 496.581 Q164.907 497.316 164.907 498.619 Q164.907 499.832 164.09 500.52 Q163.273 501.208 161.824 501.208 Q161.196 501.208 160.398 501.034 Z" fill="#8C8478" fill-opacity="1"/>
<path d="M281 59 L281 483" fill="none" stroke="#E6DFD2" stroke-opacity="1" stroke-width="1" stroke-linecap="square" stroke-linejoin="miter"/>
<path d="M275.729 501 L275.729 500.169 L277.392 500.169 L277.392 493.61 L275.729 494.026 L275.729 493.172 L278.503 492.482 L278.503 500.169 L280.166 500.169 L280.166 501 Z M284.877 501.208 Q283.591 501.208 282.796 499.998 Q282.002 498.788 282.002 496.839 Q282.002 494.874 282.802 493.678 Q283.602 492.482 284.91 492.482 Q286.219 492.482 287.019 493.678 Q287.819 494.874 287.819 496.822 Q287.819 498.821 287.019 500.015 Q286.219 501.208 284.877 501.208 Z M284.888 500.377 Q286.646 500.377 286.646 496.805 Q286.646 493.313 284.91 493.313 Q283.181 493.313 283.181 496.839 Q283.181 500.377 284.888 500.377 Z" fill="#8C8478" fill-opacity="1"/>
<path d="M400 59 L400 483" fill="none" stroke="#E6DFD2" stroke-opacity="1" stroke-width="1" stroke-linecap="square" stroke-linejoin="miter"/>
<path d="M394.729 501 L394.729 500.169 L396.392 500.169 L396.392 493.61 L394.729 494.026 L394.729 493.172 L397.503 492.482 L397.503 500.169 L399.166 500.169 L399.166 501 Z M401.67 501.034 L401.67 500.045 Q402.495 500.377 403.242 500.377 Q404.062 500.377 404.531 499.894 Q405 499.411 405 498.563 Q405 496.693 402.422 496.693 Q402.13 496.693 401.81 496.732 L401.81 492.689 L406.016 492.689 L406.016 493.655 L402.782 493.655 L402.782 495.845 Q404.382 495.845 405.281 496.581 Q406.179 497.316 406.179 498.619 Q406.179 499.832 405.362 500.52 Q404.545 501.208 403.096 501.208 Q402.467 501.208 401.67 501.034 Z" fill="#8C8478" fill-opacity="1"/>
<path d="M520 59 L520 483" fill="none" stroke="#E6DFD2" stroke-opacity="1" stroke-width="1" stroke-linecap="square" stroke-linejoin="miter"/>
<path d="M513.955 501 L513.955 500.029 Q514.438 498.9 515.909 497.569 L516.543 497.002 Q517.767 495.896 517.767 494.806 Q517.767 494.11 517.349 493.711 Q516.931 493.313 516.201 493.313 Q515.336 493.313 514.162 493.981 L514.162 493.004 Q515.269 492.482 516.358 492.482 Q517.526 492.482 518.233 493.111 Q518.941 493.74 518.941 494.778 Q518.941 495.525 518.584 496.104 Q518.228 496.682 517.256 497.507 L516.83 497.872 Q515.499 499.001 515.291 500.029 L518.902 500.029 L518.902 501 Z M523.877 501.208 Q522.591 501.208 521.796 499.998 Q521.002 498.788 521.002 496.839 Q521.002 494.874 521.802 493.678 Q522.602 492.482 523.91 492.482 Q525.219 492.482 526.019 493.678 Q526.819 494.874 526.819 496.822 Q526.819 498.821 526.019 500.015 Q525.219 501.208 523.877 501.208 Z M523.888 500.377 Q525.646 500.377 525.646 496.805 Q525.646 493.313 523.91 493.313 Q522.181 493.313 522.181 496.839 Q522.181 500.377 523.888 500.377 Z" fill="#8C8478" fill-opacity="1"/>
<path d="M639 59 L639 483" fill="none" stroke="#E6DFD2" stroke-opacity="1" stroke-width="1" stroke-linecap="square" stroke-linejoin="miter"/>
<path d="M632.955 501 L632.955 500.029 Q633.438 498.9 634.909 497.569 L635.543 497.002 Q636.767 495.896 636.767 494.806 Q636.767 494.11 636.349 493.711 Q635.931 493.313 635.201 493.313 Q634.336 493.313 633.162 493.981 L633.162 493.004 Q634.269 492.482 635.358 492.482 Q636.526 492.482 637.233 493.111 Q637.941 493.74 637.941 494.778 Q637.941 495.525 637.584 496.104 Q637.228 496.682 636.256 497.507 L635.83 497.872 Q634.499 499.001 634.291 500.029 L637.902 500.029 L637.902 501 Z M640.67 501.034 L640.67 500.045 Q641.495 500.377 642.242 500.377 Q643.062 500.377 643.531 499.894 Q644 499.411 644 498.563 Q644 496.693 641.422 496.693 Q641.13 496.693 640.81 496.732 L640.81 492.689 L645.016 492.689 L645.016 493.655 L641.782 493.655 L641.782 495.845 Q643.382 495.845 644.281 496.581 Q645.179 497.316 645.179 498.619 Q645.179 499.832 644.362 500.52 Q643.545 501.208 642.096 501.208 Q641.467 501.208 640.67 501.034 Z" fill="#8C8478" fill-opacity="1"/>
<path d="M758 59 L758 483" fill="none" stroke="#E6DFD2" stroke-opacity="1" stroke-width="1" stroke-linecap="square" stroke-linejoin="miter"/>
<path d="M752.168 500.938 L752.168 499.905 Q753.358 500.377 754.043 500.377 Q754.835 500.377 755.332 499.913 Q755.829 499.45 755.829 498.715 Q755.829 496.963 753.375 496.963 L752.937 496.963 L752.937 496.216 L753.325 496.21 Q755.627 496.21 755.627 494.587 Q755.627 493.313 754.111 493.313 Q753.28 493.313 752.28 493.779 L752.28 492.813 Q753.263 492.482 754.189 492.482 Q756.739 492.482 756.739 494.408 Q756.739 495.873 755.004 496.497 Q757.014 496.963 757.014 498.698 Q757.014 499.871 756.239 500.54 Q755.464 501.208 754.111 501.208 Q753.342 501.208 752.168 500.938 Z M761.877 501.208 Q760.591 501.208 759.796 499.998 Q759.002 498.788 759.002 496.839 Q759.002 494.874 759.802 493.678 Q760.602 492.482 761.91 492.482 Q763.219 492.482 764.019 493.678 Q764.819 494.874 764.819 496.822 Q764.819 498.821 764.019 500.015 Q763.219 501.208 761.877 501.208 Z M761.888 500.377 Q763.646 500.377 763.646 496.805 Q763.646 493.313 761.91 493.313 Q760.181 493.313 760.181 496.839 Q760.181 500.377 761.888 500.377 Z" fill="#8C8478" fill-opacity="1"/>
<path d="M877 59 L877 483" fill="none" stroke="#E6DFD2" stroke-opacity="1" stroke-width="1" stroke-linecap="square" stroke-linejoin="miter"/>
<path d="M871.168 500.938 L871.168 499.905 Q872.358 500.377 873.043 500.377 Q873.835 500.377 874.332 499.913 Q874.829 499.45 874.829 498.715 Q874.829 496.963 872.375 496.963 L871.937 496.963 L871.937 496.216 L872.325 496.21 Q874.627 496.21 874.627 494.587 Q874.627 493.313 873.111 493.313 Q872.28 493.313 871.28 493.779 L871.28 492.813 Q872.263 492.482 873.189 492.482 Q875.739 492.482 875.739 494.408 Q875.739 495.873 874.004 496.497 Q876.014 496.963 876.014 498.698 Q876.014 499.871 875.239 500.54 Q874.464 501.208 873.111 501.208 Q872.342 501.208 871.168 500.938 Z M878.67 501.034 L878.67 500.045 Q879.495 500.377 880.242 500.377 Q881.062 500.377 881.531 499.894 Q882 499.411 882 498.563 Q882 496.693 879.422 496.693 Q879.13 496.693 878.81 496.732 L878.81 492.689 L883.016 492.689 L883.016 493.655 L879.782 493.655 L879.782 495.845 Q881.382 495.845 882.281 496.581 Q883.179 497.316 883.179 498.619 Q883.179 499.832 882.362 500.52 Q881.545 501.208 880.096 501.208 Q879.467 501.208 878.67 501.034 Z" fill="#8C8478" fill-opacity="1"/>
<path d="M996 59 L996 483" fill="none" stroke="#E6DFD2" stroke-opacity="1" stroke-width="1" stroke-linecap="square" stroke-linejoin="miter"/>
<path d="M993.329 501 L993.329 498.647 L989.59 498.647 L989.59 497.811 L993.329 492.689 L994.368 492.689 L994.368 497.743 L995.48 497.743 L995.48 498.647 L994.368 498.647 L994.368 501 Z M990.673 497.743 L993.402 497.743 L993.402 494.048 Z M999.877 501.208 Q998.591 501.208 997.796 499.998 Q997.002 498.788 997.002 496.839 Q997.002 494.874 997.802 493.678 Q998.602 492.482 999.91 492.482 Q1001.219 492.482 1002.019 493.678 Q1002.819 494.874 1002.819 496.822 Q1002.819 498.821 1002.019 500.015 Q1001.219 501.208 999.877 501.208 Z M999.888 500.377 Q1001.646 500.377 1001.646 496.805 Q1001.646 493.313 999.91 493.313 Q998.181 493.313 998.181 496.839 Q998.181 500.377 999.888 500.377 Z" fill="#8C8478" fill-opacity="1"/>
<path d="M16 34 L26 34 L26 36 L16 36 L16 34 Z" fill="#B1512D" fill-opacity="1"/>
<path d="M32.937 40.14 Q32.094 40.14 31.623 39.657 Q31.151 39.175 31.151 38.315 L31.151 34.733 L30.387 34.733 L30.387 33.902 L31.151 33.902 L31.151 32.796 L32.257 32.689 L32.257 33.902 L33.852 33.902 L33.852 34.733 L32.257 34.733 L32.257 38.113 Q32.257 39.309 33.291 39.309 Q33.51 39.309 33.824 39.236 L33.824 40 Q33.313 40.14 32.937 40.14 Z M39.877 39.803 Q38.765 40.14 37.974 40.14 Q36.626 40.14 35.775 39.245 Q34.925 38.349 34.925 36.923 Q34.925 35.536 35.674 34.649 Q36.424 33.761 37.592 33.761 Q38.698 33.761 39.302 34.548 Q39.905 35.334 39.905 36.782 L39.9 37.125 L36.053 37.125 Q36.295 39.298 38.181 39.298 Q38.872 39.298 39.877 38.927 Z M36.104 36.294 L38.793 36.294 Q38.793 34.593 37.524 34.593 Q36.25 34.593 36.104 36.294 Z M44.959 39.225 Q43.965 40.14 43.044 40.14 Q42.286 40.14 41.786 39.666 Q41.287 39.191 41.287 38.467 Q41.287 37.468 42.126 36.931 Q42.966 36.395 44.532 36.395 L44.796 36.395 L44.796 35.659 Q44.796 34.598 43.707 34.598 Q42.831 34.598 41.814 35.137 L41.814 34.222 Q42.932 33.767 43.909 33.767 Q44.931 33.767 45.417 34.228 Q45.902 34.688 45.902 35.659 L45.902 38.422 Q45.902 39.371 46.486 39.371 Q46.559 39.371 46.7 39.349 L46.778 39.961 Q46.402 40.14 45.947 40.14 Q45.172 40.14 44.959 39.225 Z M44.796 38.624 L44.796 37.046 L44.426 37.035 Q43.516 37.035 42.954 37.38 Q42.393 37.726 42.393 38.287 Q42.393 38.686 42.674 38.961 Q42.954 39.236 43.359 39.236 Q44.049 39.236 44.796 38.624 Z M48.165 40 L48.165 33.902 L49.271 33.902 L49.271 35.047 Q50.08 33.767 51.349 33.767 Q52.573 33.767 53.017 35.047 Q53.803 33.761 55.061 33.761 Q55.869 33.761 56.313 34.236 Q56.757 34.71 56.757 35.564 L56.757 40 L55.645 40 L55.645 35.738 Q55.645 34.694 54.819 34.694 Q53.96 34.694 53.017 35.912 L53.017 40 L51.905 40 L51.905 35.738 Q51.905 34.688 51.063 34.688 Q50.226 34.688 49.271 35.912 L49.271 40 Z M58.626 37.091 L58.626 36.26 L63.613 36.26 L63.613 37.091 Z M68.7 39.225 Q67.706 40.14 66.785 40.14 Q66.027 40.14 65.528 39.666 Q65.028 39.191 65.028 38.467 Q65.028 37.468 65.867 36.931 Q66.707 36.395 68.273 36.395 L68.537 36.395 L68.537 35.659 Q68.537 34.598 67.448 34.598 Q66.572 34.598 65.556 35.137 L65.556 34.222 Q66.673 33.767 67.65 33.767 Q68.672 33.767 69.158 34.228 Q69.644 34.688 69.644 35.659 L69.644 38.422 Q69.644 39.371 70.228 39.371 Q70.301 39.371 70.441 39.349 L70.52 39.961 Q70.143 40.14 69.688 40.14 Q68.914 40.14 68.7 39.225 Z M68.537 38.624 L68.537 37.046 L68.167 37.035 Q67.257 37.035 66.696 37.38 Q66.134 37.726 66.134 38.287 Q66.134 38.686 66.415 38.961 Q66.696 39.236 67.1 39.236 Q67.791 39.236 68.537 38.624 Z" fill="#2B2620" fill-opacity="1"/>
<path d="M82 34 L92 34 L92 36 L82 36 L82 34 Z" fill="#007C5D" fill-opacity="1"/>
<path d="M98.937 40.14 Q98.094 40.14 97.623 39.657 Q97.151 39.175 97.151 38.315 L97.151 34.733 L96.387 34.733 L96.387 33.902 L97.151 33.902 L97.151 32.796 L98.257 32.689 L98.257 33.902 L99.852 33.902 L99.852 34.733 L98.257 34.733 L98.257 38.113 Q98.257 39.309 99.291 39.309 Q99.51 39.309 99.824 39.236 L99.824 40 Q99.313 40.14 98.937 40.14 Z M105.877 39.803 Q104.765 40.14 103.974 40.14 Q102.626 40.14 101.775 39.245 Q100.925 38.349 100.925 36.923 Q100.925 35.536 101.674 34.649 Q102.424 33.761 103.592 33.761 Q104.698 33.761 105.302 34.548 Q105.905 35.334 105.905 36.782 L105.9 37.125 L102.053 37.125 Q102.295 39.298 104.181 39.298 Q104.872 39.298 105.877 38.927 Z M102.104 36.294 L104.793 36.294 Q104.793 34.593 103.524 34.593 Q102.25 34.593 102.104 36.294 Z M110.959 39.225 Q109.965 40.14 109.044 40.14 Q108.286 40.14 107.786 39.666 Q107.287 39.191 107.287 38.467 Q107.287 37.468 108.126 36.931 Q108.966 36.395 110.532 36.395 L110.796 36.395 L110.796 35.659 Q110.796 34.598 109.707 34.598 Q108.831 34.598 107.814 35.137 L107.814 34.222 Q108.932 33.767 109.909 33.767 Q110.931 33.767 111.417 34.228 Q111.902 34.688 111.902 35.659 L111.902 38.422 Q111.902 39.371 112.486 39.371 Q112.559 39.371 112.7 39.349 L112.778 39.961 Q112.402 40.14 111.947 40.14 Q111.172 40.14 110.959 39.225 Z M110.796 38.624 L110.796 37.046 L110.426 37.035 Q109.516 37.035 108.954 37.38 Q108.393 37.726 108.393 38.287 Q108.393 38.686 108.674 38.961 Q108.954 39.236 109.359 39.236 Q110.049 39.236 110.796 38.624 Z M114.165 40 L114.165 33.902 L115.271 33.902 L115.271 35.047 Q116.08 33.767 117.349 33.767 Q118.573 33.767 119.017 35.047 Q119.803 33.761 121.061 33.761 Q121.869 33.761 122.313 34.236 Q122.757 34.71 122.757 35.564 L122.757 40 L121.645 40 L121.645 35.738 Q121.645 34.694 120.819 34.694 Q119.96 34.694 119.017 35.912 L119.017 40 L117.905 40 L117.905 35.738 Q117.905 34.688 117.063 34.688 Q116.226 34.688 115.271 35.912 L115.271 40 Z M124.626 37.091 L124.626 36.26 L129.613 36.26 L129.613 37.091 Z M131.556 40.067 L131.556 31.134 L132.662 31.134 L132.662 35.047 Q133.341 33.767 134.7 33.767 Q135.801 33.767 136.432 34.57 Q137.064 35.373 137.064 36.766 Q137.064 38.282 136.348 39.211 Q135.632 40.14 134.464 40.14 Q133.381 40.14 132.662 39.309 L132.527 40.067 Z M132.662 38.546 Q133.515 39.309 134.29 39.309 Q135.885 39.309 135.885 36.878 Q135.885 34.733 134.47 34.733 Q133.543 34.733 132.662 35.738 Z" fill="#2B2620" fill-opacity="1"/>
<path d="M149 34 L159 34 L159 36 L149 36 L149 34 Z" fill="#B68B16" fill-opacity="1"/>
<path d="M165.937 40.14 Q165.094 40.14 164.623 39.657 Q164.151 39.175 164.151 38.315 L164.151 34.733 L163.387 34.733 L163.387 33.902 L164.151 33.902 L164.151 32.796 L165.257 32.689 L165.257 33.902 L166.852 33.902 L166.852 34.733 L165.257 34.733 L165.257 38.113 Q165.257 39.309 166.291 39.309 Q166.51 39.309 166.824 39.236 L166.824 40 Q166.313 40.14 165.937 40.14 Z M172.877 39.803 Q171.765 40.14 170.974 40.14 Q169.626 40.14 168.775 39.245 Q167.925 38.349 167.925 36.923 Q167.925 35.536 168.674 34.649 Q169.424 33.761 170.592 33.761 Q171.698 33.761 172.302 34.548 Q172.905 35.334 172.905 36.782 L172.9 37.125 L169.053 37.125 Q169.295 39.298 171.181 39.298 Q171.872 39.298 172.877 38.927 Z M169.104 36.294 L171.793 36.294 Q171.793 34.593 170.524 34.593 Q169.25 34.593 169.104 36.294 Z M177.959 39.225 Q176.965 40.14 176.044 40.14 Q175.286 40.14 174.786 39.666 Q174.287 39.191 174.287 38.467 Q174.287 37.468 175.126 36.931 Q175.966 36.395 177.532 36.395 L177.796 36.395 L177.796 35.659 Q177.796 34.598 176.707 34.598 Q175.831 34.598 174.814 35.137 L174.814 34.222 Q175.932 33.767 176.909 33.767 Q177.931 33.767 178.417 34.228 Q178.902 34.688 178.902 35.659 L178.902 38.422 Q178.902 39.371 179.486 39.371 Q179.559 39.371 179.7 39.349 L179.778 39.961 Q179.402 40.14 178.947 40.14 Q178.172 40.14 177.959 39.225 Z M177.796 38.624 L177.796 37.046 L177.426 37.035 Q176.516 37.035 175.954 37.38 Q175.393 37.726 175.393 38.287 Q175.393 38.686 175.674 38.961 Q175.954 39.236 176.359 39.236 Q177.049 39.236 177.796 38.624 Z M181.165 40 L181.165 33.902 L182.271 33.902 L182.271 35.047 Q183.08 33.767 184.349 33.767 Q185.573 33.767 186.017 35.047 Q186.803 33.761 188.061 33.761 Q188.869 33.761 189.313 34.236 Q189.757 34.71 189.757 35.564 L189.757 40 L188.645 40 L188.645 35.738 Q188.645 34.694 187.819 34.694 Q186.96 34.694 186.017 35.912 L186.017 40 L184.905 40 L184.905 35.738 Q184.905 34.688 184.063 34.688 Q183.226 34.688 182.271 35.912 L182.271 40 Z M191.626 37.091 L191.626 36.26 L196.613 36.26 L196.613 37.091 Z M200.937 40.14 Q199.701 40.14 198.887 39.225 Q198.073 38.31 198.073 36.917 Q198.073 35.429 198.879 34.598 Q199.684 33.767 201.127 33.767 Q201.841 33.767 202.722 33.964 L202.722 34.89 Q201.784 34.615 201.195 34.615 Q200.347 34.615 199.833 35.252 Q199.319 35.89 199.319 36.951 Q199.319 37.979 199.847 38.613 Q200.375 39.248 201.229 39.248 Q201.987 39.248 202.79 38.86 L202.79 39.815 Q201.717 40.14 200.937 40.14 Z" fill="#2B2620" fill-opacity="1"/>
<path d="M215 34 L225 34 L225 36 L215 36 L215 34 Z" fill="#614989" fill-opacity="1"/>
<path d="M231.937 40.14 Q231.094 40.14 230.623 39.657 Q230.151 39.175 230.151 38.315 L230.151 34.733 L229.387 34.733 L229.387 33.902 L230.151 33.902 L230.151 32.796 L231.257 32.689 L231.257 33.902 L232.852 33.902 L232.852 34.733 L231.257 34.733 L231.257 38.113 Q231.257 39.309 232.291 39.309 Q232.51 39.309 232.824 39.236 L232.824 40 Q232.313 40.14 231.937 40.14 Z M238.877 39.803 Q237.765 40.14 236.974 40.14 Q235.626 40.14 234.775 39.245 Q233.925 38.349 233.925 36.923 Q233.925 35.536 234.674 34.649 Q235.424 33.761 236.592 33.761 Q237.698 33.761 238.302 34.548 Q238.905 35.334 238.905 36.782 L238.9 37.125 L235.053 37.125 Q235.295 39.298 237.181 39.298 Q237.872 39.298 238.877 38.927 Z M235.104 36.294 L237.793 36.294 Q237.793 34.593 236.524 34.593 Q235.25 34.593 235.104 36.294 Z M243.959 39.225 Q242.965 40.14 242.044 40.14 Q241.286 40.14 240.786 39.666 Q240.287 39.191 240.287 38.467 Q240.287 37.468 241.126 36.931 Q241.966 36.395 243.532 36.395 L243.796 36.395 L243.796 35.659 Q243.796 34.598 242.707 34.598 Q241.831 34.598 240.814 35.137 L240.814 34.222 Q241.932 33.767 242.909 33.767 Q243.931 33.767 244.417 34.228 Q244.902 34.688 244.902 35.659 L244.902 38.422 Q244.902 39.371 245.486 39.371 Q245.559 39.371 245.7 39.349 L245.778 39.961 Q245.402 40.14 244.947 40.14 Q244.172 40.14 243.959 39.225 Z M243.796 38.624 L243.796 37.046 L243.426 37.035 Q242.516 37.035 241.954 37.38 Q241.393 37.726 241.393 38.287 Q241.393 38.686 241.674 38.961 Q241.954 39.236 242.359 39.236 Q243.049 39.236 243.796 38.624 Z M247.165 40 L247.165 33.902 L248.271 33.902 L248.271 35.047 Q249.08 33.767 250.349 33.767 Q251.573 33.767 252.017 35.047 Q252.803 33.761 254.061 33.761 Q254.869 33.761 255.313 34.236 Q255.757 34.71 255.757 35.564 L255.757 40 L254.645 40 L254.645 35.738 Q254.645 34.694 253.819 34.694 Q252.96 34.694 252.017 35.912 L252.017 40 L250.905 40 L250.905 35.738 Q250.905 34.688 250.063 34.688 Q249.226 34.688 248.271 35.912 L248.271 40 Z M257.626 37.091 L257.626 36.26 L262.613 36.26 L262.613 37.091 Z M268.469 40 L268.469 38.854 Q267.796 40.14 266.437 40.14 Q265.336 40.14 264.704 39.337 Q264.073 38.534 264.073 37.142 Q264.073 35.62 264.789 34.694 Q265.505 33.767 266.673 33.767 Q267.756 33.767 268.469 34.598 L268.469 31.134 L269.581 31.134 L269.581 40 Z M268.469 35.356 Q267.61 34.598 266.841 34.598 Q265.252 34.598 265.252 37.03 Q265.252 39.169 266.667 39.169 Q267.588 39.169 268.469 38.164 Z" fill="#2B2620" fill-opacity="1"/>
<path d="M282 34 L292 34 L292 36 L282 36 L282 34 Z" fill="#A64D40" fill-opacity="1"/>
<path d="M298.937 40.14 Q298.094 40.14 297.623 39.657 Q297.151 39.175 297.151 38.315 L297.151 34.733 L296.387 34.733 L296.387 33.902 L297.151 33.902 L297.151 32.796 L298.257 32.689 L298.257 33.902 L299.852 33.902 L299.852 34.733 L298.257 34.733 L298.257 38.113 Q298.257 39.309 299.291 39.309 Q299.51 39.309 299.824 39.236 L299.824 40 Q299.313 40.14 298.937 40.14 Z M305.877 39.803 Q304.765 40.14 303.974 40.14 Q302.626 40.14 301.775 39.245 Q300.925 38.349 300.925 36.923 Q300.925 35.536 301.674 34.649 Q302.424 33.761 303.592 33.761 Q304.698 33.761 305.302 34.548 Q305.905 35.334 305.905 36.782 L305.9 37.125 L302.053 37.125 Q302.295 39.298 304.181 39.298 Q304.872 39.298 305.877 38.927 Z M302.104 36.294 L304.793 36.294 Q304.793 34.593 303.524 34.593 Q302.25 34.593 302.104 36.294 Z M310.959 39.225 Q309.965 40.14 309.044 40.14 Q308.286 40.14 307.786 39.666 Q307.287 39.191 307.287 38.467 Q307.287 37.468 308.126 36.931 Q308.966 36.395 310.532 36.395 L310.796 36.395 L310.796 35.659 Q310.796 34.598 309.707 34.598 Q308.831 34.598 307.814 35.137 L307.814 34.222 Q308.932 33.767 309.909 33.767 Q310.931 33.767 311.417 34.228 Q311.902 34.688 311.902 35.659 L311.902 38.422 Q311.902 39.371 312.486 39.371 Q312.559 39.371 312.7 39.349 L312.778 39.961 Q312.402 40.14 311.947 40.14 Q311.172 40.14 310.959 39.225 Z M310.796 38.624 L310.796 37.046 L310.426 37.035 Q309.516 37.035 308.954 37.38 Q308.393 37.726 308.393 38.287 Q308.393 38.686 308.674 38.961 Q308.954 39.236 309.359 39.236 Q310.049 39.236 310.796 38.624 Z M314.165 40 L314.165 33.902 L315.271 33.902 L315.271 35.047 Q316.08 33.767 317.349 33.767 Q318.573 33.767 319.017 35.047 Q319.803 33.761 321.061 33.761 Q321.869 33.761 322.313 34.236 Q322.757 34.71 322.757 35.564 L322.757 40 L321.645 40 L321.645 35.738 Q321.645 34.694 320.819 34.694 Q319.96 34.694 319.017 35.912 L319.017 40 L317.905 40 L317.905 35.738 Q317.905 34.688 317.063 34.688 Q316.226 34.688 315.271 35.912 L315.271 40 Z M324.626 37.091 L324.626 36.26 L329.613 36.26 L329.613 37.091 Z M336.025 39.803 Q334.914 40.14 334.122 40.14 Q332.774 40.14 331.923 39.245 Q331.073 38.349 331.073 36.923 Q331.073 35.536 331.822 34.649 Q332.572 33.761 333.74 33.761 Q334.846 33.761 335.45 34.548 Q336.053 35.334 336.053 36.782 L336.048 37.125 L332.201 37.125 Q332.443 39.298 334.33 39.298 Q335.02 39.298 336.025 38.927 Z M332.252 36.294 L334.942 36.294 Q334.942 34.593 333.673 34.593 Q332.398 34.593 332.252 36.294 Z" fill="#2B2620" fill-opacity="1"/>
<path d="M348 34 L358 34 L358 36 L348 36 L348 34 Z" fill="#8A943F" fill-opacity="1"/>
<path d="M364.937 40.14 Q364.094 40.14 363.623 39.657 Q363.151 39.175 363.151 38.315 L363.151 34.733 L362.387 34.733 L362.387 33.902 L363.151 33.902 L363.151 32.796 L364.257 32.689 L364.257 33.902 L365.852 33.902 L365.852 34.733 L364.257 34.733 L364.257 38.113 Q364.257 39.309 365.291 39.309 Q365.51 39.309 365.824 39.236 L365.824 40 Q365.313 40.14 364.937 40.14 Z M371.877 39.803 Q370.765 40.14 369.974 40.14 Q368.626 40.14 367.775 39.245 Q366.925 38.349 366.925 36.923 Q366.925 35.536 367.674 34.649 Q368.424 33.761 369.592 33.761 Q370.698 33.761 371.302 34.548 Q371.905 35.334 371.905 36.782 L371.9 37.125 L368.053 37.125 Q368.295 39.298 370.181 39.298 Q370.872 39.298 371.877 38.927 Z M368.104 36.294 L370.793 36.294 Q370.793 34.593 369.524 34.593 Q368.25 34.593 368.104 36.294 Z M376.959 39.225 Q375.965 40.14 375.044 40.14 Q374.286 40.14 373.786 39.666 Q373.287 39.191 373.287 38.467 Q373.287 37.468 374.126 36.931 Q374.966 36.395 376.532 36.395 L376.796 36.395 L376.796 35.659 Q376.796 34.598 375.707 34.598 Q374.831 34.598 373.814 35.137 L373.814 34.222 Q374.932 33.767 375.909 33.767 Q376.931 33.767 377.417 34.228 Q377.902 34.688 377.902 35.659 L377.902 38.422 Q377.902 39.371 378.486 39.371 Q378.559 39.371 378.7 39.349 L378.778 39.961 Q378.402 40.14 377.947 40.14 Q377.172 40.14 376.959 39.225 Z M376.796 38.624 L376.796 37.046 L376.426 37.035 Q375.516 37.035 374.954 37.38 Q374.393 37.726 374.393 38.287 Q374.393 38.686 374.674 38.961 Q374.954 39.236 375.359 39.236 Q376.049 39.236 376.796 38.624 Z M380.165 40 L380.165 33.902 L381.271 33.902 L381.271 35.047 Q382.08 33.767 383.349 33.767 Q384.573 33.767 385.017 35.047 Q385.803 33.761 387.061 33.761 Q387.869 33.761 388.313 34.236 Q388.757 34.71 388.757 35.564 L388.757 40 L387.645 40 L387.645 35.738 Q387.645 34.694 386.819 34.694 Q385.96 34.694 385.017 35.912 L385.017 40 L383.905 40 L383.905 35.738 Q383.905 34.688 383.063 34.688 Q382.226 34.688 381.271 35.912 L381.271 40 Z M390.626 37.091 L390.626 36.26 L395.613 36.26 L395.613 37.091 Z M398.875 34.733 L398.875 40 L397.763 40 L397.763 34.733 L396.899 34.733 L396.899 33.902 L397.763 33.902 L397.763 33.172 Q397.763 30.993 399.751 30.993 Q400.307 30.993 401.015 31.178 L401.015 32.054 Q400.268 31.824 399.819 31.824 Q399.274 31.824 399.075 32.085 Q398.875 32.346 398.875 33.054 L398.875 33.902 L400.397 33.902 L400.397 34.733 Z" fill="#2B2620" fill-opacity="1"/>
<path d="M412 34 L422 34 L422 36 L412 36 L412 34 Z" fill="#255E93" fill-opacity="1"/>
<path d="M428.937 40.14 Q428.094 40.14 427.623 39.657 Q427.151 39.175 427.151 38.315 L427.151 34.733 L426.387 34.733 L426.387 33.902 L427.151 33.902 L427.151 32.796 L428.257 32.689 L428.257 33.902 L429.852 33.902 L429.852 34.733 L428.257 34.733 L428.257 38.113 Q428.257 39.309 429.291 39.309 Q429.51 39.309 429.824 39.236 L429.824 40 Q429.313 40.14 428.937 40.14 Z M435.877 39.803 Q434.765 40.14 433.974 40.14 Q432.626 40.14 431.775 39.245 Q430.925 38.349 430.925 36.923 Q430.925 35.536 431.674 34.649 Q432.424 33.761 433.592 33.761 Q434.698 33.761 435.302 34.548 Q435.905 35.334 435.905 36.782 L435.9 37.125 L432.053 37.125 Q432.295 39.298 434.181 39.298 Q434.872 39.298 435.877 38.927 Z M432.104 36.294 L434.793 36.294 Q434.793 34.593 433.524 34.593 Q432.25 34.593 432.104 36.294 Z M440.959 39.225 Q439.965 40.14 439.044 40.14 Q438.286 40.14 437.786 39.666 Q437.287 39.191 437.287 38.467 Q437.287 37.468 438.126 36.931 Q438.966 36.395 440.532 36.395 L440.796 36.395 L440.796 35.659 Q440.796 34.598 439.707 34.598 Q438.831 34.598 437.814 35.137 L437.814 34.222 Q438.932 33.767 439.909 33.767 Q440.931 33.767 441.417 34.228 Q441.902 34.688 441.902 35.659 L441.902 38.422 Q441.902 39.371 442.486 39.371 Q442.559 39.371 442.7 39.349 L442.778 39.961 Q442.402 40.14 441.947 40.14 Q441.172 40.14 440.959 39.225 Z M440.796 38.624 L440.796 37.046 L440.426 37.035 Q439.516 37.035 438.954 37.38 Q438.393 37.726 438.393 38.287 Q438.393 38.686 438.674 38.961 Q438.954 39.236 439.359 39.236 Q440.049 39.236 440.796 38.624 Z M444.165 40 L444.165 33.902 L445.271 33.902 L445.271 35.047 Q446.08 33.767 447.349 33.767 Q448.573 33.767 449.017 35.047 Q449.803 33.761 451.061 33.761 Q451.869 33.761 452.313 34.236 Q452.757 34.71 452.757 35.564 L452.757 40 L451.645 40 L451.645 35.738 Q451.645 34.694 450.819 34.694 Q449.96 34.694 449.017 35.912 L449.017 40 L447.905 40 L447.905 35.738 Q447.905 34.688 447.063 34.688 Q446.226 34.688 445.271 35.912 L445.271 40 Z M454.626 37.091 L454.626 36.26 L459.613 36.26 L459.613 37.091 Z M461.578 42.027 L461.707 41.067 Q462.667 41.522 463.6 41.522 Q465.469 41.522 465.469 39.54 L465.469 38.579 Q464.857 39.86 463.459 39.86 Q462.364 39.86 461.719 39.062 Q461.073 38.265 461.073 36.912 Q461.073 35.519 461.808 34.643 Q462.544 33.767 463.712 33.767 Q464.734 33.767 465.469 34.598 L465.469 33.902 L466.581 33.902 L466.581 38.338 Q466.581 39.77 466.432 40.458 Q466.284 41.146 465.874 41.583 Q465.149 42.353 463.622 42.353 Q462.555 42.353 461.578 42.027 Z M465.469 37.889 L465.469 35.356 Q464.74 34.598 463.88 34.598 Q463.117 34.598 462.684 35.21 Q462.252 35.822 462.252 36.889 Q462.252 38.894 463.661 38.894 Q464.622 38.894 465.469 37.889 Z" fill="#2B2620" fill-opacity="1"/>
<path d="M479 34 L489 34 L489 36 L479 36 L479 34 Z" fill="#AA6694" fill-opacity="1"/>
<path d="M495.937 40.14 Q495.094 40.14 494.623 39.657 Q494.151 39.175 494.151 38.315 L494.151 34.733 L493.387 34.733 L493.387 33.902 L494.151 33.902 L494.151 32.796 L495.257 32.689 L495.257 33.902 L496.852 33.902 L496.852 34.733 L495.257 34.733 L495.257 38.113 Q495.257 39.309 496.291 39.309 Q496.51 39.309 496.824 39.236 L496.824 40 Q496.313 40.14 495.937 40.14 Z M502.877 39.803 Q501.765 40.14 500.974 40.14 Q499.626 40.14 498.775 39.245 Q497.925 38.349 497.925 36.923 Q497.925 35.536 498.674 34.649 Q499.424 33.761 500.592 33.761 Q501.698 33.761 502.302 34.548 Q502.905 35.334 502.905 36.782 L502.9 37.125 L499.053 37.125 Q499.295 39.298 501.181 39.298 Q501.872 39.298 502.877 38.927 Z M499.104 36.294 L501.793 36.294 Q501.793 34.593 500.524 34.593 Q499.25 34.593 499.104 36.294 Z M507.959 39.225 Q506.965 40.14 506.044 40.14 Q505.286 40.14 504.786 39.666 Q504.287 39.191 504.287 38.467 Q504.287 37.468 505.126 36.931 Q505.966 36.395 507.532 36.395 L507.796 36.395 L507.796 35.659 Q507.796 34.598 506.707 34.598 Q505.831 34.598 504.814 35.137 L504.814 34.222 Q505.932 33.767 506.909 33.767 Q507.931 33.767 508.417 34.228 Q508.902 34.688 508.902 35.659 L508.902 38.422 Q508.902 39.371 509.486 39.371 Q509.559 39.371 509.7 39.349 L509.778 39.961 Q509.402 40.14 508.947 40.14 Q508.172 40.14 507.959 39.225 Z M507.796 38.624 L507.796 37.046 L507.426 37.035 Q506.516 37.035 505.954 37.38 Q505.393 37.726 505.393 38.287 Q505.393 38.686 505.674 38.961 Q505.954 39.236 506.359 39.236 Q507.049 39.236 507.796 38.624 Z M511.165 40 L511.165 33.902 L512.271 33.902 L512.271 35.047 Q513.08 33.767 514.349 33.767 Q515.573 33.767 516.017 35.047 Q516.803 33.761 518.061 33.761 Q518.869 33.761 519.313 34.236 Q519.757 34.71 519.757 35.564 L519.757 40 L518.645 40 L518.645 35.738 Q518.645 34.694 517.819 34.694 Q516.96 34.694 516.017 35.912 L516.017 40 L514.905 40 L514.905 35.738 Q514.905 34.688 514.063 34.688 Q513.226 34.688 512.271 35.912 L512.271 40 Z M521.626 37.091 L521.626 36.26 L526.613 36.26 L526.613 37.091 Z M528.556 40 L528.556 31.134 L529.662 31.134 L529.662 35.047 Q530.538 33.767 531.807 33.767 Q532.599 33.767 533.07 34.27 Q533.542 34.772 533.542 35.62 L533.542 40 L532.436 40 L532.436 35.979 Q532.436 35.3 532.236 35.011 Q532.037 34.722 531.577 34.722 Q530.56 34.722 529.662 36.052 L529.662 40 Z" fill="#2B2620" fill-opacity="1"/>
<path d="M546 34 L556 34 L556 36 L546 36 L546 34 Z" fill="#2D30B1" fill-opacity="1"/>
<path d="M562.937 40.14 Q562.094 40.14 561.623 39.657 Q561.151 39.175 561.151 38.315 L561.151 34.733 L560.387 34.733 L560.387 33.902 L561.151 33.902 L561.151 32.796 L562.257 32.689 L562.257 33.902 L563.852 33.902 L563.852 34.733 L562.257 34.733 L562.257 38.113 Q562.257 39.309 563.291 39.309 Q563.51 39.309 563.824 39.236 L563.824 40 Q563.313 40.14 562.937 40.14 Z M569.877 39.803 Q568.765 40.14 567.974 40.14 Q566.626 40.14 565.775 39.245 Q564.925 38.349 564.925 36.923 Q564.925 35.536 565.674 34.649 Q566.424 33.761 567.592 33.761 Q568.698 33.761 569.302 34.548 Q569.905 35.334 569.905 36.782 L569.9 37.125 L566.053 37.125 Q566.295 39.298 568.181 39.298 Q568.872 39.298 569.877 38.927 Z M566.104 36.294 L568.793 36.294 Q568.793 34.593 567.524 34.593 Q566.25 34.593 566.104 36.294 Z M574.959 39.225 Q573.965 40.14 573.044 40.14 Q572.286 40.14 571.786 39.666 Q571.287 39.191 571.287 38.467 Q571.287 37.468 572.126 36.931 Q572.966 36.395 574.532 36.395 L574.796 36.395 L574.796 35.659 Q574.796 34.598 573.707 34.598 Q572.831 34.598 571.814 35.137 L571.814 34.222 Q572.932 33.767 573.909 33.767 Q574.931 33.767 575.417 34.228 Q575.902 34.688 575.902 35.659 L575.902 38.422 Q575.902 39.371 576.486 39.371 Q576.559 39.371 576.7 39.349 L576.778 39.961 Q576.402 40.14 575.947 40.14 Q575.172 40.14 574.959 39.225 Z M574.796 38.624 L574.796 37.046 L574.426 37.035 Q573.516 37.035 572.954 37.38 Q572.393 37.726 572.393 38.287 Q572.393 38.686 572.674 38.961 Q572.954 39.236 573.359 39.236 Q574.049 39.236 574.796 38.624 Z M578.165 40 L578.165 33.902 L579.271 33.902 L579.271 35.047 Q580.08 33.767 581.349 33.767 Q582.573 33.767 583.017 35.047 Q583.803 33.761 585.061 33.761 Q585.869 33.761 586.313 34.236 Q586.757 34.71 586.757 35.564 L586.757 40 L585.645 40 L585.645 35.738 Q585.645 34.694 584.819 34.694 Q583.96 34.694 583.017 35.912 L583.017 40 L581.905 40 L581.905 35.738 Q581.905 34.688 581.063 34.688 Q580.226 34.688 579.271 35.912 L579.271 40 Z M588.626 37.091 L588.626 36.26 L593.613 36.26 L593.613 37.091 Z M595.556 40 L595.556 33.902 L596.662 33.902 L596.662 40 Z M595.556 32.796 L595.556 31.689 L596.662 31.689 L596.662 32.796 Z" fill="#2B2620" fill-opacity="1"/>
<path d="M609 34 L619 34 L619 36 L609 36 L609 34 Z" fill="#7C3900" fill-opacity="1"/>
<path d="M625.937 40.14 Q625.094 40.14 624.623 39.657 Q624.151 39.175 624.151 38.315 L624.151 34.733 L623.387 34.733 L623.387 33.902 L624.151 33.902 L624.151 32.796 L625.257 32.689 L625.257 33.902 L626.852 33.902 L626.852 34.733 L625.257 34.733 L625.257 38.113 Q625.257 39.309 626.291 39.309 Q626.51 39.309 626.824 39.236 L626.824 40 Q626.313 40.14 625.937 40.14 Z M632.877 39.803 Q631.765 40.14 630.974 40.14 Q629.626 40.14 628.775 39.245 Q627.925 38.349 627.925 36.923 Q627.925 35.536 628.674 34.649 Q629.424 33.761 630.592 33.761 Q631.698 33.761 632.302 34.548 Q632.905 35.334 632.905 36.782 L632.9 37.125 L629.053 37.125 Q629.295 39.298 631.181 39.298 Q631.872 39.298 632.877 38.927 Z M629.104 36.294 L631.793 36.294 Q631.793 34.593 630.524 34.593 Q629.25 34.593 629.104 36.294 Z M637.959 39.225 Q636.965 40.14 636.044 40.14 Q635.286 40.14 634.786 39.666 Q634.287 39.191 634.287 38.467 Q634.287 37.468 635.126 36.931 Q635.966 36.395 637.532 36.395 L637.796 36.395 L637.796 35.659 Q637.796 34.598 636.707 34.598 Q635.831 34.598 634.814 35.137 L634.814 34.222 Q635.932 33.767 636.909 33.767 Q637.931 33.767 638.417 34.228 Q638.902 34.688 638.902 35.659 L638.902 38.422 Q638.902 39.371 639.486 39.371 Q639.559 39.371 639.7 39.349 L639.778 39.961 Q639.402 40.14 638.947 40.14 Q638.172 40.14 637.959 39.225 Z M637.796 38.624 L637.796 37.046 L637.426 37.035 Q636.516 37.035 635.954 37.38 Q635.393 37.726 635.393 38.287 Q635.393 38.686 635.674 38.961 Q635.954 39.236 636.359 39.236 Q637.049 39.236 637.796 38.624 Z M641.165 40 L641.165 33.902 L642.271 33.902 L642.271 35.047 Q643.08 33.767 644.349 33.767 Q645.573 33.767 646.017 35.047 Q646.803 33.761 648.061 33.761 Q648.869 33.761 649.313 34.236 Q649.757 34.71 649.757 35.564 L649.757 40 L648.645 40 L648.645 35.738 Q648.645 34.694 647.819 34.694 Q646.96 34.694 646.017 35.912 L646.017 40 L644.905 40 L644.905 35.738 Q644.905 34.688 644.063 34.688 Q643.226 34.688 642.271 35.912 L642.271 40 Z M651.626 37.091 L651.626 36.26 L656.613 36.26 L656.613 37.091 Z M656.585 42.072 L656.585 41.196 Q657.36 41.522 657.764 41.522 Q658.348 41.522 658.539 41.219 Q658.73 40.915 658.73 40 L658.73 33.902 L659.842 33.902 L659.842 40 Q659.842 42.353 657.854 42.353 Q657.264 42.353 656.585 42.072 Z M658.73 32.796 L658.73 31.689 L659.842 31.689 L659.842 32.796 Z" fill="#2B2620" fill-opacity="1"/>
<path d="M672 34 L682 34 L682 36 L672 36 L672 34 Z" fill="#5C16B6" fill-opacity="1"/>
<path d="M688.937 40.14 Q688.094 40.14 687.623 39.657 Q687.151 39.175 687.151 38.315 L687.151 34.733 L686.387 34.733 L686.387 33.902 L687.151 33.902 L687.151 32.796 L688.257 32.689 L688.257 33.902 L689.852 33.902 L689.852 34.733 L688.257 34.733 L688.257 38.113 Q688.257 39.309 689.291 39.309 Q689.51 39.309 689.824 39.236 L689.824 40 Q689.313 40.14 688.937 40.14 Z M695.877 39.803 Q694.765 40.14 693.974 40.14 Q692.626 40.14 691.775 39.245 Q690.925 38.349 690.925 36.923 Q690.925 35.536 691.674 34.649 Q692.424 33.761 693.592 33.761 Q694.698 33.761 695.302 34.548 Q695.905 35.334 695.905 36.782 L695.9 37.125 L692.053 37.125 Q692.295 39.298 694.181 39.298 Q694.872 39.298 695.877 38.927 Z M692.104 36.294 L694.793 36.294 Q694.793 34.593 693.524 34.593 Q692.25 34.593 692.104 36.294 Z M700.959 39.225 Q699.965 40.14 699.044 40.14 Q698.286 40.14 697.786 39.666 Q697.287 39.191 697.287 38.467 Q697.287 37.468 698.126 36.931 Q698.966 36.395 700.532 36.395 L700.796 36.395 L700.796 35.659 Q700.796 34.598 699.707 34.598 Q698.831 34.598 697.814 35.137 L697.814 34.222 Q698.932 33.767 699.909 33.767 Q700.931 33.767 701.417 34.228 Q701.902 34.688 701.902 35.659 L701.902 38.422 Q701.902 39.371 702.486 39.371 Q702.559 39.371 702.7 39.349 L702.778 39.961 Q702.402 40.14 701.947 40.14 Q701.172 40.14 700.959 39.225 Z M700.796 38.624 L700.796 37.046 L700.426 37.035 Q699.516 37.035 698.954 37.38 Q698.393 37.726 698.393 38.287 Q698.393 38.686 698.674 38.961 Q698.954 39.236 699.359 39.236 Q700.049 39.236 700.796 38.624 Z M704.165 40 L704.165 33.902 L705.271 33.902 L705.271 35.047 Q706.08 33.767 707.349 33.767 Q708.573 33.767 709.017 35.047 Q709.803 33.761 711.061 33.761 Q711.869 33.761 712.313 34.236 Q712.757 34.71 712.757 35.564 L712.757 40 L711.645 40 L711.645 35.738 Q711.645 34.694 710.819 34.694 Q709.96 34.694 709.017 35.912 L709.017 40 L707.905 40 L707.905 35.738 Q707.905 34.688 707.063 34.688 Q706.226 34.688 705.271 35.912 L705.271 40 Z M714.626 37.091 L714.626 36.26 L719.613 36.26 L719.613 37.091 Z M721.556 40 L721.556 31.134 L722.662 31.134 L722.662 36.861 L725.245 33.902 L726.435 33.902 L723.97 36.749 L726.946 40 L725.531 40 L722.662 36.872 L722.662 40 Z" fill="#2B2620" fill-opacity="1"/>
<path d="M739 34 L749 34 L749 36 L739 36 L739 34 Z" fill="#49894E" fill-opacity="1"/>
<path d="M755.937 40.14 Q755.094 40.14 754.623 39.657 Q754.151 39.175 754.151 38.315 L754.151 34.733 L753.387 34.733 L753.387 33.902 L754.151 33.902 L754.151 32.796 L755.257 32.689 L755.257 33.902 L756.852 33.902 L756.852 34.733 L755.257 34.733 L755.257 38.113 Q755.257 39.309 756.291 39.309 Q756.51 39.309 756.824 39.236 L756.824 40 Q756.313 40.14 755.937 40.14 Z M762.877 39.803 Q761.765 40.14 760.974 40.14 Q759.626 40.14 758.775 39.245 Q757.925 38.349 757.925 36.923 Q757.925 35.536 758.674 34.649 Q759.424 33.761 760.592 33.761 Q761.698 33.761 762.302 34.548 Q762.905 35.334 762.905 36.782 L762.9 37.125 L759.053 37.125 Q759.295 39.298 761.181 39.298 Q761.872 39.298 762.877 38.927 Z M759.104 36.294 L761.793 36.294 Q761.793 34.593 760.524 34.593 Q759.25 34.593 759.104 36.294 Z M767.959 39.225 Q766.965 40.14 766.044 40.14 Q765.286 40.14 764.786 39.666 Q764.287 39.191 764.287 38.467 Q764.287 37.468 765.126 36.931 Q765.966 36.395 767.532 36.395 L767.796 36.395 L767.796 35.659 Q767.796 34.598 766.707 34.598 Q765.831 34.598 764.814 35.137 L764.814 34.222 Q765.932 33.767 766.909 33.767 Q767.931 33.767 768.417 34.228 Q768.902 34.688 768.902 35.659 L768.902 38.422 Q768.902 39.371 769.486 39.371 Q769.559 39.371 769.7 39.349 L769.778 39.961 Q769.402 40.14 768.947 40.14 Q768.172 40.14 767.959 39.225 Z M767.796 38.624 L767.796 37.046 L767.426 37.035 Q766.516 37.035 765.954 37.38 Q765.393 37.726 765.393 38.287 Q765.393 38.686 765.674 38.961 Q765.954 39.236 766.359 39.236 Q767.049 39.236 767.796 38.624 Z M771.165 40 L771.165 33.902 L772.271 33.902 L772.271 35.047 Q773.08 33.767 774.349 33.767 Q775.573 33.767 776.017 35.047 Q776.803 33.761 778.061 33.761 Q778.869 33.761 779.313 34.236 Q779.757 34.71 779.757 35.564 L779.757 40 L778.645 40 L778.645 35.738 Q778.645 34.694 777.819 34.694 Q776.96 34.694 776.017 35.912 L776.017 40 L774.905 40 L774.905 35.738 Q774.905 34.688 774.063 34.688 Q773.226 34.688 772.271 35.912 L772.271 40 Z M781.626 37.091 L781.626 36.26 L786.613 36.26 L786.613 37.091 Z M788.556 40 L788.556 31.134 L789.662 31.134 L789.662 40 Z" fill="#2B2620" fill-opacity="1"/>
</svg>
